<svg width="173" height="45" viewBox="0 0 173 45" fill="none" xmlns="http://www.w3.org/2000/svg">
<path fill-rule="evenodd" clip-rule="evenodd" d="M7.86841 1.00077C6.2734 2.56001 4.8707 4.26714 4.07986 6.15428C3.27265 8.03052 3.09089 10.0286 3.47827 11.9813C3.82235 13.943 4.69006 15.5447 6.03504 16.882C7.36532 18.247 9.16538 19.3697 11.0701 20.5735C12.9623 21.7908 15.0434 23.1107 16.7636 25.1208C18.497 27.1154 19.5365 29.8527 19.6522 32.4326C19.8048 34.9981 19.2168 37.689 17.8749 39.8243C16.5549 41.9812 14.6802 43.5645 12.7133 44.774C12.4417 44.9414 12.0909 44.8494 11.9292 44.5688C11.784 44.3177 11.8429 43.9984 12.0515 43.8147C13.7106 42.3529 15.1414 40.6521 15.9849 38.7486C16.8346 36.8471 17.0541 34.7809 16.7008 32.7616C16.3709 30.7443 15.4929 29.0484 14.0975 27.7268C12.7281 26.3722 10.9216 25.2907 8.99889 24.1331C7.09033 22.9591 4.98503 21.7188 3.1747 19.7692C2.28868 18.7907 1.50838 17.633 0.963949 16.3647C0.43256 15.0912 0.123161 13.7384 0.0302024 12.423C-0.146557 9.80071 0.450874 7.02447 1.86662 4.87823C3.26238 2.71794 5.19259 1.17275 7.22658 0.0666662C7.50046 -0.0820918 7.83844 0.0265388 7.98273 0.308577C8.10205 0.543609 8.04572 0.827367 7.86841 1.00077Z" fill="#FAFAFA"/>
<path fill-rule="evenodd" clip-rule="evenodd" d="M12.4109 0.0446444C13.8524 0.755186 15.2254 1.72541 16.4225 3.01837C17.0205 3.66671 17.5461 4.41423 18.0209 5.22022C18.4782 6.04111 18.8356 6.9457 19.0953 7.89242C19.325 8.8463 19.4691 9.83601 19.4688 10.8203C19.4494 11.8003 19.216 16.5533 16.6778 18.84C16.0596 19.3367 15.0567 19.1504 14.6136 18.4574C14.2892 17.9498 14.2786 17.2966 14.5384 16.7878L14.5708 16.7262C15.2521 15.3994 18.0841 10.2422 14.8514 4.55066C14.0356 3.26802 13.0064 2.08455 11.9006 0.921428L11.8967 0.917988C11.7063 0.717351 11.6961 0.381141 11.8748 0.16732C12.016 -0.00121542 12.2327 -0.0430626 12.4109 0.0446444Z" fill="#FAFAFA"/>
<path fill-rule="evenodd" clip-rule="evenodd" d="M7.28343 44.8127C5.84216 44.1021 4.46942 43.1313 3.27179 41.839C2.67435 41.1909 2.14824 40.4434 1.67346 39.6368C1.21615 38.8162 0.85875 37.9116 0.599022 36.9649C0.369262 36.0113 0.225245 35.021 0.226078 34.0368C0.244947 33.0568 0.478592 28.304 3.0165 26.0176C3.63502 25.5206 4.63758 25.7069 5.08073 26.3999C5.40511 26.9075 5.41621 27.5611 5.15593 28.0695L5.12346 28.1311C4.44251 29.4579 1.61019 34.6149 4.84348 40.3069C5.65929 41.5893 6.68794 42.7728 7.79428 43.9359L7.79761 43.9393C7.98853 44.14 7.99796 44.4762 7.81954 44.6903C7.67857 44.8588 7.46158 44.9004 7.28343 44.8127Z" fill="#FAFAFA"/>
<path fill-rule="evenodd" clip-rule="evenodd" d="M30.8048 25.6382C30.4827 25.6382 29.1288 25.6382 28.8066 25.6382C28.8066 28.0355 30.9558 30.2778 33.9862 30.2778C36.8865 30.2778 38.67 28.4798 38.9283 26.282C39.2294 23.8405 37.7465 22.2197 34.9744 21.4873L33.04 20.9995C31.1706 20.5334 30.9339 19.5337 30.9339 18.8684C30.9339 17.47 32.2666 16.5594 33.706 16.5594C35.3182 16.5594 36.5 17.5368 36.5 19.0682C36.8438 19.0682 38.1549 19.0682 38.4987 19.0682C38.4987 16.3152 36.4353 14.584 33.7279 14.584C31.2133 14.584 28.936 16.3152 28.936 18.8899C28.936 20.2225 29.4082 22.0646 32.5461 22.8858L34.4582 23.3745C35.7905 23.6846 37.1013 24.4616 36.9723 26.1043C36.8011 27.2594 35.8768 28.3465 33.9862 28.3465C32.1165 28.3465 30.8265 26.9707 30.8048 25.6382Z" fill="#FAFAFA"/>
<path fill-rule="evenodd" clip-rule="evenodd" d="M41.4404 15.8708C41.4404 16.6255 42.0637 17.1807 42.794 17.1807C43.5457 17.1807 44.1479 16.6255 44.1479 15.8708C44.1479 15.1161 43.5457 14.5615 42.794 14.5615C42.0637 14.5615 41.4404 15.1161 41.4404 15.8708ZM41.8272 30.0544H43.7605V19.6889H41.8272V30.0544Z" fill="#FAFAFA"/>
<path fill-rule="evenodd" clip-rule="evenodd" d="M49.0319 24.4616C49.0319 22.2647 50.4504 21.4432 51.8687 21.4432C53.2436 21.4432 54.0822 22.4647 54.0822 24.1956V30.0551C54.3824 30.0551 55.7152 30.0551 56.0374 30.0551V24.0624C56.0374 21.1546 54.6619 19.4678 52.1692 19.4678C51.0734 19.4678 49.6335 19.9997 49.0319 21.2431V19.6896H47.0762V30.0551H49.0319V24.4616Z" fill="#FAFAFA"/>
<path fill-rule="evenodd" clip-rule="evenodd" d="M67.2164 24.8838C67.2164 27.0808 65.4976 28.3024 63.8854 28.3024C62.0803 28.3024 60.6194 26.9922 60.6194 24.8838C60.6194 22.864 62.0803 21.4432 63.8854 21.4432C65.6688 21.4432 67.2164 22.6639 67.2164 24.8838ZM60.7911 31.5427C60.5331 31.676 59.4156 32.3197 59.1575 32.4306C60.1251 34.251 61.8439 35.2275 63.6925 35.2275C67.0016 35.2275 69.1715 33.3627 69.1715 28.4798V19.6896H67.238V21.3099C66.572 20.1115 65.1102 19.4678 63.7136 19.4678C60.9626 19.4678 58.6206 21.5983 58.6206 24.9062C58.6206 28.1906 60.9626 30.2778 63.7136 30.2778C65.1102 30.2778 66.6358 29.5896 67.238 28.3692C67.238 28.4575 67.2596 28.5242 67.2596 28.6125C67.2596 32.0532 65.8625 33.3186 63.6925 33.3186C62.5745 33.3186 61.3927 32.6966 60.7911 31.5427Z" fill="#FAFAFA"/>
<path fill-rule="evenodd" clip-rule="evenodd" d="M79.366 25.2829C79.366 27.5025 77.9477 28.3022 76.5292 28.3022C75.1545 28.3022 74.3376 27.2807 74.3376 25.5489V19.6895H72.3816V25.6825C72.3605 28.59 73.736 30.2776 76.25 30.2776C77.3456 30.2776 78.7646 29.7448 79.366 28.5014V30.0549H81.3211V19.6895H79.366V25.2829Z" fill="#FAFAFA"/>
<path fill-rule="evenodd" clip-rule="evenodd" d="M84.6411 30.0544H86.5968V14.0508H84.6411V30.0544Z" fill="#FAFAFA"/>
<path fill-rule="evenodd" clip-rule="evenodd" d="M97.9156 24.8394C97.9156 27.0367 96.3683 28.3024 94.5849 28.3024C92.7798 28.3024 91.3188 26.8816 91.3188 24.8394C91.3188 22.7748 92.7798 21.4432 94.5849 21.4432C96.1971 21.4432 97.9156 22.6198 97.9156 24.8394ZM97.9375 30.0551H99.8716V19.6896H97.9375V21.2431C97.2715 20.0665 95.8097 19.4678 94.4128 19.4678C91.6627 19.4678 89.3198 21.5541 89.3198 24.8612C89.3198 28.1465 91.6627 30.2778 94.4128 30.2778C95.8097 30.2778 97.2715 29.634 97.9375 28.4575V30.0551Z" fill="#FAFAFA"/>
<path fill-rule="evenodd" clip-rule="evenodd" d="M105.153 26.282C105.153 23.5295 105.97 21.3982 107.904 21.3982C108.312 21.3982 108.85 21.4873 109.387 21.7542L109.688 19.8673C109.408 19.6673 108.656 19.4678 107.947 19.4678C106.636 19.4678 105.669 20.2001 105.153 22.0202V19.6896H103.198V30.0551H105.153V26.282Z" fill="#FAFAFA"/>
<path fill-rule="evenodd" clip-rule="evenodd" d="M111.415 15.8708C111.415 16.6255 112.038 17.1807 112.769 17.1807C113.521 17.1807 114.123 16.6255 114.123 15.8708C114.123 15.1161 113.521 14.5615 112.769 14.5615C112.038 14.5615 111.415 15.1161 111.415 15.8708ZM111.802 30.0544H113.736V19.6889H111.802V30.0544Z" fill="#FAFAFA"/>
<path fill-rule="evenodd" clip-rule="evenodd" d="M119.701 19.6896V15.7832H117.745V19.6896H115.94V21.3982H117.745V30.0551H119.701V21.3982H121.828V19.6896H119.701Z" fill="#FAFAFA"/>
<path fill-rule="evenodd" clip-rule="evenodd" d="M127.415 35.0946L133.647 19.6895H131.563L128.554 27.1924L125.546 19.6895H123.462L127.48 29.7448L125.374 35.0946H127.415Z" fill="#FAFAFA"/>
<path fill-rule="evenodd" clip-rule="evenodd" d="M146.645 30.0551V14.7617H144.646V26.1934L137.962 14.7617H135.985V30.0551H137.984V18.5348L144.731 30.0551H146.645Z" fill="#FAFAFA"/>
<path fill-rule="evenodd" clip-rule="evenodd" d="M150.826 14.7617V30.0551H159.808V28.1241H152.824V23.5078H158.734V21.5765H152.824V16.6927H159.593V14.7617H150.826Z" fill="#FAFAFA"/>
<path fill-rule="evenodd" clip-rule="evenodd" d="M161.761 14.7617V16.7153H166.253V30.0551H168.272V16.7153H172.764V14.7617H161.761Z" fill="#FAFAFA"/>
</svg>
