<?xml version="1.0" encoding="UTF-8"?>
<svg width="476px" height="120px" viewBox="0 0 476 120" version="1.1" xmlns="http://www.w3.org/2000/svg" xmlns:xlink="http://www.w3.org/1999/xlink">
    <!-- Generator: Sketch 57 (83077) - https://sketch.com -->
    <title>Logo set (horizontal) - black - large</title>
    <desc>Created with Sketch.</desc>
    <g id="Brand-&amp;-MD-Theme-Setup" stroke="none" stroke-width="1" fill="none" fill-rule="evenodd">
        <g id="Brand-&amp;-UI-Preview" transform="translate(-248.000000, -385.000000)" fill="#0A0B09">
            <g id="Group-3" transform="translate(199.000000, 385.000000)">
                <g id="Logo-set-(horizontal)---black---large" transform="translate(49.000000, 0.000000)">
                    <path d="M21.6732553,2.66873196 C17.2798795,6.82669374 13.4161852,11.3790504 11.2378412,16.4114071 C9.01440175,21.4147192 8.51376481,26.7428721 9.58077118,31.9502606 C10.5285419,37.1813434 12.9186056,41.4524262 16.6233189,45.0187957 C20.2875228,48.6585409 25.2457393,51.6524262 30.4921088,54.8626173 C35.7040833,58.108732 41.4365674,61.6284772 46.1746565,66.988732 C50.9494336,72.3077129 53.8126183,79.6070759 54.1313444,86.4868211 C54.5517266,93.3283498 52.9321088,100.503891 49.235803,106.198159 C45.5998795,111.949751 40.4360578,116.171917 35.0184782,119.397394 C34.2701979,119.843764 33.3040833,119.598413 32.8584782,118.850133 C32.458733,118.180579 32.6207712,117.329114 33.1955482,116.839178 C37.7654846,112.941089 41.7063763,108.405547 44.0299432,103.329624 C46.3703253,98.2590504 46.9749113,92.7489867 46.0019177,87.3642734 C45.0931279,81.9849103 42.6747839,77.4623625 38.8309623,73.9380313 C35.0589877,70.325802 30.0831916,67.4419804 24.7871406,64.3548466 C19.5300705,61.224146 13.7310896,57.9168848 8.74459283,52.7179039 C6.30408328,50.1084772 4.15478392,47.0213434 2.65516608,43.6391778 C1.19147181,40.2432543 0.339242515,36.6356109 0.0831915596,33.128095 C-0.403687421,26.1352288 1.24191767,18.7319167 5.14153551,13.0086046 C8.9861215,7.24784024 14.3028094,3.12733069 19.9053572,0.177776547 C20.6597521,-0.218911351 21.5907075,0.0707701774 21.9881597,0.822872088 C22.3168221,1.44962368 22.1616629,2.20631158 21.6732553,2.66873196" id="Fill-1"></path>
                    <path d="M34.1853572,0.119687375 C38.1560578,2.01446444 41.9379686,4.60172559 45.2352935,8.04962368 C46.8824272,9.77854088 48.3300705,11.7719167 49.6378412,13.921216 C50.8974591,16.1102606 51.8819177,18.5224899 52.5973317,21.0470759 C53.2301979,23.5907702 53.6268858,26.2300058 53.6261226,28.8547192 C53.5726183,31.4679676 52.9298158,44.1428721 45.9384782,50.2407065 C44.2355482,51.5652925 41.4732553,51.0684772 40.2526183,49.2203243 C39.3591151,47.8666937 39.3300705,46.1247829 40.0454846,44.768095 L40.1349113,44.6037638 C42.0113444,41.0656746 49.8121088,27.3122988 40.9076502,12.1357383 C38.6605164,8.71535616 35.8256119,5.5594326 32.7797521,2.45777655 L32.7690514,2.44860457 C32.2447202,1.91357273 32.21644,1.01701222 32.7086693,0.446821133 C33.0977139,-0.00260561876 33.6946565,-0.114197975 34.1853572,0.119687375" id="Fill-2"></path>
                    <path d="M20.0620451,119.500579 C16.0921088,117.605802 12.3109623,115.017012 9.01210876,111.570643 C7.36650366,109.84249 5.91733169,107.849114 4.60956099,105.698286 C3.34994315,103.510006 2.36548455,101.097777 1.65007054,98.5731906 C1.0172043,96.0302606 0.6205164,93.3894963 0.622799506,90.7647829 C0.674783916,88.1515345 1.3183508,75.4773944 8.30892404,69.3803243 C10.0126183,68.054974 12.774147,68.5517893 13.9947839,70.3999422 C14.8882871,71.7535727 14.9188603,73.4962479 14.2019177,74.8521715 L14.1124909,75.0165027 C12.2368221,78.5545918 4.43529347,92.306439 13.3412807,107.485292 C15.5884145,110.90491 18.4217903,114.060834 21.4691788,117.16249 L21.4783508,117.171662 C22.0042107,117.706694 22.0301979,118.603254 21.538733,119.17421 C21.1504527,119.623636 20.5527457,119.734464 20.0620451,119.500579" id="Fill-3"></path>
                    <path d="M84.8505801,68.3675855 C83.9631916,68.3675855 80.2340196,68.3675855 79.346631,68.3675855 C79.346631,74.7604517 85.2663763,80.7398148 93.6136374,80.7398148 C101.602427,80.7398148 106.514784,75.9451651 107.226376,70.0842734 C108.055676,63.5737001 103.97109,59.2514071 96.3354209,57.2985409 L91.007268,55.9976492 C85.8579686,54.7548466 85.2059941,52.0888593 85.2059941,50.3148466 C85.2059941,46.5856746 88.8770769,44.1573944 92.8416629,44.1573944 C97.2824272,44.1573944 100.537714,46.7637638 100.537714,50.8475855 C101.48472,50.8475855 105.096185,50.8475855 106.043192,50.8475855 C106.043192,43.5061842 100.359625,38.8896237 92.9020451,38.8896237 C85.9756756,38.8896237 79.7028094,43.5061842 79.7028094,50.3721715 C79.7028094,53.9255472 81.0037011,58.8379039 89.6467584,61.0277129 L94.9137648,62.3308976 C98.5833189,63.1579039 102.19402,65.2300058 101.838606,69.610388 C101.367013,72.6906428 98.821026,75.5897511 93.6136374,75.5897511 C88.4635737,75.5897511 84.9101979,71.9209613 84.8505801,68.3675855" id="Fill-4"></path>
                    <path d="M114.146631,42.3229995 C114.146631,44.3354836 115.863319,45.8159931 117.875039,45.8159931 C119.945612,45.8159931 121.604211,44.3354836 121.604211,42.3229995 C121.604211,40.3105154 119.945612,38.8315345 117.875039,38.8315345 C115.863319,38.8315345 114.146631,40.3105154 114.146631,42.3229995 Z M115.212109,80.1459294 L120.537204,80.1459294 L120.537204,52.5046555 L115.212109,52.5046555 L115.212109,80.1459294 Z" id="Fill-5"></path>
                    <path d="M135.057204,65.2300058 C135.057204,59.3714071 138.964465,57.1808339 142.870962,57.1808339 C146.658223,57.1808339 148.968032,59.9049103 148.968032,64.5207065 L148.968032,80.1459294 C149.795039,80.1459294 153.466121,80.1459294 154.35351,80.1459294 L154.35351,64.1652925 C154.35351,56.4111523 150.56472,51.9130632 143.698733,51.9130632 C140.680389,51.9130632 136.714274,53.3316619 135.057204,56.6473307 L135.057204,52.5046555 L129.670198,52.5046555 L129.670198,80.1459294 L135.057204,80.1459294 L135.057204,65.2300058" id="Fill-6"></path>
                    <path d="M185.144593,66.3558657 C185.144593,72.2144644 180.410325,75.4720441 175.969561,75.4720441 C170.997586,75.4720441 166.973383,71.9782861 166.973383,66.3558657 C166.973383,60.9696237 170.997586,57.1808339 175.969561,57.1808339 C180.881918,57.1808339 185.144593,60.4361205 185.144593,66.3558657 Z M167.446504,84.1128084 C166.735676,84.4682224 163.657714,86.1849103 162.946886,86.4807065 C165.612109,91.334974 170.346376,93.9382861 175.438351,93.9382861 C184.553,93.9382861 190.530071,88.9663116 190.530071,75.9451651 L190.530071,52.5046555 L185.204211,52.5046555 L185.204211,56.8254199 C183.369816,53.6297511 179.343319,51.9130632 175.49644,51.9130632 C167.91886,51.9130632 161.467905,57.5943371 161.467905,66.4154836 C161.467905,75.1739549 167.91886,80.7398148 175.49644,80.7398148 C179.343319,80.7398148 183.545612,78.9046555 185.204211,75.6501332 C185.204211,75.8855472 185.263829,76.0636364 185.263829,76.2990504 C185.263829,85.4740823 181.415421,88.8486046 175.438351,88.8486046 C172.35886,88.8486046 169.103574,87.1900058 167.446504,84.1128084 L167.446504,84.1128084 Z" id="Fill-7"></path>
                    <path d="M218.610835,67.4205791 C218.610835,73.33956 214.704338,75.4720441 210.797077,75.4720441 C207.01058,75.4720441 204.760389,72.7479676 204.760389,68.1298785 L204.760389,52.5046555 L199.372618,52.5046555 L199.372618,68.4860568 C199.314529,76.2394326 203.103319,80.7398148 210.02816,80.7398148 C213.045739,80.7398148 216.954529,79.318923 218.610835,76.0032543 L218.610835,80.1459294 L223.996313,80.1459294 L223.996313,52.5046555 L218.610835,52.5046555 L218.610835,67.4205791" id="Fill-8"></path>
                    <polygon id="Fill-9" points="233.141536 80.1459294 238.528542 80.1459294 238.528542 37.4694963 233.141536 37.4694963"></polygon>
                    <path d="M269.704848,66.2373944 C269.704848,72.0967574 265.442937,75.4720441 260.53058,75.4720441 C255.558606,75.4720441 251.534402,71.6832543 251.534402,66.2373944 C251.534402,60.7319167 255.558606,57.1808339 260.53058,57.1808339 C264.971344,57.1808339 269.704848,60.3184135 269.704848,66.2373944 Z M269.76523,80.1459294 L275.092618,80.1459294 L275.092618,52.5046555 L269.76523,52.5046555 L269.76523,56.6473307 C267.930835,53.5097511 263.904338,51.9130632 260.056695,51.9130632 C252.481408,51.9130632 246.02816,57.4766301 246.02816,66.2954836 C246.02816,75.0562479 252.481408,80.7398148 260.056695,80.7398148 C263.904338,80.7398148 267.930835,79.0231269 269.76523,75.8855472 L269.76523,80.1459294 L269.76523,80.1459294 Z" id="Fill-10"></path>
                    <path d="M289.640899,70.0842734 C289.640899,62.7444008 291.888797,57.0608339 297.21695,57.0608339 C298.342045,57.0608339 299.822555,57.2985409 301.301536,58.0101332 L302.130835,52.9785409 C301.359625,52.4450377 299.289051,51.9130632 297.334657,51.9130632 C293.725485,51.9130632 291.06179,53.8659294 289.640899,58.7194326 L289.640899,52.5046555 L284.255421,52.5046555 L284.255421,80.1459294 L289.640899,80.1459294 L289.640899,70.0842734" id="Fill-11"></path>
                    <path d="M306.888797,42.3229995 C306.888797,44.3354836 308.605485,45.8159931 310.619497,45.8159931 C312.690071,45.8159931 314.348669,44.3354836 314.348669,42.3229995 C314.348669,40.3105154 312.690071,38.8315345 310.619497,38.8315345 C308.605485,38.8315345 306.888797,40.3105154 306.888797,42.3229995 Z M307.95351,80.1459294 L313.281663,80.1459294 L313.281663,52.5046555 L307.95351,52.5046555 L307.95351,80.1459294 Z" id="Fill-12"></path>
                    <polyline id="Fill-13" points="329.711727 52.5046555 329.711727 42.0875855 324.326249 42.0875855 324.326249 52.5046555 319.354274 52.5046555 319.354274 57.0608339 324.326249 57.0608339 324.326249 80.1459294 329.711727 80.1459294 329.711727 57.0608339 335.57109 57.0608339 335.57109 52.5046555 329.711727 52.5046555"></polyline>
                    <polyline id="Fill-14" points="350.960899 93.5851651 368.127013 52.5046555 362.385357 52.5046555 354.098478 72.5125536 345.813128 52.5046555 340.071472 52.5046555 351.138223 79.318923 345.337714 93.5851651 350.960899 93.5851651"></polyline>
                    <polyline id="Fill-15" points="403.927523 80.1459294 403.927523 39.363509 398.422045 39.363509 398.422045 69.848095 380.013128 39.363509 374.567268 39.363509 374.567268 80.1459294 380.072746 80.1459294 380.072746 49.4251651 398.657459 80.1459294 403.927523 80.1459294"></polyline>
                    <polyline id="Fill-16" points="415.443701 39.363509 415.443701 80.1459294 440.185867 80.1459294 440.185867 74.9966301 420.949179 74.9966301 420.949179 62.6863116 437.226376 62.6863116 437.226376 57.5362479 420.949179 57.5362479 420.949179 44.5128084 439.594274 44.5128084 439.594274 39.363509 415.443701 39.363509"></polyline>
                    <polyline id="Fill-17" points="445.56523 39.363509 445.56523 44.5731906 457.936695 44.5731906 457.936695 80.1459294 463.500262 80.1459294 463.500262 44.5731906 475.872491 44.5731906 475.872491 39.363509 445.56523 39.363509"></polyline>
                </g>
            </g>
        </g>
    </g>
</svg>