<svg width="30" height="30" viewBox="0 0 30 30" fill="none" xmlns="http://www.w3.org/2000/svg">
<path fill-rule="evenodd" clip-rule="evenodd" d="M15.008 7.50401C19.1485 7.50401 22.512 10.8674 22.512 15.008C22.512 19.1486 19.1486 22.512 15.008 22.512C10.8674 22.512 7.50401 19.1486 7.50401 15.008C7.50401 10.8674 10.8674 7.50401 15.008 7.50401ZM13.936 1.072C13.936 0.479708 14.4157 0 15.008 0C15.6003 0 16.08 0.479708 16.08 1.072V4.28801C16.08 4.8803 15.6003 5.36001 15.008 5.36001C14.4157 5.36001 13.936 4.8803 13.936 4.28801V1.072ZM24.0959 4.39922C24.514 3.97979 25.1947 3.97979 25.6128 4.39922C26.0308 4.81732 26.0308 5.49668 25.6128 5.91478L23.3388 8.18876C22.9207 8.60685 22.2413 8.60685 21.8232 8.18876C21.4038 7.77066 21.4038 7.0913 21.8232 6.6732L24.0959 4.39922ZM1.072 16.0801C0.479708 16.0801 0 15.6004 0 15.0081C0 14.4158 0.479708 13.9361 1.072 13.9361H4.28801C4.8803 13.9361 5.36001 14.4158 5.36001 15.0081C5.36001 15.6004 4.8803 16.0801 4.28801 16.0801H1.072ZM4.38718 5.91478C3.96908 5.49668 3.96908 4.81732 4.38718 4.39922C4.80528 3.97979 5.48597 3.97979 5.90407 4.39922L8.17805 6.6732C8.59615 7.0913 8.59615 7.77066 8.17805 8.18876C7.75862 8.60685 7.0806 8.60685 6.66116 8.18876L4.38718 5.91478ZM13.9361 25.712C13.9361 25.1197 14.4158 24.64 15.0081 24.64C15.6004 24.64 16.0801 25.1197 16.0801 25.712V28.928C16.0801 29.5203 15.6004 30 15.0081 30C14.4158 30 13.9361 29.5203 13.9361 28.928V25.712ZM6.6732 21.8233C7.0913 21.4038 7.77066 21.4038 8.18876 21.8233C8.60685 22.2414 8.60685 22.9207 8.18876 23.3388L5.91478 25.6128C5.49668 26.0309 4.81732 26.0309 4.39922 25.6128C3.97979 25.1947 3.97979 24.514 4.39922 24.0959L6.6732 21.8233ZM25.712 16.0801C25.1197 16.0801 24.64 15.6004 24.64 15.0081C24.64 14.4158 25.1197 13.9361 25.712 13.9361H28.928C29.5203 13.9361 30 14.4158 30 15.0081C30 15.6004 29.5203 16.0801 28.928 16.0801H25.712ZM21.8112 23.3388C21.3931 22.9207 21.3931 22.2414 21.8112 21.8233C22.2307 21.4038 22.9087 21.4038 23.3268 21.8233L25.6021 24.0959C26.0202 24.514 26.0202 25.1947 25.6021 25.6128C25.184 26.0309 24.5033 26.0309 24.0852 25.6128L21.8112 23.3388Z" fill="#FAFAFA"/>
</svg>
