<svg xmlns="http://www.w3.org/2000/svg" style="height: 0; width: 0; position: absolute; visibility: hidden">
    <symbol id="marketplace-icon" width="16" height="18" viewBox="0 0 16 22">
        <path d="M7.71429 10.2857C6.57764 10.2857 5.48756 9.83418 4.68383 9.03046C3.8801 8.22673 3.42857 7.13664 3.42857 6H5.14286C5.14286 6.68199 5.41377 7.33604 5.89601 7.81827C6.37825 8.30051 7.0323 8.57143 7.71429 8.57143C8.39627 8.57143 9.05032 8.30051 9.53256 7.81827C10.0148 7.33604 10.2857 6.68199 10.2857 6H12C12 7.13664 11.5485 8.22673 10.7447 9.03046C9.94102 9.83418 8.85093 10.2857 7.71429 10.2857ZM7.71429 1.71429C8.39627 1.71429 9.05032 1.9852 9.53256 2.46744C10.0148 2.94968 10.2857 3.60373 10.2857 4.28571H5.14286C5.14286 3.60373 5.41377 2.94968 5.89601 2.46744C6.37825 1.9852 7.0323 1.71429 7.71429 1.71429ZM13.7143 4.28571H12C12 3.72291 11.8891 3.16561 11.6738 2.64564C11.4584 2.12568 11.1427 1.65322 10.7447 1.25526C10.3468 0.857291 9.87432 0.541608 9.35436 0.326231C8.83439 0.110853 8.27709 0 7.71429 0C6.57764 0 5.48756 0.451529 4.68383 1.25526C3.8801 2.05898 3.42857 3.14907 3.42857 4.28571H1.71429C0.762857 4.28571 0 5.04857 0 6V16.2857C0 16.7404 0.180612 17.1764 0.502103 17.4979C0.823593 17.8194 1.25963 18 1.71429 18H13.7143C14.1689 18 14.605 17.8194 14.9265 17.4979C15.248 17.1764 15.4286 16.7404 15.4286 16.2857V6C15.4286 5.04857 14.6571 4.28571 13.7143 4.28571Z" fill="#4086FF"/>
    </symbol>
    <symbol id="platform-icon" width="16" height="16" viewBox="0 0 16 16">
        <path d="M15.3463 6.16499C15.132 5.9554 14.8769 5.78874 14.5955 5.67461C14.3141 5.56048 14.0121 5.50114 13.7068 5.5H2.29313C1.68495 5.5 1.10169 5.73284 0.671645 6.14728C0.241602 6.56173 5.94983e-06 7.12385 5.94983e-06 7.70997V13.7949C-0.000681451 14.085 0.0582007 14.3725 0.173261 14.6406C0.288322 14.9088 0.457288 15.1523 0.670429 15.3573C0.88357 15.5622 1.13668 15.7245 1.41517 15.8348C1.69366 15.9451 1.99204 16.0012 2.29313 15.9998H4.01037V13.7949C4.01174 13.3564 4.1931 12.9362 4.51485 12.6261C4.8366 12.316 5.2726 12.1412 5.72762 12.1399H10.3035C10.7589 12.1399 11.1957 12.3143 11.5178 12.6246C11.8398 12.935 12.0207 13.356 12.0207 13.7949V15.9998H13.7068C14.0079 16.0012 14.3063 15.9451 14.5848 15.8348C14.8633 15.7245 15.1164 15.5622 15.3295 15.3573C15.5427 15.1523 15.7116 14.9088 15.8267 14.6406C15.9418 14.3725 16.0007 14.085 16 13.7949V7.72497C16.0034 7.14236 15.7686 6.58189 15.3463 6.16499ZM6.22567 9.62994C6.15587 9.76026 6.03538 9.85865 5.89053 9.90362C5.74569 9.94859 5.58826 9.93648 5.45265 9.86994C5.17656 9.7393 4.87307 9.67137 4.56549 9.67137C4.25792 9.67137 3.95443 9.7393 3.67834 9.86994C3.61021 9.90277 3.53603 9.92234 3.46005 9.92755C3.38407 9.93275 3.30777 9.92348 3.23551 9.90027C3.16324 9.87705 3.09643 9.84035 3.03889 9.79225C2.98134 9.74415 2.93419 9.6856 2.90013 9.61994C2.86606 9.55428 2.84575 9.4828 2.84035 9.40957C2.83495 9.33635 2.84457 9.26281 2.86866 9.19317C2.89274 9.12353 2.93083 9.05914 2.98074 9.00368C3.03065 8.94822 3.0914 8.90278 3.15953 8.86995C3.59402 8.65895 4.07377 8.54904 4.56031 8.54904C5.04684 8.54904 5.52659 8.65895 5.96108 8.86995C6.03139 8.90186 6.09427 8.94715 6.14594 9.00311C6.1976 9.05906 6.23698 9.12451 6.2617 9.19552C6.28642 9.26652 6.29598 9.34162 6.28978 9.41628C6.28359 9.49094 6.26178 9.56362 6.22567 9.62994ZM13.0947 9.62994C13.0249 9.76026 12.9044 9.85865 12.7595 9.90362C12.6147 9.94859 12.4572 9.93648 12.3216 9.86994C12.0455 9.7393 11.7421 9.67137 11.4345 9.67137C11.1269 9.67137 10.8234 9.7393 10.5473 9.86994C10.4792 9.90277 10.405 9.92234 10.329 9.92755C10.2531 9.93275 10.1768 9.92348 10.1045 9.90027C10.0322 9.87705 9.96542 9.84035 9.90787 9.79225C9.85033 9.74415 9.80318 9.6856 9.76911 9.61994C9.73505 9.55428 9.71473 9.4828 9.70933 9.40957C9.70393 9.33635 9.71355 9.26281 9.73764 9.19317C9.76173 9.12353 9.79981 9.05914 9.84972 9.00368C9.89963 8.94822 9.96038 8.90278 10.0285 8.86995C10.463 8.65895 10.9428 8.54904 11.4293 8.54904C11.9158 8.54904 12.3956 8.65895 12.8301 8.86995C12.9009 8.9013 12.9643 8.94629 13.0164 9.00216C13.0685 9.05803 13.1081 9.12359 13.1329 9.1948C13.1577 9.266 13.1671 9.34134 13.1605 9.41618C13.1539 9.49102 13.1315 9.56377 13.0947 9.62994Z" fill="#4086FF"/>
        <path d="M10.2875 13.2402H5.71162C5.55889 13.2402 5.41241 13.2987 5.30441 13.4028C5.19641 13.5069 5.13574 13.648 5.13574 13.7952V16.0002H10.8426V13.7952C10.8427 13.6514 10.7849 13.5132 10.6813 13.4097C10.5778 13.3062 10.4366 13.2454 10.2875 13.2402Z" fill="#4086FF"/>
        <path d="M13.7069 4.41494C13.8811 4.41173 14.055 4.42682 14.2257 4.45994C14.103 3.98002 13.8173 3.55344 13.414 3.24811C13.0106 2.94277 12.5129 2.77622 12.0001 2.77496V0.549992C12.0001 0.404125 11.9399 0.264232 11.8329 0.161089C11.7259 0.0579455 11.5807 0 11.4294 0C11.278 0 11.1329 0.0579455 11.0258 0.161089C10.9188 0.264232 10.8587 0.404125 10.8587 0.549992V2.75996H5.15184V0.549992C5.15184 0.477766 5.13708 0.406247 5.1084 0.339519C5.07972 0.272791 5.03768 0.21216 4.98469 0.161089C4.93169 0.110017 4.86878 0.0695053 4.79954 0.0418656C4.7303 0.0142259 4.65609 0 4.58115 0C4.50621 0 4.432 0.0142259 4.36276 0.0418656C4.29352 0.0695053 4.23061 0.110017 4.17762 0.161089C4.12462 0.21216 4.08259 0.272791 4.05391 0.339519C4.02523 0.406247 4.01047 0.477766 4.01047 0.549992V2.75996C3.49581 2.75899 2.99572 2.92452 2.59029 3.23003C2.18486 3.53554 1.89756 3.96335 1.77441 4.44494C1.94514 4.41182 2.1191 4.39673 2.29322 4.39994L13.7069 4.41494Z" fill="#4086FF"/>
    </symbol>
    <symbol id="lightning-icon" width="9" height="16" viewBox="0 0 9 16">
        <path d="M8.74181 6.42546H5.63831C5.56158 6.42407 5.49053 6.39075 5.44079 6.33382C5.39248 6.2755 5.37116 6.20052 5.38395 6.12693L6.41276 0.300667H6.41418C6.43692 0.181255 6.37013 0.0618432 6.25503 0.0174113C6.1385 -0.0270206 6.00635 0.0160226 5.94098 0.118773L0.0393532 9.18715C-0.0103831 9.2649 -0.0132243 9.36349 0.032248 9.44402C0.0777204 9.52456 0.164403 9.57454 0.258189 9.57454H3.36168C3.43842 9.57593 3.50947 9.60925 3.55921 9.66618C3.60752 9.7245 3.62884 9.79948 3.61605 9.87307L2.58582 15.6993C2.56308 15.8187 2.62987 15.9382 2.74497 15.9826C2.86149 16.027 2.99365 15.984 3.05902 15.8812L8.96065 6.81285C9.01038 6.7351 9.01322 6.63651 8.96775 6.55598C8.92228 6.47544 8.83559 6.42546 8.74181 6.42546Z" fill="#FFC000"/>
    </symbol>
    <symbol id="staking-icon" width="18" height="18" viewBox="0 0 18 24">
        <path d="M12.8571 11.1429H14.5714V13.7143H17.1429V15.4286H14.5714V18H12.8571V15.4286H10.2857V13.7143H12.8571V11.1429ZM8.14286 0L16.2857 4.28571V6H0V4.28571L8.14286 0ZM12 7.71429H14.5714V9.49714L13.7143 9.42857C13.1143 9.42857 12.54 9.53143 12 9.72V7.71429ZM0 18V15.4286H8.64C8.80286 16.4057 9.24857 17.2886 9.88286 18H0ZM6.85714 7.71429H9.42857V11.7257C9.03429 12.3171 8.76 12.9857 8.64 13.7143H6.85714V7.71429ZM1.71429 7.71429H4.28571V13.7143H1.71429V7.71429Z" fill="#4086FF"/>
    </symbol>
    <symbol id="sidebar-icon-left" width="20" height="17" viewBox="0 0 20 17" fill="none">
        <rect x="1" y="1" width="18" height="15" rx="3" stroke="#D6D6D6" stroke-width="2"/>
        <rect x="4.75" y="4.75" width="1.5" height="7.5" rx="0.75" stroke="#D6D6D6" stroke-width="1.5"/> 
    </symbol>
    <symbol id="arrow-icon" width="35px" height="10px" viewBox="0 0 35 10">
        <path d="M18.3053 6.65984L15.2413 9.76508C15.1677 9.83952 15.0801 9.8986 14.9836 9.93892C14.8871 9.97924 14.7836 10 14.6791 10C14.5746 10 14.4711 9.97924 14.3746 9.93892C14.2781 9.8986 14.1906 9.83952 14.117 9.76508C14.0428 9.69125 13.9839 9.60341 13.9437 9.50664C13.9035 9.40986 13.8828 9.30606 13.8828 9.20121C13.8828 9.09637 13.9035 8.99257 13.9437 8.89579C13.9839 8.79901 14.0428 8.71117 14.117 8.63735L16.9356 5.79418H0.791754C0.581768 5.79418 0.380381 5.71051 0.231897 5.56157C0.083416 5.41263 0 5.21063 0 5C0 4.78937 0.083416 4.58737 0.231897 4.43843C0.380381 4.28949 0.581768 4.20582 0.791754 4.20582H16.9831L14.117 1.33089C13.9766 1.18319 13.8983 0.986959 13.8983 0.782902C13.8983 0.578844 13.9766 0.382616 14.117 0.234917C14.1906 0.16048 14.2781 0.101397 14.3746 0.0610778C14.4711 0.0207583 14.5746 0 14.6791 0C14.7836 0 14.8871 0.0207583 14.9836 0.0610778C15.0801 0.101397 15.1677 0.16048 15.2413 0.234917L18.3053 3.29251C18.7502 3.73924 19 4.3448 19 4.97617C19 5.60755 18.7502 6.21311 18.3053 6.65984Z"/>
    </symbol>
    <symbol id="short-arrow-icon" width="10px" height="6px" viewBox="0 0 10 6" fill="none">
        <path d="M1 1L5 5L9 1" stroke="#666666" stroke-width="1.5" stroke-linecap="round" stroke-linejoin="round"/>
    </symbol>
    <symbol id="close-icon" height="15px" width="15px" viewBox="0 0 20 20">
        <line x1="0" y1="00" x2="20" y2="20" stroke-linecap="round" stroke="#666666"/>
        <line x1="0" y1="20" x2="20" y2="0" stroke-linecap="round" stroke="#666666"/>
    </symbol>
    <symbol id="walt-icon" width="16" height="18" viewBox="0 0 16 22" fill="none">
        <path d="M0 0V2.25H15.4286V0H0ZM0 11.25H4.40816V18H11.0204V11.25H15.4286L7.71429 3.375L0 11.25Z" fill="#4086FF"/>
    </symbol>
    <symbol id="bridge-icon" width="26" height="11.5" viewBox="0 0 38 7" fill="none">
        <path d="M6.273 7.319V4.087a10.887 10.887 0 0 1 -2.091 -1.254v4.485zM4.181 11.5H2.091v-2.091H0V7.317h2.091V0h2.091v1.495C6.064 3.137 8.646 4.181 11.5 4.181s5.437 -1.044 7.319 -2.686V0h2.091v7.319H23v2.091h-2.091V11.5h-2.091v-2.091H4.181zm12.546 -7.412v3.231h2.091v-4.485a10.887 10.887 0 0 1 -2.091 1.254m-1.045 3.231V4.516a12.497 12.497 0 0 1 -2.091 0.544v2.258zm-3.137 0V5.185L11.5 5.227l-1.045 -0.042v2.134zm-3.136 0V5.06a12.497 12.497 0 0 1 -2.091 -0.543v2.801z" fill="#4086FF"/>
    </symbol>
    <symbol id="airdrop-icon" width="13.304" height="18" viewBox="0 0 10 22" fill="none" >
        <path d="M6.981 6.517v5.276h1.07l1.569 -5.316c-0.022 -0.665 -0.605 -1.201 -1.319 -1.201 -0.728 0 -1.319 0.557 -1.319 1.241" fill="#4086FF"/><path d="M6.323 6.517c0 -0.684 -0.592 -1.241 -1.32 -1.241 -0.713 0 -1.296 0.535 -1.319 1.201l1.57 5.316H6.323z" fill="#4086FF"/><path d="M3.353 5.49a2.011 2.011 0 0 1 1.65 -0.835c0.689 0 1.294 0.333 1.65 0.835a2.011 2.011 0 0 1 1.65 -0.835c0.688 0 1.294 0.333 1.649 0.835a2.003 2.003 0 0 1 1.473 -0.826c-0.582 -2.003 -2.529 -3.422 -4.771 -3.422V0.621c2.622 0 4.886 1.714 5.462 4.101 0.274 0.07 0.524 0.191 0.737 0.355C12.426 2.212 9.812 0 6.653 0S0.879 2.212 0.452 5.076a2.035 2.035 0 0 1 1.252 -0.421c0.688 0 1.294 0.333 1.649 0.835m2.598 -4.829 0.082 0.616a5.478 5.478 0 0 0 -0.618 0.11l-0.164 -0.601c0.227 -0.055 0.463 -0.097 0.7 -0.125" fill="#4086FF"/><path d="M6.981 12.413h-0.66v1.863h0.66z" fill="#4086FF"/><path d="M3.036 6.6a0.313 0.313 0 0 1 -0.013 -0.084c0 -0.684 -0.592 -1.241 -1.319 -1.241 -0.703 0 -1.274 0.521 -1.312 1.174l3.156 5.344h1.021z" fill="#4086FF"/><path d="M11.601 5.275c-0.728 0 -1.319 0.557 -1.319 1.241a0.313 0.313 0 0 1 -0.012 0.084l-1.534 5.192h1.021l3.156 -5.344c-0.038 -0.653 -0.609 -1.174 -1.312 -1.174" fill="#4086FF"/><path d="M7.642 14.586c0 0.172 -0.149 0.311 -0.33 0.311H5.992c-0.182 0 -0.33 -0.139 -0.33 -0.311v-2.172H3.683V18h5.938v-5.586h-1.98z" fill="#4086FF"/>
    </symbol>
    <symbol id="techs-icon" width="18" height="18" viewBox="0 0 18 22" fill="none">
        <path fill-rule="evenodd" clip-rule="evenodd" d="M6.72243 11.2523C7.24168 11.7735 7.92493 12.0979 8.65576 12.1701C9.38658 12.2424 10.1198 12.0581 10.7304 11.6486C11.341 11.2391 11.7912 10.6298 12.0044 9.92443C12.2176 9.21909 12.1805 8.46137 11.8995 7.78039C11.6184 7.09942 11.1108 6.53732 10.4632 6.18987C9.81553 5.84243 9.06787 5.73114 8.34763 5.87496C7.62738 6.01878 6.9791 6.40882 6.51325 6.97862C6.0474 7.54842 5.79281 8.26271 5.79286 8.9998C5.79232 9.4182 5.87417 9.83258 6.0337 10.2191C6.19323 10.6057 6.42729 10.9568 6.72243 11.2523ZM13.6271 11.453C13.664 11.453 13.7006 11.4603 13.7347 11.4745C13.7688 11.4887 13.7998 11.5095 13.826 11.5357C13.8521 11.562 13.8728 11.5931 13.8869 11.6274C13.901 11.6616 13.9083 11.6983 13.9083 11.7354V14.5357C14.1665 14.6043 14.3911 14.7649 14.5401 14.9875C14.689 15.2101 14.7522 15.4795 14.7178 15.7454C14.6833 16.0113 14.5536 16.2556 14.3529 16.4325C14.1522 16.6095 13.8941 16.7071 13.627 16.7071C13.3598 16.7071 13.1018 16.6095 12.901 16.4325C12.7003 16.2556 12.5706 16.0113 12.5362 15.7454C12.5017 15.4795 12.5649 15.2101 12.7138 14.9875C12.8628 14.7649 13.0874 14.6043 13.3457 14.5357V12.0185H11.1845C11.4179 11.8665 11.6235 11.6755 11.7925 11.4538L13.6271 11.453ZM14.7216 10.1916H12.5105C12.4233 10.3944 12.3334 10.5827 12.2407 10.7562H14.5796L15.6224 12.1945C15.6661 12.2551 15.7321 12.2957 15.8056 12.3075C15.8792 12.3193 15.9545 12.3012 16.0148 12.2573C16.0751 12.2134 16.1156 12.1473 16.1274 12.0734C16.1391 11.9996 16.1211 11.9241 16.0774 11.8635L14.9588 10.3204C14.9333 10.2808 14.8983 10.2483 14.857 10.2258C14.8157 10.2033 14.7694 10.1915 14.7224 10.1916H14.7216ZM11.7925 6.5456C11.6235 6.32393 11.4178 6.13301 11.1845 5.98113H13.3457V3.4629C13.0874 3.39432 12.8628 3.23374 12.7138 3.01114C12.5649 2.78853 12.5017 2.51912 12.5362 2.2532C12.5706 1.98729 12.7003 1.74304 12.901 1.56608C13.1018 1.38911 13.3598 1.29151 13.627 1.29151C13.8941 1.29151 14.1522 1.38911 14.3529 1.56608C14.5536 1.74304 14.6833 1.98729 14.7178 2.2532C14.7522 2.51912 14.689 2.78853 14.5401 3.01114C14.3911 3.23374 14.1665 3.39432 13.9083 3.4629V6.26337C13.9083 6.33822 13.8786 6.41001 13.8259 6.46294C13.7732 6.51587 13.7016 6.5456 13.6271 6.5456H11.7925ZM12.5105 7.80723H14.7216C14.7686 7.80724 14.8149 7.79544 14.8562 7.77289C14.8975 7.75035 14.9325 7.71778 14.958 7.67815L16.0766 6.1353C16.1203 6.07474 16.1383 5.99923 16.1265 5.92539C16.1147 5.85155 16.0742 5.78542 16.0139 5.74155C15.9536 5.69768 15.8783 5.67967 15.8048 5.69147C15.7312 5.70327 15.6653 5.74393 15.6216 5.80448L14.5796 7.24276H12.2407C12.3331 7.41593 12.423 7.60408 12.5105 7.80723ZM12.6929 8.71757C12.7125 8.90521 12.7125 9.09439 12.6929 9.28203H15.8366C15.9049 9.54129 16.0649 9.76673 16.2867 9.91626C16.5084 10.0658 16.7769 10.1292 17.0418 10.0946C17.3068 10.0601 17.5501 9.9299 17.7264 9.72843C17.9028 9.52696 18 9.26796 18 8.9998C18 8.73164 17.9028 8.47264 17.7264 8.27117C17.5501 8.0697 17.3068 7.93953 17.0418 7.90496C16.7769 7.8704 16.5084 7.9338 16.2867 8.08334C16.0649 8.23287 15.9049 8.45831 15.8366 8.71757H12.6929ZM9.64276 13.8002C9.86089 13.7692 10.0767 13.7232 10.2885 13.6627C10.3176 13.653 10.3481 13.648 10.3787 13.648C10.4533 13.6481 10.5247 13.6779 10.5774 13.7308C10.6301 13.7837 10.6597 13.8555 10.6597 13.9303V17.7178C10.6597 17.7924 10.6302 17.864 10.5777 17.9169C10.5253 17.9697 10.4541 17.9996 10.3797 18H7.55521C7.49233 18 7.43126 17.9788 7.38185 17.9398C7.33243 17.9008 7.29755 17.8462 7.28282 17.7848L6.87363 16.0936C6.62708 16.0202 6.38456 15.9338 6.14705 15.8349C5.9094 15.7362 5.67703 15.6251 5.45086 15.5022L3.9863 16.3973C3.93209 16.4359 3.86605 16.4539 3.79986 16.4483C3.73366 16.4428 3.67156 16.4139 3.62451 16.3668L1.62816 14.3629C1.58359 14.3183 1.55529 14.2599 1.54781 14.1972C1.54034 14.1345 1.55413 14.0711 1.58696 14.0172L2.48914 12.5305C2.36693 12.303 2.25652 12.0692 2.15835 11.8302C2.05954 11.5919 1.97329 11.3485 1.89995 11.1011L0.237594 10.6956C0.171401 10.6851 0.111103 10.6513 0.067548 10.6002C0.0239931 10.5491 4.06068e-05 10.4841 3.75153e-08 10.4168V7.5828C-3.25163e-05 7.51966 0.0211223 7.45835 0.0600537 7.40875C0.0989851 7.35915 0.153424 7.32415 0.214595 7.3094L1.89995 6.8987C2.04678 6.40351 2.24436 5.92494 2.48954 5.47066L1.59756 4.00147C1.55913 3.9471 1.54112 3.88082 1.54672 3.81439C1.55233 3.74796 1.58117 3.68566 1.62816 3.63854L3.62451 1.63459C3.66895 1.58981 3.72713 1.56137 3.78965 1.55387C3.85218 1.54637 3.9154 1.56024 3.9691 1.59324L5.45026 2.49896C5.90293 2.25301 6.37972 2.0547 6.87303 1.90719L7.27702 0.238476C7.28717 0.171949 7.32077 0.111289 7.37172 0.067526C7.42266 0.0237626 7.48756 -0.000197963 7.55461 1.23206e-06H10.3797C10.4541 0.000266665 10.5252 0.0300705 10.5777 0.0828901C10.6302 0.13571 10.6597 0.207243 10.6597 0.281835V4.06912C10.6597 4.09527 10.656 4.12129 10.6487 4.1464C10.6282 4.21831 10.5801 4.27913 10.515 4.31551C10.4499 4.3519 10.3731 4.36089 10.3013 4.34052C10.0853 4.27822 9.86517 4.23126 9.64256 4.2C9.4187 4.16888 9.19297 4.15338 8.96698 4.15363C8.33026 4.14952 7.69903 4.27184 7.1096 4.51355C6.52017 4.75527 5.98419 5.1116 5.53251 5.56205C5.08083 6.01249 4.72237 6.54815 4.47776 7.1382C4.23315 7.72824 4.10722 8.36102 4.10722 9.0001C4.10722 9.63919 4.23315 10.272 4.47776 10.862C4.72237 11.452 5.08083 11.9877 5.53251 12.4382C5.98419 12.8886 6.52017 13.2449 7.1096 13.4866C7.69903 13.7284 8.33026 13.8507 8.96698 13.8466C9.19303 13.8466 9.41882 13.8311 9.64276 13.8002Z" fill="#4086FF"/>
    </symbol>
    <symbol id="github-icon" width="18" height="18" viewBox="0 0 18 18" fill="none">
        <path d="M9 0C7.8181 0 6.64778 0.238571 5.55585 0.702093C4.46392 1.16561 3.47177 1.84501 2.63604 2.70148C0.948211 4.43121 0 6.77723 0 9.22344C0 13.3002 2.583 16.759 6.156 17.9857C6.606 18.0595 6.75 17.7736 6.75 17.5245C6.75 17.3124 6.75 16.7313 6.75 15.9658C4.257 16.5192 3.726 14.7298 3.726 14.7298C3.312 13.6599 2.727 13.374 2.727 13.374C1.908 12.8021 2.79 12.8206 2.79 12.8206C3.69 12.8851 4.167 13.7706 4.167 13.7706C4.95 15.1726 6.273 14.7575 6.786 14.5361C6.867 13.9366 7.101 13.5308 7.353 13.3002C5.355 13.0696 3.258 12.2764 3.258 8.76227C3.258 7.73847 3.6 6.91758 4.185 6.26272C4.095 6.03213 3.78 5.07289 4.275 3.82773C4.275 3.82773 5.031 3.5787 6.75 4.76852C7.461 4.5656 8.235 4.46415 9 4.46415C9.765 4.46415 10.539 4.5656 11.25 4.76852C12.969 3.5787 13.725 3.82773 13.725 3.82773C14.22 5.07289 13.905 6.03213 13.815 6.26272C14.4 6.91758 14.742 7.73847 14.742 8.76227C14.742 12.2856 12.636 13.0604 10.629 13.291C10.953 13.5769 11.25 14.1395 11.25 14.9973C11.25 16.2333 11.25 17.2294 11.25 17.5245C11.25 17.7736 11.394 18.0687 11.853 17.9857C15.426 16.7498 18 13.3002 18 9.22344C18 8.0122 17.7672 6.81282 17.3149 5.69378C16.8626 4.57474 16.1997 3.55796 15.364 2.70148C14.5282 1.84501 13.5361 1.16561 12.4442 0.702093C11.3522 0.238571 10.1819 0 9 0Z" fill="#4086FF"/>
    </symbol>
    <symbol id="section-menu-icon" width="16" height="16" viewBox="0 0 16 16" fill="none">
        <path d="M12 16H16V12H12M12 10H16V6H12M6 4H10V0H6M12 4H16V0H12M6 10H10V6H6M0 10H4V6H0M0 16H4V12H0M6 16H10V12H6M0 4H4V0H0V4Z" fill="#666666" />
    </symbol>
    <symbol id="single-branch" width="8" height="12" viewBox="0 0 8 11" fill="none">
        <path d="M0 10.58L4.94467 6L0 1.41L1.52227 0L8 6L1.52227 12L0 10.58Z" fill="#666666"/>
    </symbol>
    <symbol id="all-branches" width="13" height="12" viewBox="0 0 13 11" fill="none">
        <path d="M0 10.58L4.94467 6L0 1.41L1.52227 0L8 6L1.52227 12L0 10.58Z" fill="#666666"/>
        <path d="M5 10.58L9.94467 6L5 1.41L6.52227 0L13 6L6.52227 12L5 10.58Z" fill="#666666"/>
    </symbol>
    <symbol id="double-check-icon" width="35" height="20" viewBox="0 0 35 20" fill="none">
        <path d="M0 11.6692L8.41505 20L10.5376 17.8838L2.13763 9.56781M32.8624 0L16.9355 15.7824L10.6731 9.56781L8.52043 11.6692L16.9355 20L35 2.11624M26.4796 2.11624L24.357 0L14.7978 9.46349L16.9355 11.5648L26.4796 2.11624Z" fill="url(#paint0_linear_1068_15067)"/>
        <defs xmlns="http://www.w3.org/2000/svg">
            <linearGradient id="paint0_linear_1068_15067" x1="33.5" y1="-1" x2="27.0362" y2="23.4851" gradientUnits="userSpaceOnUse">
                <stop stop-color="#9E00FF"/>
                <stop offset="0.505" stop-color="#D44CCE"/>
                <stop offset="1" stop-color="#2828DA"/>
            </linearGradient>
        </defs>
    </symbol>
    <symbol id="search-icon" width="16" height="16" viewBox="0 0 16 16" fill="none">
        <path d="M5.94286 0C7.519 0 9.03059 0.62612 10.1451 1.74062C11.2596 2.85512 11.8857 4.36671 11.8857 5.94286C11.8857 7.41486 11.3463 8.768 10.4594 9.81029L10.7063 10.0571H11.4286L16 14.6286L14.6286 16L10.0571 11.4286V10.7063L9.81029 10.4594C8.768 11.3463 7.41486 11.8857 5.94286 11.8857C4.36671 11.8857 2.85512 11.2596 1.74062 10.1451C0.62612 9.03059 0 7.519 0 5.94286C0 4.36671 0.62612 2.85512 1.74062 1.74062C2.85512 0.62612 4.36671 0 5.94286 0ZM5.94286 1.82857C3.65714 1.82857 1.82857 3.65714 1.82857 5.94286C1.82857 8.22857 3.65714 10.0571 5.94286 10.0571C8.22857 10.0571 10.0571 8.22857 10.0571 5.94286C10.0571 3.65714 8.22857 1.82857 5.94286 1.82857Z" fill="#FFF"/>
    </symbol>
</svg>

