<svg xmlns="http://www.w3.org/2000/svg" style="display:none;">
    <symbol id="marketplace-icon" width="16" height="18" viewBox="0 0 16 18">
        <path d="M7.71429 10.2857C6.57764 10.2857 5.48756 9.83418 4.68383 9.03046C3.8801 8.22673 3.42857 7.13664 3.42857 6H5.14286C5.14286 6.68199 5.41377 7.33604 5.89601 7.81827C6.37825 8.30051 7.0323 8.57143 7.71429 8.57143C8.39627 8.57143 9.05032 8.30051 9.53256 7.81827C10.0148 7.33604 10.2857 6.68199 10.2857 6H12C12 7.13664 11.5485 8.22673 10.7447 9.03046C9.94102 9.83418 8.85093 10.2857 7.71429 10.2857ZM7.71429 1.71429C8.39627 1.71429 9.05032 1.9852 9.53256 2.46744C10.0148 2.94968 10.2857 3.60373 10.2857 4.28571H5.14286C5.14286 3.60373 5.41377 2.94968 5.89601 2.46744C6.37825 1.9852 7.0323 1.71429 7.71429 1.71429ZM13.7143 4.28571H12C12 3.72291 11.8891 3.16561 11.6738 2.64564C11.4584 2.12568 11.1427 1.65322 10.7447 1.25526C10.3468 0.857291 9.87432 0.541608 9.35436 0.326231C8.83439 0.110853 8.27709 0 7.71429 0C6.57764 0 5.48756 0.451529 4.68383 1.25526C3.8801 2.05898 3.42857 3.14907 3.42857 4.28571H1.71429C0.762857 4.28571 0 5.04857 0 6V16.2857C0 16.7404 0.180612 17.1764 0.502103 17.4979C0.823593 17.8194 1.25963 18 1.71429 18H13.7143C14.1689 18 14.605 17.8194 14.9265 17.4979C15.248 17.1764 15.4286 16.7404 15.4286 16.2857V6C15.4286 5.04857 14.6571 4.28571 13.7143 4.28571Z" fill="#4086FF"/>
    </symbol>
    <symbol id="lightning-icon" width="9" height="16" viewBox="0 0 9 16">
        <path d="M8.74181 6.42546H5.63831C5.56158 6.42407 5.49053 6.39075 5.44079 6.33382C5.39248 6.2755 5.37116 6.20052 5.38395 6.12693L6.41276 0.300667H6.41418C6.43692 0.181255 6.37013 0.0618432 6.25503 0.0174113C6.1385 -0.0270206 6.00635 0.0160226 5.94098 0.118773L0.0393532 9.18715C-0.0103831 9.2649 -0.0132243 9.36349 0.032248 9.44402C0.0777204 9.52456 0.164403 9.57454 0.258189 9.57454H3.36168C3.43842 9.57593 3.50947 9.60925 3.55921 9.66618C3.60752 9.7245 3.62884 9.79948 3.61605 9.87307L2.58582 15.6993C2.56308 15.8187 2.62987 15.9382 2.74497 15.9826C2.86149 16.027 2.99365 15.984 3.05902 15.8812L8.96065 6.81285C9.01038 6.7351 9.01322 6.63651 8.96775 6.55598C8.92228 6.47544 8.83559 6.42546 8.74181 6.42546Z" fill="#FFC000"/>
    </symbol>
    <symbol id="staking-icon" width="18" height="18" viewBox="0 0 18 18">
        <path d="M12.8571 11.1429H14.5714V13.7143H17.1429V15.4286H14.5714V18H12.8571V15.4286H10.2857V13.7143H12.8571V11.1429ZM8.14286 0L16.2857 4.28571V6H0V4.28571L8.14286 0ZM12 7.71429H14.5714V9.49714L13.7143 9.42857C13.1143 9.42857 12.54 9.53143 12 9.72V7.71429ZM0 18V15.4286H8.64C8.80286 16.4057 9.24857 17.2886 9.88286 18H0ZM6.85714 7.71429H9.42857V11.7257C9.03429 12.3171 8.76 12.9857 8.64 13.7143H6.85714V7.71429ZM1.71429 7.71429H4.28571V13.7143H1.71429V7.71429Z" fill="#4086FF"/>
    </symbol>
    <symbol id="sidebar-icon-left" width="20" height="17" viewBox="0 0 20 17" fill="none">
        <rect x="1" y="1" width="18" height="15" rx="3" stroke="#D6D6D6" stroke-width="2"/>
        <rect x="4.75" y="4.75" width="1.5" height="7.5" rx="0.75" stroke="#D6D6D6" stroke-width="1.5"/> 
    </symbol>
    <symbol id="arrow-icon" width="15px" height="10px" viewBox="0 0 19 10" fill="none">
        <path d="M18.3053 6.65984L15.2413 9.76508C15.1677 9.83952 15.0801 9.8986 14.9836 9.93892C14.8871 9.97924 14.7836 10 14.6791 10C14.5746 10 14.4711 9.97924 14.3746 9.93892C14.2781 9.8986 14.1906 9.83952 14.117 9.76508C14.0428 9.69125 13.9839 9.60341 13.9437 9.50664C13.9035 9.40986 13.8828 9.30606 13.8828 9.20121C13.8828 9.09637 13.9035 8.99257 13.9437 8.89579C13.9839 8.79901 14.0428 8.71117 14.117 8.63735L16.9356 5.79418H0.791754C0.581768 5.79418 0.380381 5.71051 0.231897 5.56157C0.083416 5.41263 0 5.21063 0 5C0 4.78937 0.083416 4.58737 0.231897 4.43843C0.380381 4.28949 0.581768 4.20582 0.791754 4.20582H16.9831L14.117 1.33089C13.9766 1.18319 13.8983 0.986959 13.8983 0.782902C13.8983 0.578844 13.9766 0.382616 14.117 0.234917C14.1906 0.16048 14.2781 0.101397 14.3746 0.0610778C14.4711 0.0207583 14.5746 0 14.6791 0C14.7836 0 14.8871 0.0207583 14.9836 0.0610778C15.0801 0.101397 15.1677 0.16048 15.2413 0.234917L18.3053 3.29251C18.7502 3.73924 19 4.3448 19 4.97617C19 5.60755 18.7502 6.21311 18.3053 6.65984Z" fill="#4086FF"/>
    </symbol>
</svg>

