<?xml version="1.0" encoding="utf-8"?>
<!-- Generator: Adobe Illustrator 24.0.3, SVG Export Plug-In . SVG Version: 6.00 Build 0)  -->
<svg version="1.1" xmlns="http://www.w3.org/2000/svg" xmlns:xlink="http://www.w3.org/1999/xlink" x="0px" y="0px"
	 viewBox="0 0 2012.7 1021.7" style="enable-background:new 0 0 2012.7 1021.7;" xml:space="preserve">
<style type="text/css">
	.st0{display:none;}
	.st1{display:inline;fill:#FFFFFF;}
	.st2{fill:none;}
	.st3{fill:#CAB7E5;}
	.st4{fill:#220D3A;}
	.st5{fill:#BDA8DD;}
</style>
<g id="BG" class="st0">
	<rect x="0" y="-392.9" class="st1" width="2013" height="2013"/>
</g>
<g id="character">
	<g>
		<g>
			<polygon class="st2" points="820.7,243.6 827.3,244.5 821.3,243.1 			"/>
			<path class="st2" d="M921,266.3c0,3.1-1.3,6-3.6,8c-1.9,1.7-4.4,2.6-7,2.6c-0.5,0-0.9,0-1.4-0.1l-93.8-12.5v500.1h414.2V178.8
				H921V266.3z"/>
			<polygon class="st3" points="899.8,185 821.3,243.1 827.3,244.5 899.8,254.2 			"/>
			<path class="st4" d="M1235.9,157.6H905.5c-12.2,5.2-102.1,73.9-111.4,85.1v528.2c0,8.1,6.6,14.7,14.7,14.7h427.2
				c8.1,0,14.7-6.6,14.7-14.7V172.3C1250.6,164.2,1244,157.6,1235.9,157.6z M821.3,243.1l78.5-58.1v69.2l-72.5-9.6l-6.7-0.9
				L821.3,243.1z M1229.4,764.4H815.3V264.3l93.8,12.5c0.5,0.1,0.9,0.1,1.4,0.1c2.6,0,5-0.9,7-2.6c2.3-2,3.6-4.9,3.6-8v-87.5h308.4
				V764.4z"/>
		</g>
		<path class="st4" d="M960.8,354.3L946.1,341l14.7-13.3c2.9-2.6,3.1-7.1,0.5-10c-2.6-2.9-7.1-3.1-10-0.5l-15.8,14.3l-15.8-14.3
			c-2.9-2.6-7.4-2.4-10,0.5c-2.6,2.9-2.4,7.4,0.5,10L925,341l-14.7,13.3c-2.9,2.6-3.1,7.1-0.5,10c1.4,1.5,3.3,2.3,5.2,2.3
			c1.7,0,3.4-0.6,4.7-1.8l15.8-14.3l15.8,14.3c1.4,1.2,3,1.8,4.7,1.8c1.9,0,3.8-0.8,5.2-2.3C963.9,361.4,963.7,356.9,960.8,354.3z"
			/>
		<path class="st4" d="M1139.7,348.6l-14.7-13.3l14.7-13.3c2.9-2.6,3.1-7.1,0.5-10c-2.6-2.9-7.1-3.1-10-0.5l-15.8,14.3l-15.8-14.3
			c-2.9-2.6-7.4-2.4-10,0.5c-2.6,2.9-2.4,7.4,0.5,10l14.7,13.3l-14.7,13.3c-2.9,2.6-3.1,7.1-0.5,10c1.4,1.5,3.3,2.3,5.2,2.3
			c1.7,0,3.4-0.6,4.7-1.8l15.8-14.3l15.8,14.3c1.4,1.2,3,1.8,4.7,1.8c1.9,0,3.8-0.8,5.2-2.3C1142.8,355.7,1142.6,351.2,1139.7,348.6
			z"/>
		<g>
			<path class="st3" d="M947.3,541.3c4.2,4.4,9.2,6.5,15.1,6.5c11.3,0,17.2-5,21.2-17.8c4.3-13.9,5.3-35,6.7-61.7
				c0.3-5.8,0.6-11.8,0.9-18c-2.5,0.6-5.1,1.4-7.6,2.1c-5.7,1.7-11,3.7-16.1,5.9c0.2,0.7,0.4,1.4,0.4,2.1l1.5,60
				c0.1,3.9-3,7.1-6.9,7.2c-0.1,0-0.1,0-0.2,0c-3.8,0-7-3-7.1-6.9l-1.4-56c-9.2,4.9-16.7,9.9-22.4,14
				C931.4,494.2,933.9,527.3,947.3,541.3z"/>
			<path class="st4" d="M1139.5,476.6c-27.7-23.2-57.1-37.6-87.2-42.8c-24.2-4.2-48.9-2.4-73.4,5.2c-41.4,12.9-67.7,38-68.8,39.1
				c-2.8,2.7-2.9,7.2-0.2,10c1.4,1.4,3.2,2.2,5.1,2.2c0.9,0,1.8-0.2,2.7-0.5c0.2,4.2,0.6,9,1.2,14.1c2.8,21.6,8.9,37.5,18.1,47.2
				c6.9,7.2,15.5,10.9,25.3,10.9c17.6,0,28.9-9.1,34.7-27.7c4.8-15.6,5.9-37.5,7.3-65.2c0.3-7,0.7-14.1,1.1-21.7
				c43.2-6.6,85.1,6.8,124.9,40.1c3,2.5,7.4,2.1,9.9-0.9C1142.9,483.6,1142.5,479.1,1139.5,476.6z M990.3,468.3
				c-1.3,26.7-2.4,47.8-6.7,61.7c-4,12.8-9.9,17.8-21.2,17.8c-6,0-10.9-2.1-15.1-6.5c-13.4-14-15.9-47.1-15.8-62.4
				c5.7-4.1,13.2-9.2,22.4-14l1.4,56c0.1,3.8,3.2,6.9,7.1,6.9c0.1,0,0.1,0,0.2,0c3.9-0.1,7-3.3,6.9-7.2l-1.5-60
				c0-0.7-0.2-1.5-0.4-2.1c5-2.2,10.4-4.2,16.1-5.9c2.5-0.8,5.1-1.5,7.6-2.1C990.9,456.5,990.6,462.5,990.3,468.3z"/>
		</g>
	</g>
	<g>
		<polygon class="st5" points="1270.6,879.7 757,826.1 786.7,580.4 1300.3,634 		"/>
	</g>
	<g>
		<path class="st4" d="M809.9,467.4c-2.3-3.1-6.7-3.8-9.9-1.5c-0.8,0.6-18.8,13.9-37.9,36.9c-11.3,13.5-20.6,27.6-27.8,41.8
			c-9,18-14.6,36.3-16.5,54.4c-4,38.1,7.9,75.3,35.3,110.9c0,0.6-0.1,1.2-0.1,1.8c0,13.6,11,24.6,24.6,24.6
			c13.6,0,24.6-11,24.6-24.6c0-13.6-11-24.6-24.6-24.6c-7.1,0-13.6,3-18.1,7.9c-21.8-30.6-31.1-62.2-27.8-94.3
			c3.9-37.2,24.3-68.6,40.8-88.4c18.1-21.8,35.6-34.7,35.7-34.8C811.5,475,812.2,470.5,809.9,467.4z"/>
		<path class="st4" d="M1326.4,599c-1.9-18.1-7.4-36.4-16.5-54.4c-7.2-14.2-16.5-28.3-27.8-41.8c-19.2-23-37.2-36.3-37.9-36.9
			c-3.1-2.3-7.6-1.6-9.9,1.5c-2.3,3.1-1.6,7.6,1.5,9.9c0.2,0.1,17.4,12.9,35.5,34.5c16.6,19.8,37.1,51.3,41.1,88.6
			c3.1,29.9-4.7,59.5-23.5,88.2c-2.7-1.1-5.7-1.6-8.8-1.6c-13.6,0-24.6,11-24.6,24.6c0,13.6,11,24.6,24.6,24.6
			c13.6,0,24.6-11,24.6-24.6c0-5.3-1.7-10.3-4.6-14.3C1321.1,665.6,1329.9,632.6,1326.4,599z"/>
	</g>
	<g>
		<path class="st4" d="M884.4,756.6l-35.8-4c-6.6-0.7-12.3-3.7-11.5-11l8.5-76.2c0.5-4.7,5.5-9.1,11.5-8.4l36.7,4.1
			c5.1,0.6,9,5.1,8.5,9.9c-0.5,4.9-5.3,7.9-10.4,7.3l-28.1-3.2l-2.4,21.8l25.6,2.9c4.7,0.5,8.9,4.7,8.4,9.6c-0.5,4.9-5,8.2-10.3,7.6
			l-25.6-2.9l-2.5,22l29.5,3.3c5,0.6,9,4.8,8.5,9.4C894.3,753.8,889.5,757.2,884.4,756.6z"/>
		<path class="st4" d="M958.6,723.7l15.4,29.9c3.7,7.3-3.7,13.7-9.8,13c-3.4-0.4-6.1-2.2-7.5-5.1L938,723.4l-9.2-1l-3.5,31
			c-0.5,4.7-5.5,8.4-10.6,7.9c-5-0.6-8.9-5.1-8.3-10l8.7-77.9c0.6-5.3,5.8-9.2,11.4-8.6l23.5,2.6c25.4,2.8,31.9,18.2,30.3,32.4
			C978.8,713.2,970.7,721.2,958.6,723.7z M947.5,684.5l-14.3-1.6l-2.5,22.5l15.2,1.7c9.3,1,14.8-2.3,15.6-9.4
			C962,692,959.8,685.9,947.5,684.5z"/>
		<path class="st4" d="M1040.4,732.9l15.4,29.9c3.7,7.3-3.7,13.7-9.8,13c-3.4-0.4-6.1-2.2-7.5-5.1l-18.7-38.1l-9.2-1l-3.5,31
			c-0.5,4.7-5.5,8.4-10.6,7.9c-5-0.6-8.9-5.1-8.3-10l8.7-77.9c0.6-5.3,5.8-9.2,11.4-8.6l23.5,2.6c25.4,2.9,31.9,18.2,30.3,32.4
			C1060.7,722.4,1052.5,730.4,1040.4,732.9z M1029.4,693.7l-14.3-1.6l-2.5,22.5l15.1,1.7c9.3,1,14.8-2.3,15.6-9.3
			C1043.9,701.2,1041.7,695.1,1029.4,693.7z"/>
		<path class="st4" d="M1071.3,742.8l3-26.8c2.2-19.2,13.8-34.3,39.1-31.5c25.3,2.8,33.4,20.2,31.2,39.4l-3,26.8
			c-2.2,19.8-15.8,34.3-39.2,31.6C1079,779.7,1069,762.5,1071.3,742.8z M1093.2,718.1l-3,26.8c-1.2,10.8,3.1,19,14.2,20.2
			c11.1,1.2,17.1-5.8,18.3-16.6l3-26.8c1.2-11-2.3-18.7-14.2-20.1C1099.6,700.3,1094.4,707.2,1093.2,718.1z"/>
		<path class="st4" d="M1205.5,751.4l15.4,29.9c3.7,7.3-3.7,13.7-9.8,13c-3.4-0.4-6.1-2.2-7.5-5.1l-18.7-38.1l-9.2-1l-3.5,31
			c-0.5,4.7-5.5,8.4-10.6,7.9c-5-0.6-8.9-5.1-8.3-10l8.7-77.9c0.6-5.3,5.8-9.2,11.4-8.6l23.5,2.6c25.4,2.9,31.9,18.2,30.3,32.4
			C1225.7,740.9,1217.5,748.9,1205.5,751.4z M1194.4,712.2l-14.3-1.6l-2.5,22.5l15.2,1.7c9.3,1,14.8-2.3,15.6-9.3
			C1208.9,719.7,1206.7,713.6,1194.4,712.2z"/>
	</g>
</g>
<g id="text">
	<path class="st4" d="M597.7,611h-37V441.8c0-19.2-18.2-34.8-40.5-34.8c-23.1,0-40.5,15-40.5,34.8V611H299.3l14.9-34.5
		c27.4-63.4,52.6-120.8,77-176.2l0-0.1c24.4-55.5,49.6-112.9,77-176.1l0.1-0.2c1.7-3.7,1.7-6.1,1.7-10.8c0-8.5-4.6-17.6-12.5-24.9
		c-8.1-7.4-18.6-11.8-28-11.8c-15.8,0-30.5,8.9-35.8,21.6l-0.1,0.3L212.1,617.2l-0.1,0.3c-3.9,8.4-6.7,20.3-7.2,23.6
		c0.5,19.1,16.3,38.7,42.4,38.7h232.6v102.2c0,19.9,17.4,34.8,40.5,34.8c23.1,0,40.5-15,40.5-34.8V679.7h37
		c21.6,0,38.6-15.3,38.6-34.8C636.3,626.2,619,611,597.7,611z"/>
	<path class="st4" d="M1769.6,617.3h-37V448c0-19.2-18.2-34.8-40.5-34.8c-23.1,0-40.5,15-40.5,34.8v169.3h-180.4l14.9-34.5
		c27.4-63.4,52.7-120.8,77.1-176.3l0-0.1c24.4-55.5,49.6-112.8,76.9-176l0.1-0.2c1.6-3.7,1.6-6.1,1.6-10.7c0-8.5-4.6-17.6-12.5-24.9
		c-8.1-7.4-18.6-11.8-28-11.8c-15.8,0-30.5,8.9-35.8,21.6l-0.1,0.3L1384,623.4l-0.1,0.3c-3.9,8.4-6.7,20.3-7.2,23.6
		c0.5,19.1,16.3,38.7,42.4,38.7h232.6v102.2c0,19.9,17.4,34.8,40.5,34.8c23.1,0,40.5-15,40.5-34.8V686h37
		c21.6,0,38.6-15.3,38.6-34.8C1808.2,632.5,1790.9,617.3,1769.6,617.3z"/>
</g>
</svg>
