<svg id="Graphics" xmlns="http://www.w3.org/2000/svg" xmlns:xlink="http://www.w3.org/1999/xlink" viewBox="0 0 716.53 354.86"><defs><style>.cls-1{fill:#5361f0;}.cls-16,.cls-2{fill:#191c3c;}.cls-3{fill:#ff5722;}.cls-4{fill:#536dfe;}.cls-5{fill:#5f6177;}.cls-6{fill:#fff;}.cls-7{fill:#e3edfe;}.cls-8{fill:#b3cdfa;}.cls-9{fill:#4d5068;}.cls-10{fill:#f9fbff;}.cls-11{fill:#98a0f6;}.cls-12{fill:#edf5fc;}.cls-13{fill:#e8f0fd;}.cls-14{fill:url(#linear-gradient);}.cls-15{fill:#eef4fe;}.cls-16,.cls-18{opacity:0.3;}.cls-17{fill:#2e35a8;}.cls-19{fill:#bf411a;}.cls-20{fill:#fec55e;}.cls-21{fill:#fedc9e;}.cls-22{fill:#f4f8ff;}.cls-23{fill:url(#linear-gradient-2);}.cls-24{fill:url(#linear-gradient-3);}.cls-25{fill:url(#linear-gradient-4);}.cls-26{fill:none;stroke:#191c3c;stroke-miterlimit:10;stroke-width:0.75px;}</style><linearGradient id="linear-gradient" x1="555.51" y1="330.32" x2="605.97" y2="330.32" gradientUnits="userSpaceOnUse"><stop offset="0" stop-color="#536dfe"/><stop offset="1" stop-color="#2e35a8"/></linearGradient><linearGradient id="linear-gradient-2" x1="204.98" y1="253.12" x2="224.63" y2="253.12" xlink:href="#linear-gradient"/><linearGradient id="linear-gradient-3" x1="567.75" y1="293.93" x2="620.14" y2="293.93" xlink:href="#linear-gradient"/><linearGradient id="linear-gradient-4" x1="485.02" y1="169.7" x2="503.16" y2="169.7" gradientUnits="userSpaceOnUse"><stop offset="0" stop-color="#fff"/><stop offset="0.24" stop-color="#e9f1fe"/><stop offset="0.74" stop-color="#c2d7fb"/><stop offset="1" stop-color="#b3cdfa"/></linearGradient></defs><title>AI Consumers</title><g id="Web_page_and_elements" data-name="Web page and elements"><path class="cls-1" d="M146.27,266.25a1.21,1.21,0,1,1-1.2-1.21A1.2,1.2,0,0,1,146.27,266.25Z" transform="translate(-46.94 -77.18)"/><path class="cls-2" d="M190.85,257.91a2,2,0,1,1,2-2A2,2,0,0,1,190.85,257.91Zm0-3.41A1.46,1.46,0,1,0,192.3,256,1.45,1.45,0,0,0,190.85,254.5Z" transform="translate(-46.94 -77.18)"/><circle class="cls-3" cx="118.24" cy="278.65" r="1.2"/><path class="cls-4" d="M699.87,322.17A3.16,3.16,0,1,1,703,319,3.17,3.17,0,0,1,699.87,322.17Zm0-5.32A2.16,2.16,0,1,0,702,319,2.16,2.16,0,0,0,699.87,316.85Z" transform="translate(-46.94 -77.18)"/><path class="cls-4" d="M147.19,319.62a3.16,3.16,0,1,1,3.16-3.16A3.16,3.16,0,0,1,147.19,319.62Zm0-5.28a2.13,2.13,0,1,0,2.12,2.12A2.12,2.12,0,0,0,147.19,314.34Z" transform="translate(-46.94 -77.18)"/><path class="cls-2" d="M129.63,355.08a1.95,1.95,0,1,1,2-1.95A2,2,0,0,1,129.63,355.08Zm0-3.4a1.45,1.45,0,1,0,1.45,1.45A1.46,1.46,0,0,0,129.63,351.68Z" transform="translate(-46.94 -77.18)"/><circle class="cls-3" cx="53.96" cy="306.57" r="1.2"/><path class="cls-3" d="M658.38,258.12a2.86,2.86,0,1,1,2.86-2.86A2.86,2.86,0,0,1,658.38,258.12Zm0-5.22a2.36,2.36,0,1,0,2.36,2.36A2.36,2.36,0,0,0,658.38,252.9Z" transform="translate(-46.94 -77.18)"/><path class="cls-2" d="M635,241a2,2,0,1,1,2-1.95A1.95,1.95,0,0,1,635,241Zm0-3.4a1.45,1.45,0,1,0,1.46,1.45A1.45,1.45,0,0,0,635,237.61Z" transform="translate(-46.94 -77.18)"/><path class="cls-1" d="M703.11,262.89a1.2,1.2,0,1,1-1.2-1.2A1.2,1.2,0,0,1,703.11,262.89Z" transform="translate(-46.94 -77.18)"/><circle class="cls-2" cx="53.96" cy="242.17" r="1.2"/><circle class="cls-2" cx="601.35" cy="206.57" r="1.2"/><circle class="cls-3" cx="606.34" cy="260.71" r="1.2"/><circle class="cls-3" cx="663.05" cy="299.91" r="1.2"/><polygon class="cls-2" points="183.72 337.49 194.95 328.25 164.95 112.27 154.34 121.58 183.72 337.49"/><polygon class="cls-5" points="538.58 328.25 194.95 328.25 164.95 112.27 508.58 112.27 538.58 328.25"/><polygon class="cls-6" points="520.06 313.3 208.68 313.3 182.98 129.19 494.87 129.19 520.06 313.3"/><path class="cls-7" d="M238.2,431.66H648.93a13.23,13.23,0,0,0,13.24-13.24h0a13.23,13.23,0,0,0-13.24-13.23H238.2A13.23,13.23,0,0,0,225,418.42h0A13.23,13.23,0,0,0,238.2,431.66Z" transform="translate(-46.94 -77.18)"/><path class="cls-8" d="M238.2,431.66H472.09a13.24,13.24,0,0,0,13.24-13.24h0a13.23,13.23,0,0,0-13.24-13.23H238.2A13.23,13.23,0,0,0,225,418.42h0A13.23,13.23,0,0,0,238.2,431.66Z" transform="translate(-46.94 -77.18)"/><path class="cls-2" d="M238.2,432a13.62,13.62,0,1,1,0-27.23H472.09a13.61,13.61,0,0,1,8.64,24.13l-.47-.58a12.87,12.87,0,0,0-8.17-22.8H238.2a12.87,12.87,0,1,0,0,25.73Z" transform="translate(-46.94 -77.18)"/><rect class="cls-9" x="248.43" y="416.06" width="26.67" height="7.75" transform="translate(476.59 762.7) rotate(180)"/><rect class="cls-9" x="280.26" y="416.06" width="26.67" height="7.75" transform="translate(540.26 762.7) rotate(180)"/><polygon class="cls-2" points="232.98 313.18 242.69 313.18 211.5 83.34 202.49 88.51 232.98 313.18"/><polygon class="cls-10" points="496.33 313.18 242.69 313.18 211.5 83.34 465.14 83.34 496.33 313.18"/><polygon class="cls-11" points="467.63 101.72 214 101.72 216.51 120.22 470.14 120.22 467.63 101.72"/><polygon class="cls-1" points="467.63 101.72 214 101.72 211.5 83.34 465.14 83.34 467.63 101.72"/><path class="cls-6" d="M276.63,168.31a1.74,1.74,0,0,1-1.76,2,2.41,2.41,0,0,1-2.31-2,1.73,1.73,0,0,1,1.76-2A2.41,2.41,0,0,1,276.63,168.31Z" transform="translate(-46.94 -77.18)"/><path class="cls-6" d="M283.41,168.31a1.74,1.74,0,0,1-1.76,2,2.41,2.41,0,0,1-2.31-2,1.73,1.73,0,0,1,1.76-2A2.41,2.41,0,0,1,283.41,168.31Z" transform="translate(-46.94 -77.18)"/><path class="cls-6" d="M290.19,168.31a1.74,1.74,0,0,1-1.76,2,2.41,2.41,0,0,1-2.31-2,1.73,1.73,0,0,1,1.76-2A2.41,2.41,0,0,1,290.19,168.31Z" transform="translate(-46.94 -77.18)"/><polygon class="cls-12" points="401.64 111.59 252.71 111.59 251.89 105.56 400.82 105.56 401.64 111.59"/><path class="cls-12" d="M505.89,183.35h-6.2a1,1,0,0,1-.95-.83h0a.72.72,0,0,1,.72-.84h6.21a1,1,0,0,1,.94.84h0A.71.71,0,0,1,505.89,183.35Z" transform="translate(-46.94 -77.18)"/><path class="cls-12" d="M506.33,186.56h-6.2a1,1,0,0,1-.95-.83h0a.72.72,0,0,1,.72-.84h6.2a1,1,0,0,1,.95.84h0A.71.71,0,0,1,506.33,186.56Z" transform="translate(-46.94 -77.18)"/><path class="cls-12" d="M506.76,189.77h-6.2a1,1,0,0,1-.95-.84h0a.71.71,0,0,1,.73-.83h6.2a1,1,0,0,1,.94.83h0A.71.71,0,0,1,506.76,189.77Z" transform="translate(-46.94 -77.18)"/><ellipse class="cls-13" cx="353.21" cy="347.03" rx="8.22" ry="9.41" transform="translate(-188.44 290.98) rotate(-46.94)"/><polygon class="cls-6" points="290.25 255.61 252.01 255.61 259.82 313.18 298.06 313.18 290.25 255.61"/><polygon class="cls-6" points="487.94 313.18 435.08 313.18 414.44 161.13 467.3 161.13 487.94 313.18"/><polygon class="cls-13" points="376.63 266.86 319.46 266.86 318.98 263.37 376.15 263.37 376.63 266.86"/><polygon class="cls-13" points="423.77 274.68 320.52 274.68 320.04 271.19 423.3 271.19 423.77 274.68"/><polygon class="cls-13" points="426.97 298.22 301.33 298.22 300.85 294.73 426.49 294.73 426.97 298.22"/><polygon class="cls-13" points="428.34 308.31 302.7 308.31 302.22 304.82 427.86 304.82 428.34 308.31"/><path class="cls-13" d="M479.27,270.71a4.08,4.08,0,0,1-4.14,4.79,5.67,5.67,0,0,1-5.45-4.79,4.1,4.1,0,0,1,4.15-4.8A5.67,5.67,0,0,1,479.27,270.71Z" transform="translate(-46.94 -77.18)"/><polygon class="cls-13" points="451.78 193.53 435.34 193.53 434.98 190.93 451.43 190.93 451.78 193.53"/><polygon class="cls-13" points="436.08 170.58 419.63 170.58 418.9 165.2 435.35 165.2 436.08 170.58"/><polygon class="cls-13" points="438.03 170.58 444.11 170.58 443.38 165.2 437.3 165.2 438.03 170.58"/><polygon class="cls-13" points="465.13 198.33 435.99 198.33 435.63 195.72 464.78 195.72 465.13 198.33"/><path class="cls-13" d="M482.65,296a4.1,4.1,0,0,1-4.15,4.8,5.67,5.67,0,0,1-5.44-4.8,4.09,4.09,0,0,1,4.14-4.79A5.67,5.67,0,0,1,482.65,296Z" transform="translate(-46.94 -77.18)"/><polygon class="cls-13" points="455.16 218.81 438.71 218.81 438.36 216.2 454.8 216.2 455.16 218.81"/><polygon class="cls-13" points="468.51 223.6 439.36 223.6 439.01 221 468.15 221 468.51 223.6"/><path class="cls-13" d="M486,321.26a4.08,4.08,0,0,1-4.14,4.79,5.65,5.65,0,0,1-5.44-4.79,4.09,4.09,0,0,1,4.14-4.8A5.67,5.67,0,0,1,486,321.26Z" transform="translate(-46.94 -77.18)"/><polygon class="cls-13" points="458.53 244.08 442.09 244.08 441.74 241.48 458.18 241.48 458.53 244.08"/><polygon class="cls-13" points="471.88 248.88 442.74 248.88 442.39 246.27 471.53 246.27 471.88 248.88"/><path class="cls-13" d="M489.4,346.53a4.1,4.1,0,0,1-4.14,4.8,5.68,5.68,0,0,1-5.45-4.8,4.09,4.09,0,0,1,4.14-4.79A5.67,5.67,0,0,1,489.4,346.53Z" transform="translate(-46.94 -77.18)"/><polygon class="cls-13" points="461.91 269.36 445.46 269.36 445.11 266.75 461.55 266.75 461.91 269.36"/><polygon class="cls-13" points="475.26 274.15 446.12 274.15 445.76 271.55 474.9 271.55 475.26 274.15"/><path class="cls-13" d="M492.78,371.81a4.1,4.1,0,0,1-4.15,4.79,5.66,5.66,0,0,1-5.44-4.79,4.09,4.09,0,0,1,4.14-4.8A5.68,5.68,0,0,1,492.78,371.81Z" transform="translate(-46.94 -77.18)"/><polygon class="cls-13" points="465.28 294.63 448.84 294.63 448.49 292.03 464.93 292.03 465.28 294.63"/><polygon class="cls-13" points="478.63 299.43 449.49 299.43 449.14 296.82 478.28 296.82 478.63 299.43"/><polygon class="cls-2" points="315.79 101.92 214.02 101.92 213.97 101.52 315.73 101.52 315.79 101.92"/><polygon class="cls-2" points="403.33 120.43 216.53 120.43 216.48 120.02 403.27 120.02 403.33 120.43"/><polygon class="cls-2" points="496.33 308.31 495.58 308.31 464.82 83.72 402.44 83.72 402.34 82.97 465.46 82.97 496.33 308.31"/><polygon class="cls-3" points="406.62 230.48 246.57 230.48 233.85 136.76 393.9 136.76 406.62 230.48"/><path class="cls-6" d="M380.72,263.33l-22.1,13.84a2.73,2.73,0,0,1-3.93-2.1l-3.76-27.69a2.16,2.16,0,0,1,3.36-2.1l25.86,13.84C381.89,260.06,382.21,262.39,380.72,263.33Z" transform="translate(-46.94 -77.18)"/><rect class="cls-14" x="555.51" y="306.53" width="50.46" height="47.58" rx="9.31"/><path class="cls-2" d="M643.6,431.66v-.75a8.94,8.94,0,0,0,8.93-8.93V393a9,9,0,0,0-8.93-8.93H621.25v-.75H643.6a9.69,9.69,0,0,1,9.68,9.68v29A9.69,9.69,0,0,1,643.6,431.66Z" transform="translate(-46.94 -77.18)"/><path class="cls-2" d="M608.05,424.25V390.74a7.26,7.26,0,0,1,7.47-7h-3.77a9.3,9.3,0,0,0-9.31,9.3v29a9.31,9.31,0,0,0,9.31,9.31h3.77A7.26,7.26,0,0,1,608.05,424.25Z" transform="translate(-46.94 -77.18)"/><path class="cls-6" d="M640.37,410.74h3a1.05,1.05,0,0,0,1.08-1v-3.57a1.06,1.06,0,0,0-1.09-1H641a.9.9,0,0,1-.85-.57l-.27-.61a.82.82,0,0,1,.17-1l1.64-1.55a1,1,0,0,0,0-1.45L639,397.43a1.14,1.14,0,0,0-1.54,0L635.83,399a.94.94,0,0,1-1,.17l-.72-.27a.84.84,0,0,1-.56-.79V395.9a1.06,1.06,0,0,0-1.09-1h-3.79a1.06,1.06,0,0,0-1.09,1v2.19a.86.86,0,0,1-.61.8c-.23.08-.45.17-.67.27a1,1,0,0,1-1-.16l-1.65-1.55a1.15,1.15,0,0,0-1.54,0L619.42,400a1,1,0,0,0,0,1.45l1.66,1.56a.82.82,0,0,1,.2.93c-.1.23-.21.47-.29.68a.91.91,0,0,1-.84.53h-2.34a1.06,1.06,0,0,0-1.09,1v3.57a1.05,1.05,0,0,0,1.09,1h2.32a.92.92,0,0,1,.86.57c.08.2.17.41.26.6a.82.82,0,0,1-.16,1l-1.64,1.55a1,1,0,0,0,0,1.45l2.68,2.52a1.14,1.14,0,0,0,1.54,0l1.65-1.56a.94.94,0,0,1,1-.18l.71.27a.85.85,0,0,1,.57.78V420a1.06,1.06,0,0,0,1.09,1h3.79a1.06,1.06,0,0,0,1.09-1v-2.19a.87.87,0,0,1,.61-.81c.22-.07.43-.16.64-.25a1,1,0,0,1,1,.16l1.65,1.55a1.14,1.14,0,0,0,1.54,0l2.68-2.53a1,1,0,0,0,0-1.45l-1.66-1.56a.83.83,0,0,1-.19-.94C640.11,411.41,640.35,410.77,640.37,410.74ZM625.29,407a5.41,5.41,0,0,1,7.22-3.81,5.06,5.06,0,0,1,3.34,5.63,5.4,5.4,0,0,1-7.21,3.81A5.07,5.07,0,0,1,625.29,407Z" transform="translate(-46.94 -77.18)"/><rect class="cls-15" x="648.29" y="391.59" width="40.08" height="40.08" rx="6.04" transform="translate(1289.71 746.08) rotate(180)"/><path class="cls-3" d="M654.17,391.59h28.31a5.88,5.88,0,0,1,5.88,5.88v6.14H648.29v-6.14A5.88,5.88,0,0,1,654.17,391.59Z" transform="translate(-46.94 -77.18)"/><path class="cls-9" d="M679.22,397.24a3,3,0,1,0,3-3.05A3,3,0,0,0,679.22,397.24Z" transform="translate(-46.94 -77.18)"/><path class="cls-2" d="M680.19,397.24a2.09,2.09,0,1,0,2.08-2.08A2.09,2.09,0,0,0,680.19,397.24Z" transform="translate(-46.94 -77.18)"/><path class="cls-9" d="M660.75,397.24a3,3,0,1,0,3-3.05A3,3,0,0,0,660.75,397.24Z" transform="translate(-46.94 -77.18)"/><path class="cls-2" d="M661.71,397.24a2.09,2.09,0,1,0,2.09-2.08A2.1,2.1,0,0,0,661.71,397.24Z" transform="translate(-46.94 -77.18)"/><path class="cls-2" d="M663.89,398h0a1.63,1.63,0,0,0,1.63-1.63v-5.53a5.69,5.69,0,0,0-5-5.74,5.53,5.53,0,0,0-6.07,5.49v1h3.26v-.88a2.36,2.36,0,0,1,2-2.39,2.26,2.26,0,0,1,2.5,2.25v5.78A1.63,1.63,0,0,0,663.89,398Z" transform="translate(-46.94 -77.18)"/><path class="cls-2" d="M682.37,398h0a1.63,1.63,0,0,0,1.63-1.63v-5.53a5.69,5.69,0,0,0-5-5.74,5.53,5.53,0,0,0-6.08,5.49v1h3.26v-.88a2.36,2.36,0,0,1,2-2.39,2.27,2.27,0,0,1,2.5,2.25v5.78A1.63,1.63,0,0,0,682.37,398Z" transform="translate(-46.94 -77.18)"/><path class="cls-2" d="M654.17,391.59h2.92a5.88,5.88,0,0,0-5.88,5.88v28.31a5.88,5.88,0,0,0,5.88,5.88h-2.92a5.88,5.88,0,0,1-5.88-5.88V397.47A5.88,5.88,0,0,1,654.17,391.59Z" transform="translate(-46.94 -77.18)"/><rect class="cls-8" x="680.61" y="406.49" width="4.09" height="4.09" rx="0.49" transform="translate(1318.37 739.89) rotate(180)"/><rect class="cls-8" x="674.03" y="406.49" width="4.09" height="4.09" rx="0.49" transform="translate(1305.21 739.89) rotate(180)"/><rect class="cls-8" x="667.45" y="406.49" width="4.09" height="4.09" rx="0.49" transform="translate(1292.05 739.89) rotate(180)"/><rect class="cls-8" x="680.61" y="412.4" width="4.09" height="4.09" rx="0.49" transform="translate(1318.37 751.72) rotate(180)"/><rect class="cls-8" x="674.03" y="412.4" width="4.09" height="4.09" rx="0.49" transform="translate(1305.21 751.72) rotate(180)"/><rect class="cls-8" x="667.45" y="412.4" width="4.09" height="4.09" rx="0.49" transform="translate(1292.05 751.72) rotate(180)"/><rect class="cls-8" x="660.87" y="412.4" width="4.09" height="4.09" rx="0.49" transform="translate(1278.89 751.72) rotate(180)"/><rect class="cls-8" x="654.29" y="412.4" width="4.09" height="4.09" rx="0.49" transform="translate(1265.73 751.72) rotate(180)"/><rect class="cls-8" x="680.61" y="418.31" width="4.09" height="4.09" rx="0.49" transform="translate(1318.37 763.54) rotate(180)"/><rect class="cls-8" x="674.03" y="418.31" width="4.09" height="4.09" rx="0.49" transform="translate(1305.21 763.54) rotate(180)"/><rect class="cls-8" x="667.45" y="418.31" width="4.09" height="4.09" rx="0.49" transform="translate(1292.05 763.54) rotate(180)"/><rect class="cls-8" x="660.87" y="418.31" width="4.09" height="4.09" rx="0.49" transform="translate(1278.89 763.54) rotate(180)"/><rect class="cls-8" x="654.29" y="418.31" width="4.09" height="4.09" rx="0.49" transform="translate(1265.73 763.54) rotate(-180)"/><rect class="cls-8" x="654.29" y="424.23" width="4.09" height="4.09" rx="0.49" transform="translate(1265.73 775.37) rotate(180)"/><rect class="cls-8" x="660.87" y="424.23" width="4.09" height="4.09" rx="0.49" transform="translate(1278.89 775.37) rotate(180)"/><rect class="cls-8" x="667.45" y="424.23" width="4.09" height="4.09" rx="0.49" transform="translate(1292.05 775.37) rotate(180)"/><path class="cls-2" d="M682.32,432h-28a6.43,6.43,0,0,1-6.42-6.41h.75a5.67,5.67,0,0,0,5.67,5.66h28a5.67,5.67,0,0,0,5.67-5.66v-28a5.67,5.67,0,0,0-5.67-5.67h-14v-.75h14a6.43,6.43,0,0,1,6.42,6.42v28A6.43,6.43,0,0,1,682.32,432Z" transform="translate(-46.94 -77.18)"/><polygon class="cls-16" points="257.08 215.73 259.82 313.18 284.33 313.16 257.08 215.73"/><polygon class="cls-6" points="367.87 313.4 270.2 313.4 257.08 215.73 354.75 215.73 367.87 313.4"/><polygon class="cls-8" points="359.2 305.75 276.82 305.75 265.75 223.37 348.14 223.37 359.2 305.75"/><polygon class="cls-17" points="325.35 280.56 290.56 244.18 272.27 271.93 276.82 305.75 359.2 305.75 356.01 282.02 338.7 264.32 325.35 280.56"/><ellipse class="cls-3" cx="381.27" cy="327.66" rx="5.24" ry="5.99" transform="translate(-165.41 305.17) rotate(-46.92)"/><g class="cls-18"><polygon class="cls-2" points="415.57 327.97 412.1 327.97 402.19 117.27 405.66 117.27 415.57 327.97"/><polygon class="cls-2" points="457.77 327.98 454.31 327.98 444.39 117.28 447.86 117.28 457.77 327.98"/><polygon class="cls-2" points="448.74 135.9 404.8 135.9 404.63 132.35 448.57 132.35 448.74 135.9"/><polygon class="cls-2" points="449.94 161.46 406 161.46 405.84 157.91 449.77 157.91 449.94 161.46"/><polygon class="cls-2" points="451.14 187.02 407.2 187.01 407.04 183.46 450.98 183.47 451.14 187.02"/><polygon class="cls-2" points="452.35 212.58 408.41 212.57 408.24 209.02 452.18 209.03 452.35 212.58"/><polygon class="cls-2" points="453.55 238.13 409.61 238.13 409.44 234.58 453.38 234.58 453.55 238.13"/><polygon class="cls-2" points="454.75 263.69 410.81 263.69 410.64 260.14 454.58 260.14 454.75 263.69"/><polygon class="cls-2" points="455.95 289.25 412.01 289.25 411.85 285.69 455.79 285.7 455.95 289.25"/><polygon class="cls-2" points="457.15 314.81 413.22 314.8 413.05 311.25 456.99 311.26 457.15 314.81"/></g><polygon class="cls-2" points="434.46 327.33 430.99 327.33 402.19 117.27 405.67 117.27 434.46 327.33"/><polygon class="cls-2" points="476.8 327.33 473.32 327.33 444.52 117.27 448 117.27 476.8 327.33"/><polygon class="cls-2" points="450.55 135.84 406.48 135.84 405.99 132.3 450.06 132.3 450.55 135.84"/><polygon class="cls-2" points="454.04 161.32 409.97 161.32 409.48 157.78 453.56 157.78 454.04 161.32"/><polygon class="cls-2" points="457.54 186.8 413.46 186.8 412.98 183.26 457.05 183.26 457.54 186.8"/><polygon class="cls-2" points="461.03 212.28 416.95 212.28 416.47 208.74 460.54 208.74 461.03 212.28"/><polygon class="cls-2" points="464.52 237.76 420.45 237.76 419.96 234.22 464.04 234.22 464.52 237.76"/><polygon class="cls-2" points="468.01 263.24 423.94 263.24 423.45 259.7 467.53 259.7 468.01 263.24"/><polygon class="cls-2" points="471.51 288.72 427.43 288.72 426.95 285.18 471.02 285.18 471.51 288.72"/><polygon class="cls-2" points="475 314.2 430.93 314.2 430.44 310.66 474.51 310.66 475 314.2"/><path class="cls-2" d="M162.33,431.66H125.89a1,1,0,0,1-1-1V366.9a1,1,0,0,1,1-1h36.44a1,1,0,0,1,1,1v63.74A1,1,0,0,1,162.33,431.66Z" transform="translate(-46.94 -77.18)"/><path class="cls-7" d="M165.41,431.66H129a1,1,0,0,1-1-1V366.9a1,1,0,0,1,1-1h36.44a1,1,0,0,1,1,1v63.74A1,1,0,0,1,165.41,431.66Z" transform="translate(-46.94 -77.18)"/><rect class="cls-3" x="82.69" y="289.68" width="35.55" height="63.07" rx="1.29"/><path class="cls-6" d="M155.78,399.78l-13.32,7.68a1.35,1.35,0,0,1-2-1.16V390.92a1.35,1.35,0,0,1,2-1.17l13.32,7.69A1.36,1.36,0,0,1,155.78,399.78Z" transform="translate(-46.94 -77.18)"/><circle class="cls-19" cx="114.64" cy="293.58" r="2.09"/><rect class="cls-19" x="93.5" y="291.49" width="15.44" height="0.66"/><rect class="cls-20" x="105.97" y="317.47" width="39.55" height="36.73" rx="7.37"/><path class="cls-2" d="M185.16,431.66v-.57a7,7,0,0,0,7-6.9V401.83a7,7,0,0,0-7-6.89H167.64v-.58h17.52a7.54,7.54,0,0,1,7.59,7.47v22.36A7.54,7.54,0,0,1,185.16,431.66Z" transform="translate(-46.94 -77.18)"/><path class="cls-2" d="M157.3,426V400.08a5.65,5.65,0,0,1,5.85-5.43h-3a7.23,7.23,0,0,0-7.29,7.18v22.36a7.24,7.24,0,0,0,7.29,7.19h3A5.66,5.66,0,0,1,157.3,426Z" transform="translate(-46.94 -77.18)"/><path class="cls-6" d="M183.21,408.84a8.57,8.57,0,0,0-17.14,0A8.41,8.41,0,0,0,170,415.9v1h9.38v-1A8.41,8.41,0,0,0,183.21,408.84Z" transform="translate(-46.94 -77.18)"/><rect class="cls-6" x="122.41" y="342.12" width="10.59" height="0.77"/><rect class="cls-6" x="122.41" y="340.82" width="10.59" height="0.77"/><rect class="cls-6" x="122.41" y="343.41" width="10.59" height="0.77"/><path class="cls-6" d="M175.31,425.63h-1.73a1.53,1.53,0,0,1-1.54-1.52h4.81A1.53,1.53,0,0,1,175.31,425.63Z" transform="translate(-46.94 -77.18)"/><path class="cls-9" d="M412.23,385.15,408,380.31l16.83-30.51c-10.38-2-14.13,3.95-14.49,4.57a.05.05,0,0,1-.08,0l-5.42-4.79v-4.41L420.43,326h6.08l-1.87-7.46.09-.06,13.58,8.79h0a59.35,59.35,0,0,1,11.37,34.94v17.65l-5.47,6.52H413.44Z" transform="translate(-46.94 -77.18)"/><polygon class="cls-9" points="360.08 325.76 403.8 325.76 397.27 309.89 366.61 309.89 360.08 325.76"/><path class="cls-2" d="M437.4,334.45l4.24-2c.56,1,1.13,2,1.64,3l-4.45,2.07Z" transform="translate(-46.94 -77.18)"/><path class="cls-2" d="M442,346.86l-.73-3.3,5-1.12c.38,1.07.72,2.15,1,3.24Z" transform="translate(-46.94 -77.18)"/><path class="cls-2" d="M442.42,351.6l-.27-3.37,5.71-.46c.28,1.1.51,2.22.72,3.34Z" transform="translate(-46.94 -77.18)"/><path class="cls-2" d="M440.7,342.57l-1-3.24,4.7-1.44c.46,1,.9,2.08,1.31,3.14Z" transform="translate(-46.94 -77.18)"/><rect class="cls-2" x="395.91" y="293.37" width="6.83" height="3.39"/><rect class="cls-2" x="395.91" y="287.57" width="6.83" height="3.39"/><path class="cls-2" d="M442.84,356.52v-3.39H449c.18,1.12.3,2.25.41,3.39Z" transform="translate(-46.94 -77.18)"/><path class="cls-2" d="M442.84,358.94h6.71c.06,1.09.13,2.19.13,3.3v.08h-6.84Z" transform="translate(-46.94 -77.18)"/><rect class="cls-9" x="360.64" y="307.54" width="42.24" height="4.69" rx="1.01"/><path class="cls-2" d="M449.82,387v1.42a1,1,0,0,1-1,1H408.59a1,1,0,0,1-1-1V387Z" transform="translate(-46.94 -77.18)"/><path class="cls-9" d="M404,404.63h49.49a1.15,1.15,0,0,0,1.25-1V401a1.15,1.15,0,0,0-1.25-1H404a1.15,1.15,0,0,0-1.25,1v2.67A1.15,1.15,0,0,0,404,404.63Z" transform="translate(-46.94 -77.18)"/><path class="cls-2" d="M454.69,402.2v1.42a1.15,1.15,0,0,1-1.25,1H404a1.15,1.15,0,0,1-1.25-1V402.2Z" transform="translate(-46.94 -77.18)"/><rect class="cls-2" x="365.29" y="307.6" width="19.4" height="0.75"/><rect class="cls-2" x="361.25" y="322.39" width="33.04" height="0.75"/><path class="cls-2" d="M421.46,356.71l-.63-.39,3.93-6.35c-10.56-1.42-14,4.52-14.07,4.58l-.66-.37c.16-.27,3.9-6.67,15.4-4.86l.56.08Z" transform="translate(-46.94 -77.18)"/><path class="cls-20" d="M413.79,393.87a12.16,12.16,0,1,1-12.16-12.16A12.16,12.16,0,0,1,413.79,393.87Z" transform="translate(-46.94 -77.18)"/><path class="cls-21" d="M412.47,393.87A10.84,10.84,0,1,1,401.63,383,10.83,10.83,0,0,1,412.47,393.87Z" transform="translate(-46.94 -77.18)"/><path class="cls-20" d="M411.19,393.87a9.56,9.56,0,1,1-9.56-9.56A9.56,9.56,0,0,1,411.19,393.87Z" transform="translate(-46.94 -77.18)"/><path class="cls-21" d="M402.88,398.74h-3.54a1.47,1.47,0,0,1-1.48-1.47v-.76H400v.13h2.92a1,1,0,0,0,1-1,.67.67,0,0,0-.67-.66h-2.61a2.77,2.77,0,0,1-2.76-2.76v-.38A3.12,3.12,0,0,1,401,388.7h3.54a1.47,1.47,0,0,1,1.48,1.47V391h-2.1v-.23H401a1,1,0,0,0-1,1v.38a.67.67,0,0,0,.66.66h2.61a2.77,2.77,0,0,1,2.77,2.76A3.12,3.12,0,0,1,402.88,398.74Z" transform="translate(-46.94 -77.18)"/><rect class="cls-21" x="353.94" y="310.5" width="2.1" height="12.39"/><rect class="cls-6" x="671.04" y="330.64" width="25.13" height="23.69" rx="4.59"/><path class="cls-2" d="M721.08,427V412.32a4.5,4.5,0,0,1,4.5-4.5h-3.1a4.5,4.5,0,0,0-4.5,4.5V427a4.5,4.5,0,0,0,4.5,4.5h3.1A4.5,4.5,0,0,1,721.08,427Z" transform="translate(-46.94 -77.18)"/><path class="cls-2" d="M738.47,431.7v-.38a4.44,4.44,0,0,0,4.45-4.44V412.45a4.44,4.44,0,0,0-4.45-4.44H727.35v-.38h11.12a4.83,4.83,0,0,1,4.83,4.82v14.43A4.83,4.83,0,0,1,738.47,431.7Z" transform="translate(-46.94 -77.18)"/><polygon class="cls-17" points="684.79 345.64 682.09 342.94 683.63 341.4 684.79 342.55 688 339.34 689.54 340.88 684.79 345.64"/><rect class="cls-15" x="300.94" y="51.79" width="33.69" height="31.76" rx="6.2"/><path class="cls-20" d="M374.69,145.42a.31.31,0,0,0-.18-.53l-5.23-.69A.32.32,0,0,1,369,144l-2.39-4.69a.31.31,0,0,0-.56,0l-2.27,4.76a.31.31,0,0,1-.23.17l-5.21.83a.31.31,0,0,0-.17.53l3.83,3.63a.35.35,0,0,1,.09.28l-.31,2h0l-.51,3.25a.32.32,0,0,0,.12.31.44.44,0,0,0,.16.06.33.33,0,0,0,.17,0l4.64-2.51a.33.33,0,0,1,.29,0l4.69,2.39a.31.31,0,0,0,.45-.33l-1-5.18a.34.34,0,0,1,.09-.28Z" transform="translate(-46.94 -77.18)"/><path class="cls-2" d="M351.62,156V133.66a4.85,4.85,0,0,1,5-4.7h-2.51a6.22,6.22,0,0,0-6.22,6.22v19.34a6.22,6.22,0,0,0,6.22,6.21h2.51A4.85,4.85,0,0,1,351.62,156Z" transform="translate(-46.94 -77.18)"/><rect class="cls-17" x="300.94" y="51.79" width="33.69" height="7.29"/><polygon class="cls-6" points="329 51.79 324.04 51.79 315.89 59.08 320.86 59.08 329 51.79"/><polygon class="cls-6" points="305.9 59.08 310.87 59.08 319.02 51.79 314.05 51.79 305.9 59.08"/><polygon class="cls-6" points="300.94 59.03 309.03 51.79 304.06 51.79 300.94 54.59 300.94 59.03"/><polygon class="cls-6" points="334.62 55.7 334.62 51.79 334.02 51.79 325.88 59.08 330.85 59.08 334.62 55.7"/><polygon class="cls-2" points="334.34 76.45 334.34 52.07 301.22 52.07 301.22 58.75 327.43 58.75 327.43 59.32 300.65 59.32 300.65 51.5 334.91 51.5 334.91 76.45 334.34 76.45"/><rect class="cls-4" x="59.07" y="326.29" width="29.67" height="27.98" rx="5.22"/><path class="cls-2" d="M130.21,431.66v-.44a5.26,5.26,0,0,0,5.25-5.25v-17a5.26,5.26,0,0,0-5.25-5.25H117.07v-.44h13.14a5.69,5.69,0,0,1,5.69,5.69v17A5.69,5.69,0,0,1,130.21,431.66Z" transform="translate(-46.94 -77.18)"/><path class="cls-2" d="M109.67,426.13V408.78a5.31,5.31,0,0,1,5.31-5.31h-3.66a5.31,5.31,0,0,0-5.31,5.31v17.35a5.31,5.31,0,0,0,5.31,5.31H115A5.31,5.31,0,0,1,109.67,426.13Z" transform="translate(-46.94 -77.18)"/><path class="cls-6" d="M122.19,420.33h0a3.54,3.54,0,0,1-3.54-3.54v-5.14a3.54,3.54,0,0,1,3.54-3.54h0a3.53,3.53,0,0,1,3.54,3.54v5.14A3.53,3.53,0,0,1,122.19,420.33Z" transform="translate(-46.94 -77.18)"/><path class="cls-6" d="M122.19,422.43a5.55,5.55,0,0,1-5.54-5.55v-2.32a.5.5,0,0,1,.5-.5.5.5,0,0,1,.5.5v2.32a4.55,4.55,0,1,0,9.09,0v-2.32a.5.5,0,0,1,.5-.5.5.5,0,0,1,.5.5v2.32A5.56,5.56,0,0,1,122.19,422.43Z" transform="translate(-46.94 -77.18)"/><rect class="cls-6" x="74.75" y="344.75" width="1" height="5.77"/><path class="cls-6" d="M125.4,428.19H119a.5.5,0,0,1-.5-.5.5.5,0,0,1,.5-.5h6.41a.51.51,0,0,1,.5.5A.5.5,0,0,1,125.4,428.19Z" transform="translate(-46.94 -77.18)"/><rect class="cls-9" x="32.31" y="333.89" width="21.49" height="20.26" rx="3.96"/><path class="cls-2" d="M81.9,427.48V414.92a3.85,3.85,0,0,1,3.85-3.85H83.1a3.85,3.85,0,0,0-3.85,3.85v12.56a3.85,3.85,0,0,0,3.85,3.85h2.65A3.85,3.85,0,0,1,81.9,427.48Z" transform="translate(-46.94 -77.18)"/><path class="cls-2" d="M96.77,431.49v-.32a3.82,3.82,0,0,0,3.81-3.81V415a3.81,3.81,0,0,0-3.81-3.8H87.26v-.32h9.51A4.13,4.13,0,0,1,100.9,415v12.33A4.13,4.13,0,0,1,96.77,431.49Z" transform="translate(-46.94 -77.18)"/><path class="cls-3" d="M92.44,415.33v5.47h0l3.86,3.87a5.43,5.43,0,0,0,1.6-3.86h0A5.46,5.46,0,0,0,92.44,415.33Z" transform="translate(-46.94 -77.18)"/><path class="cls-6" d="M87.89,416.84a5.48,5.48,0,0,0-1.61,3.86h5.2l0-5.47A4.87,4.87,0,0,0,87.89,416.84Z" transform="translate(-46.94 -77.18)"/><path class="cls-6" d="M91.64,421.6h0l-5.47,0h0a5.47,5.47,0,0,0,9.33,3.88Z" transform="translate(-46.94 -77.18)"/><rect class="cls-20" x="637.06" y="324.35" width="31.75" height="29.94" rx="5.47"/><path class="cls-2" d="M709.89,431.7v-.47a5.62,5.62,0,0,0,5.62-5.62V407.38a5.62,5.62,0,0,0-5.62-5.62H695.83v-.47h14.06a6.09,6.09,0,0,1,6.09,6.09v18.23A6.09,6.09,0,0,1,709.89,431.7Z" transform="translate(-46.94 -77.18)"/><path class="cls-2" d="M687.53,427V406a4.56,4.56,0,0,1,4.69-4.42h-2.37a5.85,5.85,0,0,0-5.85,5.85v18.23a5.85,5.85,0,0,0,5.85,5.85h2.37A4.56,4.56,0,0,1,687.53,427Z" transform="translate(-46.94 -77.18)"/><polygon class="cls-6" points="647.8 333.36 654.97 338.22 662.14 333.36 647.8 333.36"/><polygon class="cls-6" points="663.04 344.63 646.9 344.63 646.9 333.7 654.97 339.17 663.04 333.7 663.04 344.63"/><rect class="cls-1" x="269.25" y="56.5" width="28.61" height="26.98" rx="5.77"/><path class="cls-2" d="M339.52,160.87v-.43a5.07,5.07,0,0,0,5.07-5.06V139a5.07,5.07,0,0,0-5.07-5.06H326.85v-.43h12.67A5.5,5.5,0,0,1,345,139v16.43A5.5,5.5,0,0,1,339.52,160.87Z" transform="translate(-46.94 -77.18)"/><path class="cls-2" d="M319.72,155.53V138.8a5.12,5.12,0,0,1,5.12-5.12h-3.52a5.12,5.12,0,0,0-5.13,5.12v16.73a5.12,5.12,0,0,0,5.13,5.12h3.52A5.12,5.12,0,0,1,319.72,155.53Z" transform="translate(-46.94 -77.18)"/><path class="cls-6" d="M341.56,145.27l-4,1.19v-2.14h-1a2.84,2.84,0,0,0-5.68,0h-.85a2.84,2.84,0,1,0-5.68,0h-1.14v8.53h14.32v-2.13l4,1.18Z" transform="translate(-46.94 -77.18)"/><rect class="cls-6" x="404.17" y="59.67" width="25.13" height="23.69" rx="4.59"/><path class="cls-2" d="M454.21,156V141.35a4.49,4.49,0,0,1,4.5-4.5h-3.1a4.49,4.49,0,0,0-4.5,4.5V156a4.5,4.5,0,0,0,4.5,4.5h3.1A4.5,4.5,0,0,1,454.21,156Z" transform="translate(-46.94 -77.18)"/><path class="cls-2" d="M471.6,160.73v-.38a4.45,4.45,0,0,0,4.45-4.44V141.48A4.46,4.46,0,0,0,471.6,137H460.47v-.37H471.6a4.82,4.82,0,0,1,4.82,4.82v14.43A4.83,4.83,0,0,1,471.6,160.73Z" transform="translate(-46.94 -77.18)"/><path class="cls-17" d="M468.13,150.87c.26,0,.48-.2.67-.61a3.41,3.41,0,0,0,.29-1.52,4.83,4.83,0,0,0-1.14-3.29,3.88,3.88,0,0,0-3.05-1.3,4.3,4.3,0,0,0-3.23,1.37,4.57,4.57,0,0,0-1.31,3.27,4.4,4.4,0,0,0,1.23,3.18,4.11,4.11,0,0,0,3.05,1.27,3.5,3.5,0,0,0,2.51-1.05l.58,1a4.32,4.32,0,0,1-1.44.8,5.07,5.07,0,0,1-1.65.3,5.4,5.4,0,0,1-5.52-5.5,5.68,5.68,0,0,1,5.69-5.69,5.28,5.28,0,0,1,3.93,1.6,5.48,5.48,0,0,1,1.58,4,4.42,4.42,0,0,1-.64,2.49,2,2,0,0,1-1.69.93,1.57,1.57,0,0,1-1-.32,1.72,1.72,0,0,1-.62-.82,2.36,2.36,0,0,1-2,1,2.78,2.78,0,0,1-2.07-.9,3.12,3.12,0,0,1-.88-2.29,3.54,3.54,0,0,1,.79-2.34,2.61,2.61,0,0,1,2.09-.95,1.94,1.94,0,0,1,.83.19,1.92,1.92,0,0,1,.57.38l.18.18v-.58h1.76v4.5C467.71,150.64,467.85,150.87,468.13,150.87ZM466,148.74a1.81,1.81,0,0,0-.38-1.17,1.19,1.19,0,0,0-1-.46,1.15,1.15,0,0,0-1,.46,1.84,1.84,0,0,0-.36,1.15,2,2,0,0,0,.36,1.19,1.13,1.13,0,0,0,1,.51,1.15,1.15,0,0,0,1-.49A1.93,1.93,0,0,0,466,148.74Z" transform="translate(-46.94 -77.18)"/><rect class="cls-4" x="310.27" y="299.91" width="29.67" height="27.98" rx="5.22"/><path class="cls-2" d="M381.41,405.28v-.44a5.26,5.26,0,0,0,5.25-5.25v-17a5.26,5.26,0,0,0-5.25-5.26H368.27v-.44h13.14a5.7,5.7,0,0,1,5.69,5.7v17A5.69,5.69,0,0,1,381.41,405.28Z" transform="translate(-46.94 -77.18)"/><path class="cls-2" d="M360.87,399.74V382.4a5.32,5.32,0,0,1,5.32-5.32h-3.66a5.32,5.32,0,0,0-5.32,5.32v17.34a5.32,5.32,0,0,0,5.32,5.32h3.66A5.32,5.32,0,0,1,360.87,399.74Z" transform="translate(-46.94 -77.18)"/><path class="cls-6" d="M363.57,396.2a2.56,2.56,0,0,0,1-.18,2,2,0,0,0,.41-.69q.52-1.18,1.35-3.3l3.05-7.91h1.27l3.9,9.8a12.43,12.43,0,0,0,.94,2,2.32,2.32,0,0,0,1.09.24V397c-.94,0-1.82-.07-2.65-.07-1,0-1.95,0-2.84.07v-.83a4.91,4.91,0,0,0,1.18-.13.27.27,0,0,0,.16-.27,6.44,6.44,0,0,0-.36-1.16l-.57-1.52c-.71,0-1.51,0-2.39,0s-1.47,0-2.1,0l-.38,1c-.1.28-.23.7-.37,1.25a1.16,1.16,0,0,0-.06.34.3.3,0,0,0,.17.29,5.14,5.14,0,0,0,1.21.18V397c-.56,0-1.26-.07-2.1-.07s-1.44,0-1.91.07Zm5.67-8.86L367.41,392c.53,0,1.12.05,1.76.05s1.31,0,1.92-.05Z" transform="translate(-46.94 -77.18)"/><path class="cls-6" d="M384,396.26v.61l-.57,0c-.3,0-.6,0-.91,0-.46,0-.9,0-1.32,0l-.08-.08.08-1-1.55,1.16a3.61,3.61,0,0,1-.73.1,1.58,1.58,0,0,1-1.22-.47,2,2,0,0,1-.43-1.37,1.88,1.88,0,0,1,.59-1.56,8.74,8.74,0,0,1,3.34-1.06,2.28,2.28,0,0,0-.3-1.27,1.5,1.5,0,0,0-1.26-.55,1.92,1.92,0,0,0-.41.05,2.5,2.5,0,0,0-.43.16l-.33.79-.51-.13v-.95a10.37,10.37,0,0,1,1.63-.89,3,3,0,0,1,1-.13,3.37,3.37,0,0,1,1.42.26,1.72,1.72,0,0,1,.8.72A2.72,2.72,0,0,1,383,392c0,.25,0,.68,0,1.31s0,1.16,0,1.55a6.21,6.21,0,0,0,0,1.13.33.33,0,0,0,.14.19A3.15,3.15,0,0,0,384,396.26Zm-2.8-3.05a4.18,4.18,0,0,0-1.69.62,1.07,1.07,0,0,0-.4.88,1,1,0,0,0,.25.72.87.87,0,0,0,.64.26,1.71,1.71,0,0,0,1.2-.66Z" transform="translate(-46.94 -77.18)"/><rect class="cls-22" x="483.24" y="299.91" width="29.67" height="27.98" rx="5.22"/><path class="cls-2" d="M554.37,405.28v-.44a5.26,5.26,0,0,0,5.26-5.25v-17a5.27,5.27,0,0,0-5.26-5.26H541.23v-.44h13.14a5.71,5.71,0,0,1,5.7,5.7v17A5.7,5.7,0,0,1,554.37,405.28Z" transform="translate(-46.94 -77.18)"/><path class="cls-2" d="M533.83,399.74V382.4a5.32,5.32,0,0,1,5.32-5.32h-3.66a5.32,5.32,0,0,0-5.31,5.32v17.34a5.32,5.32,0,0,0,5.31,5.32h3.66A5.32,5.32,0,0,1,533.83,399.74Z" transform="translate(-46.94 -77.18)"/><path class="cls-3" d="M546.82,381.94a5.58,5.58,0,0,0-5.59,5.58c0,3.08,5.59,11.49,5.59,11.49s5.58-8.41,5.58-11.49A5.58,5.58,0,0,0,546.82,381.94Zm0,7.93a2.35,2.35,0,1,1,2.35-2.35A2.36,2.36,0,0,1,546.82,389.87Z" transform="translate(-46.94 -77.18)"/></g><g id="Man"><path class="cls-8" d="M200.45,412.64,199,424.58l-2.36,2.21a4.06,4.06,0,0,0-1.3,3V431h13.7l-.94-4.2-1.55-2.35.57-11.81Z" transform="translate(-46.94 -77.18)"/><path class="cls-2" d="M206.58,424.45a23.15,23.15,0,0,0,1.55,2.35l.94,4.2h-13.7v-1.23a4.06,4.06,0,0,1,1.3-3l2.36-2.21S203.85,418.4,206.58,424.45Z" transform="translate(-46.94 -77.18)"/><polygon class="cls-8" points="182.17 337.96 184.34 344.45 185.13 349.47 174.93 349.47 174.93 344.45 176.03 340.35 174.93 335.47 182.17 337.96"/><path class="cls-2" d="M231.27,421.63l1.89,2.63,5.27,1,7.57,1.14a2.53,2.53,0,0,1,2.09,2.48v2.77h-24a2.2,2.2,0,0,1-2.2-2.19v-7.84S227.39,429.41,231.27,421.63Z" transform="translate(-46.94 -77.18)"/><polygon class="cls-3" points="152.92 342.69 148.53 250.49 167.42 251.94 161.42 342.69 152.92 342.69"/><polygon class="cls-3" points="164.44 251.71 177.93 298.44 174.17 342.69 184.92 342.69 191.42 298.69 184.55 249.44 164.44 251.71"/><path class="cls-1" d="M194.86,329.87l2.5-30.31-2.5-24.45a8.68,8.68,0,0,1,8.49-8.86h18.94a8.67,8.67,0,0,1,8.49,8.67l-1.94,28.46,3,26.49Z" transform="translate(-46.94 -77.18)"/><polygon class="cls-8" points="180.9 191.23 200.03 211.5 217.44 197.94 221.94 202.28 201.11 223.78 176.77 207.44 180.9 191.23"/><polygon class="cls-1" points="180.9 191.23 176.41 207.5 186.34 213.87 190.4 201.29 180.9 191.23"/><path class="cls-8" d="M211.85,271.12h0a4.24,4.24,0,0,1-4.24-4.24v-6.73h8.48v6.73A4.24,4.24,0,0,1,211.85,271.12Z" transform="translate(-46.94 -77.18)"/><path class="cls-8" d="M216.86,264.62h-9.25V249.37a5.25,5.25,0,0,1,5.25-5.25h3.94a4.69,4.69,0,0,1,4.68,4.69v1.31L221,252l.5,2.37V260A4.62,4.62,0,0,1,216.86,264.62Z" transform="translate(-46.94 -77.18)"/><path class="cls-23" d="M222.71,241.7a8.42,8.42,0,0,1,1.92,4.62,4.45,4.45,0,0,1-1.06,3.06c-1.19,1.32-4.38,1.39-6,1.05-1.25-.27-2.83-1.14-4.09-.81a3.52,3.52,0,0,0-2.33,2.69,6,6,0,0,0,1.12,4.38,2.46,2.46,0,0,0,1.52,1.21c.87.13,1.68-.54,2.43-.87a7.71,7.71,0,0,1,3.16-.75,1.94,1.94,0,0,1,1,.21,1.77,1.77,0,0,1,.65.73,6.39,6.39,0,0,1-.91,7.09,9,9,0,0,1-6.81,2.87c-1.82,0-4.24-.63-5-2.52a3.19,3.19,0,0,1,.31-2.89,6,6,0,0,0,1.28-2.7,10.23,10.23,0,0,0-.29-4.19c-.18-.66-.56-1.38-1.23-1.49a.28.28,0,0,0-.2,0,.29.29,0,0,0-.07.18,32.31,32.31,0,0,0-.2,6,1.67,1.67,0,0,1-.34,1.38c-.51-.4-.15-1.4-.13-2a14.69,14.69,0,0,0,0-2.89,13.76,13.76,0,0,0-1-3.08,17.32,17.32,0,0,1-1.51-6.34,6.91,6.91,0,0,1,2.67-5.71,9.76,9.76,0,0,1,3.5-1.28,19.42,19.42,0,0,1,6.11-.55A8.32,8.32,0,0,1,222.71,241.7Z" transform="translate(-46.94 -77.18)"/><rect class="cls-7" x="189.57" y="295.45" width="19.39" height="31.17" transform="translate(-22.78 -91.39) rotate(4.35)"/><rect class="cls-6" x="141.48" y="218.27" width="19.39" height="31.17"/><polygon class="cls-2" points="161.25 238.03 160.5 238.03 160.5 218.65 145.98 218.65 145.98 217.9 161.25 217.9 161.25 238.03"/><polygon class="cls-2" points="161.25 249.82 141.11 249.82 141.11 232.78 141.86 232.78 141.86 249.07 160.5 249.07 160.5 246.27 161.25 246.27 161.25 249.82"/><polygon class="cls-8" points="150.08 192.12 132.02 215.77 149.27 244.1 158.27 246.27 161.54 244.52 161.54 239.27 158.27 240.02 156.02 238.02 158.27 235.02 156.52 233.52 153.27 235.52 150.52 236.52 144.69 217.85 160.02 202.27 150.08 192.12"/><polygon class="cls-1" points="146.98 215.52 160.67 202.32 150.27 191.82 138.34 207.49 146.98 215.52"/><polygon class="cls-6" points="222.7 210.77 202.28 210.77 211.86 182.97 232.28 182.97 222.7 210.77"/><polygon class="cls-2" points="222.97 211.14 201.75 211.14 211.6 182.6 232.81 182.6 228.97 193.72 228.26 193.48 231.75 183.35 212.13 183.35 202.81 210.39 222.43 210.39 224.89 203.25 225.6 203.49 222.97 211.14"/><polygon class="cls-8" points="228.98 194.35 224.64 195 221.94 203.05 226.31 202.11 228.98 194.35"/><polygon class="cls-2" points="224.32 196.9 224.04 196.81 224.26 196.1 224.35 196.13 227.13 195.56 227.28 196.3 224.32 196.9"/><polygon class="cls-2" points="223.73 198.86 223.45 198.78 223.66 198.06 223.76 198.09 226.54 197.53 226.69 198.26 223.73 198.86"/><polygon class="cls-2" points="223.14 200.82 222.86 200.74 223.07 200.02 223.17 200.05 225.95 199.49 226.1 200.22 223.14 200.82"/><polygon class="cls-2" points="158.56 242.17 156.18 241.94 156.25 241.19 158.49 241.41 161.51 240.65 161.51 241.4 161.43 241.4 158.56 242.17"/><polygon class="cls-2" points="158.56 244.17 156.18 243.94 156.25 243.19 158.49 243.41 161.51 242.65 161.51 243.4 161.43 243.4 158.56 244.17"/><polygon class="cls-2" points="182.86 217.61 182.12 217.56 182.56 211 186.54 213.55 186.14 214.18 183.22 212.31 182.86 217.61"/><rect class="cls-2" x="196.48" y="287.15" width="5.61" height="0.75" transform="translate(-190.74 141.95) rotate(-44)"/><path class="cls-2" d="M193.93,293.22l-9.16-8.51,2.77-3.56,9.44,9Zm-8.15-8.59,8.12,7.55,2-2-8.28-7.88Z" transform="translate(-46.94 -77.18)"/><path class="cls-2" d="M233.48,291.62l-3.83-2.46,4.17-14.52,3.85,4Zm-2.95-2.79,2.54,1.63,3.75-11.61-2.64-2.75Z" transform="translate(-46.94 -77.18)"/><polygon class="cls-2" points="150.68 265.64 150.28 265 156.84 260.97 157.88 253.76 158.62 253.87 157.53 261.42 150.68 265.64"/><polygon class="cls-2" points="185.47 264.02 181.21 261.7 178.67 253.94 179.38 253.7 181.83 261.19 185.83 263.36 185.47 264.02"/><path class="cls-2" d="M216,253.8a.34.34,0,1,0,.67,0,.34.34,0,0,0-.67,0Z" transform="translate(-46.94 -77.18)"/><path class="cls-2" d="M217.52,252.45a8.58,8.58,0,0,1-2.8.39c-.21,0-.24-.34,0-.33a8.36,8.36,0,0,0,2.72-.38.17.17,0,0,1,.11.32Z" transform="translate(-46.94 -77.18)"/><path class="cls-2" d="M219.36,253.6a.34.34,0,1,0,.31-.36A.33.33,0,0,0,219.36,253.6Z" transform="translate(-46.94 -77.18)"/><path class="cls-2" d="M220.85,252.46a8.15,8.15,0,0,1-2.7-.07c-.2,0-.16-.37,0-.33a7.62,7.62,0,0,0,2.61.07.17.17,0,0,1,0,.33Z" transform="translate(-46.94 -77.18)"/></g><g id="woman"><path class="cls-3" d="M582.5,245.19c-2.57,4.41-.46,10.12.46,14.74.36,1.81,1.23,4.29-.49,5.6-.16.13-.31-.14-.16-.26,2.4-1.83-.78-10-1.1-12.57s-.35-5.31,1-7.66c.1-.17.37,0,.27.15Z" transform="translate(-46.94 -77.18)"/><path class="cls-3" d="M580.84,246.5l0-.09a5.15,5.15,0,0,1,2.54-3.18c.5-.3,3.42-1.63,3.92-.95l6.29,8.63a33.38,33.38,0,0,1,5.9,10.65c1.07,3.49,1.31,6.61-.87,9.73a9.29,9.29,0,0,1-6.34,4.1,6,6,0,0,1-6.29-3.54c-.65-1.74-.28-3.67-.35-5.52-.14-3.49-1.85-6.68-3.24-9.88C581.11,253.41,580,249.83,580.84,246.5Z" transform="translate(-46.94 -77.18)"/><polygon class="cls-8" points="552.3 292.79 552.3 350.17 546.92 352.13 545.49 348.52 547.37 346.43 540.16 291.01 552.3 292.79"/><polygon class="cls-8" points="544.5 292.47 543.21 349.58 534 351.89 533.47 350.33 538.29 346.75 532.25 288.33 544.5 292.47"/><path class="cls-2" d="M599.24,319.35s7.56,12,1.28,24l-1.28,29.5H578.7l-2.83-39.55a41,41,0,0,1,1.4-13.93h22Z" transform="translate(-46.94 -77.18)"/><path class="cls-2" d="M599.24,423.63v5.52a1.93,1.93,0,0,1-1.94,1.93H581.89v-1.36a2.41,2.41,0,0,1,1.55-2.26l10.86-3.86S596.13,430.05,599.24,423.63Z" transform="translate(-46.94 -77.18)"/><path class="cls-2" d="M590.15,423.63v5.52a1.93,1.93,0,0,1-1.94,1.93H571.52v-1.36a2.43,2.43,0,0,1,1.55-2.26l12.14-3.86S587,430.05,590.15,423.63Z" transform="translate(-46.94 -77.18)"/><path class="cls-20" d="M602.31,327.22l-4.78,5.37-8.14-9.12-8.13,9.12-5.32-6c.11-1.2.27-2.39.49-3.57l4.83,5.42,8.13-9.13h0l8.14,9.13,3.88-4.36A28.22,28.22,0,0,1,602.31,327.22Z" transform="translate(-46.94 -77.18)"/><polygon class="cls-20" points="531.18 287.49 534.32 291.01 542.46 281.89 550.59 291.01 552.6 288.76 552.41 293.08 550.59 295.13 542.46 286 534.32 295.13 531.5 291.97 531.18 287.49"/><polygon class="cls-20" points="542.46 272.76 534.32 281.89 530.47 277.57 530.15 273.1 534.32 277.77 542.46 268.65 550.59 277.77 553.2 274.85 553.01 279.17 550.59 281.89 542.46 272.76"/><path class="cls-20" d="M589.39,336.7l-8.13,9.13-4.88-5.48-.32-4.47,5.2,5.83,8.13-9.12,8.14,9.12,5.33-6a21.52,21.52,0,0,1-1.51,5.81l-3.82,4.29Z" transform="translate(-46.94 -77.18)"/><polygon class="cls-2" points="547.04 346.57 547.51 346.51 540.97 296.14 540.5 296.2 547.04 346.57"/><path class="cls-8" d="M599.24,319.35l1.34-17,3.61-13.78,10.47,16.32L603,326.65H601.2l-1.86.13-2.3-.64-.16.69,2.2,1.25.38.3-5.23,6.2.53.31,3.82-3.72.16.18-3.8,5,.42.35,4-4.44.16.23-3.1,4.55.32.4,3.4-4.08.18.25-2.2,3.53.4.25,2.39-3.17,4.53-4.06L623,305.57l-13.76-27.65a13.12,13.12,0,0,0-9.7-7.26l-13.46-2.23a8.68,8.68,0,0,0-8.59,3.67L567.75,284l-4.52-14.18v-8.25l-2.52-1.27-5.27-1.48v8.25l4.47,4.47,3.81,24.71,13.94-10.16-2.68,7.1,2.27,10.55,0,15.8Z" transform="translate(-46.94 -77.18)"/><path class="cls-24" d="M620.14,299.76l-10.87-21.84a13.12,13.12,0,0,0-9.7-7.26l-13.46-2.23a8.68,8.68,0,0,0-8.59,3.67L567.75,284l1.5,8.22,8.41-6.13-2.68,7.1,1.77,10.1.46,16.25,22-.19,1.34-17,3.61-13.78,10.47,16.32Z" transform="translate(-46.94 -77.18)"/><polygon class="cls-8" points="541.43 191.63 540.94 202.1 549.22 193.1 548.71 182.16 541.5 182.16 541.43 191.63"/><rect class="cls-7" x="556.58" y="257.68" width="4.05" height="12.29" transform="translate(1070.28 450.47) rotate(180)"/><path class="cls-7" d="M544.18,234.34l23.37,12.83a5.41,5.41,0,0,1,2.66,6h0a5.43,5.43,0,0,1-4.64,4.1L541,260.12Z" transform="translate(-46.94 -77.18)"/><path class="cls-1" d="M559.5,258a15.69,15.69,0,0,0,3-9.52,17.61,17.61,0,0,0-.55-4.37l4.29,2.36a16.42,16.42,0,0,1,.13,2,16,16,0,0,1-2.66,9Z" transform="translate(-46.94 -77.18)"/><ellipse class="cls-1" cx="494.09" cy="169.7" rx="9.81" ry="13.24"/><ellipse class="cls-25" cx="494.09" cy="169.7" rx="9.07" ry="12.25"/><path class="cls-3" d="M540.17,247.32a3.32,3.32,0,0,0,1.7,3.27l6.46,3.53a15.26,15.26,0,0,0,1.76-7.24,15.82,15.82,0,0,0-.21-2.6l-6.46.08A3.31,3.31,0,0,0,540.17,247.32Z" transform="translate(-46.94 -77.18)"/><polygon class="cls-17" points="506.95 181.47 516.78 180.33 515.76 182.18 506.4 182.41 506.95 181.47"/><path class="cls-8" d="M587,263l1.53.57a4.45,4.45,0,0,0,5.75-2.6l.58-1.53a10.94,10.94,0,0,0-6.37-14.09l-.2-.07a2.42,2.42,0,0,0-3.27,2.09l0,.62a18.06,18.06,0,0,1-4.17,3.38c-.43.26,1.35.93,1.35.93h0A8.31,8.31,0,0,0,587,263Z" transform="translate(-46.94 -77.18)"/><path class="cls-2" d="M585.63,249.87c-.09.25-.07.48,0,.53s.3-.12.39-.37.07-.48-.05-.53S585.72,249.62,585.63,249.87Z" transform="translate(-46.94 -77.18)"/><path class="cls-2" d="M586.36,256.16a2.31,2.31,0,0,1-3.1,1.46.16.16,0,0,1,.11-.29,2,2,0,0,0,2.7-1.28c.06-.19.35-.08.29.11Z" transform="translate(-46.94 -77.18)"/><path class="cls-2" d="M585,253.63a2.18,2.18,0,0,1-1.41-1.45,4,4,0,0,1,0-2.43h0a4,4,0,0,1,1.29-2.06,2,2,0,0,1,3.36.94,4.33,4.33,0,0,1-1.26,4.5,2.32,2.32,0,0,1-1.45.56A2.07,2.07,0,0,1,585,253.63Zm.14-5.58a3.58,3.58,0,0,0-1.14,1.83h0a3.57,3.57,0,0,0,0,2.15,1.55,1.55,0,0,0,2.63.73,3.8,3.8,0,0,0,1.11-4,1.66,1.66,0,0,0-1.09-1.15,1.18,1.18,0,0,0-.37,0A1.85,1.85,0,0,0,585.09,248.05Z" transform="translate(-46.94 -77.18)"/><rect class="cls-2" x="589.55" y="249.84" width="0.46" height="3.98" transform="translate(68.67 606.41) rotate(-65.44)"/><polygon class="cls-8" points="508.5 182.95 512.1 182.95 512.1 190.41 508.5 189.9 508.5 182.95"/><rect class="cls-2" x="509.18" y="183.65" width="2.92" height="0.69"/><rect class="cls-2" x="509.18" y="185.71" width="2.92" height="0.69"/><rect class="cls-2" x="509.18" y="187.78" width="2.92" height="0.69"/><polygon class="cls-2" points="561.08 218.01 557.38 212.25 555.9 217.91 555.24 217.74 557.12 210.56 561.66 217.64 561.08 218.01"/><rect class="cls-2" x="567.92" y="287.78" width="13.96" height="0.69" transform="translate(-106.7 314.53) rotate(-35.89)"/><rect class="cls-2" x="577.21" y="319.11" width="22.03" height="0.69" transform="translate(-49.38 -72.63) rotate(-0.44)"/><polygon class="cls-16" points="541.55 186.41 547.01 186.06 541.55 192.79 541.55 186.41"/><path class="cls-3" d="M588.68,238.44c-1.6.2-4.59.79-5.42,2.38-1,1.91,1.2,4.15,2.57,5.13s3.28,2,4.23,3.59.73,3.45,1.12,5.23c.33,1.51,1.18,3.06,1.24,4.61.08,1.81-.78,3.65-1.17,5.39-.44,1.94-.48,4.17.78,5.72s3.79,2,6,2.18a15.08,15.08,0,0,0,4.93-.13,5.26,5.26,0,0,0,3.75-2.94c1-2.65-1-5.51-.94-8.35,0-2.2,1.32-4.18,1.76-6.34a11.11,11.11,0,0,0-1.8-8C602,241,595.68,237.57,588.68,238.44Z" transform="translate(-46.94 -77.18)"/><path class="cls-3" d="M602.78,243.84c2.29,1.89,3.06,4.16,3.16,7.07s-1.58,15.28,4.61,13.8a.16.16,0,0,1,.08.3c-2.67.64-4.36-1.38-4.85-3.82-1.15-5.72,2-12.83-3.22-17.13-.16-.12.06-.34.22-.22Z" transform="translate(-46.94 -77.18)"/></g><g id="Man_2" data-name="Man 2"><path class="cls-8" d="M428.7,216.2v-7.5s-5.84-.33-5.84,0-1.58,7.5-1.58,7.5L425,222Z" transform="translate(-46.94 -77.18)"/><polygon class="cls-8" points="357.93 137.4 356.4 133.32 352.02 133.32 350.56 138.06 352.83 142.44 356.47 141.42 357.93 137.4"/><polygon class="cls-9" points="350 135.65 338.33 88.32 355 71.15 372.38 78.75 355.35 92.75 358.33 135.65 350 135.65"/><polygon class="cls-9" points="361.67 80 380.61 90.99 374.5 134.82 382.83 134.82 398 86.66 376.67 71.15 361.67 71.15 361.67 80"/><path class="cls-2" d="M404.87,214.58l1.19,9.46a15.34,15.34,0,0,1-.59,6.49l-.06.19a2.46,2.46,0,0,1-2.35,1.73h0a2.46,2.46,0,0,1-1.92-.91l-2-2.5a9.07,9.07,0,0,1-2-6.2l.4-7.6S400.42,217.79,404.87,214.58Z" transform="translate(-46.94 -77.18)"/><path class="cls-2" d="M428.7,216.2l.91,7.59,5.05,6.29a1.65,1.65,0,0,1,.37,1v1.67h0a1.94,1.94,0,0,1-2.29.33c-2.54-1.39-8.15-4.88-10.38-9.58a66.12,66.12,0,0,1-5.48-4.36,1.46,1.46,0,0,1,.21-2.26l4.36-2.88S425.28,222,428.7,216.2Z" transform="translate(-46.94 -77.18)"/><path class="cls-1" d="M426.17,103.66H404.54a6.27,6.27,0,0,0-6.26,6.6l2.16,41.4h29.83l2.16-41.4A6.27,6.27,0,0,0,426.17,103.66Z" transform="translate(-46.94 -77.18)"/><polygon class="cls-8" points="372.38 26.32 368.42 32.82 364.46 26.32 364.46 21.15 372.38 21.15 372.38 26.32"/><path class="cls-8" d="M419.25,101.16h-7.61a6.86,6.86,0,0,1-6.78-5.73l-.32-1.86a6.72,6.72,0,0,1,.73-4.31h0a16.8,16.8,0,0,1-.18-5.57l.18-1.35h14Z" transform="translate(-46.94 -77.18)"/><path class="cls-2" d="M401.68,79.31c-1.6,2.12-1,3.72,1,5.4a14.9,14.9,0,0,0,5.14,3,8.15,8.15,0,0,0,5.55-.23c2-.8,2.83-1.3,3.69,1.09a2.14,2.14,0,0,1,.15,1.14A4.63,4.63,0,0,1,416.4,91a5,5,0,0,0-.33,3.33l.93,0a2,2,0,0,1,.21-1.08.66.66,0,0,1,1-.21.6.6,0,0,1,.16.25c.45,1.08-.67,2.18-.72,3.35a1.82,1.82,0,0,0,2.9,1.69c1-.82,1.34-2.65,1.6-3.83a43.58,43.58,0,0,0,.82-8.3c.06-3-.18-5.67-3.21-7.19a14.36,14.36,0,0,0-4.67-1.2q-3.42-.45-6.86-.62a9.48,9.48,0,0,0-4.79.65A4.88,4.88,0,0,0,401.68,79.31Z" transform="translate(-46.94 -77.18)"/><polygon class="cls-2" points="368.79 41.99 368.04 41.99 368.04 32.71 372.19 25.9 373.31 26.12 373.17 26.85 372.56 26.73 368.79 32.92 368.79 41.99"/><rect class="cls-2" x="428.44" y="167.46" width="0.75" height="3.03" transform="translate(9.06 362.8) rotate(-57.52)"/><rect class="cls-2" x="399.43" y="170.54" width="3.2" height="0.75" transform="translate(-66.25 209.26) rotate(-38.45)"/><polygon class="cls-20" points="352.32 51.78 352.38 52.91 384.46 52.91 384.52 51.78 352.32 51.78"/><polygon class="cls-20" points="352.48 54.93 352.54 56.06 384.29 56.06 384.35 54.93 352.48 54.93"/><polygon class="cls-20" points="384.13 59.21 384.19 58.08 352.65 58.08 352.7 59.21 384.13 59.21"/><polygon class="cls-20" points="351.99 45.48 352.05 46.61 384.79 46.61 384.84 45.48 351.99 45.48"/><polygon class="cls-20" points="352.15 48.63 352.21 49.76 384.62 49.76 384.68 48.63 352.15 48.63"/><polygon class="cls-8" points="352.27 29.48 338.87 54.28 348.37 73.61 352.54 70.69 348.62 54.19 357.12 41.44 352.27 29.48"/><polygon class="cls-1" points="352.27 29.48 343.44 45.82 350.6 51.22 357.5 41.41 352.27 29.48"/><polygon class="cls-8" points="384.6 29.48 398 54.28 387.64 75.38 384.33 70.69 388.25 54.19 379.75 41.44 384.6 29.48"/><polygon class="cls-1" points="384.6 29.48 393.43 45.82 386.27 51.22 379.37 41.41 384.6 29.48"/><polygon class="cls-10" points="388.33 58.9 347.25 58.9 348.25 82.57 387.33 82.57 388.33 58.9"/><path class="cls-7" d="M417.61,147.91a2.88,2.88,0,1,1-2.88-2.88A2.88,2.88,0,0,1,417.61,147.91Z" transform="translate(-46.94 -77.18)"/><polygon class="cls-20" points="392.9 44.85 392.36 43.85 384.96 49.37 385.61 50.28 392.9 44.85"/><polygon class="cls-20" points="383.15 46.79 383.8 47.71 391.39 42.05 390.85 41.05 383.15 46.79"/><polygon class="cls-20" points="346.08 40.94 345.54 41.94 353.14 47.61 353.79 46.69 346.08 40.94"/><polygon class="cls-20" points="344.56 43.74 344.02 44.74 351.33 50.19 351.98 49.27 344.56 43.74"/><rect class="cls-2" x="395.88" y="124.83" width="7.8" height="0.75" transform="translate(20.34 302.88) rotate(-54.86)"/><rect class="cls-2" x="431.01" y="122.65" width="0.75" height="6.33" transform="translate(-40.79 193.87) rotate(-35.12)"/><rect class="cls-2" x="366.36" y="33.6" width="1.11" height="1.11"/><rect class="cls-2" x="366.36" y="36.65" width="1.11" height="1.11"/><rect class="cls-2" x="366.36" y="39.71" width="1.11" height="1.11"/><polygon class="cls-16" points="364.46 23.98 369.16 22.15 364.46 26.32 364.46 23.98"/><path class="cls-2" d="M408.66,97.22a2,2,0,0,0,1.65-.08,3.1,3.1,0,0,0,1.18-1.42.25.25,0,0,0-.43-.26,3,3,0,0,1-.88,1.19,1.58,1.58,0,0,1-1.39.09c-.3-.12-.43.37-.13.48Z" transform="translate(-46.94 -77.18)"/><path class="cls-2" d="M407.43,90.91l0,.39c0,.32.48.32.5,0l0-.39c0-.32-.47-.32-.5,0Z" transform="translate(-46.94 -77.18)"/><path class="cls-2" d="M411.43,90.91l0,.39c0,.32.48.32.5,0l0-.39c0-.32-.47-.32-.5,0Z" transform="translate(-46.94 -77.18)"/><path class="cls-2" d="M406,90.33a3.52,3.52,0,0,1,2-.53c.32,0,.32-.48,0-.5a4.12,4.12,0,0,0-2.3.59.25.25,0,0,0,.25.44Z" transform="translate(-46.94 -77.18)"/><path class="cls-2" d="M411.34,90a2.87,2.87,0,0,1,2.38.28c.26.2.51-.24.25-.43a3.33,3.33,0,0,0-2.76-.33c-.31.07-.18.55.13.48Z" transform="translate(-46.94 -77.18)"/><polygon class="cls-16" points="381.76 134.82 381.76 138.12 375.08 135.65 375.26 134.82 381.76 134.82"/><polygon class="cls-16" points="351.31 135.65 350.77 137.4 357.6 136.53 357.28 135.65 351.31 135.65"/></g><g id="line"><line class="cls-26" y1="354.49" x2="716.53" y2="354.49"/></g></svg>