<?xml version="1.0" encoding="utf-8"?>
<!-- Generator: Adobe Illustrator 24.0.3, SVG Export Plug-In . SVG Version: 6.00 Build 0)  -->
<svg version="1.1" xmlns="http://www.w3.org/2000/svg" xmlns:xlink="http://www.w3.org/1999/xlink" x="0px" y="0px"
	 viewBox="0 0 716.5 332.4" style="enable-background:new 0 0 716.5 332.4;" xml:space="preserve">
<style type="text/css">
	.st0{fill:#5361F0;}
	.st1{fill:#191C3C;}
	.st2{fill:#F9FBFF;}
	.st3{fill:#ECEEFD;}
	.st4{fill:#FFE8BF;}
	.st5{fill:#FFFFFF;}
	.st6{fill:#2E35A8;}
	.st7{fill:#FFBCA7;}
	.st8{fill:#FF5722;}
	.st9{fill:#F4F8FF;}
	.st10{fill:#E3EDFE;}
	.st11{fill:#5F6177;}
	.st12{fill:#EEF4FE;}
	.st13{fill:#EDF5FC;}
	.st14{fill:#6471F1;}
	.st15{fill:#FEC55E;}
	.st16{fill:url(#SVGID_1_);}
	.st17{fill:#4D5068;}
	.st18{fill:#536DFE;}
	.st19{fill:#B3CDFA;}
	.st20{opacity:0.1;fill:#191C3C;enable-background:new    ;}
	.st21{fill:url(#SVGID_2_);}
	.st22{opacity:0.3;fill:#191C3C;enable-background:new    ;}
	.st23{fill:#231F20;}
	.st24{fill:none;stroke:#191C3C;stroke-width:0.75;stroke-miterlimit:10;}
	.st25{fill:#E9BE4F;}
</style>
<g id="Graphics">
	<title>ai_developer</title>
	<g id="plants">
		<rect x="137.4" y="140.6" class="st0" width="227.1" height="189.8"/>
		<polygon class="st1" points="129.1,330.4 137.4,330.4 137.4,140.6 129.1,144.6 		"/>
		<rect x="137.4" y="165.6" class="st2" width="227.1" height="165.6"/>
		<rect x="152.4" y="173" class="st3" width="80.4" height="55.3"/>
		<rect x="152.4" y="234.7" class="st4" width="191.2" height="97.7"/>
		<circle class="st5" cx="155.7" cy="151.1" r="3"/>
		<circle class="st5" cx="168.7" cy="151.1" r="3"/>
		<circle class="st5" cx="181.7" cy="151.1" r="3"/>
	</g>
	<g id="Web_page_and_elements">
		<rect x="392.9" y="140.6" class="st6" width="227.1" height="189.8"/>
		<rect x="392.9" y="165.6" class="st2" width="227.1" height="165.6"/>
		<rect x="524.7" y="173" class="st3" width="80.4" height="55.3"/>
		<rect x="414.8" y="234.7" class="st7" width="190.3" height="72.6"/>
		<rect x="596.1" y="146.1" class="st5" width="9.9" height="1.7"/>
		<rect x="596.1" y="151.1" class="st5" width="9.9" height="1.7"/>
		<rect x="596.1" y="156.2" class="st5" width="9.9" height="1.7"/>
		<polygon class="st1" points="620.4,331.2 619.7,331.2 619.7,141 526.4,140.9 526.4,140.2 620.4,140.2 		"/>
		<path class="st0" d="M147.1,93c0,0.7-0.5,1.2-1.2,1.2c-0.7,0-1.2-0.5-1.2-1.2c0-0.7,0.5-1.2,1.2-1.2l0,0
			C146.5,91.8,147.1,92.4,147.1,93z"/>
		<path class="st1" d="M158.7,129.3c-1.1,0-2-0.9-2-2s0.9-2,2-2s2,0.9,2,2S159.8,129.3,158.7,129.3z M158.7,125.9
			c-0.8,0-1.5,0.7-1.5,1.5s0.7,1.5,1.5,1.5s1.5-0.7,1.5-1.5C160.2,126.6,159.5,125.9,158.7,125.9
			C158.7,125.9,158.7,125.9,158.7,125.9z"/>
		<path class="st1" d="M181.7,91.2c-1.1,0-2-0.9-2-2s0.9-2,2-2s2,0.9,2,2S182.8,91.2,181.7,91.2z M181.7,87.8
			c-0.8,0-1.5,0.7-1.5,1.5c0,0.8,0.7,1.5,1.5,1.5c0.8,0,1.5-0.7,1.5-1.5c0,0,0,0,0,0C183.2,88.5,182.5,87.8,181.7,87.8
			C181.7,87.8,181.7,87.8,181.7,87.8L181.7,87.8z"/>
		<circle class="st8" cx="192.6" cy="123.7" r="1.2"/>
		<polygon class="st1" points="426.3,318.8 291.1,318.8 300.5,260.5 417.5,260.5 		"/>
		<polygon class="st9" points="433.8,318.8 298.6,318.8 308.1,260.5 425.1,260.5 		"/>
		<polygon class="st10" points="308.1,260.5 301,304.2 430.2,294.9 425.1,260.5 		"/>
		<path class="st1" d="M506.9,70.8H209.3l-10.5,6V281c0,3.5,2.8,6.3,6.3,6.3h0h292.2c8.5,0,15.3-6.9,15.3-15.3c0,0,0,0,0,0V76.6
			C512.6,73.4,510.1,70.8,506.9,70.8C506.9,70.8,506.9,70.8,506.9,70.8z"/>
		<path class="st11" d="M523.1,70.8H209.3v181.9c0,3.2,2.6,5.7,5.8,5.8h302.3c3.2,0,5.8-2.6,5.8-5.8V70.8z"/>
		<path class="st9" d="M523.1,248.1v32c0,4-3.2,7.2-7.2,7.2c0,0,0,0,0,0H216.5c-4,0-7.2-3.2-7.2-7.2v-32L523.1,248.1z"/>
		<rect x="222.8" y="84.1" class="st5" width="286.9" height="151"/>
		<path class="st1" d="M437.2,331.9H280.8c-3.6,0-6.5-2.9-6.5-6.5c0,0,0,0,0,0l0,0c0-3.6,2.9-6.5,6.5-6.5c0,0,0,0,0,0h156.4
			c3.6,0,6.5,2.9,6.5,6.5c0,0,0,0,0,0l0,0C443.8,329,440.9,331.9,437.2,331.9C437.2,331.9,437.2,331.9,437.2,331.9z"/>
		<path class="st12" d="M444,331.9H287.5c-3.6,0-6.5-2.9-6.5-6.5c0,0,0,0,0,0l0,0c0-3.6,2.9-6.5,6.5-6.5c0,0,0,0,0,0H444
			c3.6,0,6.5,2.9,6.5,6.5c0,0,0,0,0,0l0,0C450.5,329,447.6,331.9,444,331.9C444,331.9,444,331.9,444,331.9z"/>
		<polygon class="st1" points="235.9,235.5 245.6,235.5 245.6,37.2 235.9,42.3 		"/>
		<rect x="245.6" y="37.2" class="st2" width="253.6" height="198.3"/>
		<rect x="245.6" y="37.2" class="st0" width="253.6" height="18.4"/>
		<path class="st5" d="M262.7,44.9c0,1.1-0.9,2-2,2s-2-0.9-2-2s0.9-2,2-2S262.7,43.8,262.7,44.9z"/>
		<path class="st5" d="M269.5,44.9c0,1.1-0.9,2-2,2s-2-0.9-2-2s0.9-2,2-2S269.5,43.8,269.5,44.9z"/>
		<path class="st5" d="M276.3,44.9c0,1.1-0.9,2-2,2s-2-0.9-2-2s0.9-2,2-2S276.3,43.8,276.3,44.9z"/>
		<path class="st13" d="M490,60h-6.2c-0.5,0-0.8-0.4-0.8-0.8v0l0,0c0-0.5,0.4-0.8,0.8-0.8l0,0h6.2c0.5,0,0.8,0.4,0.8,0.8v0l0,0
			C490.8,59.6,490.4,60,490,60L490,60z"/>
		<path class="st13" d="M490,63.2h-6.2c-0.5,0-0.8-0.4-0.8-0.8v0l0,0c0-0.5,0.4-0.8,0.8-0.8h6.2c0.5,0,0.8,0.4,0.8,0.8l0,0
			C490.8,62.9,490.4,63.2,490,63.2L490,63.2z"/>
		<path class="st13" d="M490,66.4h-6.2c-0.5,0-0.8-0.4-0.8-0.8l0,0c0-0.5,0.4-0.8,0.8-0.8l0,0h6.2c0.5,0,0.8,0.4,0.8,0.8v0l0,0
			C490.8,66,490.4,66.4,490,66.4z"/>
		<rect x="245.6" y="55.3" class="st1" width="101.8" height="0.4"/>
		<polygon class="st1" points="499.6,129 498.9,129 498.9,37.5 436.5,37.5 436.5,36.8 499.6,36.8 		"/>
		<path class="st1" d="M481.7,122.4v-0.6c4,0,7.2-3.2,7.2-7.2V91.4c0-3.9-3.2-7.1-7.2-7.1h-18v-0.6h18c4.3,0,7.8,3.5,7.8,7.8v23.2
			C489.4,118.9,486,122.4,481.7,122.4z"/>
		<path class="st1" d="M453.6,114.9V91.2c0-4,3.3-7.3,7.3-7.3l0,0h-5c-4,0-7.3,3.3-7.3,7.3l0,0v23.7c0,4,3.3,7.3,7.3,7.3l0,0h5
			C456.9,122.1,453.6,118.9,453.6,114.9L453.6,114.9z"/>
		<path class="st5" d="M467.2,106.8c-0.7,0.3-1.4,0.4-2.1,0.4c-2.1,0.1-3.8-1.5-3.9-3.5c0-0.2,0-0.4,0-0.6c-0.1-2.2,1.6-4.1,3.8-4.2
			c0.1,0,0.3,0,0.4,0c0.6,0,1.3,0.1,1.9,0.4l-0.2,0.8c-0.5-0.2-1.1-0.3-1.6-0.3c-1.7-0.1-3.1,1.2-3.2,2.8c0,0.1,0,0.3,0,0.4
			c-0.2,1.6,1,3,2.5,3.2c0.2,0,0.3,0,0.5,0c0.6,0,1.2-0.1,1.7-0.3L467.2,106.8z"/>
		<path class="st5" d="M471.6,100.7v2.8h2.7v0.7h-2.7v2.8h-0.8v-2.8h-2.7v-0.7h2.7v-2.8L471.6,100.7z"/>
		<path class="st5" d="M478.7,100.8v2.8h2.7v0.7h-2.7v2.8h-0.8v-2.8h-2.7v-0.7h2.7v-2.8L478.7,100.8z"/>
		<path class="st5" d="M457.6,308h16c2.5,0,4.6,2.1,4.6,4.6v14.5c0,2.5-2.1,4.6-4.6,4.6h-16c-2.5,0-4.6-2.1-4.6-4.6v-14.5
			C453,310.1,455.1,308,457.6,308z"/>
		<path class="st1" d="M456.1,327.2v-14.7c0-2.5,2-4.5,4.5-4.5h-3.1c-2.5,0-4.5,2-4.5,4.5v14.7c0,2.5,2,4.5,4.5,4.5h3.1
			C458.1,331.7,456.1,329.7,456.1,327.2z"/>
		<path class="st1" d="M473.5,331.9v-0.4c2.5,0,4.4-2,4.4-4.4c0,0,0,0,0,0v-14.4c0-2.5-2-4.4-4.4-4.5h-11.1v-0.4h11.1
			c2.7,0,4.8,2.2,4.8,4.8v14.4C478.3,329.7,476.2,331.9,473.5,331.9z"/>
		<polygon class="st6" points="466.8,323 464.1,320.3 465.6,318.8 466.8,319.9 470,316.7 471.5,318.3 		"/>
		<path class="st5" d="M468.4,13.1h16c2.5,0,4.6,2.1,4.6,4.6v14.5c0,2.5-2.1,4.6-4.6,4.6h-16c-2.5,0-4.6-2.1-4.6-4.6V17.7
			C463.8,15.2,465.8,13.1,468.4,13.1z"/>
		<path class="st1" d="M466.9,32.3V17.6c0-2.5,2-4.5,4.5-4.5l0,0h-3.1c-2.5,0-4.5,2-4.5,4.5c0,0,0,0,0,0v14.7c0,2.5,2,4.5,4.5,4.5
			l0,0h3.1C468.9,36.8,466.9,34.8,466.9,32.3L466.9,32.3z"/>
		<path class="st1" d="M484.3,37v-0.4c2.5,0,4.4-2,4.5-4.4V17.8c0-2.5-2-4.4-4.5-4.4l0,0h-11.1v-0.4h11.1c2.6,0,4.8,2.2,4.8,4.8
			v14.4C489.1,34.8,486.9,37,484.3,37z"/>
		<polygon class="st6" points="477.5,28.1 474.8,25.4 476.4,23.9 477.5,25 480.8,21.8 482.3,23.4 		"/>
		<rect x="93.3" y="274.9" class="st1" width="34.8" height="57.5"/>
		<rect x="128.1" y="274.9" class="st0" width="60.9" height="57.5"/>
		<polygon class="st14" points="189.3,274.9 197.2,282.4 134,282.4 128.1,274.9 		"/>
		<polygon class="st0" points="93.3,274.9 85.3,282.4 122.2,282.4 128.1,274.9 		"/>
		<path class="st15" d="M55.9,290.5h27.7c4.5,0,8.2,3.7,8.2,8.2l0,0v25.2c0,4.5-3.7,8.2-8.2,8.2c0,0,0,0,0,0H55.9
			c-4.5,0-8.2-3.7-8.2-8.2l0,0v-25.2C47.7,294.2,51.4,290.5,55.9,290.5C55.9,290.5,55.9,290.5,55.9,290.5z"/>
		<path class="st1" d="M83.7,332.4v-0.6c4.3,0,7.8-3.5,7.8-7.8v-25.3c0-4.3-3.5-7.8-7.8-7.8H64.1v-0.6h19.5c4.7,0,8.5,3.8,8.5,8.5
			V324C92.1,328.6,88.3,332.4,83.7,332.4z"/>
		<path class="st1" d="M52.6,326v-29.3c0.1-3.5,3-6.3,6.5-6.1h-3.3c-4.5,0-8.1,3.6-8.1,8.1V324c0,4.5,3.6,8.1,8.1,8.1h3.3
			C55.6,332.2,52.7,329.4,52.6,326z"/>
		<path class="st5" d="M82.8,309.1c0.2-0.2,0.2-0.4,0-0.6c-0.1-0.1-0.2-0.1-0.2-0.1l-6.8-0.9c-0.1,0-0.3-0.1-0.3-0.2l-3.1-6.1
			c-0.1-0.2-0.4-0.3-0.6-0.2c-0.1,0-0.1,0.1-0.2,0.2l-3,6.2c-0.1,0.1-0.2,0.2-0.3,0.2l-6.8,1.1c-0.2,0-0.4,0.2-0.3,0.5
			c0,0.1,0.1,0.2,0.1,0.2l5,4.8c0.1,0.1,0.1,0.2,0.1,0.4l-0.4,2.6l0,0l-0.7,4.3c0,0.2,0,0.3,0.2,0.4c0.1,0.1,0.3,0.1,0.4,0l6.1-3.3
			c0.1-0.1,0.3-0.1,0.4,0l6.2,3.1c0.2,0.1,0.4,0,0.6-0.2c0-0.1,0.1-0.2,0-0.3l-1.3-6.8c0-0.1,0-0.3,0.1-0.4L82.8,309.1z"/>
		
			<linearGradient id="SVGID_1_" gradientUnits="userSpaceOnUse" x1="336.75" y1="105.67" x2="387.21" y2="105.67" gradientTransform="matrix(1 0 0 -1 0 334)">
			<stop  offset="0" style="stop-color:#536DFE"/>
			<stop  offset="1" style="stop-color:#2E35A8"/>
		</linearGradient>
		<path class="st16" d="M346.1,204.5h31.8c5.1,0,9.3,4.2,9.3,9.3v29c0,5.1-4.2,9.3-9.3,9.3h-31.8c-5.1,0-9.3-4.2-9.3-9.3v-29
			C336.8,208.7,340.9,204.5,346.1,204.5z"/>
		<path class="st1" d="M377.9,252.5v-0.8c4.9,0,8.9-4,8.9-8.9v-29c0-4.9-4-8.9-8.9-8.9h-22.4v-0.8h22.4c5.3,0,9.7,4.3,9.7,9.7v29
			C387.6,248.2,383.2,252.5,377.9,252.5z"/>
		<path class="st1" d="M342.4,245.1v-33.5c0.1-4,3.5-7.1,7.5-7h-3.8c-5.1,0-9.3,4.2-9.3,9.3c0,0,0,0,0,0v29c0,5.1,4.2,9.3,9.3,9.3
			h3.8C345.8,252.3,342.5,249.2,342.4,245.1C342.4,245.1,342.4,245.1,342.4,245.1z"/>
		<path class="st5" d="M374.7,231.6h3c0.6,0,1.1-0.4,1.1-1V227c0-0.6-0.5-1-1.1-1h-2.3c-0.4,0-0.7-0.2-0.9-0.6l-0.3-0.6
			c-0.2-0.3-0.1-0.7,0.2-1l1.6-1.5c0.4-0.4,0.4-1,0-1.4c0,0,0,0,0,0l-2.7-2.6c-0.4-0.4-1.1-0.4-1.5,0l-1.6,1.6
			c-0.3,0.3-0.7,0.3-1,0.2l-0.7-0.3c-0.3-0.1-0.6-0.4-0.6-0.8v-2.2c0-0.6-0.5-1-1.1-1H363c-0.6,0-1.1,0.4-1.1,1v2.2
			c0,0.4-0.3,0.7-0.6,0.8c-0.2,0.1-0.5,0.2-0.7,0.3c-0.3,0.1-0.7,0.1-1-0.2l-1.7-1.6c-0.4-0.4-1.1-0.4-1.5,0l-2.7,2.5
			c-0.4,0.4-0.4,1,0,1.4c0,0,0,0,0,0l1.7,1.6c0.3,0.2,0.3,0.6,0.2,0.9c-0.1,0.2-0.2,0.5-0.3,0.7c-0.2,0.3-0.5,0.5-0.8,0.5h-2.3
			c-0.6,0-1.1,0.4-1.1,1v3.6c0,0.6,0.5,1,1.1,1h2.3c0.4,0,0.7,0.2,0.9,0.6c0.1,0.2,0.2,0.4,0.3,0.6c0.2,0.3,0.1,0.7-0.2,1l-1.6,1.5
			c-0.4,0.4-0.4,1,0,1.4c0,0,0,0,0,0l2.7,2.5c0.4,0.4,1.1,0.4,1.5,0l1.6-1.6c0.3-0.2,0.7-0.3,1-0.2l0.7,0.3c0.3,0.1,0.6,0.4,0.6,0.8
			v2.2c0,0.6,0.5,1,1.1,1h3.8c0.6,0,1.1-0.4,1.1-1v-2.2c0-0.4,0.3-0.7,0.6-0.8c0.2-0.1,0.4-0.2,0.6-0.2c0.3-0.1,0.7-0.1,1,0.2
			l1.6,1.5c0.4,0.4,1.1,0.4,1.5,0l2.7-2.5c0.4-0.4,0.4-1,0-1.4c0,0,0,0,0,0l-1.7-1.6c-0.3-0.2-0.3-0.6-0.2-0.9
			C374.4,232.2,374.6,231.6,374.7,231.6z M359.6,227.9c0.7-2.9,3.6-4.7,6.5-4c0.2,0.1,0.5,0.1,0.7,0.2c2.3,0.8,3.8,3.2,3.3,5.6
			c-0.7,2.9-3.6,4.7-6.5,4c-0.2-0.1-0.5-0.1-0.7-0.2C360.6,232.7,359.2,230.3,359.6,227.9z"/>
		<path class="st8" d="M410.9,304.2h19.2c2.9,0,5.2,2.3,5.2,5.2V327c0,2.9-2.3,5.2-5.2,5.2h-19.2c-2.9,0-5.2-2.3-5.2-5.2v-17.5
			C405.7,306.6,408.1,304.2,410.9,304.2z"/>
		<path class="st1" d="M429.9,332.4V332c2.9,0,5.2-2.4,5.2-5.2v-17c0-2.9-2.3-5.3-5.2-5.3h-13.1V304h13.1c3.1,0,5.7,2.6,5.7,5.7v17
			C435.6,329.9,433.1,332.4,429.9,332.4z"/>
		<path class="st1" d="M409.4,326.9v-17.3c0-2.9,2.4-5.3,5.3-5.3l0,0h-3.6c-2.9,0-5.3,2.4-5.3,5.3l0,0v17.3c0,2.9,2.3,5.3,5.3,5.4
			c0,0,0,0,0,0h3.7C411.8,332.3,409.4,329.9,409.4,326.9C409.4,326.9,409.4,326.9,409.4,326.9z"/>
		<path class="st5" d="M414.2,314.4h0.9l0,4.5c0,1.8-0.9,2.4-2.1,2.3c-0.3,0-0.6-0.1-0.9-0.2l0.1-0.7c0.2,0.1,0.5,0.1,0.7,0.1
			c0.8,0,1.2-0.3,1.3-1.7L414.2,314.4z"/>
		<path class="st5" d="M417.6,319.1l-0.7,2.1H416l2.4-6.8h1.1l2.2,6.8h-0.9l-0.7-2.1L417.6,319.1z M419.9,318.4l-0.6-2
			c-0.1-0.5-0.2-0.9-0.3-1.2l0,0c-0.1,0.4-0.2,0.8-0.4,1.2l-0.7,2L419.9,318.4z"/>
		<path class="st5" d="M423.6,321.2l-2.1-6.8h1l1,3.4c0.3,0.9,0.5,1.8,0.7,2.5l0,0c0.2-0.8,0.5-1.6,0.8-2.5l1.2-3.4h0.9l-2.5,6.8
			L423.6,321.2z"/>
		<path class="st5" d="M428.3,319.2l-0.7,2.1h-0.9l2.4-6.8h1.1l2.2,6.8h-0.9l-0.7-2.1L428.3,319.2z M430.6,318.5l-0.6-2
			c-0.1-0.5-0.2-0.9-0.3-1.2l0,0c-0.1,0.4-0.2,0.8-0.4,1.2l-0.7,2L430.6,318.5z"/>
		<path class="st10" d="M366.4,298.3h22.1c3.8,0,6.9,3.1,6.9,6.9v20c0,3.8-3.1,6.9-6.9,6.9h-22.1c-3.8,0-6.9-3.1-6.9-6.9v-20
			C359.5,301.4,362.6,298.3,366.4,298.3z"/>
		<path class="st17" d="M395.4,319.2h-9.8l-4.8-5.7l-4.4,4.9l-6.7-13l-6.6,9.5l-3.5,5.3v5.4c0,3.7,3,6.6,6.6,6.6h22.6
			c3.7,0,6.6-3,6.6-6.6V319.2z"/>
		<path class="st1" d="M363.1,325.5V305c0-3.7,3-6.6,6.6-6.6h-3.6c-3.7,0-6.6,3-6.6,6.6c0,0,0,0,0,0v20.6c0,3.7,3,6.6,6.6,6.6h3.6
			C366,332.2,363.1,329.2,363.1,325.5C363.1,325.5,363.1,325.5,363.1,325.5z"/>
		<path class="st1" d="M388.8,332.4v-0.5c3.5,0,6.3-2.8,6.4-6.4V305c0-3.5-2.8-6.3-6.4-6.4h-15.9v-0.5h15.9c3.8,0,6.9,3.1,6.9,6.9
			l0,0v20.6C395.6,329.3,392.6,332.4,388.8,332.4z"/>
		<circle class="st8" cx="386.1" cy="305.4" r="2.7"/>
		<path class="st0" d="M444.4,7.1h19.9c3.2,0,5.8,2.6,5.8,5.8V31c0,3.2-2.6,5.8-5.8,5.8h-19.9c-3.2,0-5.8-2.6-5.8-5.8V12.9
			C438.6,9.7,441.2,7.1,444.4,7.1z"/>
		<path class="st1" d="M464.3,37v-0.5c3.1,0,5.6-2.5,5.6-5.6V12.9c0-3.1-2.5-5.6-5.6-5.6h-13.9V6.9h13.9c3.3,0,6,2.7,6,6v18.1
			C470.3,34.2,467.7,37,464.3,37C464.3,37,464.3,37,464.3,37z"/>
		<path class="st1" d="M442.5,31.1V12.7c0-3.1,2.5-5.6,5.6-5.6h-3.9c-3.1,0-5.6,2.5-5.6,5.6v18.4c0,3.1,2.5,5.6,5.6,5.6h3.9
			C445,36.8,442.5,34.2,442.5,31.1z"/>
		<path class="st5" d="M457.1,26.2c-0.8,0.3-1.6,0.5-2.5,0.4c-2.4,0.2-4.5-1.6-4.6-4c0-0.2,0-0.4,0-0.6c-0.2-2.6,1.8-4.8,4.3-4.9
			c0.2,0,0.3,0,0.5,0c0.8,0,1.5,0.1,2.2,0.4l-0.3,1c-0.6-0.3-1.2-0.4-1.9-0.4c-2.2,0-3.6,1.4-3.6,3.9c0,2.3,1.3,3.7,3.6,3.7
			c0.7,0,1.4-0.1,2-0.4L457.1,26.2z"/>
		<path class="st5" d="M458.9,26.6l0.3-2.7h-1.2V23h1.3l0.2-2h-1.2v-0.8h1.3l0.3-2.6h0.8l-0.3,2.6h1.4l0.3-2.6h0.8l-0.3,2.6h1.1v0.8
			h-1.2l-0.2,2h1.2v0.8h-1.3l-0.3,2.7h-0.8l0.4-2.7h-1.4l-0.3,2.7L458.9,26.6z M461.6,23l0.2-2h-1.4l-0.2,2H461.6z"/>
		<path class="st15" d="M458.4,84.1h23.5c3.9,0,7,3.4,7,7.6v22.8c0,4.2-3.1,7.6-7,7.6h-23.5c-3.9,0-7-3.4-7-7.6V91.7
			C451.4,87.5,454.5,84.1,458.4,84.1z"/>
		<path class="st5" d="M478.7,98.8c-0.2-4.7-4.1-8.4-8.9-8.3c-4.5,0.2-8.1,3.8-8.3,8.3c0,2.9,1.5,5.5,3.9,7.1v1h9.4v-1
			C477.2,104.4,478.7,101.7,478.7,98.8z"/>
		<rect x="464.8" y="109.3" class="st5" width="10.6" height="0.8"/>
		<rect x="464.8" y="108" class="st5" width="10.6" height="0.8"/>
		<rect x="464.8" y="110.6" class="st5" width="10.6" height="0.8"/>
		<path class="st5" d="M470.8,115.6h-1.7c-0.8,0-1.5-0.7-1.5-1.5h4.8C472.3,114.9,471.6,115.6,470.8,115.6z"/>
		<path class="st1" d="M668.9,273c-1.1,0-2-0.8-2-2s0.8-2,2-2s2,0.8,2,2c0,0,0,0.1,0,0.1C670.8,272.1,670,273,668.9,273z
			 M668.9,269.6c-0.8,0-1.5,0.6-1.5,1.4c0,0.8,0.6,1.5,1.5,1.5c0.8,0,1.5-0.6,1.5-1.4c0,0,0,0,0,0
			C670.3,270.2,669.7,269.6,668.9,269.6z"/>
		<path class="st18" d="M645.2,246.4c-1.7,0-3.2-1.4-3.2-3.2s1.4-3.2,3.2-3.2c1.7,0,3.2,1.4,3.2,3.2v0
			C648.3,245,646.9,246.4,645.2,246.4z M645.2,241c-1.2,0-2.2,1-2.2,2.2s1,2.2,2.2,2.2c1.2,0,2.2-1,2.2-2.2v0
			C647.3,242,646.4,241,645.2,241z"/>
		<path class="st18" d="M48.9,250.7c-1.7,0-3.2-1.4-3.1-3.2s1.4-3.2,3.2-3.1c1.7,0,3.1,1.4,3.2,3.2
			C52.1,249.3,50.6,250.7,48.9,250.7z M48.9,244.9c-1.5,0-2.7,1.2-2.7,2.7s1.2,2.7,2.7,2.7c1.5,0,2.7-1.2,2.7-2.7
			C51.5,246.1,50.4,244.9,48.9,244.9z"/>
		<path class="st1" d="M568.3,100.8c-1.1,0-2-0.9-2-2c0-1.1,0.9-2,2-2c1.1,0,2,0.9,2,2c0,0,0,0,0,0
			C570.3,99.9,569.4,100.8,568.3,100.8C568.3,100.8,568.3,100.8,568.3,100.8z M568.3,97.4c-0.8,0-1.5,0.7-1.5,1.5s0.7,1.5,1.5,1.5
			s1.5-0.7,1.5-1.5C569.8,98.1,569.1,97.4,568.3,97.4L568.3,97.4z"/>
		<path class="st1" d="M90.2,272.1c-1.1,0-2-0.9-2-2c0-1.1,0.9-2,2-2s2,0.9,2,2c0,0,0,0,0,0C92.2,271.3,91.3,272.1,90.2,272.1z
			 M90.2,268.7c-0.8,0-1.5,0.7-1.5,1.5c0,0.8,0.7,1.5,1.5,1.5c0.8,0,1.5-0.7,1.5-1.5l0,0C91.7,269.4,91,268.7,90.2,268.7
			C90.2,268.7,90.2,268.7,90.2,268.7z"/>
		<circle class="st8" cx="77" cy="196.1" r="1.2"/>
		<path class="st8" d="M591.1,83.6c-1.6,0-2.9-1.3-2.9-2.9c0-1.6,1.3-2.9,2.9-2.9c1.6,0,2.9,1.3,2.9,2.9v0
			C594,82.3,592.7,83.6,591.1,83.6z M591.1,78.4c-1.3,0-2.4,1.1-2.4,2.4c0,1.3,1.1,2.4,2.4,2.4c1.3,0,2.4-1.1,2.4-2.4v0
			C593.5,79.5,592.4,78.4,591.1,78.4z"/>
		<path class="st1" d="M625.9,93.8c-1.1,0-2-0.8-2-2s0.8-2,2-2s2,0.8,2,2c0,0,0,0.1,0,0.1C627.8,92.9,627,93.8,625.9,93.8z
			 M625.9,90.4c-0.8-0.1-1.5,0.5-1.6,1.3c-0.1,0.8,0.5,1.5,1.3,1.6c0.1,0,0.2,0,0.2,0c0.8-0.1,1.4-0.8,1.3-1.6
			C627.2,91,626.6,90.4,625.9,90.4z"/>
		<circle class="st0" cx="113.8" cy="142.3" r="1.2"/>
		<path class="st0" d="M538.1,42.9c0,0.7-0.5,1.2-1.2,1.2c-0.7,0-1.2-0.5-1.2-1.2c0-0.7,0.5-1.2,1.2-1.2S538.1,42.3,538.1,42.9
			C538.1,42.9,538.1,42.9,538.1,42.9z"/>
		<path class="st0" d="M627.1,251.8c0,0.7-0.5,1.2-1.2,1.2s-1.2-0.5-1.2-1.2c0-0.7,0.5-1.2,1.2-1.2S627.1,251.2,627.1,251.8
			L627.1,251.8z"/>
		<circle class="st1" cx="47.7" cy="187.2" r="1.2"/>
		<circle class="st1" cx="670.3" cy="230.6" r="1.2"/>
		<circle class="st8" cx="601" cy="124.9" r="1.2"/>
		<circle class="st8" cx="645.7" cy="181.4" r="1.2"/>
		<circle class="st8" cx="59.1" cy="273" r="1.2"/>
		<circle class="st8" cx="643.2" cy="279.9" r="1.2"/>
		<path class="st17" d="M165.4,302.3h20.7c3,0,5.5,2.5,5.5,5.5v18.9c0,3-2.5,5.5-5.5,5.5h-20.7c-3,0-5.5-2.5-5.5-5.5v-18.9
			C159.9,304.8,162.3,302.3,165.4,302.3z"/>
		<path class="st1" d="M163.8,326.5V308c0-3.1,2.5-5.7,5.7-5.7h-3.9c-3.1,0-5.7,2.5-5.7,5.7v18.5c0,3.1,2.5,5.7,5.7,5.7h3.9
			C166.3,332.2,163.8,329.7,163.8,326.5z"/>
		<path class="st1" d="M185.7,332.4V332c3.1,0,5.6-2.5,5.6-5.6v-18.2c0-3.1-2.5-5.6-5.6-5.6h-14v-0.5h14c3.4,0,6.1,2.7,6.1,6.1v18.2
			C191.8,329.7,189.1,332.4,185.7,332.4z"/>
		<path class="st8" d="M179.3,308.6v8.1l0,0l5.7,5.7c1.5-1.5,2.4-3.6,2.4-5.7l0,0C187.4,312.2,183.8,308.6,179.3,308.6
			C179.3,308.6,179.3,308.6,179.3,308.6z"/>
		<path class="st5" d="M172.6,310.8c-1.5,1.5-2.4,3.6-2.4,5.7h7.7v-8.1C175.9,308.5,174,309.3,172.6,310.8z"/>
		<path class="st5" d="M178.1,317.9L178.1,317.9h-8.1l0,0c0,4.5,3.6,8.1,8,8.1c2.1,0,4.2-0.8,5.7-2.4L178.1,317.9z"/>
	</g>
	<g id="woman">
		<path class="st8" d="M501.1,162.4c-0.2-5.8-0.4-11.6-0.6-17.5c-0.1-1.3-0.2-2.9-1.2-3.7s-2.9-0.6-4.2-1.2l-6.6-2.5
			c1.1,11.8,0.8,23.7-1,35.4c4.4-1.1,8.8-1.7,13.3-2C501.1,168.1,501.2,165.3,501.1,162.4z"/>
		<path class="st19" d="M489.3,116.5l1.2,23.3l12.9,18.4c1.8,2.5,1.2,6.1-1.3,7.9c-2.5,1.8-6.1,1.2-7.9-1.3
			c-0.2-0.3-0.3-0.5-0.5-0.8l-11.2-23.3l0.7-24.9h0.4c0.9-0.1,1.6-0.7,1.8-1.6l0.2-0.6l3,0.6l-0.1,0.4
			C488.6,115.3,488.8,116,489.3,116.5L489.3,116.5z"/>
		<polygon class="st19" points="501.5,242.1 499,277.6 499,323.6 499.5,327.7 492.5,327.1 494,323.6 486,276.1 483.5,242.1 		"/>
		<polygon class="st19" points="506.7,251.8 505.2,276.8 516.7,320.3 518.7,323.6 513,325.6 512,322.3 492.5,278.6 492.5,251.8 		
			"/>
		<path class="st1" d="M499,323.6l1.9,3.2v3.6c0,0.9-0.7,1.6-1.6,1.6c0,0,0,0,0,0h-20v-2.1c0-0.9,0.6-1.6,1.5-1.9l8.9-2.3l4.3-2.1
			C494,323.6,495.8,327.8,499,323.6z"/>
		<path class="st1" d="M512,322.3l-1.6,2.8l-3.7,2.9h-2.8c-0.7,0-1.3,0.6-1.3,1.3v2.5h10.7l7.5-5.2c0.8-0.4,1.1-1.4,0.7-2.2
			c0,0,0-0.1,0-0.1l-1.8-3l-2.8-1.1C516.7,320.4,517.1,325.8,512,322.3z"/>
		<path class="st1" d="M484,204.1l-3.5,59H512v-33.7c0-6.5-1.1-12.9-3.3-19l-2.2-6.3H484z"/>
		<path class="st15" d="M484,204.1v-19.5l-3.5-12L466,156.3l6.1-6.1l15.4,13.4l13.7,0.5c2.9,0.1,5.3,2.5,5.3,5.5v34.5L484,204.1z"/>
		<path class="st19" d="M472.1,150.2l-13.2-21.7v-1.6l3-3l-0.3-3.4l-1-0.2l-0.4,2.7l-1.3,1.4v-2.6l-2.3-3.7
			c-0.5-0.9-1.6-1.2-2.5-0.7l-3,1.6c-0.5,0.3-0.9,0.9-0.9,1.5v2.5l2.2,5.2l2.8,2.2l10.9,25.8L472.1,150.2z"/>
		<path class="st19" d="M492,159.6h4.1c1.6,0,2.9-1.3,2.9-2.9v-16.1h-10.2c-1.9,0-3.4,1.5-3.4,3.4c0,0.1,0,0.3,0,0.4l0,0l-2,6.4
			l1.5,0.4v1.2C484.8,156.4,488,159.6,492,159.6z"/>
		<path class="st19" d="M495.3,166.1L495.3,166.1c2,0,3.6-1.6,3.6-3.6l0,0v-5.7h-7.3v5.7C491.7,164.5,493.3,166.1,495.3,166.1
			L495.3,166.1z"/>
		<path class="st1" d="M486.2,145.5c0,0.2,0.1,0.3,0.3,0.3c0,0,0,0,0,0c0.2,0,0.3-0.1,0.4-0.3s-0.1-0.3-0.3-0.4c0,0-0.1,0-0.1,0
			C486.4,145.2,486.2,145.3,486.2,145.5L486.2,145.5z"/>
		<path class="st1" d="M488.1,154.9c0.2-0.1,0.3-0.1,0.4-0.2c0.4-0.3,0.6-0.7,0.7-1.2c0-0.1-0.1-0.2-0.2-0.2c0,0,0,0,0,0
			c-0.1,0-0.2,0.1-0.2,0.2c0,0,0,0,0,0c0,0.4-0.2,0.7-0.5,0.9c-0.3,0.2-0.6,0.3-1,0.2c-0.1,0-0.2,0-0.2,0.1c0,0.1,0,0.2,0.1,0.2
			c0,0,0,0,0,0C487.5,155,487.8,155,488.1,154.9z"/>
		<path class="st20" d="M489.2,150.4c0,1.1,0.9,2,2,2s2-0.9,2-2s-0.9-2-2-2S489.2,149.3,489.2,150.4z"/>
		<path class="st0" d="M491.1,130.2c1.7-0.2,3.4-0.2,5.1,0.1c3,0.4,5.2,2.1,7.8,3.6c2.6,1.5,4.7,3.6,6.2,6.1c0.7,1.4,1.2,3,1.5,4.5
			c1.2,6,0.7,12.2,0.5,18.3c-0.1,2.8-0.1,5.6,0.2,8.4c0.2,1.4,0.5,2.7,0.9,4c0.4,1.2,1.4,2.4,1.7,3.6c0.5,1.9-1.8,1.5-3.2,1.5
			c-2.9-0.1-5.8-0.1-8.7-0.1c-3.8-0.1-7.6,0.1-11.3,0.6c1-6.2,1.8-12.5,2.2-18.8c0.3-6.2-0.6-11.9-1.5-17.9
			c-1.5,0.3-3.1,0.3-4.7,0.1c-1.6-0.2-3-1.2-3.7-2.7c-0.4-1.1-0.5-2.2-0.3-3.3c0.4-3.9,2.7-7.1,6.7-8
			C490.7,130.2,490.9,130.2,491.1,130.2z"/>
		<polygon class="st1" points="484.6,145.7 485.3,145.3 483,140.6 483.3,127.3 482.5,127.3 482.3,140.8 		"/>
		<polygon class="st1" points="498.6,323.6 499.4,323.6 499.4,277.6 500.4,263.1 499.6,263 498.6,277.5 		"/>
		<rect x="480.5" y="172.2" class="st1" width="1.7" height="0.8"/>
		<polygon class="st18" points="490.8,204.1 483.5,211.4 483,219.9 498.8,204.1 		"/>
		<polygon class="st18" points="506.6,204.4 482.5,228.5 482,237.1 508.7,210.4 		"/>
		<polygon class="st18" points="512,231.4 480.5,262.9 480.5,263.1 488.3,263.1 512,239.4 		"/>
		<path class="st18" d="M511.7,223.5c-0.2-2.3-0.6-4.6-1.1-6.9l-29,29l-0.5,8.5L511.7,223.5z"/>
		<polygon class="st18" points="512,255.5 512,247.5 496.4,263.1 504.4,263.1 		"/>
		<rect x="485.3" y="203.7" class="st1" width="21.2" height="0.8"/>
	</g>
	<g id="woman_2">
		<path class="st8" d="M211.8,146.9c1.4-3.7,4.4-6.6,5.9-10.3c0.7-1.8,1.1-3.8,2.2-5.3l6.8-2.4c2.7,1,4.5,3.5,4.7,6.4
			c0.2,4.5-3.5,8.2-4.1,12.6c-0.1,1.1-0.1,2.3,0.2,3.4c0.5,2,1.7,3.8,2.6,5.7c0.8,1.9,1.2,4.2,0.1,6c-0.6,0.9-1.5,1.7-2.5,2.1
			c-4.2,2.2-9.2,2-13.3-0.4c-0.7-0.4-1.4-0.9-1.9-1.6c-1-1.5-1.5-3.2-1.6-5C210.6,154.5,210.4,150.5,211.8,146.9z"/>
		<path class="st19" d="M197.5,313.6l-1.4,11.9l-2.4,2.2c-0.8,0.8-1.3,1.9-1.3,3v1.2h13.7l-0.9-4.2l-1.6-2.4l0.6-11.8L197.5,313.6z"
			/>
		<path class="st1" d="M203.6,325.4c0.5,0.8,1,1.6,1.6,2.4l0.9,4.2h-13.7v-1.2c0-1.1,0.5-2.2,1.3-3l2.4-2.2
			C196.1,325.5,200.9,319.3,203.6,325.4z"/>
		<path class="st19" d="M228.8,313.6l1.4,11.9l2.4,2.2c0.8,0.8,1.3,1.9,1.3,3v1.2h-13.7l1-4.2l1.5-2.4l-0.6-11.8L228.8,313.6z"/>
		<path class="st1" d="M222.7,325.4c-0.5,0.8-1,1.6-1.5,2.4l-1,4.2h13.7v-1.2c0-1.1-0.5-2.2-1.3-3l-2.4-2.2
			C230.2,325.5,225.4,319.3,222.7,325.4z"/>
		<polygon class="st8" points="205.6,316 214.8,212.7 196.7,218.8 195.8,316 		"/>
		<rect x="194.6" y="313.9" class="st8" width="13.3" height="4"/>
		<polygon class="st8" points="221.1,316 213.1,212.7 231.3,212.9 231.3,316 		"/>
		<rect x="219.2" y="313.9" class="st8" width="13.3" height="4"/>
		<path class="st1" d="M208.1,318.1h-13.9v-4.5h13.9V318.1z M194.8,317.6h12.8v-3.4h-12.8V317.6z"/>
		<path class="st1" d="M232.8,318.1h-13.9v-4.5h13.9L232.8,318.1z M219.5,317.6h12.8v-3.4h-12.8V317.6z"/>
		<polygon class="st8" points="196.6,230.3 196.6,216.9 230.6,216.9 231.3,230.3 		"/>
		
			<linearGradient id="SVGID_2_" gradientUnits="userSpaceOnUse" x1="232.24" y1="45.215" x2="278.4039" y2="45.215" gradientTransform="matrix(1 0 0 -1 -46.94 234.25)">
			<stop  offset="0" style="stop-color:#2E35A8"/>
			<stop  offset="1" style="stop-color:#536DFE"/>
		</linearGradient>
		<path class="st21" d="M222.8,154.8h-19.2c-3,0-5.8,1.6-7.4,4.2c-0.4,0.5-0.7,1-0.9,1.5l-10,26l8.1,4l3.8-6.9l1.9,6l-3.4,26.5v7.2
			l7.8-0.6l19.9-1.4l7.6-0.5l-4.3-34.7l4.7-21.6c0.5-4.8-2.9-9.1-7.7-9.6C223.4,154.8,223.1,154.8,222.8,154.8z"/>
		<path class="st1" d="M196.8,234.1l-0.2-0.5l1.7-0.9c3.2-1.6,5.2-4.9,5.2-8.4V223h0.6v1.3c0,3.8-2.1,7.2-5.5,8.9L196.8,234.1z"/>
		<path class="st1" d="M231.1,234.1l-1.7-0.9c-3.4-1.7-5.5-5.1-5.5-8.9v-0.6h0.6v0.6c0,3.6,2,6.8,5.2,8.4l1.7,0.9L231.1,234.1z"/>
		<path class="st8" d="M230.4,132.4c1.2,2.1,0.5,3.9-0.5,6c-1,1.9-1.9,4-2.5,6.1c-1,4-0.5,6.9,3,9.4c0.2,0.1,0,0.4-0.2,0.3
			c-2.5-1.8-4-3.6-3.7-6.8c0.2-2,0.7-4,1.5-5.8c1.1-2.8,3.8-5.7,2-8.9c0-0.1,0-0.2,0.1-0.2C230.3,132.3,230.4,132.3,230.4,132.4
			L230.4,132.4z"/>
		<path class="st19" d="M185.3,186.5l-3.6,9.3l28.9,15.1l2,2.5c0.4,0.5,1.1,0.9,1.8,1l6.1,1c0.9,0.1,1.8-0.2,2.3-1l0.2-0.3
			c0.7-1,0.4-2.4-0.6-3.1c-0.1,0-0.1-0.1-0.2-0.1l-5.2-2.7l2.5-1.1c0.8-0.4,1.2-1.3,0.9-2.2c-0.1-0.2-0.2-0.4-0.4-0.6l0,0l-6.3,2.7
			l-21.4-14.5l1.2-2.1L185.3,186.5z"/>
		
			<rect x="187.7" y="184.7" transform="matrix(0.4735 -0.8808 0.8808 0.4735 -59.545 270.387)" class="st1" width="17.3" height="0.6"/>
		<rect x="197" y="181.5" transform="matrix(0.9536 -0.3011 0.3011 0.9536 -46.08 67.9205)" class="st1" width="0.5" height="3.8"/>
		<polygon class="st19" points="212.5,146.4 212.5,154.8 206.2,154.8 216.6,165.4 224.1,154.8 219.1,154.9 219.1,146.4 		"/>
		<path class="st19" d="M218.1,151.4h-1.9c-2.9,0-5.2-2.3-5.2-5.2c0,0,0,0,0,0v-1.9c0-7-0.5-12.7,6.5-12.7h6.5
			c1.6,0,2.8,1.3,2.8,2.8c0,0.3,0,0.5-0.1,0.8l-0.6,3.6l0.6,3.7c0,0.2,0.1,0.5,0,0.7C226.5,148.4,221,151.4,218.1,151.4z"/>
		<path class="st1" d="M224.1,137.6c0,0.3-0.1,0.6-0.3,0.6s-0.3-0.2-0.3-0.6s0.1-0.6,0.3-0.6S224.1,137.3,224.1,137.6z"/>
		<path class="st1" d="M222.9,136.5c0.8-0.3,1.7-0.2,2.5,0.1c0.2,0.1,0.3-0.2,0.1-0.4c-0.9-0.4-1.8-0.4-2.7-0.1
			C222.6,136.3,222.7,136.6,222.9,136.5L222.9,136.5z"/>
		<path class="st1" d="M219.4,137.6c0,0.3-0.1,0.6-0.3,0.6s-0.3-0.2-0.3-0.6s0.1-0.6,0.3-0.6S219.4,137.2,219.4,137.6z"/>
		<path class="st1" d="M218.2,136.5c0.8-0.3,1.7-0.2,2.5,0.1c0.2,0.1,0.3-0.2,0.1-0.3c-0.9-0.4-1.8-0.4-2.7-0.1
			C217.9,136.2,218,136.6,218.2,136.5L218.2,136.5z"/>
		<path class="st8" d="M213.1,138.1c1-1.1,2.2-3.1,3.8-3.6c1.9-0.7,4,0.2,5.9-0.8c1.3-0.7,2.3-1.7,3.1-2.9c0.5-0.5,0.9-1.2,1.1-1.8
			c0.5-1.7,0-3.5-1.3-4.7c-3.6-3.4-9.1-0.5-13.2,0.2c-1.9,0.3-3.8,0.9-5.5,1.8c-2.6,1.5-4.5,4.1-5.3,7c-1,4.2,0.6,8.9-1,12.9
			c-1,2.3-2.9,4.1-4.6,6c-1.5,1.8-2.9,3.7-4.2,5.6c-0.8,1.1-1.5,2.3-2.1,3.5c-0.8,2.1-0.9,4.3-0.4,6.5c0.1,0.9,0.4,1.8,0.9,2.5
			c0.6,0.8,1.3,1.5,2.2,1.9c0.9,0.6,2,1,3.1,0.9c0.9-0.2,1.8-0.7,2.5-1.2c1.8-1.1,3.6-2.2,5.3-3.5c3.4-2.4,6.2-5.4,8.3-9
			c0.6-1.1,1.1-2.4,1.4-3.6c0.6-3-0.2-6.2-1.2-9.1c-0.7-1.4-1-3-1-4.6C211.2,140.6,212,139.2,213.1,138.1z"/>
		<path class="st1" d="M223.9,146.5c-2,0.9-3.7-0.5-4.7-2.1c-0.1-0.2,0.2-0.4,0.3-0.2c0.9,1.4,2.5,2.8,4.2,2
			C223.9,146.1,224.1,146.4,223.9,146.5L223.9,146.5z"/>
		<path class="st20" d="M214.9,141.5c0,1,0.8,1.8,1.8,1.8c1,0,1.8-0.8,1.8-1.8c0-1-0.8-1.8-1.8-1.8c0,0,0,0,0,0
			C215.7,139.6,214.9,140.5,214.9,141.5z"/>
		<polygon class="st22" points="219.1,151.3 214.9,148.8 219.1,154.9 		"/>
		<path class="st8" d="M202.7,131.6c-1.3,4.8-2.3,10.6-6.3,13.9c-2.8,2.3-6.6,2.8-9.5,0.4c-0.2-0.1,0.1-0.4,0.2-0.2
			c4.2,3.4,9.3,0.4,11.6-3.6c1.9-3.2,2.6-7.1,3.6-10.6c0-0.1,0.1-0.2,0.2-0.1S202.7,131.5,202.7,131.6z"/>
		<path class="st8" d="M215.4,135.2c-7.4,5-1.8,13.6-1.7,20.6c0.1,4.9-2.3,8.7-5.8,12c-0.2,0.1-0.4-0.1-0.2-0.3
			c2.9-2.7,5.3-5.8,5.7-9.9c0.4-3.8-0.9-7.6-1.6-11.3c-1-5.1-1-8.4,3.5-11.4C215.4,134.8,215.6,135.2,215.4,135.2L215.4,135.2z"/>
		<path class="st8" d="M202.8,138.8c-0.3,3.3-1.5,6.4-3.4,9.1c-1.7,2.5-4.1,3.4-6.9,4.2c-0.1,0-0.2,0-0.2-0.1s0-0.2,0.1-0.2l0,0
			c3-0.8,5.4-1.9,7.1-4.7c1.6-2.5,2.6-5.3,2.9-8.2C202.5,138.6,202.8,138.6,202.8,138.8L202.8,138.8z"/>
		<rect x="222.7" y="155.3" class="st18" width="44.3" height="5.9"/>
		<rect x="220.3" y="154.9" class="st1" width="2.5" height="68.8"/>
		<rect x="222.7" y="160.1" class="st5" width="44.3" height="63.5"/>
		<path class="st1" d="M267.3,223.8h-44.8v-69h44.8V223.8z M223,223.3h43.7v-68H223V223.3z"/>
		<polygon class="st19" points="269,201.6 266.1,205.9 266.1,211.4 269.1,213.9 269.8,213.2 269.8,202.1 		"/>
		<rect x="225.6" y="162.8" class="st1" width="38.4" height="60.5"/>
		<rect x="228.1" y="166" class="st0" width="1.2" height="1.2"/>
		<rect x="228.1" y="168.8" class="st0" width="1.2" height="1.2"/>
		<rect x="228.1" y="171.7" class="st0" width="1.2" height="1.2"/>
		<rect x="228.1" y="174.5" class="st0" width="1.2" height="1.2"/>
		<rect x="228.1" y="177.4" class="st0" width="1.2" height="1.2"/>
		<rect x="228.1" y="180.2" class="st0" width="1.2" height="1.2"/>
		<rect x="228.1" y="183" class="st0" width="1.2" height="1.2"/>
		<rect x="228.1" y="185.9" class="st0" width="1.2" height="1.2"/>
		<rect x="228.1" y="188.7" class="st0" width="1.2" height="1.2"/>
		<rect x="228.1" y="191.5" class="st0" width="1.2" height="1.2"/>
		<rect x="228.1" y="194.4" class="st0" width="1.2" height="1.2"/>
		<rect x="228.1" y="197.2" class="st0" width="1.2" height="1.2"/>
		<rect x="228.1" y="200" class="st0" width="1.2" height="1.2"/>
		<rect x="228.1" y="202.9" class="st0" width="1.2" height="1.2"/>
		<rect x="228.1" y="205.7" class="st0" width="1.2" height="1.2"/>
		<rect x="228.1" y="208.5" class="st0" width="1.2" height="1.2"/>
		<rect x="228.1" y="211.4" class="st0" width="1.2" height="1.2"/>
		<rect x="228.1" y="214.2" class="st0" width="1.2" height="1.2"/>
		<rect x="228.1" y="217.1" class="st0" width="1.2" height="1.2"/>
		<rect x="228.1" y="219.9" class="st0" width="1.2" height="1.2"/>
		<path class="st5" d="M232,166.3h9.5c0.1,0,0.2,0.1,0.2,0.2v0.2c0,0.1-0.1,0.2-0.2,0.2H232c-0.1,0-0.2-0.1-0.2-0.2v-0.2
			C231.8,166.4,231.9,166.3,232,166.3z"/>
		<path class="st5" d="M232,178.2h9.5c0.1,0,0.2,0.1,0.2,0.2v0.2c0,0.1-0.1,0.2-0.2,0.2H232c-0.1,0-0.2-0.1-0.2-0.2v-0.2
			C231.8,178.3,231.9,178.2,232,178.2z"/>
		<path class="st0" d="M244.5,178.8h-1.6c-0.1,0-0.2-0.1-0.2-0.2v-0.2c0-0.1,0.1-0.2,0.2-0.2h1.6c0.1,0,0.2,0.1,0.2,0.2v0.2
			C244.7,178.7,244.6,178.8,244.5,178.8z"/>
		<path class="st0" d="M234,167.9h5.1c0.1,0,0.2,0.1,0.2,0.2v0.2c0,0.1-0.1,0.2-0.2,0.2H234c-0.1,0-0.2-0.1-0.2-0.2v-0.2
			C233.8,168,233.9,167.9,234,167.9z"/>
		<path class="st5" d="M246.9,168.5h-6.2c-0.1,0-0.2-0.1-0.2-0.2v-0.2c0-0.1,0.1-0.2,0.2-0.2h6.2c0.1,0,0.2,0.1,0.2,0.2v0.2
			C247.1,168.5,247,168.5,246.9,168.5z"/>
		<path class="st15" d="M240.3,180.5H234c-0.1,0-0.2-0.1-0.2-0.2v-0.2c0-0.1,0.1-0.2,0.2-0.2h6.2c0.1,0,0.2,0.1,0.2,0.2v0.2
			C240.5,180.4,240.4,180.5,240.3,180.5z"/>
		<path class="st5" d="M232,191h9.5c0.1,0,0.2,0.1,0.2,0.2v0.2c0,0.1-0.1,0.2-0.2,0.2H232c-0.1,0-0.2-0.1-0.2-0.2v-0.2
			C231.8,191.1,231.9,191,232,191z"/>
		<path class="st15" d="M248.1,191.6h-4.3c-0.1,0-0.2-0.1-0.2-0.2v-0.2c0-0.1,0.1-0.2,0.2-0.2h4.3c0.1,0,0.2,0.1,0.2,0.2v0.2
			C248.3,191.5,248.2,191.6,248.1,191.6z"/>
		<path class="st0" d="M237.3,193.2H234c-0.1,0-0.2-0.1-0.2-0.2v-0.2c0-0.1,0.1-0.2,0.2-0.2h3.3c0.1,0,0.2,0.1,0.2,0.2v0.2
			C237.5,193.2,237.5,193.2,237.3,193.2z"/>
		<path class="st15" d="M237.8,199h-5.4c-0.1,0-0.2-0.1-0.2-0.2v-0.2c0-0.1,0.1-0.2,0.2-0.2h5.4c0.1,0,0.2,0.1,0.2,0.2v0.2
			C238,198.9,237.9,199,237.8,199z"/>
		<path class="st15" d="M239.4,209.4H234c-0.1,0-0.2-0.1-0.2-0.2V209c0-0.1,0.1-0.2,0.2-0.2h5.4c0.1,0,0.2,0.1,0.2,0.2v0.2
			C239.6,209.4,239.5,209.4,239.4,209.4z"/>
		<path class="st0" d="M252.4,209.4h-11.7c-0.1,0-0.2-0.1-0.2-0.2V209c0-0.1,0.1-0.2,0.2-0.2h11.7c0.1,0,0.2,0.1,0.2,0.2v0.2
			C252.6,209.4,252.6,209.4,252.4,209.4z"/>
		<path class="st5" d="M239.7,198.4h2.9c0.1,0,0.2,0.1,0.2,0.2v0.2c0,0.1-0.1,0.2-0.2,0.2h-2.9c-0.1,0-0.2-0.1-0.2-0.2v-0.2
			C239.5,198.5,239.6,198.4,239.7,198.4z"/>
		<path class="st5" d="M234.9,200.9h22.3c0.1,0,0.2,0.1,0.2,0.2v0.2c0,0.1-0.1,0.2-0.2,0.2h-22.3c-0.1,0-0.2-0.1-0.2-0.2v-0.2
			C234.7,201,234.8,200.9,234.9,200.9z"/>
		<path class="st5" d="M234.9,202.9h5.6c0.1,0,0.2,0.1,0.2,0.2v0.2c0,0.1-0.1,0.2-0.2,0.2h-5.6c-0.1,0-0.2-0.1-0.2-0.2v-0.2
			C234.7,203,234.8,202.9,234.9,202.9z"/>
		<path class="st0" d="M242.1,202.9h5.7c0.1,0,0.2,0.1,0.2,0.2v0.2c0,0.1-0.1,0.2-0.2,0.2h-5.7c-0.1,0-0.2-0.1-0.2-0.2v-0.2
			C241.9,203,242,202.9,242.1,202.9z"/>
		<path class="st5" d="M249,202.9h12.6c0.1,0,0.2,0.1,0.2,0.2v0.2c0,0.1-0.1,0.2-0.2,0.2H249c-0.1,0-0.2-0.1-0.2-0.2v-0.2
			C248.8,203,248.9,202.9,249,202.9z"/>
		<path class="st5" d="M234.9,204.8h16.7c0.1,0,0.2,0.1,0.2,0.2v0.2c0,0.1-0.1,0.2-0.2,0.2h-16.7c-0.1,0-0.2-0.1-0.2-0.2V205
			C234.7,204.9,234.8,204.8,234.9,204.8z"/>
		<path class="st5" d="M239.5,192.6h11.6c0.1,0,0.2,0.1,0.2,0.2v0.2c0,0.1-0.1,0.2-0.2,0.2h-11.6c-0.1,0-0.2-0.1-0.2-0.2v-0.2
			C239.3,192.7,239.4,192.6,239.5,192.6z"/>
		<path class="st5" d="M235.8,195.6h26.1c0.1,0,0.2,0.1,0.2,0.2v0.2c0,0.1-0.1,0.2-0.2,0.2h-26.1c-0.1,0-0.2-0.1-0.2-0.2v-0.2
			C235.6,195.6,235.7,195.6,235.8,195.6z"/>
		<path class="st5" d="M245.1,171.3h-9.4c-0.1,0-0.2-0.1-0.2-0.2v-0.2c0-0.1,0.1-0.2,0.2-0.2h9.4c0.1,0,0.2,0.1,0.2,0.2v0.2
			C245.3,171.2,245.2,171.3,245.1,171.3z"/>
		<path class="st5" d="M245.1,183.9h-9.4c-0.1,0-0.2-0.1-0.2-0.2v-0.2c0-0.1,0.1-0.2,0.2-0.2h9.4c0.1,0,0.2,0.1,0.2,0.2v0.2
			C245.3,183.8,245.2,183.9,245.1,183.9z"/>
		<path class="st5" d="M254,185.8h-18.2c-0.1,0-0.2-0.1-0.2-0.2v-0.2c0-0.1,0.1-0.2,0.2-0.2H254c0.1,0,0.2,0.1,0.2,0.2v0.2
			C254.2,185.7,254.1,185.8,254,185.8z"/>
		<path class="st5" d="M255.1,185.2h4.4c0.1,0,0.2,0.1,0.2,0.2v0.2c0,0.1-0.1,0.2-0.2,0.2h-4.4c-0.1,0-0.2-0.1-0.2-0.2v-0.2
			C254.9,185.3,255,185.2,255.1,185.2z"/>
		<path class="st0" d="M240.3,187.8h-4.5c-0.1,0-0.2-0.1-0.2-0.2v-0.2c0-0.1,0.1-0.2,0.2-0.2h4.5c0.1,0,0.2,0.1,0.2,0.2v0.2
			C240.5,187.7,240.4,187.8,240.3,187.8z"/>
		<path class="st5" d="M247.8,187.8h-5.9c-0.1,0-0.2-0.1-0.2-0.2v-0.2c0-0.1,0.1-0.2,0.2-0.2h5.9c0.1,0,0.2,0.1,0.2,0.2v0.2
			C248,187.7,247.9,187.8,247.8,187.8z"/>
		<path class="st5" d="M246.4,183.3h5.4c0.1,0,0.2,0.1,0.2,0.2v0.2c0,0.1-0.1,0.2-0.2,0.2h-5.4c-0.1,0-0.2-0.1-0.2-0.2v-0.2
			C246.2,183.4,246.3,183.3,246.4,183.3z"/>
		<path class="st5" d="M255.6,183.9h-2.4c-0.1,0-0.2-0.1-0.2-0.2v-0.2c0-0.1,0.1-0.2,0.2-0.2h2.4c0.1,0,0.2,0.1,0.2,0.2v0.2
			C255.8,183.8,255.7,183.9,255.6,183.9z"/>
		<path class="st15" d="M257.2,183.3h4.9c0.1,0,0.2,0.1,0.2,0.2v0.2c0,0.1-0.1,0.2-0.2,0.2h-4.9c-0.1,0-0.2-0.1-0.2-0.2v-0.2
			C257,183.4,257.1,183.3,257.2,183.3z"/>
		<path class="st5" d="M232,220.4h9.5c0.1,0,0.2,0.1,0.2,0.2v0.2c0,0.1-0.1,0.2-0.2,0.2H232c-0.1,0-0.2-0.1-0.2-0.2v-0.2
			C231.8,220.5,231.9,220.4,232,220.4z"/>
		<path class="st15" d="M248.1,221h-4.3c-0.1,0-0.2-0.1-0.2-0.2v-0.2c0-0.1,0.1-0.2,0.2-0.2h4.3c0.1,0,0.2,0.1,0.2,0.2v0.2
			C248.3,220.9,248.2,221,248.1,221z"/>
		<path class="st0" d="M237.3,222.7H234c-0.1,0-0.2-0.1-0.2-0.2v-0.2c0-0.1,0.1-0.2,0.2-0.2h3.3c0.1,0,0.2,0.1,0.2,0.2v0.2
			C237.5,222.6,237.5,222.7,237.3,222.7z"/>
		<path class="st5" d="M239.5,222.1h11.6c0.1,0,0.2,0.1,0.2,0.2v0.2c0,0.1-0.1,0.2-0.2,0.2h-11.6c-0.1,0-0.2-0.1-0.2-0.2v-0.2
			C239.3,222.1,239.4,222.1,239.5,222.1z"/>
		<path class="st5" d="M245.1,213.3h-9.4c-0.1,0-0.2-0.1-0.2-0.2v-0.2c0-0.1,0.1-0.2,0.2-0.2h9.4c0.1,0,0.2,0.1,0.2,0.2v0.2
			C245.3,213.2,245.2,213.3,245.1,213.3z"/>
		<path class="st5" d="M254,215.3h-18.2c-0.1,0-0.2-0.1-0.2-0.2v-0.2c0-0.1,0.1-0.2,0.2-0.2H254c0.1,0,0.2,0.1,0.2,0.2v0.2
			C254.2,215.2,254.1,215.3,254,215.3z"/>
		<path class="st5" d="M255.1,214.6h4.4c0.1,0,0.2,0.1,0.2,0.2v0.2c0,0.1-0.1,0.2-0.2,0.2h-4.4c-0.1,0-0.2-0.1-0.2-0.2v-0.2
			C254.9,214.7,255,214.6,255.1,214.6z"/>
		<path class="st0" d="M240.3,217.2h-4.5c-0.1,0-0.2-0.1-0.2-0.2v-0.2c0-0.1,0.1-0.2,0.2-0.2h4.5c0.1,0,0.2,0.1,0.2,0.2v0.2
			C240.5,217.1,240.4,217.2,240.3,217.2z"/>
		<path class="st5" d="M247.8,217.2h-5.9c-0.1,0-0.2-0.1-0.2-0.2v-0.2c0-0.1,0.1-0.2,0.2-0.2h5.9c0.1,0,0.2,0.1,0.2,0.2v0.2
			C248,217.1,247.9,217.2,247.8,217.2z"/>
		<path class="st5" d="M246.4,212.7h5.4c0.1,0,0.2,0.1,0.2,0.2v0.2c0,0.1-0.1,0.2-0.2,0.2h-5.4c-0.1,0-0.2-0.1-0.2-0.2v-0.2
			C246.2,212.8,246.3,212.7,246.4,212.7z"/>
		<path class="st5" d="M255.6,213.3h-2.4c-0.1,0-0.2-0.1-0.2-0.2v-0.2c0-0.1,0.1-0.2,0.2-0.2h2.4c0.1,0,0.2,0.1,0.2,0.2v0.2
			C255.8,213.2,255.7,213.3,255.6,213.3z"/>
		<path class="st15" d="M257.2,212.7h4.9c0.1,0,0.2,0.1,0.2,0.2v0.2c0,0.1-0.1,0.2-0.2,0.2h-4.9c-0.1,0-0.2-0.1-0.2-0.2v-0.2
			C257,212.8,257.1,212.7,257.2,212.7z"/>
		<path class="st5" d="M252.7,173.2h-17c-0.1,0-0.2-0.1-0.2-0.2v-0.2c0-0.1,0.1-0.2,0.2-0.2h17c0.1,0,0.2,0.1,0.2,0.2v0.2
			C252.9,173.1,252.8,173.2,252.7,173.2z"/>
		<path class="st5" d="M254.4,172.6h9.2c0.1,0,0.2,0.1,0.2,0.2v0.2c0,0.1-0.1,0.2-0.2,0.2h-9.2c-0.1,0-0.2-0.1-0.2-0.2v-0.2
			C254.2,172.7,254.3,172.6,254.4,172.6z"/>
		<path class="st15" d="M246.8,170.7h1.4c0.1,0,0.2,0.1,0.2,0.2v0.2c0,0.1-0.1,0.2-0.2,0.2h-1.4c-0.1,0-0.2-0.1-0.2-0.2v-0.2
			C246.6,170.8,246.6,170.7,246.8,170.7z"/>
		<path class="st5" d="M260.6,171.3h-10.8c-0.1,0-0.2-0.1-0.2-0.2v-0.2c0-0.1,0.1-0.2,0.2-0.2h10.8c0.1,0,0.2,0.1,0.2,0.2v0.2
			C260.8,171.2,260.7,171.3,260.6,171.3z"/>
		<path class="st5" d="M241.5,174.8h-5.8c-0.1,0-0.2-0.1-0.2-0.2v-0.2c0-0.1,0.1-0.2,0.2-0.2h5.8c0.1,0,0.2,0.1,0.2,0.2v0.2
			C241.7,174.7,241.6,174.8,241.5,174.8z"/>
		<path class="st15" d="M243.3,174.2h7.1c0.1,0,0.2,0.1,0.2,0.2v0.2c0,0.1-0.1,0.2-0.2,0.2h-7.1c-0.1,0-0.2-0.1-0.2-0.2v-0.2
			C243.1,174.3,243.2,174.2,243.3,174.2z"/>
		<path class="st5" d="M261.9,174.8h-10.1c-0.1,0-0.2-0.1-0.2-0.2v-0.2c0-0.1,0.1-0.2,0.2-0.2h10.1c0.1,0,0.2,0.1,0.2,0.2v0.2
			C262.1,174.7,262,174.8,261.9,174.8z"/>
	</g>
	<g id="Man_2-2">
		<path class="st19" d="M336.7,233.2l-20.2,15.8l-25-8.9c-3.1-1.1-6.4,0.5-7.5,3.6c0,0.1-0.1,0.2-0.1,0.3l0,0
			c-0.9,3.1,0.8,6.4,3.9,7.3l30.3,9.3l18.6-18.9L336.7,233.2z"/>
		<path class="st17" d="M311.6,247.2l-20-7.4c-3.2-1.1-6.6-0.1-7.5,3.1l-0.3,0.6c-0.9,3.1,0.5,7,3.6,8l21.2,6.1
			C311,256.2,312.8,249.6,311.6,247.2z"/>
		<path class="st8" d="M278.8,317.8L263.1,329h-7.9l0,0c0,1.6,1.3,2.9,2.9,2.9c0,0,0,0,0,0h22.8v-14.1H278.8z"/>
		<polygon class="st19" points="274.6,331.9 280.8,323 280.8,331.9 		"/>
		<path class="st19" d="M335.6,317.2v5.4l7.7,4.9l10,1.2v0.5c0,1.5-1.2,2.7-2.7,2.7h-23.7l1.6-14.7H335.6z"/>
		<path class="st8" d="M335.6,322.6l7.7,4.9l10,1.2v0.6c0,1.5-1.2,2.7-2.7,2.7h-23.7l1-9.4L335.6,322.6z"/>
		<polygon class="st0" points="299.3,283.3 343.4,283.3 336.9,317.2 327.4,317.2 326.5,300.9 298.9,307 		"/>
		<path class="st0" d="M265.3,301l-0.4,4.5c0,6.8,5.5,12.4,12.4,12.4h3.6v14.1h54.5l0-2.5c0.1-5.1-2.5-9.9-6.9-12.5l-26.6-16
			L265.3,301z"/>
		<path class="st1" d="M277.2,318.1c-7,0-12.6-5.7-12.6-12.6l0.4-4.5l0.6,0.1l-0.4,4.5c0,6.7,5.4,12.1,12.1,12.1V318.1z"/>
		<path class="st17" d="M289.2,238.8h3.4c5.7,0,10.3,4.6,10.3,10.3c0,0.1,0,0.1,0,0.2l-1,51.6h-36.6l9.4-50.1
			C276,243.9,282.1,238.8,289.2,238.8z"/>
		<path class="st19" d="M292.5,248.1l23.6,12.3l23.9-13.8l2.7-3.7l4.9-2.6h2.1l0.7,1.7l-3.2,0.7l-0.5,1.3l7.1-1.3
			c1.5-0.3,3.1,0.2,4.1,1.3l0,0c0.3,0.3,0.5,0.7,0.5,1.2v2.8c0,0.5-0.2,1-0.7,1.3l-1.3,1c-0.8,0.6-1.8,1-2.9,1.1l-6.1,0.6
			c-0.1,0-0.3,0-0.4,0l-3.8-0.8l-27,20.8l-28.8-13.4c-2.9-1.4-4.2-4.8-2.9-7.8l0,0c1.4-3,4.8-4.2,7.8-2.9
			C292.3,248,292.4,248.1,292.5,248.1z"/>
		<path class="st17" d="M311.4,258l-18.8-10.1c-3-1.6-6.5-1-7.9,2l-0.3,0.5c-1.3,2.9-0.5,7,2.4,8.4l20.2,9
			C309.5,266.9,312.2,260.5,311.4,258z"/>
		<path class="st19" d="M293.6,230v10.9c0,2.2-1.8,4-4,4c-0.1,0-0.2,0-0.3,0l0,0c-2.2-0.1-3.9-2-3.8-4.2c0,0,0-0.1,0-0.1l0.6-9.1
			L293.6,230z"/>
		<path class="st19" d="M298.1,217.9l0.8,5.2l1.5,1.6c0.6,0.7,1.1,1.5,1.3,2.4l0.3,3.2h-1.6l-0.2,4.4c-0.1,2.1-1.9,3.7-4,3.6
			c0,0-0.1,0-0.1,0l-10.2-0.8l-6.6-9.3c-1.1-2.2-1-4.7,0.3-6.8l4.2-7.1l11.1,0.5C296.5,214.9,297.8,216.2,298.1,217.9z"/>
		<polygon class="st1" points="281.1,330 280.5,330 280.5,317.5 310.8,317.5 310.8,318.1 281.1,318.1 		"/>
		<polygon class="st1" points="315.6,309.9 301.7,301.2 302,300.7 315.9,309.5 		"/>
		
			<rect x="308" y="303.2" transform="matrix(0.9794 -0.2018 0.2018 0.9794 -54.7584 69.7148)" class="st1" width="13.3" height="0.6"/>
		
			<rect x="326.5" y="300.3" transform="matrix(0.9686 -0.2485 0.2485 0.9686 -64.4171 90.9217)" class="st1" width="2.9" height="0.6"/>
		<path class="st6" d="M302.7,211.5c-0.2-0.7-0.6-1.2-1.1-1.6c-0.3-0.3-0.7-0.5-1.1-0.6c-0.9-0.1-1.8,0-2.7,0.3
			c-1.3,0.3-2.7,0.4-4.1,0c-1.1-0.5-2.2-0.6-3.4-0.5c-0.8,0.3-1.7,0.5-2.6,0.5c-0.8-0.2-1.6-0.5-2.3-0.8c-1.5-0.4-3.1,0.1-4.1,1.3
			c-0.9,1.2-1.2,2.8-0.7,4.3c0.1,0.2,0.1,0.4,0.1,0.7c-0.1,0.2-0.2,0.3-0.3,0.4c-0.7,0.4-1.4,0.7-2.2,0.9c-1.1,0.5-2.3,0.9-2.9,2.1
			c-0.7,1.6-0.6,3.5,0.4,4.9c0.5,0.6,1,1.1,1.5,1.6c0.5,0.5,0.8,1.1,1.2,1.6c1,1.2,0.3,2.1,0.2,3.5c-0.1,1.4,0.2,2.8,0.8,4.1
			c0.3,0.7,0.8,1.3,1.4,1.8c1,0.5,2.1,0.6,3.1,0.4c0.9-0.1,1.8-0.3,2.7-0.7c1.4-0.9,2.3-2.5,2.1-4.2c-0.1-1.1-0.5-2.1-0.7-3.2
			c-0.3-1.1,0-2.2,0.6-3.1c0.8-0.9,1.7,0.2,1.9,1c0.1,0.2,0.1,0.5,0.1,0.7c0,0.5,0,0.9,0,1.4l2-0.2c-0.3-1.4-0.4-2.8-0.4-4.2
			c0-1.3-0.8-2.2,0.4-3.3c0.2-0.2,0.5-0.4,0.8-0.5c0.7-0.2,1.5-0.1,2.2,0.3c1.1,0.4,2.8,0.7,3.9,0c1-0.7,1.5-1.8,1.5-3
			c-0.2-0.6-0.3-1.2-0.3-1.8c0.2-0.9,1.2-1.3,1.7-2.1C302.8,212.9,302.9,212.2,302.7,211.5z"/>
		
			<rect x="299.7" y="256.9" transform="matrix(0.4233 -0.906 0.906 0.4233 -66.6902 424.392)" class="st1" width="0.6" height="15.3"/>
		
			<rect x="299.1" y="268.9" transform="matrix(2.861948e-02 -0.9996 0.9996 2.861948e-02 24.7093 563.8851)" class="st1" width="6.8" height="0.6"/>
		<polygon class="st1" points="266.1,296.3 301.9,296.3 301.9,300.9 265.3,300.9 		"/>
		<path class="st1" d="M297,223.6c0,0.3-0.1,0.5-0.2,0.5s-0.2-0.2-0.2-0.5s0.1-0.5,0.2-0.5S297,223.3,297,223.6z"/>
		<path class="st23" d="M294.8,222.9c0.8-0.3,1.7-0.5,2.6-0.6c0.2,0,0.1-0.4-0.1-0.4c-0.9,0.1-1.7,0.4-2.6,0.6
			C294.5,222.6,294.6,222.9,294.8,222.9z"/>
		<path class="st23" d="M295.4,232.6c0.6,1.4,2,2.3,3.5,2.2c0.2,0,0.2-0.4,0-0.4c-1.4,0.1-2.7-0.7-3.2-2
			C295.6,232.2,295.2,232.4,295.4,232.6L295.4,232.6z"/>
		<polygon class="st22" points="293.6,237.4 288.8,237.4 293.6,240.3 		"/>
	</g>
	<g id="line">
		<line class="st24" x1="0" y1="331.9" x2="716.5" y2="331.9"/>
	</g>
</g>
<g id="Layer_2">
	<g id="Layer_3">
		
			<ellipse id="XMLID_212_" transform="matrix(1.080556e-02 -0.9999 0.9999 1.080556e-02 230.3382 457.1007)" class="st25" cx="346.2" cy="112.1" rx="43.4" ry="43.4"/>
	</g>
	<g>
		<g id="XMLID_213_">
			<path class="st6" d="M379.1,190.1c-0.1,0-0.1,0-0.2,0c-0.8-0.1-1.4-0.9-1.3-1.7l2.5-19.7c0.1-0.8,0.9-1.4,1.7-1.3
				c0.8,0.1,1.4,0.9,1.3,1.7l-2.5,19.7C380.5,189.5,379.9,190.1,379.1,190.1z"/>
			<path class="st6" d="M403.5,172.5c0,0-0.1,0-0.1,0l-34.1-3.3c-0.4,0-0.7-0.2-0.9-0.5l-6.7-7.1c-0.2-0.2-0.4-0.6-0.4-0.9
				l-1.2-13.4l-2.7,0.5c-0.6,0.1-1.2-0.1-1.5-0.6l-7.4-11.1c-0.3-0.4-0.3-1-0.1-1.4l3.7-8.3c0.3-0.6,1-1,1.7-0.8l7,1.6
				c0.8,0.2,1.3,1,1.1,1.8c-0.2,0.8-1,1.3-1.8,1.1l-5.8-1.3l-2.9,6.5l6.4,9.6l3.3-0.7c0.4-0.1,0.9,0,1.2,0.3s0.6,0.6,0.6,1.1
				l1.3,14.5l5.9,6.3l32,3.1l1.4-23.8c0-0.6,0.5-1.1,1-1.3l4.6-1.5l-5.5-11.8c-0.2-0.3-0.2-0.7-0.1-1.1c0-0.1,2.2-7.6,1.3-15.3
				c-0.2-1.3-0.4-2.5-0.7-3.7c-0.2-0.8,0.3-1.6,1.1-1.8c0.8-0.2,1.6,0.3,1.8,1.1c0.3,1.3,0.6,2.7,0.8,4.1c0.9,7.2-0.7,14-1.2,15.9
				l6,12.9c0.2,0.4,0.2,0.8,0,1.2c-0.2,0.4-0.5,0.7-0.9,0.8l-5.3,1.7L405,171c0,0.4-0.2,0.8-0.5,1.1
				C404.2,172.3,403.8,172.5,403.5,172.5z"/>
			<path class="st6" d="M400.5,101.9c-0.5,0-0.9-0.2-1.2-0.6c-0.8-1.1-1.8-2.1-2.7-3.1c-0.6-0.6-0.6-1.5,0-2.1
				c0.6-0.6,1.5-0.6,2.1,0c1.1,1.1,2.1,2.2,3,3.4c0.5,0.7,0.4,1.6-0.3,2.1C401.1,101.8,400.8,101.9,400.5,101.9z"/>
			<path class="st6" d="M384.1,90.2c-0.2,0-0.3,0-0.5-0.1c-2.4-0.9-5.1-1.6-7.8-2.1c-1.2-0.2-2.4-0.4-3.6-0.5
				c-0.8-0.1-1.4-0.8-1.4-1.6c0.1-0.8,0.8-1.4,1.6-1.4c1.3,0.1,2.6,0.3,3.9,0.5c2.9,0.5,5.7,1.3,8.3,2.2c0.8,0.3,1.2,1.1,0.9,1.9
				C385.3,89.8,384.7,90.2,384.1,90.2z"/>
			<path class="st6" d="M356,89.6c-0.6,0-1.2-0.4-1.4-1c-0.3-0.8,0.2-1.6,0.9-1.9c2.9-1,5.9-1.7,9-2c0.8-0.1,1.6,0.5,1.7,1.3
				s-0.5,1.6-1.3,1.7c-2.9,0.3-5.7,0.9-8.4,1.8C356.3,89.5,356.2,89.6,356,89.6z"/>
			<path class="st6" d="M335.9,107c-0.2,0-0.4,0-0.6-0.1c-0.8-0.4-1.1-1.2-0.7-2c2-4.3,4.9-8.1,8.6-11.2c0.6-0.5,1.6-0.5,2.1,0.2
				c0.5,0.6,0.5,1.6-0.2,2.1c-3.3,2.8-5.9,6.3-7.8,10.2C337,106.7,336.5,107,335.9,107z"/>
			<path class="st6" d="M337.2,190.1c-0.1,0-0.2,0-0.3,0c-0.8-0.2-1.3-1-1.2-1.8l6.7-31.9c-2.5-3.4-14.3-20.5-10.9-41.3
				c0.1-0.8,0.9-1.4,1.7-1.2c0.8,0.1,1.4,0.9,1.2,1.7c-3.5,21.4,10.6,39.3,10.7,39.5c0.3,0.3,0.4,0.8,0.3,1.2l-6.8,32.6
				C338.5,189.6,337.9,190.1,337.2,190.1z"/>
			<path id="XMLID_47_" class="st6" d="M386.6,125.6c0.1-0.5,0.6-0.8,1.1-0.8h9.8c0.3,0,0.7,0.2,0.9,0.4c0.2,0.3,0.3,0.6,0.2,1
				l-1.3,4.3c-0.1,0.3-0.3,0.6-0.6,0.7c-0.1,0.1-0.3,0.1-0.4,0.1c-0.2,0-0.3,0-0.5-0.1l-8.5-4.3
				C386.7,126.6,386.4,126.1,386.6,125.6z"/>
			<path class="st6" d="M375.7,117.8h-12.4c-3.4,0-6.1-2.8-6.1-6.1V99.3c0-3.4,2.8-6.1,6.1-6.1h12.4c3.4,0,6.1,2.8,6.1,6.1v12.4
				C381.9,115,379.1,117.8,375.7,117.8z M363.4,96.1c-1.7,0-3.1,1.4-3.1,3.1v12.4c0,1.7,1.4,3.1,3.1,3.1h12.4c1.7,0,3.1-1.4,3.1-3.1
				V99.3c0-1.7-1.4-3.1-3.1-3.1H363.4z"/>
			<path class="st6" d="M392.5,115.8c-0.4,0-0.7-0.1-1-0.4l-2.8-2.5h-8.4c-0.8,0-1.5-0.7-1.5-1.5s0.7-1.5,1.5-1.5h8.9
				c0.4,0,0.7,0.1,1,0.4l3.2,2.9c0.6,0.6,0.7,1.5,0.1,2.1C393.4,115.6,393,115.8,392.5,115.8z"/>
			<path class="st6" d="M393.3,107h-12.9c-0.8,0-1.5-0.7-1.5-1.5s0.7-1.5,1.5-1.5h12.9c0.8,0,1.5,0.7,1.5,1.5S394.1,107,393.3,107z"
				/>
			<path class="st6" d="M411.3,107h-11.4c-0.8,0-1.5-0.7-1.5-1.5s0.7-1.5,1.5-1.5h11.4c0.8,0,1.5,0.7,1.5,1.5S412.1,107,411.3,107z"
				/>
			<path class="st6" d="M378.4,140.6c-2.6,0-4.8-2.2-4.8-4.8c0-2.6,2.2-4.8,4.8-4.8s4.8,2.2,4.8,4.8
				C383.2,138.4,381.1,140.6,378.4,140.6z M378.4,134c-1,0-1.8,0.8-1.8,1.8c0,1,0.8,1.8,1.8,1.8s1.8-0.8,1.8-1.8
				C380.2,134.8,379.4,134,378.4,134z"/>
			<path class="st6" d="M334.8,96.2c-2.6,0-4.8-2.2-4.8-4.8c0-2.6,2.2-4.8,4.8-4.8c2.6,0,4.8,2.2,4.8,4.8
				C339.6,94,337.4,96.2,334.8,96.2z M334.8,89.6c-1,0-1.8,0.8-1.8,1.8c0,1,0.8,1.8,1.8,1.8c1,0,1.8-0.8,1.8-1.8
				C336.6,90.4,335.8,89.6,334.8,89.6z"/>
			<path class="st6" d="M368,77.2c-2.6,0-4.8-2.2-4.8-4.8c0-2.6,2.2-4.8,4.8-4.8s4.8,2.2,4.8,4.8C372.8,75.1,370.7,77.2,368,77.2z
				 M368,70.6c-1,0-1.8,0.8-1.8,1.8c0,1,0.8,1.8,1.8,1.8s1.8-0.8,1.8-1.8C369.8,71.4,369,70.6,368,70.6z"/>
			<path class="st6" d="M324.1,115.9c-2.6,0-4.8-2.2-4.8-4.8s2.2-4.8,4.8-4.8c2.6,0,4.8,2.2,4.8,4.8S326.7,115.9,324.1,115.9z
				 M324.1,109.3c-1,0-1.8,0.8-1.8,1.8s0.8,1.8,1.8,1.8c1,0,1.8-0.8,1.8-1.8S325,109.3,324.1,109.3z"/>
			<path class="st6" d="M385.7,102h-5.3c-0.8,0-1.5-0.7-1.5-1.5s0.7-1.5,1.5-1.5h5.3c0.8,0,1.5,0.7,1.5,1.5S386.5,102,385.7,102z"/>
			<path class="st6" d="M380.4,97.6c-0.5,0-1.1-0.3-1.3-0.8c-0.4-0.7-0.1-1.6,0.6-2L385,92c0.2-0.1,0.4-0.2,0.7-0.2h16.6
				c0.8,0,1.5,0.7,1.5,1.5s-0.7,1.5-1.5,1.5H386l-5,2.6C380.8,97.5,380.6,97.6,380.4,97.6z"/>
			<path class="st6" d="M360.2,96.8c-0.6,0-1.2-0.4-1.4-1l-1.1-2.9h-18.8c-0.8,0-1.5-0.7-1.5-1.5s0.7-1.5,1.5-1.5h19.8
				c0.6,0,1.2,0.4,1.4,1l1.4,3.9c0.3,0.8-0.1,1.6-0.9,1.9C360.5,96.7,360.3,96.8,360.2,96.8z"/>
			<path class="st6" d="M377,123.1c-0.8,0-1.5-0.7-1.5-1.5v-5.3c0-0.8,0.7-1.5,1.5-1.5s1.5,0.7,1.5,1.5v5.3
				C378.5,122.4,377.8,123.1,377,123.1z"/>
			<path class="st6" d="M375.1,137.3c-0.4,0-0.7-0.1-1-0.4L370,133c-0.3-0.3-0.5-0.7-0.5-1.1v-15.6c0-0.8,0.7-1.5,1.5-1.5
				s1.5,0.7,1.5,1.5v15l3.6,3.4c0.6,0.6,0.6,1.5,0.1,2.1C375.9,137.1,375.5,137.3,375.1,137.3z"/>
			<path class="st6" d="M358.7,101.9h-9c-0.3,0-0.5-0.1-0.7-0.2l-3-1.6c-0.7-0.4-1-1.3-0.6-2s1.3-1,2-0.6l2.6,1.5h8.7
				c0.8,0,1.5,0.7,1.5,1.5S359.5,101.9,358.7,101.9z"/>
			<path class="st6" d="M342.2,111.9c-0.2,0-0.4,0-0.6-0.1c-0.8-0.3-1.1-1.2-0.8-2l2.2-4.9c0.2-0.5,0.8-0.9,1.4-0.9h14.4
				c0.8,0,1.5,0.7,1.5,1.5s-0.7,1.5-1.5,1.5h-13.4l-1.8,4C343.3,111.6,342.7,111.9,342.2,111.9z"/>
			<path class="st6" d="M338.1,111.9h-10.7c-0.8,0-1.5-0.7-1.5-1.5s0.7-1.5,1.5-1.5h10.7c0.8,0,1.5,0.7,1.5,1.5
				S338.9,111.9,338.1,111.9z"/>
			<path class="st6" d="M358.2,112.9h-7.8c-0.8,0-1.5-0.7-1.5-1.5s0.7-1.5,1.5-1.5h7.8c0.8,0,1.5,0.7,1.5,1.5
				S359.1,112.9,358.2,112.9z"/>
			<path class="st6" d="M356.7,121.3h-12.2c-0.8,0-1.5-0.7-1.5-1.5s0.7-1.5,1.5-1.5h11.6l3-3c0.6-0.6,1.5-0.6,2.1,0
				c0.6,0.6,0.6,1.5,0,2.1l-3.4,3.5C357.5,121.1,357.1,121.3,356.7,121.3z"/>
			<path class="st6" d="M365.6,126.5c-0.8,0-1.5-0.7-1.5-1.5v-8.7c0-0.8,0.7-1.5,1.5-1.5s1.5,0.7,1.5,1.5v8.7
				C367.1,125.9,366.5,126.5,365.6,126.5z"/>
			<path class="st6" d="M363.2,96.1c-0.8,0-1.5-0.7-1.5-1.5V91c0-0.8,0.7-1.5,1.5-1.5s1.5,0.7,1.5,1.5v3.6
				C364.7,95.5,364,96.1,363.2,96.1z"/>
			<path class="st6" d="M368,96.1c-0.8,0-1.5-0.7-1.5-1.5V75.7c0-0.8,0.7-1.5,1.5-1.5s1.5,0.7,1.5,1.5v18.9
				C369.5,95.5,368.8,96.1,368,96.1z"/>
			<path class="st6" d="M374.4,95.7c-0.8,0-1.5-0.7-1.5-1.5v-2.3c0-0.8,0.7-1.5,1.5-1.5s1.5,0.7,1.5,1.5v2.3
				C375.9,95,375.3,95.7,374.4,95.7z"/>
			<circle id="XMLID_83_" class="st6" cx="369.4" cy="105.2" r="2.4"/>
		</g>
		<g id="XMLID_340_">
			<path class="st25" d="M412.7,107.9h-4.9c-0.8,0-1.5-0.7-1.5-1.5s0.7-1.5,1.5-1.5h4.9c0.8,0,1.5,0.7,1.5,1.5
				S413.5,107.9,412.7,107.9z"/>
			<path class="st25" d="M410.3,110.3c-0.8,0-1.5-0.7-1.5-1.5v-4.9c0-0.8,0.7-1.5,1.5-1.5s1.5,0.7,1.5,1.5v4.9
				C411.8,109.6,411.1,110.3,410.3,110.3z"/>
		</g>
		<g id="XMLID_343_">
			<path class="st25" d="M335.5,69.4h-4.9c-0.8,0-1.5-0.7-1.5-1.5s0.7-1.5,1.5-1.5h4.9c0.8,0,1.5,0.7,1.5,1.5S336.3,69.4,335.5,69.4
				z"/>
			<path class="st25" d="M333.1,71.9c-0.8,0-1.5-0.7-1.5-1.5v-4.9c0-0.8,0.7-1.5,1.5-1.5s1.5,0.7,1.5,1.5v4.9
				C334.6,71.2,333.9,71.9,333.1,71.9z"/>
		</g>
	</g>
</g>
</svg>
