<svg id="Graphics" xmlns="http://www.w3.org/2000/svg" xmlns:xlink="http://www.w3.org/1999/xlink" viewBox="0 0 716.53 332.43"><defs><style>.cls-1{fill:#5361f0;}.cls-2,.cls-21,.cls-23{fill:#191c3c;}.cls-3{fill:#f9fbff;}.cls-4{fill:#eceefd;}.cls-5{fill:#ffe8bf;}.cls-6{fill:#fff;}.cls-7{fill:#2e35a8;}.cls-8{fill:#ffbca7;}.cls-9{fill:#ff5722;}.cls-10{fill:#f4f8ff;}.cls-11{fill:#e3edfe;}.cls-12{fill:#5f6177;}.cls-13{fill:#eef4fe;}.cls-14{fill:#edf5fc;}.cls-15{fill:#6471f1;}.cls-16{fill:#fec55e;}.cls-17{fill:url(#linear-gradient);}.cls-18{fill:#4d5068;}.cls-19{fill:#536dfe;}.cls-20{fill:#b3cdfa;}.cls-21{opacity:0.1;}.cls-22{fill:url(#linear-gradient-2);}.cls-23{opacity:0.3;}.cls-24{fill:#231f20;}.cls-25{fill:none;stroke:#191c3c;stroke-miterlimit:10;stroke-width:0.75px;}</style><linearGradient id="linear-gradient" x1="336.75" y1="228.33" x2="387.21" y2="228.33" gradientUnits="userSpaceOnUse"><stop offset="0" stop-color="#536dfe"/><stop offset="1" stop-color="#2e35a8"/></linearGradient><linearGradient id="linear-gradient-2" x1="232.24" y1="288.79" x2="278.41" y2="288.79" gradientUnits="userSpaceOnUse"><stop offset="0" stop-color="#2e35a8"/><stop offset="1" stop-color="#536dfe"/></linearGradient></defs><title>ai_developer</title><g id="plants"><rect class="cls-1" x="137.38" y="140.59" width="227.15" height="189.77"/><polygon class="cls-2" points="129.06 330.36 137.38 330.36 137.38 140.59 129.06 144.59 129.06 330.36"/><rect class="cls-3" x="137.38" y="165.64" width="227.15" height="165.56"/><rect class="cls-4" x="152.36" y="173.03" width="80.39" height="55.31"/><rect class="cls-5" x="152.36" y="234.74" width="191.2" height="97.69"/><circle class="cls-6" cx="155.73" cy="151.13" r="3"/><circle class="cls-6" cx="168.73" cy="151.13" r="3"/><circle class="cls-6" cx="181.73" cy="151.13" r="3"/></g><g id="Web_page_and_elements" data-name="Web page and elements"><rect class="cls-7" x="439.84" y="240.34" width="227.15" height="189.77" transform="translate(1059.88 570.7) rotate(180)"/><rect class="cls-3" x="439.84" y="265.4" width="227.15" height="165.56" transform="translate(1059.88 596.6) rotate(180)"/><rect class="cls-4" x="571.61" y="272.78" width="80.39" height="55.31" transform="translate(1176.68 501.12) rotate(180)"/><rect class="cls-8" x="461.72" y="334.5" width="190.28" height="72.6" transform="translate(1066.79 641.84) rotate(180)"/><rect class="cls-6" x="596.08" y="146.09" width="9.86" height="1.68"/><rect class="cls-6" x="596.08" y="151.14" width="9.86" height="1.68"/><rect class="cls-6" x="596.08" y="156.2" width="9.86" height="1.68"/><polygon class="cls-2" points="620.42 331.2 619.67 331.2 619.67 140.96 526.4 140.95 526.4 140.2 620.42 140.21 620.42 331.2"/><path class="cls-1" d="M194,192.78a1.2,1.2,0,1,1-1.2-1.2A1.2,1.2,0,0,1,194,192.78Z" transform="translate(-46.94 -99.75)"/><path class="cls-2" d="M205.66,229.08a2,2,0,1,1,2-2A2,2,0,0,1,205.66,229.08Zm0-3.41a1.46,1.46,0,1,0,1.46,1.46A1.45,1.45,0,0,0,205.66,225.67Z" transform="translate(-46.94 -99.75)"/><path class="cls-2" d="M228.66,191a2,2,0,1,1,2-2A2,2,0,0,1,228.66,191Zm0-3.41a1.46,1.46,0,1,0,1.46,1.45A1.45,1.45,0,0,0,228.66,187.58Z" transform="translate(-46.94 -99.75)"/><circle class="cls-9" cx="192.55" cy="123.67" r="1.2"/><polygon class="cls-2" points="426.26 318.84 291.06 318.84 300.52 260.51 417.5 260.51 426.26 318.84"/><polygon class="cls-10" points="433.82 318.84 298.62 318.84 308.08 260.51 425.06 260.51 433.82 318.84"/><polygon class="cls-11" points="308.08 260.51 300.98 304.25 430.22 294.85 425.06 260.51 308.08 260.51"/><path class="cls-2" d="M553.81,170.58H256.27l-10.52,6V380.8a6.32,6.32,0,0,0,6.32,6.32H544.23a15.33,15.33,0,0,0,15.33-15.34V176.33A5.74,5.74,0,0,0,553.81,170.58Z" transform="translate(-46.94 -99.75)"/><path class="cls-12" d="M570.06,170.58H256.25V352.45A5.76,5.76,0,0,0,262,358.2H564.31a5.75,5.75,0,0,0,5.75-5.75Z" transform="translate(-46.94 -99.75)"/><path class="cls-10" d="M570.06,347.89v32a7.2,7.2,0,0,1-7.2,7.21H263.45a7.21,7.21,0,0,1-7.2-7.2v-32Z" transform="translate(-46.94 -99.75)"/><rect class="cls-6" x="222.76" y="84.05" width="286.91" height="151.01"/><path class="cls-2" d="M484.19,431.66H327.77a6.54,6.54,0,0,1-6.54-6.54h0a6.54,6.54,0,0,1,6.54-6.54H484.19a6.54,6.54,0,0,1,6.54,6.54h0A6.54,6.54,0,0,1,484.19,431.66Z" transform="translate(-46.94 -99.75)"/><path class="cls-13" d="M490.91,431.66H334.49a6.54,6.54,0,0,1-6.54-6.54h0a6.54,6.54,0,0,1,6.54-6.54H490.91a6.54,6.54,0,0,1,6.54,6.54h0A6.54,6.54,0,0,1,490.91,431.66Z" transform="translate(-46.94 -99.75)"/><polygon class="cls-2" points="235.9 235.49 245.61 235.49 245.61 37.16 235.9 42.33 235.9 235.49"/><rect class="cls-3" x="245.61" y="37.16" width="253.64" height="198.34"/><rect class="cls-1" x="245.61" y="37.16" width="253.64" height="18.38"/><path class="cls-6" d="M309.68,144.7a2,2,0,1,1-2-2A2,2,0,0,1,309.68,144.7Z" transform="translate(-46.94 -99.75)"/><path class="cls-6" d="M316.46,144.7a2,2,0,1,1-2-2A2,2,0,0,1,316.46,144.7Z" transform="translate(-46.94 -99.75)"/><path class="cls-6" d="M323.24,144.7a2,2,0,1,1-2-2A2,2,0,0,1,323.24,144.7Z" transform="translate(-46.94 -99.75)"/><path class="cls-14" d="M536.91,159.74H530.7a.83.83,0,0,1-.83-.83h0a.83.83,0,0,1,.83-.83h6.21a.83.83,0,0,1,.83.83h0A.83.83,0,0,1,536.91,159.74Z" transform="translate(-46.94 -99.75)"/><path class="cls-14" d="M536.91,163H530.7a.83.83,0,0,1-.83-.83h0a.84.84,0,0,1,.83-.84h6.21a.84.84,0,0,1,.83.84h0A.83.83,0,0,1,536.91,163Z" transform="translate(-46.94 -99.75)"/><path class="cls-14" d="M536.91,166.16H530.7a.84.84,0,0,1-.83-.84h0a.83.83,0,0,1,.83-.83h6.21a.83.83,0,0,1,.83.83h0A.84.84,0,0,1,536.91,166.16Z" transform="translate(-46.94 -99.75)"/><rect class="cls-2" x="245.61" y="55.33" width="101.76" height="0.41"/><polygon class="cls-2" points="499.63 128.99 498.88 128.99 498.88 37.53 436.5 37.53 436.5 36.78 499.63 36.78 499.63 128.99"/><rect class="cls-1" x="448.6" y="83.9" width="40.54" height="38.22" rx="7.26"/><path class="cls-2" d="M528.6,222.18v-.6a7.19,7.19,0,0,0,7.18-7.18V191.13A7.18,7.18,0,0,0,528.6,184h-18v-.6h18a7.79,7.79,0,0,1,7.78,7.77V214.4A7.79,7.79,0,0,1,528.6,222.18Z" transform="translate(-46.94 -99.75)"/><path class="cls-2" d="M500.54,214.62v-23.7a7.26,7.26,0,0,1,7.26-7.26h-5a7.26,7.26,0,0,0-7.26,7.26v23.7a7.26,7.26,0,0,0,7.26,7.26h5A7.26,7.26,0,0,1,500.54,214.62Z" transform="translate(-46.94 -99.75)"/><path class="cls-6" d="M514.18,206.51a5.21,5.21,0,0,1-2.12.37,3.74,3.74,0,0,1-3.92-4.09,4,4,0,0,1,4.22-4.17,4.38,4.38,0,0,1,1.89.37l-.25.84a3.76,3.76,0,0,0-1.62-.34,3,3,0,0,0-3.15,3.27,2.91,2.91,0,0,0,3,3.25,4,4,0,0,0,1.69-.32Z" transform="translate(-46.94 -99.75)"/><path class="cls-6" d="M518.55,200.49l0,2.79,2.69,0V204l-2.68,0,0,2.81h-.76l0-2.81-2.69,0v-.72l2.68,0,0-2.8Z" transform="translate(-46.94 -99.75)"/><path class="cls-6" d="M525.63,200.55l0,2.79,2.68,0v.72l-2.69,0,0,2.81h-.76l0-2.81-2.68,0v-.72l2.69,0,0-2.8Z" transform="translate(-46.94 -99.75)"/><rect class="cls-6" x="453.04" y="308.03" width="25.13" height="23.69" rx="4.59"/><path class="cls-2" d="M503.07,427V412.29a4.5,4.5,0,0,1,4.5-4.5h-3.1a4.5,4.5,0,0,0-4.5,4.5V427a4.51,4.51,0,0,0,4.5,4.5h3.1A4.51,4.51,0,0,1,503.07,427Z" transform="translate(-46.94 -99.75)"/><path class="cls-2" d="M520.47,431.66v-.37a4.44,4.44,0,0,0,4.44-4.45V412.42a4.45,4.45,0,0,0-4.44-4.45H509.34v-.37h11.13a4.83,4.83,0,0,1,4.82,4.82v14.42A4.83,4.83,0,0,1,520.47,431.66Z" transform="translate(-46.94 -99.75)"/><polygon class="cls-7" points="466.78 323.03 464.08 320.33 465.62 318.78 466.78 319.94 469.99 316.73 471.53 318.27 466.78 323.03"/><rect class="cls-6" x="463.79" y="13.11" width="25.13" height="23.69" rx="4.59"/><path class="cls-2" d="M513.82,132.05V117.37a4.51,4.51,0,0,1,4.51-4.51h-3.1a4.51,4.51,0,0,0-4.51,4.51v14.68a4.51,4.51,0,0,0,4.51,4.51h3.1A4.51,4.51,0,0,1,513.82,132.05Z" transform="translate(-46.94 -99.75)"/><path class="cls-2" d="M531.22,136.74v-.37a4.46,4.46,0,0,0,4.45-4.45V117.5a4.45,4.45,0,0,0-4.45-4.45H520.09v-.37h11.13A4.82,4.82,0,0,1,536,117.5v14.42A4.82,4.82,0,0,1,531.22,136.74Z" transform="translate(-46.94 -99.75)"/><polygon class="cls-7" points="477.53 28.1 474.83 25.4 476.38 23.86 477.53 25.02 480.75 21.8 482.29 23.35 477.53 28.1"/><rect class="cls-2" x="93.28" y="274.92" width="34.83" height="57.51"/><rect class="cls-1" x="175.04" y="374.67" width="60.91" height="57.51" transform="translate(364.06 707.1) rotate(180)"/><polygon class="cls-15" points="189.26 274.92 197.22 282.42 133.97 282.42 128.11 274.92 189.26 274.92"/><polygon class="cls-1" points="93.28 274.92 85.31 282.42 122.25 282.42 128.11 274.92 93.28 274.92"/><path class="cls-16" d="M55.89,290.5H83.62a8.2,8.2,0,0,1,8.2,8.2V323.9a8.19,8.19,0,0,1-8.19,8.19H55.89a8.2,8.2,0,0,1-8.2-8.2V298.7a8.2,8.2,0,0,1,8.2-8.2Z"/><path class="cls-2" d="M130.61,432.18v-.65a7.82,7.82,0,0,0,7.81-7.81V398.39a7.82,7.82,0,0,0-7.81-7.81H111.07v-.65h19.54a8.47,8.47,0,0,1,8.47,8.46v25.33A8.47,8.47,0,0,1,130.61,432.18Z" transform="translate(-46.94 -99.75)"/><path class="cls-2" d="M99.54,425.7V396.41a6.34,6.34,0,0,1,6.52-6.15h-3.29a8.14,8.14,0,0,0-8.14,8.13v25.33a8.14,8.14,0,0,0,8.14,8.13h3.29A6.34,6.34,0,0,1,99.54,425.7Z" transform="translate(-46.94 -99.75)"/><path class="cls-6" d="M129.75,408.81a.41.41,0,0,0-.24-.7l-6.84-.9a.4.4,0,0,1-.31-.22l-3.14-6.15a.41.41,0,0,0-.73,0l-3,6.23a.42.42,0,0,1-.3.23l-6.82,1.08a.41.41,0,0,0-.22.7l5,4.75a.4.4,0,0,1,.12.36l-.4,2.56h0l-.68,4.26a.42.42,0,0,0,.17.4.41.41,0,0,0,.43,0l6.07-3.29a.42.42,0,0,1,.38,0l6.15,3.13a.41.41,0,0,0,.59-.44l-1.26-6.79a.4.4,0,0,1,.12-.36Z" transform="translate(-46.94 -99.75)"/><rect class="cls-17" x="336.75" y="204.54" width="50.46" height="47.58" rx="9.31"/><path class="cls-2" d="M424.84,352.25v-.75a8.94,8.94,0,0,0,8.93-8.93v-29a9,9,0,0,0-8.93-8.93H402.49v-.75h22.35a9.69,9.69,0,0,1,9.68,9.68v29A9.69,9.69,0,0,1,424.84,352.25Z" transform="translate(-46.94 -99.75)"/><path class="cls-2" d="M389.29,344.84V311.33a7.26,7.26,0,0,1,7.46-7H393a9.3,9.3,0,0,0-9.31,9.3v29a9.31,9.31,0,0,0,9.31,9.31h3.76A7.26,7.26,0,0,1,389.29,344.84Z" transform="translate(-46.94 -99.75)"/><path class="cls-6" d="M421.61,331.33h3a1.05,1.05,0,0,0,1.08-1v-3.57a1.06,1.06,0,0,0-1.09-1h-2.32a.9.9,0,0,1-.85-.57l-.27-.61a.82.82,0,0,1,.17-1l1.64-1.55a1,1,0,0,0,0-1.45L420.26,318a1.14,1.14,0,0,0-1.54,0l-1.65,1.56a.93.93,0,0,1-1,.18l-.72-.27a.86.86,0,0,1-.57-.79v-2.21a1.05,1.05,0,0,0-1.08-1h-3.79a1.06,1.06,0,0,0-1.09,1v2.19a.86.86,0,0,1-.61.8c-.23.08-.45.17-.67.27a1,1,0,0,1-1-.16L404.87,318a1.14,1.14,0,0,0-1.54,0l-2.67,2.53a1,1,0,0,0,0,1.45l1.66,1.56a.82.82,0,0,1,.2.93c-.11.23-.21.47-.29.68a.91.91,0,0,1-.84.53h-2.34a1.06,1.06,0,0,0-1.09,1v3.57a1.05,1.05,0,0,0,1.09,1h2.32a.92.92,0,0,1,.86.57c.08.2.17.41.26.6a.84.84,0,0,1-.16,1l-1.64,1.55a1,1,0,0,0,0,1.45l2.68,2.52a1.14,1.14,0,0,0,1.54,0l1.65-1.56a1,1,0,0,1,1-.19l.71.28a.84.84,0,0,1,.57.78v2.22a1.06,1.06,0,0,0,1.09,1h3.79a1.06,1.06,0,0,0,1.09-1v-2.19a.87.87,0,0,1,.61-.81c.22-.07.43-.16.64-.25a1,1,0,0,1,1,.16l1.65,1.55a1.14,1.14,0,0,0,1.54,0l2.67-2.53a1,1,0,0,0,0-1.45l-1.66-1.56a.83.83,0,0,1-.19-.94C421.35,332,421.59,331.36,421.61,331.33Zm-15.08-3.72a5.41,5.41,0,0,1,7.22-3.81,5.06,5.06,0,0,1,3.34,5.63,5.4,5.4,0,0,1-7.21,3.81A5.07,5.07,0,0,1,406.53,327.61Z" transform="translate(-46.94 -99.75)"/><rect class="cls-9" x="405.72" y="304.23" width="29.67" height="27.98" rx="5.22"/><path class="cls-2" d="M476.85,432.18v-.44a5.26,5.26,0,0,0,5.25-5.25v-17a5.26,5.26,0,0,0-5.25-5.26H463.71v-.44h13.14a5.71,5.71,0,0,1,5.7,5.7v17A5.7,5.7,0,0,1,476.85,432.18Z" transform="translate(-46.94 -99.75)"/><path class="cls-2" d="M456.31,426.64V409.3a5.32,5.32,0,0,1,5.32-5.32H458a5.32,5.32,0,0,0-5.32,5.32v17.34A5.32,5.32,0,0,0,458,432h3.66A5.32,5.32,0,0,1,456.31,426.64Z" transform="translate(-46.94 -99.75)"/><path class="cls-6" d="M461.17,414.13h.88l-.05,4.55c0,1.8-.91,2.35-2.08,2.34a3.09,3.09,0,0,1-.93-.17l.13-.72a2.12,2.12,0,0,0,.74.14c.79,0,1.25-.34,1.27-1.67Z" transform="translate(-46.94 -99.75)"/><path class="cls-6" d="M464.57,418.83l-.73,2.13h-.91l2.38-6.78h1.06l2.25,6.83h-.94l-.7-2.15Zm2.23-.67-.64-2c-.15-.45-.25-.85-.34-1.24h0c-.11.41-.22.82-.36,1.23l-.69,2Z" transform="translate(-46.94 -99.75)"/><path class="cls-6" d="M470.58,421l-2.15-6.82h.95l1,3.36c.29.92.53,1.75.7,2.54h0c.2-.78.49-1.64.81-2.52l1.18-3.35h.94l-2.5,6.78Z" transform="translate(-46.94 -99.75)"/><path class="cls-6" d="M475.26,418.94l-.72,2.13h-.91l2.38-6.78h1.06l2.25,6.83h-.94l-.71-2.15Zm2.24-.67-.65-2c-.14-.45-.24-.85-.34-1.25h0c-.1.41-.22.82-.35,1.23l-.69,2Z" transform="translate(-46.94 -99.75)"/><rect class="cls-11" x="359.51" y="298.33" width="35.88" height="33.83" rx="6.9"/><path class="cls-18" d="M442.33,418.91h-9.75l-4.8-5.69-4.44,4.93-6.72-13L410,414.6l-3.55,5.32v5.38a6.62,6.62,0,0,0,6.61,6.62h22.65a6.63,6.63,0,0,0,6.62-6.62Z" transform="translate(-46.94 -99.75)"/><path class="cls-2" d="M410,425.3V404.7a6.62,6.62,0,0,1,6.62-6.62h-3.56a6.61,6.61,0,0,0-6.61,6.62v20.6a6.62,6.62,0,0,0,6.61,6.62h3.56A6.62,6.62,0,0,1,410,425.3Z" transform="translate(-46.94 -99.75)"/><path class="cls-2" d="M435.71,432.18v-.53a6.36,6.36,0,0,0,6.35-6.35V404.7a6.36,6.36,0,0,0-6.35-6.35H419.82v-.53h15.89a6.88,6.88,0,0,1,6.88,6.88v20.6A6.89,6.89,0,0,1,435.71,432.18Z" transform="translate(-46.94 -99.75)"/><circle class="cls-9" cx="386.15" cy="305.42" r="2.73"/><rect class="cls-1" x="438.65" y="7.09" width="31.46" height="29.66" rx="5.77"/><path class="cls-2" d="M511.24,136.74v-.47a5.57,5.57,0,0,0,5.57-5.56V112.65a5.58,5.58,0,0,0-5.57-5.57H497.31v-.47h13.93a6,6,0,0,1,6,6v18.06A6,6,0,0,1,511.24,136.74Z" transform="translate(-46.94 -99.75)"/><path class="cls-2" d="M489.47,130.87V112.48a5.64,5.64,0,0,1,5.63-5.64h-3.88a5.64,5.64,0,0,0-5.63,5.64v18.39a5.64,5.64,0,0,0,5.63,5.64h3.88A5.64,5.64,0,0,1,489.47,130.87Z" transform="translate(-46.94 -99.75)"/><path class="cls-6" d="M504.08,126a5.91,5.91,0,0,1-2.45.45A4.34,4.34,0,0,1,497,121.8a4.64,4.64,0,0,1,4.83-4.92,4.85,4.85,0,0,1,2.21.4l-.28,1a4.3,4.3,0,0,0-1.88-.37c-2.18,0-3.62,1.41-3.61,3.86,0,2.27,1.34,3.73,3.6,3.71a4.71,4.71,0,0,0,2-.4Z" transform="translate(-46.94 -99.75)"/><path class="cls-6" d="M505.83,126.31l.34-2.71H505v-.82h1.26l.25-2h-1.19V120h1.31l.34-2.64h.8l-.33,2.64h1.44l.34-2.64h.81l-.32,2.64h1.13v.81h-1.25l-.24,2h1.19v.81h-1.31l-.34,2.71h-.83l.35-2.7H507l-.34,2.71Zm2.72-3.54.25-2h-1.43l-.25,2Z" transform="translate(-46.94 -99.75)"/><rect class="cls-16" x="259.93" y="0.29" width="39.55" height="36.73" rx="7.37"/><path class="cls-2" d="M339.13,137.06v-.58a7,7,0,0,0,7-6.89V107.23a7,7,0,0,0-7-6.9H321.61v-.58h17.52a7.54,7.54,0,0,1,7.58,7.48v22.36A7.53,7.53,0,0,1,339.13,137.06Z" transform="translate(-46.94 -99.75)"/><path class="cls-2" d="M311.27,131.34V105.47a5.66,5.66,0,0,1,5.85-5.43h-3a7.25,7.25,0,0,0-7.29,7.19v22.36a7.24,7.24,0,0,0,7.29,7.18h3A5.65,5.65,0,0,1,311.27,131.34Z" transform="translate(-46.94 -99.75)"/><path class="cls-6" d="M337.18,114.23a8.58,8.58,0,0,0-17.15,0,8.41,8.41,0,0,0,3.89,7.07v1h9.37v-1A8.41,8.41,0,0,0,337.18,114.23Z" transform="translate(-46.94 -99.75)"/><rect class="cls-6" x="276.37" y="24.93" width="10.59" height="0.77"/><rect class="cls-6" x="276.37" y="23.64" width="10.59" height="0.77"/><rect class="cls-6" x="276.37" y="26.23" width="10.59" height="0.77"/><path class="cls-6" d="M329.28,131h-1.73a1.53,1.53,0,0,1-1.54-1.51h4.81A1.53,1.53,0,0,1,329.28,131Z" transform="translate(-46.94 -99.75)"/><path class="cls-2" d="M715.83,372.75a2,2,0,1,1,1.95-1.95A2,2,0,0,1,715.83,372.75Zm0-3.41a1.46,1.46,0,1,0,1.45,1.46A1.46,1.46,0,0,0,715.83,369.34Z" transform="translate(-46.94 -99.75)"/><path class="cls-19" d="M692.12,346.12a3.16,3.16,0,1,1,3.16-3.16A3.17,3.17,0,0,1,692.12,346.12Zm0-5.32a2.16,2.16,0,1,0,2.16,2.16A2.16,2.16,0,0,0,692.12,340.8Z" transform="translate(-46.94 -99.75)"/><path class="cls-19" d="M95.83,350.48A3.16,3.16,0,1,1,99,347.32,3.17,3.17,0,0,1,95.83,350.48Zm0-5.82a2.66,2.66,0,1,0,2.66,2.66A2.67,2.67,0,0,0,95.83,344.66Z" transform="translate(-46.94 -99.75)"/><path class="cls-2" d="M615.25,200.56a2,2,0,1,1,2-1.95A1.95,1.95,0,0,1,615.25,200.56Zm0-3.41a1.46,1.46,0,1,0,1.46,1.46A1.46,1.46,0,0,0,615.25,197.15Z" transform="translate(-46.94 -99.75)"/><path class="cls-2" d="M137.14,371.89a2,2,0,1,1,2-1.95A2,2,0,0,1,137.14,371.89Zm0-3.41a1.46,1.46,0,1,0,1.46,1.46A1.45,1.45,0,0,0,137.14,368.48Z" transform="translate(-46.94 -99.75)"/><circle class="cls-9" cx="76.96" cy="196.15" r="1.2"/><path class="cls-9" d="M638.06,183.37a2.86,2.86,0,1,1,2.86-2.86A2.87,2.87,0,0,1,638.06,183.37Zm0-5.22a2.36,2.36,0,1,0,2.36,2.36A2.36,2.36,0,0,0,638.06,178.15Z" transform="translate(-46.94 -99.75)"/><path class="cls-2" d="M672.85,193.53a2,2,0,1,1,1.95-1.95A2,2,0,0,1,672.85,193.53Zm0-3.41a1.46,1.46,0,1,0,0,2.91,1.46,1.46,0,0,0,0-2.91Z" transform="translate(-46.94 -99.75)"/><circle class="cls-1" cx="113.81" cy="142.34" r="1.2"/><path class="cls-1" d="M585,142.67a1.2,1.2,0,1,1-1.2-1.2A1.2,1.2,0,0,1,585,142.67Z" transform="translate(-46.94 -99.75)"/><path class="cls-1" d="M674.05,351.58a1.2,1.2,0,1,1-1.2-1.2A1.2,1.2,0,0,1,674.05,351.58Z" transform="translate(-46.94 -99.75)"/><circle class="cls-2" cx="47.7" cy="187.16" r="1.2"/><circle class="cls-2" cx="670.35" cy="230.62" r="1.2"/><circle class="cls-9" cx="601.01" cy="124.87" r="1.2"/><circle class="cls-9" cx="645.7" cy="181.38" r="1.2"/><circle class="cls-9" cx="59.12" cy="273" r="1.2"/><circle class="cls-9" cx="643.25" cy="279.87" r="1.2"/><rect class="cls-18" x="159.87" y="302.31" width="31.69" height="29.88" rx="5.5"/><path class="cls-2" d="M210.72,426.27V407.75a5.68,5.68,0,0,1,5.68-5.68h-3.91a5.68,5.68,0,0,0-5.68,5.68v18.52a5.68,5.68,0,0,0,5.68,5.68h3.91A5.68,5.68,0,0,1,210.72,426.27Z" transform="translate(-46.94 -99.75)"/><path class="cls-2" d="M232.65,432.18v-.47a5.61,5.61,0,0,0,5.61-5.61V407.91a5.61,5.61,0,0,0-5.61-5.61h-14v-.47h14a6.08,6.08,0,0,1,6.08,6.08V426.1A6.08,6.08,0,0,1,232.65,432.18Z" transform="translate(-46.94 -99.75)"/><path class="cls-9" d="M226.26,408.36v8.06h0l5.69,5.7a8.05,8.05,0,0,0,2.37-5.69v0A8.06,8.06,0,0,0,226.26,408.36Z" transform="translate(-46.94 -99.75)"/><path class="cls-6" d="M219.55,410.58a8.08,8.08,0,0,0-2.37,5.7h7.66l0-8.06A7.21,7.21,0,0,0,219.55,410.58Z" transform="translate(-46.94 -99.75)"/><path class="cls-6" d="M225.09,417.6h0l-8.06,0h0a8.06,8.06,0,0,0,13.76,5.71Z" transform="translate(-46.94 -99.75)"/></g><g id="woman"><path class="cls-9" d="M548,262.19q-.28-8.73-.62-17.46c-.06-1.34-.19-2.85-1.24-3.68s-2.88-.59-4.21-1.23l-6.58-2.48a142.78,142.78,0,0,1-1,35.35,73.53,73.53,0,0,1,13.28-2A40.52,40.52,0,0,0,548,262.19Z" transform="translate(-46.94 -99.75)"/><path class="cls-20" d="M536.26,216.25l1.2,23.3L550.41,258a5.64,5.64,0,1,1-9.63,5.8L529.6,240.46l.74-24.86.43,0a2.12,2.12,0,0,0,1.84-1.58l.17-.64,3,.56-.07.4a2.28,2.28,0,0,0,.55,1.95Z" transform="translate(-46.94 -99.75)"/><polygon class="cls-20" points="501.47 242.08 498.97 277.58 498.97 323.58 499.47 327.74 492.47 327.08 493.97 323.58 485.97 276.08 483.47 242.08 501.47 242.08"/><polygon class="cls-20" points="506.72 251.83 505.22 276.83 516.72 320.33 518.72 323.58 512.97 325.58 511.97 322.33 492.47 278.58 492.47 251.83 506.72 251.83"/><path class="cls-2" d="M545.91,423.33l1.92,3.17v3.58a1.58,1.58,0,0,1-1.59,1.58h-20v-2.08a1.94,1.94,0,0,1,1.45-1.87l8.89-2.3,4.33-2.08S542.74,427.58,545.91,423.33Z" transform="translate(-46.94 -99.75)"/><path class="cls-2" d="M558.91,422.08l-1.58,2.83-3.67,2.92h-2.83a1.34,1.34,0,0,0-1.34,1.33v2.5h10.67l7.49-5.17a1.63,1.63,0,0,0,.61-2.29l-1.85-3-2.75-1.08S564,425.58,558.91,422.08Z" transform="translate(-46.94 -99.75)"/><path class="cls-2" d="M530.91,303.83l-3.5,59h31.5V329.09a56.61,56.61,0,0,0-3.26-18.95l-2.24-6.31Z" transform="translate(-46.94 -99.75)"/><path class="cls-16" d="M530.91,303.83v-19.5l-3.5-12-14.5-16.25L519,250l15.38,13.37,13.73.54a5.49,5.49,0,0,1,5.27,5.48v34.48Z" transform="translate(-46.94 -99.75)"/><path class="cls-20" d="M519,250l-13.25-21.72v-1.63l3-3-.27-3.42-1-.24-.35,2.74-1.31,1.38v-2.56l-2.3-3.72a1.91,1.91,0,0,0-2.53-.67l-3,1.65a1.71,1.71,0,0,0-.89,1.5v2.49l2.25,5.25,2.75,2.25,10.88,25.84Z" transform="translate(-46.94 -99.75)"/><path class="cls-20" d="M538.91,259.33H543a2.88,2.88,0,0,0,2.88-2.87V240.33H535.69a3.44,3.44,0,0,0-3.41,3.88h0l-2,6.37,1.5.38v1.25A7.13,7.13,0,0,0,538.91,259.33Z" transform="translate(-46.94 -99.75)"/><path class="cls-20" d="M542.28,265.83h0a3.63,3.63,0,0,0,3.63-3.63v-5.74h-7.26v5.74A3.63,3.63,0,0,0,542.28,265.83Z" transform="translate(-46.94 -99.75)"/><path class="cls-2" d="M533.16,245.26a.31.31,0,0,0,.32.31.32.32,0,1,0,0-.63A.32.32,0,0,0,533.16,245.26Z" transform="translate(-46.94 -99.75)"/><path class="cls-2" d="M535,254.61a1.64,1.64,0,0,0,.43-.24,1.68,1.68,0,0,0,.65-1.18.18.18,0,0,0-.17-.19.18.18,0,0,0-.2.17,1.33,1.33,0,0,1-.5.91,1.29,1.29,0,0,1-1,.23.19.19,0,0,0-.22.15.18.18,0,0,0,.15.21A1.61,1.61,0,0,0,535,254.61Z" transform="translate(-46.94 -99.75)"/><path class="cls-21" d="M536.1,250.11a2,2,0,1,0,2-2A2,2,0,0,0,536.1,250.11Z" transform="translate(-46.94 -99.75)"/><path class="cls-1" d="M538.07,229.93a16.79,16.79,0,0,1,5.1.11c3,.45,5.24,2.06,7.75,3.62a16.6,16.6,0,0,1,6.17,6.14,17.11,17.11,0,0,1,1.47,4.54c1.2,6,.72,12.2.45,18.32a63.53,63.53,0,0,0,.19,8.39,22,22,0,0,0,.9,4c.4,1.2,1.43,2.42,1.71,3.59.45,1.9-1.75,1.54-3.17,1.5-2.89-.09-5.77-.1-8.66-.12a62.08,62.08,0,0,0-11.33.61,188.49,188.49,0,0,0,2.16-18.82c.29-6.16-.56-11.88-1.45-17.89a15.57,15.57,0,0,1-4.67.1,5,5,0,0,1-3.7-2.66,6.61,6.61,0,0,1-.26-3.31c.44-3.88,2.7-7.1,6.66-8C537.62,230,537.84,230,538.07,229.93Z" transform="translate(-46.94 -99.75)"/><polygon class="cls-2" points="484.62 145.66 485.3 145.34 483.04 140.63 483.3 127.29 482.55 127.28 482.29 140.79 484.62 145.66"/><polygon class="cls-2" points="498.6 323.58 499.35 323.58 499.35 277.58 500.37 263.1 499.62 263.05 498.6 277.55 498.6 323.58"/><rect class="cls-2" x="480.47" y="172.2" width="1.69" height="0.75"/><polygon class="cls-19" points="490.83 204.08 483.54 211.37 483.03 219.89 498.84 204.08 490.83 204.08"/><polygon class="cls-19" points="506.6 204.45 482.52 228.53 482.02 237.05 508.7 210.36 506.6 204.45"/><polygon class="cls-19" points="511.97 231.37 480.49 262.86 480.47 263.08 488.28 263.08 511.97 239.39 511.97 231.37"/><path class="cls-19" d="M558.6,323.3a57.35,57.35,0,0,0-1.13-6.88l-29,29-.51,8.52Z" transform="translate(-46.94 -99.75)"/><polygon class="cls-19" points="511.97 255.53 511.97 247.52 496.41 263.08 504.43 263.08 511.97 255.53"/><rect class="cls-2" x="485.31" y="203.7" width="21.16" height="0.75"/></g><g id="woman_2" data-name="woman 2"><path class="cls-9" d="M258.73,246.7c1.44-3.68,4.42-6.6,5.88-10.27.71-1.78,1.07-3.75,2.24-5.28l6.84-2.38a7.42,7.42,0,0,1,4.71,6.4c.24,4.46-3.54,8.19-4.09,12.62a8.92,8.92,0,0,0,.24,3.41c.53,2,1.74,3.76,2.56,5.67s1.21,4.23.12,6a6.42,6.42,0,0,1-2.51,2.13,13.73,13.73,0,0,1-13.31-.37,7.21,7.21,0,0,1-1.9-1.57,9.35,9.35,0,0,1-1.59-5C257.5,254.25,257.33,250.27,258.73,246.7Z" transform="translate(-46.94 -99.75)"/><path class="cls-20" d="M244.4,413.31,243,425.25l-2.36,2.2a4.07,4.07,0,0,0-1.3,3v1.22H253l-.95-4.19-1.55-2.36.57-11.8Z" transform="translate(-46.94 -99.75)"/><path class="cls-2" d="M250.53,425.11a23.58,23.58,0,0,0,1.55,2.36l.95,4.19h-13.7v-1.22a4.07,4.07,0,0,1,1.3-3l2.36-2.2S247.81,419.07,250.53,425.11Z" transform="translate(-46.94 -99.75)"/><path class="cls-20" d="M275.77,413.31l1.42,11.94,2.36,2.2a4.07,4.07,0,0,1,1.3,3v1.22h-13.7l1-4.19,1.55-2.36-.57-11.8Z" transform="translate(-46.94 -99.75)"/><path class="cls-2" d="M269.65,425.11a23.58,23.58,0,0,1-1.55,2.36l-1,4.19h13.7v-1.22a4.07,4.07,0,0,0-1.3-3l-2.36-2.2S272.37,419.07,269.65,425.11Z" transform="translate(-46.94 -99.75)"/><polygon class="cls-9" points="205.56 316.04 214.76 212.67 196.69 218.79 195.77 316.04 205.56 316.04"/><rect class="cls-9" x="194.55" y="313.85" width="13.32" height="3.97"/><polygon class="cls-9" points="221.13 316.04 213.05 212.67 231.3 212.93 231.3 316.04 221.13 316.04"/><rect class="cls-9" x="266.14" y="413.61" width="13.32" height="3.97" transform="translate(498.66 731.43) rotate(180)"/><path class="cls-2" d="M255.08,417.85H241.21v-4.52h13.87Zm-13.31-.55h12.76v-3.41H241.77Z" transform="translate(-46.94 -99.75)"/><path class="cls-2" d="M279.73,417.85H265.86v-4.52h13.87Zm-13.31-.55h12.76v-3.41H266.42Z" transform="translate(-46.94 -99.75)"/><polygon class="cls-9" points="196.63 230.31 196.63 216.86 230.56 216.86 231.3 230.31 196.63 230.31"/><path class="cls-22" d="M269.7,254.54H250.55a8.64,8.64,0,0,0-7.4,4.17,6.6,6.6,0,0,0-.91,1.49l-10,26,8.15,4,3.84-6.88,1.87,6-3.4,26.48v7.23l7.76-.56,19.91-1.42,7.6-.54-4.3-34.66,4.68-21.65A8.7,8.7,0,0,0,269.7,254.54Z" transform="translate(-46.94 -99.75)"/><path class="cls-2" d="M243.75,333.83l-.25-.49,1.72-.85a9.36,9.36,0,0,0,5.22-8.43v-1.31H251v1.31a9.9,9.9,0,0,1-5.53,8.92Z" transform="translate(-46.94 -99.75)"/><path class="cls-2" d="M278,333.83l-1.72-.85a9.9,9.9,0,0,1-5.53-8.92v-.57h.56v.57a9.36,9.36,0,0,0,5.22,8.43l1.71.85Z" transform="translate(-46.94 -99.75)"/><path class="cls-9" d="M277.38,232.12c1.16,2.09.53,3.91-.46,6a33.25,33.25,0,0,0-2.48,6.06c-1,4-.51,6.86,3,9.39.18.13,0,.44-.18.31-2.55-1.84-4-3.56-3.7-6.81a20.16,20.16,0,0,1,1.47-5.82c1.12-2.79,3.81-5.74,2.05-8.91a.18.18,0,0,1,.31-.18Z" transform="translate(-46.94 -99.75)"/><path class="cls-20" d="M232.24,286.2l-3.58,9.28,28.86,15.15,2.05,2.52a2.89,2.89,0,0,0,1.77,1l6.08,1.05a2.31,2.31,0,0,0,2.29-1l.2-.3a2.22,2.22,0,0,0-.79-3.21L263.9,308l2.55-1.07a1.66,1.66,0,0,0,.47-2.77h0l-6.26,2.73-21.43-14.48,1.16-2.13Z" transform="translate(-46.94 -99.75)"/><rect class="cls-2" x="234.68" y="284.47" width="17.29" height="0.56" transform="translate(-169.63 264.5) rotate(-61.74)"/><rect class="cls-2" x="244.47" y="283.09" width="0.55" height="3.81" transform="matrix(0.95, -0.3, 0.3, 0.95, -120.73, -13.89)"/><polygon class="cls-20" points="212.49 146.38 212.49 154.78 206.2 154.78 216.55 165.39 224.14 154.78 219.06 154.89 219.06 146.38 212.49 146.38"/><path class="cls-20" d="M265,251.14h-1.9a5.2,5.2,0,0,1-5.2-5.2V244c0-7-.55-12.73,6.49-12.73h6.5a2.81,2.81,0,0,1,2.69,3.62l-.59,3.65.6,3.73a3.3,3.3,0,0,1,.05.7C273.49,248.13,267.89,251.1,265,251.14Z" transform="translate(-46.94 -99.75)"/><path class="cls-2" d="M271.08,237.37c0,.31-.12.56-.27.56s-.28-.25-.28-.56.13-.56.28-.56S271.08,237.06,271.08,237.37Z" transform="translate(-46.94 -99.75)"/><path class="cls-2" d="M269.86,236.29a3.36,3.36,0,0,1,2.53.13c.21.09.32-.25.11-.35a3.76,3.76,0,0,0-2.72-.14c-.21.08-.14.43.08.36Z" transform="translate(-46.94 -99.75)"/><path class="cls-2" d="M266.36,237.35c0,.31-.12.56-.27.56s-.28-.25-.28-.56.13-.56.28-.56S266.36,237,266.36,237.35Z" transform="translate(-46.94 -99.75)"/><path class="cls-2" d="M265.14,236.26a3.41,3.41,0,0,1,2.53.13c.21.1.32-.25.11-.34a3.71,3.71,0,0,0-2.72-.14c-.21.07-.14.42.08.35Z" transform="translate(-46.94 -99.75)"/><path class="cls-9" d="M260,237.9c1.05-1.15,2.24-3.09,3.77-3.65,1.91-.69,4,.24,5.93-.75a10,10,0,0,0,3.15-2.94,7.1,7.1,0,0,0,1.14-1.83,4.52,4.52,0,0,0-1.27-4.71c-3.6-3.39-9.12-.53-13.19.24a15.75,15.75,0,0,0-5.5,1.84,11.55,11.55,0,0,0-5.3,7c-1,4.2.62,8.87-1,12.86-1,2.34-2.95,4.08-4.62,6a58.31,58.31,0,0,0-4.18,5.61,19.81,19.81,0,0,0-2.07,3.52,11.23,11.23,0,0,0-.45,6.49,7.45,7.45,0,0,0,.89,2.55,6.27,6.27,0,0,0,2.17,1.92,5.41,5.41,0,0,0,3.15.93,7,7,0,0,0,2.49-1.23,63.43,63.43,0,0,0,5.33-3.49,28.54,28.54,0,0,0,8.32-9,13.55,13.55,0,0,0,1.41-3.62c.65-3-.16-6.2-1.22-9.12a10.47,10.47,0,0,1-1-4.59A7.07,7.07,0,0,1,260,237.9Z" transform="translate(-46.94 -99.75)"/><path class="cls-2" d="M270.84,246.24c-1.95.91-3.73-.48-4.72-2.1-.12-.2.19-.4.31-.2.86,1.43,2.45,2.82,4.22,2,.21-.09.4.21.19.31Z" transform="translate(-46.94 -99.75)"/><path class="cls-21" d="M261.8,241.22a1.84,1.84,0,1,0,1.83-1.83A1.83,1.83,0,0,0,261.8,241.22Z" transform="translate(-46.94 -99.75)"/><polygon class="cls-23" points="219.06 151.27 214.86 148.81 219.06 154.89 219.06 151.27"/><path class="cls-9" d="M249.63,231.36c-1.31,4.78-2.27,10.57-6.3,13.94-2.78,2.34-6.6,2.76-9.5.44-.19-.14.07-.4.25-.25,4.23,3.37,9.26.36,11.61-3.63,1.88-3.2,2.63-7.05,3.59-10.6a.18.18,0,0,1,.35.1Z" transform="translate(-46.94 -99.75)"/><path class="cls-9" d="M262.35,235c-7.44,5-1.84,13.56-1.71,20.63.1,4.92-2.29,8.73-5.84,12-.17.15-.42-.1-.25-.26,2.93-2.66,5.3-5.84,5.69-9.92.36-3.82-.85-7.61-1.6-11.31-1.05-5.15-1-8.36,3.53-11.41.19-.13.37.18.18.31Z" transform="translate(-46.94 -99.75)"/><path class="cls-9" d="M249.76,238.54a19,19,0,0,1-3.35,9.06c-1.69,2.5-4.08,3.42-6.9,4.18a.18.18,0,0,1-.1-.35c3-.81,5.42-1.87,7.11-4.67a18.85,18.85,0,0,0,2.88-8.22c0-.23.38-.23.36,0Z" transform="translate(-46.94 -99.75)"/><rect class="cls-19" x="269.67" y="255.08" width="44.27" height="5.92" transform="translate(536.68 416.32) rotate(180)"/><rect class="cls-2" x="267.25" y="254.67" width="2.52" height="68.78" transform="translate(490.09 478.36) rotate(180)"/><rect class="cls-6" x="269.67" y="259.86" width="44.27" height="63.45" transform="translate(536.68 483.42) rotate(180)"/><path class="cls-2" d="M314.2,323.58H269.41v-69H314.2Zm-44.26-.53h43.74v-68H269.94Z" transform="translate(-46.94 -99.75)"/><polygon class="cls-20" points="269.05 201.59 266.14 205.85 266.14 211.42 269.1 213.86 269.84 213.24 269.84 202.08 269.05 201.59"/><rect class="cls-2" x="225.55" y="162.78" width="38.45" height="60.51"/><rect class="cls-1" x="228.09" y="166" width="1.19" height="1.19"/><rect class="cls-1" x="228.09" y="168.84" width="1.19" height="1.19"/><rect class="cls-1" x="228.09" y="171.67" width="1.19" height="1.19"/><rect class="cls-1" x="228.09" y="174.51" width="1.19" height="1.19"/><rect class="cls-1" x="228.09" y="177.35" width="1.19" height="1.19"/><rect class="cls-1" x="228.09" y="180.18" width="1.19" height="1.19"/><rect class="cls-1" x="228.09" y="183.02" width="1.19" height="1.19"/><rect class="cls-1" x="228.09" y="185.85" width="1.19" height="1.19"/><rect class="cls-1" x="228.09" y="188.69" width="1.19" height="1.19"/><rect class="cls-1" x="228.09" y="191.52" width="1.19" height="1.19"/><rect class="cls-1" x="228.09" y="194.36" width="1.19" height="1.19"/><rect class="cls-1" x="228.09" y="197.2" width="1.19" height="1.19"/><rect class="cls-1" x="228.09" y="200.03" width="1.19" height="1.19"/><rect class="cls-1" x="228.09" y="202.87" width="1.19" height="1.19"/><rect class="cls-1" x="228.09" y="205.7" width="1.19" height="1.19"/><rect class="cls-1" x="228.09" y="208.54" width="1.19" height="1.19"/><rect class="cls-1" x="228.09" y="211.37" width="1.19" height="1.19"/><rect class="cls-1" x="228.09" y="214.21" width="1.19" height="1.19"/><rect class="cls-1" x="228.09" y="217.05" width="1.19" height="1.19"/><rect class="cls-1" x="228.09" y="219.88" width="1.19" height="1.19"/><rect class="cls-6" x="231.83" y="166.3" width="9.85" height="0.6" rx="0.2"/><rect class="cls-6" x="231.83" y="178.24" width="9.85" height="0.6" rx="0.2"/><rect class="cls-1" x="289.57" y="278" width="2.05" height="0.6" rx="0.2" transform="translate(534.25 456.83) rotate(180)"/><rect class="cls-1" x="233.84" y="167.94" width="5.45" height="0.6" rx="0.2"/><rect class="cls-6" x="287.34" y="267.7" width="6.64" height="0.6" rx="0.2" transform="translate(534.39 436.24) rotate(-180)"/><rect class="cls-16" x="280.78" y="279.64" width="6.64" height="0.6" rx="0.2" transform="translate(521.26 460.12) rotate(180)"/><rect class="cls-6" x="231.83" y="191" width="9.85" height="0.6" rx="0.2"/><rect class="cls-16" x="290.6" y="290.76" width="4.66" height="0.6" rx="0.2" transform="translate(538.93 482.36) rotate(180)"/><rect class="cls-1" x="280.78" y="292.4" width="3.71" height="0.6" rx="0.2" transform="translate(518.32 485.64) rotate(180)"/><rect class="cls-16" x="279.2" y="298.14" width="5.77" height="0.6" rx="0.2" transform="translate(517.23 497.13) rotate(180)"/><rect class="cls-16" x="280.78" y="308.59" width="5.77" height="0.6" rx="0.2" transform="translate(520.39 518.03) rotate(180)"/><rect class="cls-1" x="287.43" y="308.59" width="12.15" height="0.6" rx="0.2" transform="translate(540.07 518.03) rotate(180)"/><rect class="cls-6" x="239.51" y="198.39" width="3.29" height="0.6" rx="0.2"/><rect class="cls-6" x="234.74" y="200.93" width="22.74" height="0.6" rx="0.2"/><rect class="cls-6" x="234.74" y="202.87" width="6.02" height="0.6" rx="0.2"/><rect class="cls-1" x="241.88" y="202.87" width="6.12" height="0.6" rx="0.2"/><rect class="cls-6" x="248.84" y="202.87" width="12.99" height="0.6" rx="0.2"/><rect class="cls-6" x="234.74" y="204.81" width="17.06" height="0.6" rx="0.2"/><rect class="cls-6" x="239.29" y="192.64" width="12.01" height="0.6" rx="0.2"/><rect class="cls-6" x="235.58" y="195.55" width="26.5" height="0.6" rx="0.2"/><rect class="cls-6" x="282.42" y="270.42" width="9.8" height="0.6" rx="0.2" transform="translate(527.7 441.69) rotate(180)"/><rect class="cls-6" x="282.42" y="283.07" width="9.8" height="0.6" rx="0.2" transform="translate(527.7 466.98) rotate(180)"/><rect class="cls-6" x="282.52" y="284.99" width="18.63" height="0.6" rx="0.2" transform="translate(536.73 470.82) rotate(180)"/><rect class="cls-6" x="254.88" y="185.24" width="4.81" height="0.6" rx="0.2"/><rect class="cls-1" x="282.52" y="286.91" width="4.9" height="0.6" rx="0.2" transform="translate(523 474.66) rotate(180)"/><rect class="cls-6" x="288.61" y="286.91" width="6.32" height="0.6" rx="0.2" transform="translate(536.61 474.66) rotate(180)"/><rect class="cls-6" x="246.23" y="183.32" width="5.8" height="0.6" rx="0.2"/><rect class="cls-6" x="299.93" y="283.07" width="2.78" height="0.6" rx="0.2" transform="translate(555.69 466.98) rotate(180)"/><rect class="cls-16" x="257.04" y="183.32" width="5.31" height="0.6" rx="0.2"/><rect class="cls-6" x="231.83" y="220.42" width="9.85" height="0.6" rx="0.2"/><rect class="cls-16" x="290.6" y="320.17" width="4.66" height="0.6" rx="0.2" transform="translate(538.93 541.18) rotate(180)"/><rect class="cls-1" x="280.78" y="321.81" width="3.71" height="0.6" rx="0.2" transform="translate(518.32 544.47) rotate(180)"/><rect class="cls-6" x="239.29" y="222.06" width="12.01" height="0.6" rx="0.2"/><rect class="cls-6" x="282.42" y="312.48" width="9.8" height="0.6" rx="0.2" transform="translate(527.7 525.81) rotate(180)"/><rect class="cls-6" x="282.52" y="314.4" width="18.63" height="0.6" rx="0.2" transform="translate(536.73 529.65) rotate(180)"/><rect class="cls-6" x="254.88" y="214.65" width="4.81" height="0.6" rx="0.2"/><rect class="cls-1" x="282.52" y="316.32" width="4.9" height="0.6" rx="0.2" transform="translate(523 533.49) rotate(180)"/><rect class="cls-6" x="288.61" y="316.32" width="6.32" height="0.6" rx="0.2" transform="translate(536.61 533.49) rotate(180)"/><rect class="cls-6" x="246.23" y="212.73" width="5.8" height="0.6" rx="0.2"/><rect class="cls-6" x="299.93" y="312.48" width="2.78" height="0.6" rx="0.2" transform="translate(555.69 525.81) rotate(180)"/><rect class="cls-16" x="257.04" y="212.73" width="5.31" height="0.6" rx="0.2"/><rect class="cls-6" x="282.42" y="272.32" width="17.39" height="0.6" rx="0.2" transform="translate(535.29 445.49) rotate(180)"/><rect class="cls-6" x="254.21" y="172.57" width="9.63" height="0.6" rx="0.2"/><rect class="cls-16" x="246.55" y="170.67" width="1.77" height="0.6" rx="0.2"/><rect class="cls-6" x="296.52" y="270.42" width="11.19" height="0.6" rx="0.2" transform="translate(557.3 441.69) rotate(180)"/><rect class="cls-6" x="282.42" y="273.97" width="6.19" height="0.6" rx="0.2" transform="translate(524.1 448.77) rotate(180)"/><rect class="cls-16" x="243.09" y="174.21" width="7.46" height="0.6" rx="0.2"/><rect class="cls-6" x="298.54" y="273.97" width="10.49" height="0.6" rx="0.2" transform="translate(560.63 448.77) rotate(180)"/></g><g id="Man_2-2" data-name="Man 2"><path class="cls-20" d="M383.68,332.93,363.5,348.69l-25-8.93a5.87,5.87,0,0,0-7.6,3.85h0a5.86,5.86,0,0,0,3.91,7.29l30.32,9.3,18.56-18.94Z" transform="translate(-46.94 -99.75)"/><path class="cls-18" d="M358.55,346.92l-20-7.39c-3.18-1.13-6.58-.12-7.54,3.11l-.26.56c-.92,3.09.47,7,3.56,8l21.22,6.1C357.91,356,359.77,349.32,358.55,346.92Z" transform="translate(-46.94 -99.75)"/><path class="cls-9" d="M325.69,417.57,310,428.78l-7.93,0h0a2.86,2.86,0,0,0,2.87,2.86h22.81V417.57Z" transform="translate(-46.94 -99.75)"/><polygon class="cls-20" points="274.61 331.91 280.78 322.97 280.78 331.91 274.61 331.91"/><path class="cls-20" d="M382.52,417v5.38l7.71,4.91,9.95,1.16V429a2.68,2.68,0,0,1-2.68,2.67H373.76L375.33,417Z" transform="translate(-46.94 -99.75)"/><path class="cls-9" d="M382.52,422.35l7.71,4.91,9.95,1.16V429a2.68,2.68,0,0,1-2.68,2.67H373.76l1-9.37Z" transform="translate(-46.94 -99.75)"/><polygon class="cls-1" points="299.34 283.26 343.36 283.26 336.93 317.21 327.39 317.21 326.53 300.94 298.86 306.96 299.34 283.26"/><path class="cls-1" d="M312.2,400.7l-.42,4.51a12.36,12.36,0,0,0,12.36,12.36h3.58v14.09h54.53l.05-2.45a14.26,14.26,0,0,0-6.92-12.52l-26.59-16Z" transform="translate(-46.94 -99.75)"/><path class="cls-2" d="M324.14,417.86a12.67,12.67,0,0,1-12.65-12.65l.43-4.54.57.06-.43,4.5a12.09,12.09,0,0,0,12.08,12.06Z" transform="translate(-46.94 -99.75)"/><path class="cls-18" d="M336.13,338.54h3.39a10.31,10.31,0,0,1,10.31,10.52l-1,51.64H312.2l9.39-50.09A14.8,14.8,0,0,1,336.13,338.54Z" transform="translate(-46.94 -99.75)"/><path class="cls-20" d="M339.43,347.87,363,360.2l23.93-13.81,2.68-3.71,4.9-2.64h2.15l.71,1.67-3.24.66-.48,1.34,7.08-1.3a4.61,4.61,0,0,1,4.12,1.33h0a1.72,1.72,0,0,1,.47,1.18v2.78a1.63,1.63,0,0,1-.66,1.32l-1.34,1a5.91,5.91,0,0,1-2.9,1.14l-6.14.64a1.6,1.6,0,0,1-.44,0L390,351,363,371.82,334.22,358.4a5.88,5.88,0,0,1-2.86-7.77h0A5.88,5.88,0,0,1,339.43,347.87Z" transform="translate(-46.94 -99.75)"/><path class="cls-18" d="M358.29,357.76l-18.77-10.11c-3-1.56-6.5-1-7.9,2l-.33.52c-1.34,2.93-.51,7,2.42,8.37l20.17,9C356.4,366.64,359.17,360.3,358.29,357.76Z" transform="translate(-46.94 -99.75)"/><path class="cls-20" d="M340.58,329.73v10.85a4,4,0,0,1-4.3,4h0a4,4,0,0,1-3.77-4.3l.61-9.12Z" transform="translate(-46.94 -99.75)"/><path class="cls-20" d="M345,317.61l.75,5.21,1.53,1.63a5,5,0,0,1,1.26,2.37l.34,3.24h-1.58l-.2,4.38a3.81,3.81,0,0,1-4.07,3.62l-10.21-.75L326.18,328a7.21,7.21,0,0,1,.27-6.82l4.18-7.1,11.09.54A3.47,3.47,0,0,1,345,317.61Z" transform="translate(-46.94 -99.75)"/><polygon class="cls-2" points="281.06 329.97 280.5 329.97 280.5 317.54 310.75 317.54 310.75 318.1 281.06 318.1 281.06 329.97"/><polygon class="cls-2" points="315.62 309.93 301.7 301.18 302.01 300.71 315.93 309.45 315.62 309.93"/><rect class="cls-2" x="354.9" y="402.93" width="13.28" height="0.57" transform="translate(-120.86 -18.51) rotate(-11.64)"/><rect class="cls-2" x="373.42" y="400.06" width="2.86" height="0.57" transform="translate(-134.68 5.97) rotate(-14.39)"/><path class="cls-7" d="M349.63,311.27a3.41,3.41,0,0,0-1.15-1.65,2.89,2.89,0,0,0-1.1-.6,5.59,5.59,0,0,0-2.7.31,8.62,8.62,0,0,1-4.07.05,6.82,6.82,0,0,0-3.4-.5,9.3,9.3,0,0,1-2.58.51,12.55,12.55,0,0,1-2.33-.79,4,4,0,0,0-4.1,1.34,4.57,4.57,0,0,0-.7,4.31,1.3,1.3,0,0,1,.11.67.79.79,0,0,1-.3.42,9.74,9.74,0,0,1-2.17.91c-1.12.55-2.3.87-2.93,2.08a5.11,5.11,0,0,0,.39,4.94,16,16,0,0,0,1.51,1.57c.47.49.8,1.08,1.23,1.61,1,1.25.31,2.1.21,3.53a8.29,8.29,0,0,0,.77,4.13,4.08,4.08,0,0,0,1.4,1.75,4.72,4.72,0,0,0,3.13.4,7.48,7.48,0,0,0,2.68-.74,4.37,4.37,0,0,0,2.08-4.18c-.09-1.09-.48-2.13-.66-3.21a3.73,3.73,0,0,1,.64-3.11c.83-.93,1.73.16,1.94,1a3.45,3.45,0,0,1,.08.72c0,.46,0,.91,0,1.37l2-.21a15.89,15.89,0,0,1-.38-4.18c0-1.32-.77-2.21.36-3.3a2.47,2.47,0,0,1,.76-.51,3.21,3.21,0,0,1,2.22.26c1.1.37,2.83.69,3.87,0a3.58,3.58,0,0,0,1.51-3,5.57,5.57,0,0,1-.3-1.83c.17-.9,1.21-1.34,1.71-2.11A2.33,2.33,0,0,0,349.63,311.27Z" transform="translate(-46.94 -99.75)"/><rect class="cls-2" x="346.65" y="356.67" width="0.57" height="15.33" transform="translate(-176.94 424.7) rotate(-64.96)"/><rect class="cls-2" x="346.08" y="368.73" width="6.75" height="0.57" transform="translate(-76.38 607.98) rotate(-88.36)"/><polygon class="cls-2" points="266.14 296.26 301.86 296.26 301.86 300.94 265.27 300.94 266.14 296.26"/><path class="cls-2" d="M343.91,323.32c0,.28-.1.51-.22.51s-.22-.23-.22-.51.09-.5.22-.5S343.91,323.05,343.91,323.32Z" transform="translate(-46.94 -99.75)"/><path class="cls-24" d="M341.76,322.61a14.44,14.44,0,0,1,2.59-.65c.24,0,.14-.41-.1-.37a15.34,15.34,0,0,0-2.59.65c-.23.08-.13.45.1.37Z" transform="translate(-46.94 -99.75)"/><path class="cls-24" d="M342.29,332.39a3.67,3.67,0,0,0,3.55,2.17c.24,0,.24-.39,0-.38a3.3,3.3,0,0,1-3.22-2c-.1-.22-.43,0-.33.19Z" transform="translate(-46.94 -99.75)"/><polygon class="cls-23" points="293.64 237.42 288.81 237.42 293.64 240.29 293.64 237.42"/></g><g id="line"><line class="cls-25" y1="331.91" x2="716.53" y2="331.91"/></g></svg>