<?xml version="1.0" encoding="UTF-8"?>
<svg width="46px" height="46px" viewBox="0 0 46 46" version="1.1" xmlns="http://www.w3.org/2000/svg" xmlns:xlink="http://www.w3.org/1999/xlink">
    <!-- Generator: Sketch 55 (78076) - https://sketchapp.com -->
    <title>chat-1</title>
    <desc>Created with Sketch.</desc>
    <g id="Page-1" stroke="none" stroke-width="1" fill="none" fill-rule="evenodd">
        <g id="Homepage-After" transform="translate(-331.000000, -671.000000)" fill="#FFFFFF" fill-rule="nonzero">
            <g id="Cards" transform="translate(209.000000, 616.000000)">
                <g id="card">
                    <g id="Group" transform="translate(105.000000, 36.000000)">
                        <g id="chat-1" transform="translate(17.000000, 19.000000)">
                            <path d="M39.264284,6.74204355 C34.9183499,2.39824121 29.1462557,0 22.9983489,0 C16.8504422,0 11.0783479,2.39824121 6.73241385,6.74204355 C-1.65109534,15.1214405 -2.25817704,28.5092127 5.20989149,37.5820771 C4.17881622,39.6913735 2.96465282,41.0975712 1.58667372,41.7717755 C0.748322806,42.1859296 0.27614815,43.0912898 0.411055195,44.0159129 C0.555598457,44.9501675 1.26867855,45.6725293 2.20339164,45.8170017 C2.71411117,45.8940536 3.26337556,45.9422111 3.83191239,45.9422111 L3.83191239,45.9422111 C6.65532411,45.9422111 9.62327909,44.9694305 12.099787,43.2646566 C15.4339182,45.0561139 19.1824068,46 22.9983489,46 C29.1462557,46 34.9183499,43.6113903 39.264284,39.2675879 C43.6102181,34.9237856 46,29.1448911 46,23.0096315 C46,16.8743719 43.6102181,11.0858459 39.264284,6.74204355 Z M37.4237665,37.4183417 C33.5692795,41.270938 28.4428118,43.389866 22.9983489,43.389866 C19.3558587,43.389866 15.780822,42.4170854 12.6683238,40.5871022 C12.4659632,40.4715243 12.234694,40.4041039 12.013061,40.4041039 C11.7336107,40.4041039 11.4445242,40.5004188 11.213255,40.6737856 C8.26457243,42.9564489 5.29661745,43.2935511 3.99572809,43.3224456 C5.5471591,42.1666667 6.84804846,40.3752094 7.93694103,37.8806533 C8.1393016,37.4183417 8.05257564,36.8789782 7.71530803,36.4937186 C0.584507109,28.4417923 0.96031959,16.171273 8.57293138,8.56239531 C12.4274184,4.70979899 17.5538861,2.59087102 22.9983489,2.59087102 C28.4428118,2.59087102 33.5692795,4.70979899 37.4237665,8.56239531 C45.3832821,16.5276382 45.3832821,29.4723618 37.4237665,37.4183417 Z" id="Shape"></path>
                            <path d="M32.69163,15 L13.30837,15 C12.5814978,15 12,15.6666667 12,16.5 C12,17.3333333 12.5814978,18 13.30837,18 L32.69163,18 C33.4185022,18 34,17.3333333 34,16.5 C34,15.6666667 33.4088106,15 32.69163,15 Z" id="Path"></path>
                            <path d="M32.69163,21 L13.30837,21 C12.5814978,21 12,21.6666667 12,22.5 C12,23.3333333 12.5814978,24 13.30837,24 L32.69163,24 C33.4185022,24 34,23.3333333 34,22.5 C34,21.6666667 33.4088106,21 32.69163,21 Z" id="Path"></path>
                            <path d="M32.69163,28 L13.30837,28 C12.5814978,28 12,28.6666667 12,29.5 C12,30.3333333 12.5814978,31 13.30837,31 L32.69163,31 C33.4185022,31 34,30.3333333 34,29.5 C34,28.6666667 33.4088106,28 32.69163,28 Z" id="Path"></path>
                        </g>
                    </g>
                </g>
            </g>
        </g>
    </g>
</svg>