<?xml version="1.0" encoding="UTF-8"?>
<svg width="42px" height="47px" viewBox="0 0 42 47" version="1.1" xmlns="http://www.w3.org/2000/svg" xmlns:xlink="http://www.w3.org/1999/xlink">
    <!-- Generator: Sketch 55 (78076) - https://sketchapp.com -->
    <title>download</title>
    <desc>Created with Sketch.</desc>
    <g id="Page-1" stroke="none" stroke-width="1" fill="none" fill-rule="evenodd">
        <g id="Homepage-After" transform="translate(-241.000000, -2404.000000)" fill="#FFFFFF" fill-rule="nonzero">
            <g id="Cards" transform="translate(80.000000, 2239.000000)">
                <g id="card" transform="translate(40.000000, 113.000000)">
                    <g id="Group" transform="translate(102.000000, 35.000000)">
                        <g id="download" transform="translate(19.277108, 17.566265)">
                            <path d="M13.8542533,19.1069541 C13.3738834,19.6215214 13.3738834,20.446771 13.8542533,20.9613383 L20.3437789,27.9128521 C20.579432,28.1652814 20.8966574,28.3012048 21.2048193,28.3012048 C21.5129811,28.3012048 21.8302065,28.1749902 22.0658597,27.9128521 L28.5553852,20.9613383 C29.0357551,20.446771 29.0357551,19.6215214 28.5553852,19.1069541 C28.0750153,18.5923867 27.3046107,18.5923867 26.8242408,19.1069541 L22.428403,23.8157308 L22.428403,1.31069045 C22.428403,0.582529087 21.884588,0 21.2048193,0 C20.5250505,0 19.9812356,0.582529087 19.9812356,1.31069045 L19.9812356,23.8157308 L15.5853977,19.1069541 C15.1050278,18.5923867 14.3255597,18.5923867 13.8542533,19.1069541 Z" id="Path"></path>
                            <path d="M41.3989412,29.235015 L36.9957951,12.7576412 C36.8927428,12.3796309 36.6397961,12.0791611 36.3025338,11.9143874 L36.1807447,11.856232 C36.0121136,11.7786914 35.834114,11.7399211 35.6561145,11.7399211 L27.7210832,11.7399211 C27.0184536,11.7399211 26.4563498,12.3214755 26.4563498,13.0484184 C26.4563498,13.7753614 27.0184536,14.3569157 27.7210832,14.3569157 L34.8035905,14.3569157 L38.5228436,28.2948354 L28.686028,28.2948354 C27.9833983,28.2948354 27.4212946,28.8763898 27.4212946,29.6033327 L27.4212946,30.7858266 C27.4212946,32.5207972 26.0628772,33.9262202 24.3859343,33.9262202 L16.6663762,33.9262202 C14.9894333,33.9262202 13.6310159,32.5207972 13.6310159,30.7858266 L13.6310159,29.6033327 C13.6310159,28.8763898 13.0689122,28.2948354 12.3662825,28.2948354 L2.9135711,28.2948354 L6.65156104,14.327838 L13.7340683,14.327838 C14.436698,14.327838 14.9988017,13.7462837 14.9988017,13.0193407 C14.9988017,12.2923977 14.436698,11.7108434 13.7340683,11.7108434 L5.78966862,11.7108434 C5.6116691,11.7108434 5.43366958,11.7496137 5.26503845,11.8271542 L5.14324931,11.8853097 C4.80598706,12.0500834 4.54367198,12.3505532 4.44998802,12.7285635 L0.0468419791,29.2059373 C0.0187367917,29.3222481 0,29.438559 0,29.5548699 L0,36.426904 C0,41.6318156 4.09398898,45.8674699 9.12481753,45.8674699 L32.3209656,45.8674699 C37.3517942,45.8674699 41.4457831,41.6318156 41.4457831,36.426904 L41.4457831,29.5839476 C41.4457831,29.4579441 41.4364147,29.3416333 41.3989412,29.235015 Z M38.9163163,36.426904 C38.9163163,40.1876222 35.9559032,43.2504752 32.3209656,43.2504752 L9.12481753,43.2504752 C5.48987995,43.2504752 2.52946687,40.1876222 2.52946687,36.426904 L2.52946687,30.9118301 L11.1202858,30.9118301 C11.1858646,34.0231459 13.6591211,36.5335223 16.685113,36.5335223 L24.4046711,36.5335223 C27.430663,36.5335223 29.9039195,34.0231459 29.9694982,30.9118301 L38.9350531,30.9118301 L38.9350531,36.426904 L38.9163163,36.426904 Z" id="Shape"></path>
                        </g>
                    </g>
                </g>
            </g>
        </g>
    </g>
</svg>