<?xml version="1.0" encoding="utf-8"?>
<!-- Generator: Adobe Illustrator 24.0.3, SVG Export Plug-In . SVG Version: 6.00 Build 0)  -->
<svg version="1.1" xmlns="http://www.w3.org/2000/svg" xmlns:xlink="http://www.w3.org/1999/xlink" x="0px" y="0px"
	 viewBox="0 0 2012.7 1021.7" style="enable-background:new 0 0 2012.7 1021.7;" xml:space="preserve">
<style type="text/css">
	.st0{display:none;}
	.st1{display:inline;}
	.st2{fill:none;}
	.st3{fill:#CAB7E5;}
	.st4{fill:#220D3A;}
	.st5{fill:#BDA8DD;}
	.st6{fill:#969696;}
	.st7{fill:#CCCCCC;}
	.st8{fill:#B7B7B7;}
	.st9{fill:#DD4D14;}
	.st10{fill:#B23012;}
	.st11{fill:#AAAAAA;}
	.st12{fill:#939393;}
	.st13{fill:#6D6D6D;}
	.st14{fill:#EDEDED;}
	.st15{fill:#ED701B;}
	.st16{fill:#D36113;}
	.st17{fill:#BC5917;}
	.st18{fill:#4C4C4C;}
	.st19{fill:#DD6819;}
</style>
<g id="text" class="st0">
	<g class="st1">
		<g>
			<g>
				<polygon class="st2" points="820.7,243.6 827.3,244.5 821.3,243.1 				"/>
				<path class="st2" d="M921,266.3c0,3.1-1.3,6-3.6,8c-1.9,1.7-4.4,2.6-7,2.6c-0.5,0-0.9,0-1.4-0.1l-93.8-12.5v500.1h414.2V178.8
					H921V266.3z"/>
				<polygon class="st3" points="899.8,185 821.3,243.1 827.3,244.5 899.8,254.2 				"/>
				<path class="st4" d="M1235.9,157.6H905.5c-12.2,5.2-102.1,73.9-111.4,85.1v528.2c0,8.1,6.6,14.7,14.7,14.7h427.2
					c8.1,0,14.7-6.6,14.7-14.7V172.3C1250.6,164.2,1244,157.6,1235.9,157.6z M821.3,243.1l78.5-58.1v69.2l-72.5-9.6l-6.7-0.9
					L821.3,243.1z M1229.4,764.4H815.3V264.3l93.8,12.5c0.5,0.1,0.9,0.1,1.4,0.1c2.6,0,5-0.9,7-2.6c2.3-2,3.6-4.9,3.6-8v-87.5h308.4
					V764.4z"/>
			</g>
			<path class="st4" d="M960.8,354.3L946.1,341l14.7-13.3c2.9-2.6,3.1-7.1,0.5-10c-2.6-2.9-7.1-3.1-10-0.5l-15.8,14.3l-15.8-14.3
				c-2.9-2.6-7.4-2.4-10,0.5c-2.6,2.9-2.4,7.4,0.5,10L925,341l-14.7,13.3c-2.9,2.6-3.1,7.1-0.5,10c1.4,1.5,3.3,2.3,5.2,2.3
				c1.7,0,3.4-0.6,4.7-1.8l15.8-14.3l15.8,14.3c1.4,1.2,3,1.8,4.7,1.8c1.9,0,3.8-0.8,5.2-2.3C963.9,361.4,963.7,356.9,960.8,354.3z"
				/>
			<path class="st4" d="M1139.7,348.6l-14.7-13.3l14.7-13.3c2.9-2.6,3.1-7.1,0.5-10c-2.6-2.9-7.1-3.1-10-0.5l-15.8,14.3l-15.8-14.3
				c-2.9-2.6-7.4-2.4-10,0.5c-2.6,2.9-2.4,7.4,0.5,10l14.7,13.3l-14.7,13.3c-2.9,2.6-3.1,7.1-0.5,10c1.4,1.5,3.3,2.3,5.2,2.3
				c1.7,0,3.4-0.6,4.7-1.8l15.8-14.3l15.8,14.3c1.4,1.2,3,1.8,4.7,1.8c1.9,0,3.8-0.8,5.2-2.3
				C1142.8,355.7,1142.6,351.2,1139.7,348.6z"/>
			<g>
				<path class="st3" d="M947.3,541.3c4.2,4.4,9.2,6.5,15.1,6.5c11.3,0,17.2-5,21.2-17.8c4.3-13.9,5.3-35,6.7-61.7
					c0.3-5.8,0.6-11.8,0.9-18c-2.5,0.6-5.1,1.4-7.6,2.1c-5.7,1.7-11,3.7-16.1,5.9c0.2,0.7,0.4,1.4,0.4,2.1l1.5,60
					c0.1,3.9-3,7.1-6.9,7.2c-0.1,0-0.1,0-0.2,0c-3.8,0-7-3-7.1-6.9l-1.4-56c-9.2,4.9-16.7,9.9-22.4,14
					C931.4,494.2,933.9,527.3,947.3,541.3z"/>
				<path class="st4" d="M1139.5,476.6c-27.7-23.2-57.1-37.6-87.2-42.8c-24.2-4.2-48.9-2.4-73.4,5.2c-41.4,12.9-67.7,38-68.8,39.1
					c-2.8,2.7-2.9,7.2-0.2,10c1.4,1.4,3.2,2.2,5.1,2.2c0.9,0,1.8-0.2,2.7-0.5c0.2,4.2,0.6,9,1.2,14.1c2.8,21.6,8.9,37.5,18.1,47.2
					c6.9,7.2,15.5,10.9,25.3,10.9c17.6,0,28.9-9.1,34.7-27.7c4.8-15.6,5.9-37.5,7.3-65.2c0.3-7,0.7-14.1,1.1-21.7
					c43.2-6.6,85.1,6.8,124.9,40.1c3,2.5,7.4,2.1,9.9-0.9C1142.9,483.6,1142.5,479.1,1139.5,476.6z M990.3,468.3
					c-1.3,26.7-2.4,47.8-6.7,61.7c-4,12.8-9.9,17.8-21.2,17.8c-6,0-10.9-2.1-15.1-6.5c-13.4-14-15.9-47.1-15.8-62.4
					c5.7-4.1,13.2-9.2,22.4-14l1.4,56c0.1,3.8,3.2,6.9,7.1,6.9c0.1,0,0.1,0,0.2,0c3.9-0.1,7-3.3,6.9-7.2l-1.5-60
					c0-0.7-0.2-1.5-0.4-2.1c5-2.2,10.4-4.2,16.1-5.9c2.5-0.8,5.1-1.5,7.6-2.1C990.9,456.5,990.6,462.5,990.3,468.3z"/>
			</g>
		</g>
		<g>
			<polygon class="st5" points="1270.6,879.7 757,826.1 786.7,580.4 1300.3,634 			"/>
		</g>
		<g>
			<path class="st4" d="M809.9,467.4c-2.3-3.1-6.7-3.8-9.9-1.5c-0.8,0.6-18.8,13.9-37.9,36.9c-11.3,13.5-20.6,27.6-27.8,41.8
				c-9,18-14.6,36.3-16.5,54.4c-4,38.1,7.9,75.3,35.3,110.9c0,0.6-0.1,1.2-0.1,1.8c0,13.6,11,24.6,24.6,24.6
				c13.6,0,24.6-11,24.6-24.6c0-13.6-11-24.6-24.6-24.6c-7.1,0-13.6,3-18.1,7.9c-21.8-30.6-31.1-62.2-27.8-94.3
				c3.9-37.2,24.3-68.6,40.8-88.4c18.1-21.8,35.6-34.7,35.7-34.8C811.5,475,812.2,470.5,809.9,467.4z"/>
			<path class="st4" d="M1326.4,599c-1.9-18.1-7.4-36.4-16.5-54.4c-7.2-14.2-16.5-28.3-27.8-41.8c-19.2-23-37.2-36.3-37.9-36.9
				c-3.1-2.3-7.6-1.6-9.9,1.5c-2.3,3.1-1.6,7.6,1.5,9.9c0.2,0.1,17.4,12.9,35.5,34.5c16.6,19.8,37.1,51.3,41.1,88.6
				c3.1,29.9-4.7,59.5-23.5,88.2c-2.7-1.1-5.7-1.6-8.8-1.6c-13.6,0-24.6,11-24.6,24.6c0,13.6,11,24.6,24.6,24.6
				c13.6,0,24.6-11,24.6-24.6c0-5.3-1.7-10.3-4.6-14.3C1321.1,665.6,1329.9,632.6,1326.4,599z"/>
		</g>
		<g>
			<path class="st4" d="M884.4,756.6l-35.8-4c-6.6-0.7-12.3-3.7-11.5-11l8.5-76.2c0.5-4.7,5.5-9.1,11.5-8.4l36.7,4.1
				c5.1,0.6,9,5.1,8.5,9.9c-0.5,4.9-5.3,7.9-10.4,7.3l-28.1-3.2l-2.4,21.8l25.6,2.9c4.7,0.5,8.9,4.7,8.4,9.6
				c-0.5,4.9-5,8.2-10.3,7.6l-25.6-2.9l-2.5,22l29.5,3.3c5,0.6,9,4.8,8.5,9.4C894.3,753.8,889.5,757.2,884.4,756.6z"/>
			<path class="st4" d="M958.6,723.7l15.4,29.9c3.7,7.3-3.7,13.7-9.8,13c-3.4-0.4-6.1-2.2-7.5-5.1L938,723.4l-9.2-1l-3.5,31
				c-0.5,4.7-5.5,8.4-10.6,7.9c-5-0.6-8.9-5.1-8.3-10l8.7-77.9c0.6-5.3,5.8-9.2,11.4-8.6l23.5,2.6c25.4,2.8,31.9,18.2,30.3,32.4
				C978.8,713.2,970.7,721.2,958.6,723.7z M947.5,684.5l-14.3-1.6l-2.5,22.5l15.2,1.7c9.3,1,14.8-2.3,15.6-9.4
				C962,692,959.8,685.9,947.5,684.5z"/>
			<path class="st4" d="M1040.4,732.9l15.4,29.9c3.7,7.3-3.7,13.7-9.8,13c-3.4-0.4-6.1-2.2-7.5-5.1l-18.7-38.1l-9.2-1l-3.5,31
				c-0.5,4.7-5.5,8.4-10.6,7.9c-5-0.6-8.9-5.1-8.3-10l8.7-77.9c0.6-5.3,5.8-9.2,11.4-8.6l23.5,2.6c25.4,2.9,31.9,18.2,30.3,32.4
				C1060.7,722.4,1052.5,730.4,1040.4,732.9z M1029.4,693.7l-14.3-1.6l-2.5,22.5l15.1,1.7c9.3,1,14.8-2.3,15.6-9.3
				C1043.9,701.2,1041.7,695.1,1029.4,693.7z"/>
			<path class="st4" d="M1071.3,742.8l3-26.8c2.2-19.2,13.8-34.3,39.1-31.5c25.3,2.8,33.4,20.2,31.2,39.4l-3,26.8
				c-2.2,19.8-15.8,34.3-39.2,31.6C1079,779.7,1069,762.5,1071.3,742.8z M1093.2,718.1l-3,26.8c-1.2,10.8,3.1,19,14.2,20.2
				c11.1,1.2,17.1-5.8,18.3-16.6l3-26.8c1.2-11-2.3-18.7-14.2-20.1C1099.6,700.3,1094.4,707.2,1093.2,718.1z"/>
			<path class="st4" d="M1205.5,751.4l15.4,29.9c3.7,7.3-3.7,13.7-9.8,13c-3.4-0.4-6.1-2.2-7.5-5.1l-18.7-38.1l-9.2-1l-3.5,31
				c-0.5,4.7-5.5,8.4-10.6,7.9c-5-0.6-8.9-5.1-8.3-10l8.7-77.9c0.6-5.3,5.8-9.2,11.4-8.6l23.5,2.6c25.4,2.9,31.9,18.2,30.3,32.4
				C1225.7,740.9,1217.5,748.9,1205.5,751.4z M1194.4,712.2l-14.3-1.6l-2.5,22.5l15.2,1.7c9.3,1,14.8-2.3,15.6-9.3
				C1208.9,719.7,1206.7,713.6,1194.4,712.2z"/>
		</g>
		<path class="st4" d="M597.7,611h-37V441.8c0-19.2-18.2-34.8-40.5-34.8c-23.1,0-40.5,15-40.5,34.8V611H299.3l14.9-34.5
			c27.4-63.4,52.6-120.8,77-176.2l0-0.1c24.4-55.5,49.6-112.9,77-176.1l0.1-0.2c1.7-3.7,1.7-6.1,1.7-10.8c0-8.5-4.6-17.6-12.5-24.9
			c-8.1-7.4-18.6-11.8-28-11.8c-15.8,0-30.5,8.9-35.8,21.6l-0.1,0.3L212.1,617.2l-0.1,0.3c-3.9,8.4-6.7,20.3-7.2,23.6
			c0.5,19.1,16.3,38.7,42.4,38.7h232.6v102.2c0,19.9,17.4,34.8,40.5,34.8c23.1,0,40.5-15,40.5-34.8V679.7h37
			c21.6,0,38.6-15.3,38.6-34.8C636.3,626.2,619,611,597.7,611z"/>
		<path class="st4" d="M1769.6,617.3h-37V448c0-19.2-18.2-34.8-40.5-34.8c-23.1,0-40.5,15-40.5,34.8v169.3h-180.4l14.9-34.5
			c27.4-63.4,52.7-120.8,77.1-176.3l0-0.1c24.4-55.5,49.6-112.8,76.9-176l0.1-0.2c1.6-3.7,1.6-6.1,1.6-10.7
			c0-8.5-4.6-17.6-12.5-24.9c-8.1-7.4-18.6-11.8-28-11.8c-15.8,0-30.5,8.9-35.8,21.6l-0.1,0.3L1384,623.4l-0.1,0.3
			c-3.9,8.4-6.7,20.3-7.2,23.6c0.5,19.1,16.3,38.7,42.4,38.7h232.6v102.2c0,19.9,17.4,34.8,40.5,34.8c23.1,0,40.5-15,40.5-34.8V686
			h37c21.6,0,38.6-15.3,38.6-34.8C1808.2,632.5,1790.9,617.3,1769.6,617.3z"/>
	</g>
</g>
<g id="Layer_2">
	<g id="XMLID_458_">
		<g id="XMLID_324_">
			<g id="XMLID_402_">
				<polygon id="XMLID_416_" class="st6" points="1350.2,416.9 1350.1,417 1347.8,418.6 1340.7,424.8 1251.8,367.5 1185.7,330 
					1077.8,268.7 1011.7,231.2 903.9,169.9 837.8,132.4 820,122.3 827.3,117 829.6,118.3 895.6,155.5 1003.5,216.2 1069.5,253.4 
					1177.3,314.1 1243.3,351.2 1331.9,405.1 				"/>
				<polygon id="XMLID_415_" class="st7" points="1340.7,424.8 1356.1,519.8 1270.8,477.4 1204.7,439.7 1096.8,377.9 1030.7,340.1 
					922.7,278.4 856.6,240.6 820,219.7 820,122.3 837.8,132.4 903.9,169.9 1011.7,231.2 1077.8,268.7 1185.7,330 1251.8,367.5 				
					"/>
				<polygon id="XMLID_414_" class="st8" points="1350.2,416.9 1358.5,465.8 1358.5,466 1365.1,512.1 1356.1,519.8 1340.7,424.8 
					1347.8,418.6 				"/>
				<g id="XMLID_409_">
					<polygon id="XMLID_413_" class="st9" points="856.6,240.6 820,219.7 820,122.3 837.8,132.4 					"/>
					<polygon id="XMLID_412_" class="st9" points="1030.7,340.1 922.7,278.4 903.9,169.9 1011.7,231.2 					"/>
					<polygon id="XMLID_411_" class="st9" points="1204.7,439.7 1096.8,377.9 1077.8,268.7 1185.7,330 					"/>
					<polygon id="XMLID_410_" class="st9" points="1340.7,424.8 1356.1,519.8 1270.8,477.4 1251.8,367.5 					"/>
				</g>
				<g id="XMLID_403_">
					<polygon id="XMLID_408_" class="st10" points="837.8,132.4 820,122.3 827.3,117 829.6,118.3 					"/>
					<polygon id="XMLID_407_" class="st10" points="1011.7,231.2 903.9,169.9 895.6,155.5 1003.5,216.2 					"/>
					<polygon id="XMLID_406_" class="st10" points="1185.7,330 1077.8,268.7 1069.5,253.4 1177.3,314.1 					"/>
					<polygon id="XMLID_405_" class="st10" points="1350.3,417 1358.5,465.8 1358.5,466 1365.1,512.1 1356.1,519.8 1340.7,424.8 
						1347.8,418.6 1350.1,417 					"/>
					<polygon id="XMLID_404_" class="st10" points="1350.1,417 1347.8,418.6 1340.7,424.8 1251.8,367.5 1243.3,351.2 1331.9,405.1 
											"/>
				</g>
			</g>
			<g id="XMLID_387_">
				<polygon id="XMLID_401_" class="st6" points="1385.4,573.1 1385.3,573.2 1383,574.8 1375.9,581 1287,523.7 1220.9,486.2 
					1113,424.9 1046.9,387.4 939.1,326.1 873,288.6 855.2,278.5 862.5,273.2 864.8,274.5 930.8,311.7 1038.7,372.4 1104.7,409.6 
					1212.5,470.3 1278.5,507.4 1367.1,561.3 				"/>
				<polygon id="XMLID_400_" class="st7" points="1375.9,581 1391.3,676 1306,633.6 1239.9,595.9 1132,534.1 1065.9,496.3 
					957.9,434.6 891.8,396.8 855.2,375.9 855.2,278.5 873,288.6 939.1,326.1 1046.9,387.4 1113,424.9 1220.9,486.2 1287,523.7 				
					"/>
				<polygon id="XMLID_399_" class="st8" points="1385.4,573.1 1393.7,622 1393.7,622.2 1400.3,668.3 1391.3,676 1375.9,581 
					1383,574.8 				"/>
				<g id="XMLID_394_">
					<polygon id="XMLID_398_" class="st9" points="891.8,396.8 855.2,375.9 855.2,278.5 873,288.6 					"/>
					<polygon id="XMLID_397_" class="st9" points="1065.9,496.3 957.9,434.6 939.1,326.1 1046.9,387.4 					"/>
					<polygon id="XMLID_396_" class="st9" points="1239.9,595.9 1132,534.1 1113,424.9 1220.9,486.2 					"/>
					<polygon id="XMLID_395_" class="st9" points="1375.9,581 1391.3,676 1306,633.6 1287,523.7 					"/>
				</g>
				<g id="XMLID_388_">
					<polygon id="XMLID_393_" class="st10" points="873,288.6 855.2,278.5 862.5,273.2 864.8,274.5 					"/>
					<polygon id="XMLID_392_" class="st10" points="1046.9,387.4 939.1,326.1 930.8,311.7 1038.7,372.4 					"/>
					<polygon id="XMLID_391_" class="st10" points="1220.9,486.2 1113,424.9 1104.7,409.6 1212.5,470.3 					"/>
					<polygon id="XMLID_390_" class="st10" points="1385.5,573.2 1393.7,622 1393.7,622.2 1400.3,668.3 1391.3,676 1375.9,581 
						1383,574.8 1385.3,573.2 					"/>
					<polygon id="XMLID_389_" class="st10" points="1385.3,573.2 1383,574.8 1375.9,581 1287,523.7 1278.5,507.4 1367.1,561.3 					
						"/>
				</g>
			</g>
			<g id="XMLID_384_">
				<polygon id="XMLID_386_" class="st11" points="1387.6,716.9 1378.9,721.6 1358.6,710.7 1228.9,338.9 1254.7,341 				"/>
				<polygon id="XMLID_385_" class="st12" points="1387.6,716.9 1378.9,721.6 1245.9,342.7 1254.7,341 				"/>
			</g>
			<g id="XMLID_381_">
				<polygon id="XMLID_383_" class="st11" points="1006.9,499 998.1,503.7 977.9,492.8 848.2,121 874,123.1 				"/>
				<polygon id="XMLID_382_" class="st12" points="1006.9,499 998.1,503.7 865.1,124.8 874,123.1 				"/>
			</g>
			<g id="XMLID_377_">
				<polygon id="XMLID_380_" class="st8" points="669,635.4 847.2,114.9 865.4,124.8 690.3,647.3 				"/>
				<polygon id="XMLID_379_" class="st12" points="690.3,647.3 699.3,646.2 873.9,123.1 865.4,124.8 				"/>
				<polygon id="XMLID_378_" class="st13" points="847.2,114.9 855.1,113.2 873.9,123.1 865.4,124.8 				"/>
			</g>
			<g id="XMLID_373_">
				<polygon id="XMLID_376_" class="st8" points="1049.6,853.2 1227.8,332.7 1246,342.6 1070.9,865.1 				"/>
				<polygon id="XMLID_375_" class="st12" points="1070.9,865.1 1080,864 1254.5,340.9 1246,342.6 				"/>
				<polygon id="XMLID_374_" class="st13" points="1227.8,332.7 1235.8,331 1254.5,340.9 1246,342.6 				"/>
			</g>
			<g id="XMLID_357_">
				<g id="XMLID_369_">
					<path id="XMLID_372_" class="st14" d="M1271.4,475l-27.9,100.1l-12.9-6.4l-51.7-30.2l-123.6-72.1l-51.7-30.2l-123.6-72.1
						L828.2,334l-85.6-50c-3.3,0.1,14.2-105.8,14.2-105.8l51,29.8l51.7,30.2l123.6,72.3l51.7,30.2l123.6,72.3l51.7,30.2L1271.4,475z
						"/>
					<path id="XMLID_371_" class="st8" d="M1284.6,470l-30.1,102.1l-11,3c-0.2-0.3,27.9-100.1,27.9-100.1L1284.6,470z"/>
					<polygon id="XMLID_370_" class="st8" points="1284.6,470 1271.4,475 1210.2,443.3 1158.4,413.1 1034.8,340.8 983.1,310.6 
						859.5,238.3 807.8,208.1 756.7,178.2 766.7,172.3 791.2,186.5 842.9,216.5 966.5,288.1 1018.1,318 1141.7,389.7 1193.4,419.6 
											"/>
				</g>
				<g id="XMLID_364_">
					<path id="XMLID_368_" class="st15" d="M828.2,334l-85.6-50c-3.3,0.1,14.2-105.8,14.2-105.8l51,29.8L828.2,334z"/>
					<polygon id="XMLID_367_" class="st15" points="1003.5,436.3 879.9,364.2 859.5,238.3 983.1,310.6 					"/>
					<polygon id="XMLID_366_" class="st15" points="1178.8,538.5 1055.2,466.4 1034.8,340.8 1158.4,413.1 					"/>
					<polygon id="XMLID_365_" class="st15" points="1271.4,475 1243.5,575.2 1230.6,568.7 1210.2,443.3 					"/>
				</g>
				<g id="XMLID_358_">
					<polygon id="XMLID_363_" class="st16" points="807.8,208.1 756.7,178.2 766.7,172.3 791.2,186.5 					"/>
					<polygon id="XMLID_362_" class="st16" points="983.1,310.6 859.5,238.3 842.9,216.5 966.5,288.1 					"/>
					<polygon id="XMLID_361_" class="st16" points="1158.4,413.1 1034.8,340.8 1018.1,318 1141.7,389.7 					"/>
					<path id="XMLID_360_" class="st17" d="M1284.6,470l-30.1,102.1l-11,3c-0.2-0.3,27.9-100.1,27.9-100.1L1284.6,470z"/>
					<polygon id="XMLID_359_" class="st16" points="1284.6,470 1271.4,475 1210.2,443.3 1193.4,419.6 					"/>
				</g>
			</g>
			<g id="XMLID_341_">
				<g id="XMLID_353_">
					<path id="XMLID_356_" class="st14" d="M1199.7,636.9L1171.9,737l-12.9-6.4l-51.7-30.2l-123.6-72.1l-51.7-30.2l-123.6-72.1
						l-51.7-30.2l-85.6-50c-3.3,0.1,14.2-105.8,14.2-105.8l51,29.8l51.7,30.2l123.6,72.3l51.7,30.2l123.6,72.3l51.7,30.2
						L1199.7,636.9z"/>
					<path id="XMLID_355_" class="st8" d="M1212.9,631.8L1182.9,734l-11,3c-0.2-0.3,27.9-100.1,27.9-100.1L1212.9,631.8z"/>
					<polygon id="XMLID_354_" class="st8" points="1212.9,631.8 1199.7,636.9 1138.5,605.1 1086.8,574.9 963.2,502.6 911.4,472.4 
						787.9,400.1 736.1,369.9 685.1,340.1 695.1,334.1 719.6,348.3 771.3,378.3 894.8,449.9 946.5,479.9 1070,551.5 1121.7,581.5 
											"/>
				</g>
				<g id="XMLID_348_">
					<path id="XMLID_352_" class="st15" d="M756.5,495.9l-85.6-50c-3.3,0.1,14.2-105.8,14.2-105.8l51,29.8L756.5,495.9z"/>
					<polygon id="XMLID_351_" class="st15" points="931.8,598.1 808.3,526.1 787.9,400.1 911.4,472.4 					"/>
					<polygon id="XMLID_350_" class="st15" points="1107.2,700.4 983.6,628.3 963.2,502.6 1086.8,574.9 					"/>
					<polygon id="XMLID_349_" class="st15" points="1199.7,636.9 1171.9,737 1158.9,730.6 1138.5,605.1 					"/>
				</g>
				<g id="XMLID_342_">
					<polygon id="XMLID_347_" class="st16" points="736.1,369.9 685.1,340.1 695.1,334.1 719.6,348.3 					"/>
					<polygon id="XMLID_346_" class="st16" points="911.4,472.4 787.9,400.1 771.3,378.3 894.8,449.9 					"/>
					<polygon id="XMLID_345_" class="st16" points="1086.8,574.9 963.2,502.6 946.5,479.9 1070,551.5 					"/>
					<path id="XMLID_344_" class="st17" d="M1212.9,631.8L1182.9,734l-11,3c-0.2-0.3,27.9-100.1,27.9-100.1L1212.9,631.8z"/>
					<polygon id="XMLID_343_" class="st16" points="1212.9,631.8 1199.7,636.9 1138.5,605.1 1121.7,581.5 					"/>
				</g>
			</g>
			<g id="XMLID_333_">
				<path id="XMLID_340_" class="st18" d="M882.7,102.4c0,11.2-4.8,20.3-10.9,20.9c-0.2,0.1-0.5,0.1-0.7,0.1
					c-6.4,0-11.6-9.4-11.6-20.9c0-1.8,0.2-3.4,0.4-4.9c1.2-8.4,5.8-12.7,11.2-12.7c0.2,0,0.5,0,0.7,0.1c5.1,0.3,9.3,4.6,10.5,12.6
					C882.5,99,882.7,100.6,882.7,102.4z"/>
				<polygon id="XMLID_339_" class="st18" points="871.8,84.8 871.8,123.3 853.1,123.3 853.5,97.5 853.7,84.8 				"/>
				<path id="XMLID_338_" class="st13" d="M882.3,97.5h-28.8l0.2-12.7h18.2v0.1C876.9,85.2,881.2,89.5,882.3,97.5z"/>
				<path id="XMLID_337_" class="st13" d="M865.2,102.4c0,11.6-5.2,20.9-11.6,20.9s-11.6-9.4-11.6-20.9c0-11.6,5.2-17.6,11.6-17.6
					S865.2,90.8,865.2,102.4z"/>
				<path id="XMLID_336_" class="st8" d="M864.1,102.5c0,10.4-4.6,18.8-10.4,18.8c-5.7,0-10.4-8.4-10.4-18.8s4.6-15.8,10.4-15.8
					C859.4,86.8,864.1,92.2,864.1,102.5z"/>
				<path id="XMLID_335_" class="st10" d="M861.7,102.9c0,3.9-0.8,7.5-2.2,10.1c0,0.1-0.1,0.1-0.1,0.1c-1.4,2.8-3.5,4.5-5.8,4.5
					c-4.5,0-8.1-6.6-8.1-14.7c0-5.5,1.6-9.1,4-10.9V92c1.2-0.9,2.6-1.4,4.1-1.4C858.1,90.6,861.7,94.7,861.7,102.9z"/>
				<path id="XMLID_334_" class="st9" d="M861.7,102.9c0,3.9-0.8,7.5-2.2,10.1c0,0.1-0.1,0.1-0.1,0.1c-1,0.8-2,1.2-3.2,1.2
					c-4.5,0-8.1-6.5-8.1-14.7c0-3,0.5-5.5,1.4-7.5V92c1.2-0.9,2.6-1.4,4.1-1.4C858.1,90.6,861.7,94.7,861.7,102.9z"/>
			</g>
			<g id="XMLID_325_">
				<path id="XMLID_332_" class="st18" d="M1267.2,319.2c0,12.1-5.2,22-11.8,22.7c-0.3,0.1-0.5,0.1-0.8,0.1
					c-6.9,0-12.5-10.2-12.5-22.7c0-1.9,0.2-3.7,0.4-5.3c1.3-9.1,6.3-13.8,12.1-13.8c0.3,0,0.5,0,0.8,0.1c5.5,0.3,10.1,5,11.4,13.7
					C1267.1,315.5,1267.2,317.3,1267.2,319.2z"/>
				<polygon id="XMLID_331_" class="st18" points="1255.5,300.1 1255.5,341.9 1235.1,341.9 1235.6,313.9 1235.7,300.1 				"/>
				<path id="XMLID_330_" class="st13" d="M1266.8,313.9h-31.3l0.2-13.8h19.7v0.1C1261,300.6,1265.6,305.2,1266.8,313.9z"/>
				<path id="XMLID_329_" class="st13" d="M1248.3,319.2c0,12.6-5.6,22.7-12.5,22.7c-6.9,0-12.5-10.2-12.5-22.7
					c0-12.6,5.6-19.1,12.5-19.1C1242.7,300.1,1248.3,306.7,1248.3,319.2z"/>
				<path id="XMLID_328_" class="st8" d="M1247,319.4c0,11.3-5,20.4-11.3,20.4c-6.2,0-11.3-9.1-11.3-20.4c0-11.3,5-17.1,11.3-17.1
					C1242,302.3,1247,308.1,1247,319.4z"/>
				<path id="XMLID_327_" class="st10" d="M1244.5,319.8c0,4.3-0.9,8.1-2.4,11c0,0.1-0.1,0.1-0.1,0.1c-1.5,3-3.8,4.9-6.3,4.9
					c-4.8,0-8.8-7.2-8.8-16c0-5.9,1.8-9.9,4.3-11.8v-0.1c1.3-1,2.8-1.5,4.4-1.5C1240.6,306.4,1244.5,310.9,1244.5,319.8z"/>
				<path id="XMLID_326_" class="st9" d="M1244.5,319.8c0,4.3-0.9,8.1-2.4,11c0,0.1-0.1,0.1-0.1,0.1c-1.1,0.8-2.2,1.3-3.4,1.3
					c-4.8,0-8.8-7.1-8.8-16c0-3.3,0.6-6,1.5-8.1v-0.1c1.3-1,2.8-1.5,4.4-1.5C1240.6,306.4,1244.5,310.9,1244.5,319.8z"/>
			</g>
		</g>
	</g>
	<g id="XMLID_457_">
		<g id="XMLID_417_">
			<g id="XMLID_429_">
				<path id="XMLID_431_" class="st16" d="M1640.3,889l68.4,37.9c18.8,10.4,41.6,10.6,60.6,0.6l70-36.9c14.1-7.4,14.5-27.4,0.9-35.4
					l-70.5-41.6c-19-11.2-42.7-11.2-61.7,0l-68.2,40.2C1626.3,861.8,1626.6,881.4,1640.3,889z"/>
				<polygon id="XMLID_430_" class="st16" points="1629.9,871.4 1629.9,864.6 1850.2,864.6 1850.2,877.3 1800.9,906.9 1742.1,920.8 
					1667.8,901.9 				"/>
			</g>
			<path id="XMLID_428_" class="st15" d="M1839.4,883.8l-70,36.9c-19,10-41.8,9.8-60.6-0.6l-51-28.2l-17.5-9.7
				c-13.8-7.6-14-27.2-0.5-35.2l61.5-36.3l6.7-4c19.1-11.2,42.7-11.2,61.8,0l70.5,41.6C1853.9,856.4,1853.4,876.4,1839.4,883.8z"/>
			<path id="XMLID_427_" class="st19" d="M1764.9,884.5l-107.1,7.4l-17.5-9.7c-13.8-7.6-14-27.2-0.5-35.2l61.5-36.3l56.7-0.3
				L1764.9,884.5z"/>
			<path id="XMLID_426_" class="st16" d="M1804,852.5c0,12.6-12.9,23.7-32.1,29.7c-9.9,3.1-21.6,4.9-33.9,4.9
				c-36.5,0-66-15.5-66-34.7c0-1,0-1.9,0.2-2.8c2.7-17.8,31.1-31.9,65.8-31.9c7.5,0,14.7,0.7,21.5,1.9c23.2,4.2,40.6,15,43.9,28.1
				C1803.8,849.4,1804,850.9,1804,852.5z"/>
			<path id="XMLID_425_" class="st16" d="M1803.7,847.9h-0.3l-28.9,0.4l-9.3,0.1h-0.8l-49.5,0.7l-10.9,0.1l-31.7,0.5h-0.2l5.2-19.6
				l1.6-6l7.2-26.8l1.4-5.4v0l3.9-14.4l3.3-12.3l4.3-15.8l1.6-6l11.7-43.8h52l11.7,43.6l1.7,6.2l4.2,15.8l3.3,12.3l3.8,14.2l1.5,5.5
				l7.1,26.5c0,0,0,0,0,0.1l1.7,6.2L1803.7,847.9z"/>
			<path id="XMLID_424_" class="st19" d="M1804,852.5c0,12.6-12.9,23.7-32.1,29.7c-1.8-9-3.9-19.6-6.2-31c-0.2-0.9-0.4-1.9-0.6-2.8
				c-1.8-9.1-3.7-18.8-5.7-28.7l-0.7-3.6c-1.9-9.3-3.8-18.8-5.6-28.3v0c-1.7-8.4-3.3-16.7-5-24.9c-4.9-24.6-9.5-47.2-12.8-63.4h28.7
				l11.7,43.6l1.7,6.2l4.2,15.8l3.3,12.3l3.8,14.2l1.5,5.5l7.1,26.5c0,0,0,0,0,0.1l1.7,6.2l4.8,17.9h-0.3
				C1803.8,849.4,1804,850.9,1804,852.5z"/>
			<path id="XMLID_423_" class="st16" d="M1764,701c0,7.6-11.6,13.7-26,13.7c-8.6,0-16.2-2.2-20.9-5.6c-3.2-2.2-5-5-5-8
				c0-7.5,11.6-13.6,26-13.6c11.4,0,21,3.8,24.6,9.2C1763.5,698,1764,699.5,1764,701z"/>
			<path id="XMLID_422_" class="st8" d="M1765.8,851.3c-8.3,2.3-17.7,3.7-27.8,3.7c-12.7,0-24.4-2.1-34-5.7
				c-15.1-5.5-25-14.7-25.2-25.1l7.2-26.8l1.4-5.4c0,14.7,22.7,26.5,50.6,26.5c7.4,0,14.4-0.8,20.7-2.3l0.7,3.6
				c2,9.9,3.9,19.6,5.7,28.7C1765.4,849.4,1765.6,850.4,1765.8,851.3z"/>
			<path id="XMLID_421_" class="st14" d="M1797.3,823.7C1797.3,823.8,1797.3,823.8,1797.3,823.7c0,10-8.9,18.9-22.8,24.6
				c-2.7,1.1-5.6,2.2-8.7,3c-0.2-0.9-0.4-1.9-0.6-2.8c-1.8-9.1-3.7-18.8-5.7-28.7l-0.7-3.6c17.6-4.2,29.9-13.4,29.9-24.2v-0.3
				l1.5,5.5L1797.3,823.7z"/>
			<path id="XMLID_420_" class="st8" d="M1753.1,787.9L1753.1,787.9c-4.7,1-9.8,1.5-15.1,1.5c-24.1,0-43.6-10.2-43.6-22.9
				c0-0.4,0-0.9,0.1-1.2l4.3-15.8l1.6-6c0,0.2,0,0.4,0,0.6c0,10.9,16.9,19.8,37.7,19.8c3.5,0,6.9-0.2,10.1-0.8
				C1749.8,771.1,1751.4,779.5,1753.1,787.9z"/>
			<path id="XMLID_419_" class="st14" d="M1781.6,766.5c0,9.9-11.9,18.3-28.5,21.4c-1.7-8.4-3.3-16.7-5-24.9
				c16-2.2,27.6-9.9,27.6-19c0-0.2,0-0.5,0-0.8l1.7,6.2l4.2,15.8C1781.6,765.6,1781.6,766,1781.6,766.5z"/>
			<path id="XMLID_418_" class="st19" d="M1738,687.4c0,0,1,0,2.7,0c1.7,0,4.3,0.1,7.2,0.7c2.9,0.6,6.4,1.5,9.7,3.4
				c3.2,1.9,6.8,4.9,6.9,9.6c0,1-0.2,2-0.7,3.1c-0.4,1-1,1.9-1.6,2.7c-1.3,1.6-3,2.8-4.6,3.7c-3.3,1.9-6.8,2.9-9.7,3.5
				c-3,0.6-5.5,0.6-7.2,0.7c-1.7,0-2.7,0-2.7,0s1-0.1,2.7-0.2c1.7-0.2,4.2-0.5,7.1-1.2c2.9-0.7,6.2-1.8,9.3-3.7
				c1.5-0.9,3.1-2.1,4.3-3.5c1.2-1.5,2-3.1,2-5.1c0-1.7-0.8-3.6-2-5c-1.2-1.4-2.7-2.6-4.3-3.5c-3.1-1.9-6.5-3-9.3-3.7
				c-2.9-0.7-5.4-1-7.1-1.2C1739,687.4,1738,687.4,1738,687.4z"/>
		</g>
	</g>
	<g id="XMLID_451_">
		<g id="XMLID_433_">
			<g id="XMLID_445_">
				<path id="XMLID_447_" class="st16" d="M140.2,797.8l58.3,32.2c16,8.9,35.4,9,51.6,0.5l59.6-31.4c12-6.3,12.4-23.3,0.7-30.2
					l-60-35.4c-16.2-9.6-36.3-9.6-52.6,0l-58.1,34.3C128.2,774.6,128.5,791.4,140.2,797.8z"/>
				<polygon id="XMLID_446_" class="st16" points="131.3,782.8 131.3,777 318.9,777 318.9,787.9 276.9,813 226.8,824.9 163.6,808.8 
									"/>
			</g>
			<path id="XMLID_444_" class="st15" d="M309.7,793.4L250,824.8c-16.2,8.5-35.6,8.3-51.6-0.5l-43.4-24l-14.9-8.2
				c-11.7-6.5-11.9-23.2-0.4-30l52.3-30.9l5.7-3.4c16.2-9.6,36.3-9.6,52.6,0l60,35.4C322,770.1,321.6,787.1,309.7,793.4z"/>
			<path id="XMLID_443_" class="st19" d="M246.2,794l-91.2,6.3l-14.9-8.2c-11.7-6.5-11.9-23.2-0.4-30l52.3-30.9l48.3-0.3L246.2,794z
				"/>
			<path id="XMLID_442_" class="st16" d="M279.5,766.7c0,10.7-10.9,20.1-27.3,25.3c-8.4,2.6-18.4,4.2-28.9,4.2
				c-31.1,0-56.2-13.2-56.2-29.5c0-0.8,0-1.6,0.2-2.4c2.3-15.2,26.5-27.1,56-27.1c6.4,0,12.5,0.6,18.3,1.6
				c19.8,3.5,34.6,12.7,37.4,23.9C279.4,764.1,279.5,765.4,279.5,766.7z"/>
			<path id="XMLID_441_" class="st16" d="M279.3,762.8H279l-24.6,0.4l-7.9,0.1h-0.7l-42.2,0.6l-9.3,0.1l-27,0.4h-0.2l4.4-16.6
				l1.3-5.1l6.1-22.8l1.2-4.6v0l3.3-12.3l2.8-10.5l3.6-13.5l1.4-5.1l9.9-37.3h44.2l9.9,37.2l1.4,5.3l3.6,13.4l2.8,10.5l3.3,12.1
				l1.3,4.7l6.1,22.6c0,0,0,0,0,0.1l1.4,5.3L279.3,762.8z"/>
			<path id="XMLID_440_" class="st19" d="M279.5,766.7c0,10.7-10.9,20.1-27.3,25.3c-1.5-7.7-3.3-16.6-5.3-26.4
				c-0.2-0.8-0.3-1.6-0.5-2.4c-1.5-7.8-3.2-16-4.9-24.4l-0.6-3.1c-1.6-7.9-3.2-16-4.8-24.1v0c-1.4-7.2-2.8-14.2-4.3-21.2
				c-4.2-20.9-8.1-40.2-10.9-54h24.4l9.9,37.2l1.4,5.3l3.6,13.4l2.8,10.5l3.3,12.1l1.3,4.7l6.1,22.6c0,0,0,0,0,0.1l1.4,5.3l4.1,15.2
				H279C279.4,764.1,279.5,765.4,279.5,766.7z"/>
			<path id="XMLID_439_" class="st16" d="M245.5,637.7c0,6.4-9.9,11.6-22.1,11.6c-7.3,0-13.8-1.9-17.8-4.8c-2.7-1.9-4.3-4.3-4.3-6.8
				c0-6.4,9.9-11.6,22.1-11.6c9.7,0,17.9,3.3,20.9,7.8C245,635.1,245.5,636.4,245.5,637.7z"/>
			<path id="XMLID_438_" class="st8" d="M247,765.7c-7,2-15.1,3.1-23.6,3.1c-10.8,0-20.8-1.8-29-4.8c-12.8-4.7-21.2-12.5-21.5-21.4
				l6.1-22.8l1.2-4.6c0,12.5,19.3,22.6,43.1,22.6c6.3,0,12.3-0.7,17.7-2l0.6,3.1c1.7,8.4,3.3,16.6,4.9,24.4
				C246.7,764.1,246.8,764.9,247,765.7z"/>
			<path id="XMLID_437_" class="st14" d="M273.8,742.2C273.8,742.3,273.8,742.3,273.8,742.2c0,8.5-7.6,16.1-19.4,20.9
				c-2.3,1-4.8,1.8-7.4,2.5c-0.2-0.8-0.3-1.6-0.5-2.4c-1.5-7.8-3.2-16-4.9-24.4l-0.6-3.1c15-3.5,25.5-11.4,25.5-20.6v-0.2l1.3,4.7
				L273.8,742.2z"/>
			<path id="XMLID_436_" class="st8" d="M236.2,711.7L236.2,711.7c-4,0.9-8.3,1.3-12.9,1.3c-20.5,0-37.1-8.7-37.1-19.5
				c0-0.4,0-0.7,0.1-1.1l3.6-13.5l1.4-5.1c0,0.2,0,0.3,0,0.5c0,9.3,14.4,16.9,32.1,16.9c3,0,5.9-0.2,8.6-0.7
				C233.3,697.5,234.8,704.5,236.2,711.7z"/>
			<path id="XMLID_435_" class="st14" d="M260.5,693.5c0,8.4-10.1,15.5-24.3,18.2c-1.4-7.2-2.8-14.2-4.3-21.2
				c13.6-1.9,23.5-8.4,23.5-16.2c0-0.2,0-0.4,0-0.7l1.4,5.3l3.6,13.4C260.5,692.7,260.5,693.1,260.5,693.5z"/>
			<path id="XMLID_434_" class="st19" d="M223.3,626.1c0,0,0.8,0,2.3,0c1.5,0,3.6,0.1,6.2,0.6c2.5,0.5,5.5,1.3,8.3,2.9
				c2.7,1.6,5.8,4.2,5.9,8.1c0,0.8-0.2,1.7-0.6,2.6c-0.4,0.8-0.8,1.6-1.4,2.3c-1.1,1.4-2.5,2.3-3.9,3.2c-2.8,1.6-5.8,2.4-8.3,2.9
				c-2.5,0.5-4.7,0.5-6.1,0.6c-1.5,0-2.3,0-2.3,0s0.8-0.1,2.3-0.2c1.5-0.2,3.6-0.4,6-1c2.5-0.6,5.3-1.5,7.9-3.1
				c1.3-0.8,2.6-1.8,3.6-3c1-1.3,1.7-2.6,1.7-4.4c0-1.5-0.7-3.1-1.7-4.3c-1-1.2-2.3-2.2-3.6-3c-2.7-1.6-5.5-2.5-8-3.1
				c-2.5-0.6-4.6-0.9-6-1C224.2,626.2,223.3,626.1,223.3,626.1z"/>
		</g>
	</g>
</g>
</svg>
