<svg id="Graphics" xmlns="http://www.w3.org/2000/svg" xmlns:xlink="http://www.w3.org/1999/xlink" viewBox="0 0 716.53 336.31"><defs><style>.cls-1{fill:#536dfe;}.cls-16,.cls-2,.cls-21{fill:#191c3c;}.cls-3{fill:#5361f0;}.cls-4{fill:#ff5722;}.cls-5{fill:#2e35a8;}.cls-6{fill:url(#linear-gradient);}.cls-11,.cls-7{fill:#fff;}.cls-7{opacity:0.05;}.cls-8{fill:url(#linear-gradient-2);}.cls-9{fill:#242746;}.cls-10{fill:#fec55e;}.cls-12{fill:#e3edfe;}.cls-13{fill:#ff794e;}.cls-14{fill:#7581f3;}.cls-15{fill:#b3cdfa;}.cls-16{opacity:0.3;}.cls-17{fill:#4d5068;}.cls-18{fill:url(#linear-gradient-3);}.cls-19{fill:#231f20;}.cls-20{fill:url(#linear-gradient-4);}.cls-21{opacity:0.1;}.cls-22{fill:#bac0f9;}.cls-23{fill:#3457b4;}.cls-24{fill:url(#linear-gradient-5);}.cls-25{fill:#eceefd;}.cls-26{fill:#ffbca7;}.cls-27{fill:none;stroke:#191c3c;stroke-miterlimit:10;stroke-width:0.5px;}</style><linearGradient id="linear-gradient" x1="314.74" y1="429.17" x2="493.4" y2="102.5" gradientTransform="translate(141.63 668.91) rotate(-90)" gradientUnits="userSpaceOnUse"><stop offset="0" stop-color="#2e35a8"/><stop offset="0.37" stop-color="#3a43c0"/><stop offset="1" stop-color="#5361f0"/></linearGradient><linearGradient id="linear-gradient-2" x1="663.29" y1="352.84" x2="769.04" y2="352.84" gradientTransform="matrix(-1, 0, 0, 1, 1078.51, -95.61)" gradientUnits="userSpaceOnUse"><stop offset="0" stop-color="#5361f0"/><stop offset="1" stop-color="#2e35a8"/></linearGradient><linearGradient id="linear-gradient-3" x1="245.71" y1="312.55" x2="211.97" y2="178.21" gradientUnits="userSpaceOnUse"><stop offset="0" stop-color="#91e2f9"/><stop offset="0.09" stop-color="#89d1f8"/><stop offset="0.39" stop-color="#72a1f4"/><stop offset="0.65" stop-color="#617ef2"/><stop offset="0.86" stop-color="#5769f1"/><stop offset="1" stop-color="#5361f0"/></linearGradient><linearGradient id="linear-gradient-4" x1="213.67" y1="187.01" x2="223.07" y2="321.62" gradientUnits="userSpaceOnUse"><stop offset="0" stop-color="#5361f0"/><stop offset="0.16" stop-color="#617ef2"/><stop offset="0.42" stop-color="#76a9f5"/><stop offset="0.66" stop-color="#85c8f7"/><stop offset="0.86" stop-color="#8edbf9"/><stop offset="1" stop-color="#91e2f9"/></linearGradient><linearGradient id="linear-gradient-5" x1="167.86" y1="193.56" x2="229.3" y2="193.56" gradientTransform="translate(397.15 387.11) rotate(-180)" gradientUnits="userSpaceOnUse"><stop offset="0" stop-color="#5361f0"/><stop offset="1" stop-color="#91e2f9"/></linearGradient></defs><title>platform_developers</title><g id="phone_and_elements" data-name="phone and elements"><path class="cls-1" d="M615,340.85a3.16,3.16,0,1,1,3.16-3.16A3.17,3.17,0,0,1,615,340.85Zm0-5.82a2.66,2.66,0,1,0,2.66,2.66A2.67,2.67,0,0,0,615,335Z" transform="translate(-46.94 -95.61)"/><path class="cls-1" d="M105.2,284.48a3.16,3.16,0,1,1,3.16-3.16A3.17,3.17,0,0,1,105.2,284.48Zm0-5.82a2.66,2.66,0,1,0,2.66,2.66A2.67,2.67,0,0,0,105.2,278.66Z" transform="translate(-46.94 -95.61)"/><path class="cls-2" d="M686.34,371.86a2,2,0,1,1,2-1.95A2,2,0,0,1,686.34,371.86Zm0-3.41a1.46,1.46,0,1,0,1.46,1.46A1.46,1.46,0,0,0,686.34,368.45Z" transform="translate(-46.94 -95.61)"/><path class="cls-2" d="M589.54,357.27a2,2,0,1,1,2-1.95A2,2,0,0,1,589.54,357.27Zm0-3.41a1.46,1.46,0,1,0,1.45,1.46A1.46,1.46,0,0,0,589.54,353.86Z" transform="translate(-46.94 -95.61)"/><path class="cls-3" d="M713.6,364.1a1.21,1.21,0,1,1-1.2-1.2A1.2,1.2,0,0,1,713.6,364.1Z" transform="translate(-46.94 -95.61)"/><circle class="cls-2" cx="568.06" cy="277.27" r="1.2"/><circle class="cls-4" cx="548.99" cy="287.34" r="1.2"/><path class="cls-4" d="M719.08,346.54a1.2,1.2,0,1,1-1.2-1.2A1.2,1.2,0,0,1,719.08,346.54Z" transform="translate(-46.94 -95.61)"/><path class="cls-4" d="M234.4,347.56a2.86,2.86,0,1,1,2.85-2.86A2.86,2.86,0,0,1,234.4,347.56Zm0-5.22a2.36,2.36,0,1,0,2.35,2.36A2.36,2.36,0,0,0,234.4,342.34Z" transform="translate(-46.94 -95.61)"/><path class="cls-2" d="M75.32,311.54a2,2,0,1,1,2-2A2,2,0,0,1,75.32,311.54Zm0-3.41a1.46,1.46,0,1,0,1.46,1.45A1.45,1.45,0,0,0,75.32,308.13Z" transform="translate(-46.94 -95.61)"/><path class="cls-2" d="M106.65,367.89a2,2,0,1,1,1.95-1.95A2,2,0,0,1,106.65,367.89Zm0-3.41a1.46,1.46,0,1,0,1.45,1.46A1.45,1.45,0,0,0,106.65,364.48Z" transform="translate(-46.94 -95.61)"/><path class="cls-2" d="M695,315.21a2,2,0,1,1,2-1.95A1.95,1.95,0,0,1,695,315.21Zm0-3.41a1.46,1.46,0,1,0,1.46,1.46A1.46,1.46,0,0,0,695,311.8Z" transform="translate(-46.94 -95.61)"/><path class="cls-2" d="M191.32,337.88a2,2,0,1,1,2-2A2,2,0,0,1,191.32,337.88Zm0-3.41a1.46,1.46,0,1,0,1.46,1.45A1.45,1.45,0,0,0,191.32,334.47Z" transform="translate(-46.94 -95.61)"/><circle class="cls-3" cx="7.13" cy="252.34" r="1.2"/><path class="cls-3" d="M88.06,369.91a1.2,1.2,0,1,1-1.2-1.2A1.2,1.2,0,0,1,88.06,369.91Z" transform="translate(-46.94 -95.61)"/><circle class="cls-2" cx="168.88" cy="208.87" r="1.2"/><circle class="cls-2" cx="529.47" cy="205.19" r="1.2"/><circle class="cls-2" cx="195.92" cy="137.22" r="1.2"/><circle class="cls-4" cx="189.82" cy="210.07" r="1.2"/><circle class="cls-4" cx="71.56" cy="222.75" r="1.2"/><circle class="cls-4" cx="557.45" cy="213.97" r="1.2"/><circle class="cls-4" cx="558.24" cy="139.92" r="1.2"/><rect class="cls-2" x="260.13" width="182.41" height="336.06" rx="13.29"/><rect class="cls-5" x="267.13" width="182.41" height="336.06" rx="13.29"/><rect class="cls-6" x="240.24" y="175.43" width="330.06" height="176.41" rx="10.29" transform="translate(621.97 -237.24) rotate(90)"/><path class="cls-7" d="M317.07,310.19l176.4-176.41V108.9a10.3,10.3,0,0,0-10.29-10.29H404.23l-87.16,87.16Z" transform="translate(-46.94 -95.61)"/><polygon class="cls-7" points="446.54 119.18 446.54 65.45 270.13 241.86 270.13 295.59 446.54 119.18"/><circle class="cls-5" cx="429.99" cy="19.37" r="5.67"/><rect class="cls-8" x="309.47" y="179.02" width="105.75" height="156.41"/><polygon class="cls-2" points="303.38 335.44 309.47 335.44 309.47 179.02 303.38 181.96 303.38 335.44"/><rect class="cls-9" x="309.47" y="197.39" width="105.75" height="138.67"/><rect class="cls-1" x="313.4" y="205.95" width="7.86" height="3.68"/><rect class="cls-1" x="313.4" y="214.73" width="7.86" height="3.68"/><rect class="cls-1" x="313.4" y="223.51" width="7.86" height="3.68"/><rect class="cls-1" x="313.4" y="232.29" width="7.86" height="3.68"/><rect class="cls-1" x="313.4" y="241.07" width="7.86" height="3.68"/><rect class="cls-1" x="313.4" y="249.85" width="7.86" height="3.68"/><rect class="cls-1" x="313.4" y="258.63" width="7.86" height="3.68"/><rect class="cls-1" x="313.4" y="267.41" width="7.86" height="3.68"/><rect class="cls-1" x="313.4" y="276.19" width="7.86" height="3.68"/><rect class="cls-1" x="313.4" y="284.97" width="7.86" height="3.68"/><rect class="cls-1" x="313.4" y="293.75" width="7.86" height="3.68"/><rect class="cls-1" x="313.4" y="302.53" width="7.86" height="3.68"/><rect class="cls-1" x="313.4" y="311.31" width="7.86" height="3.68"/><rect class="cls-1" x="313.4" y="320.09" width="7.86" height="3.68"/><rect class="cls-1" x="313.4" y="328.87" width="7.86" height="3.68"/><rect class="cls-1" x="333.4" y="205.95" width="24.18" height="3.68"/><rect class="cls-4" x="409.28" y="301.56" width="20.49" height="3.68" transform="translate(792.12 511.18) rotate(180)"/><rect class="cls-1" x="339.78" y="214.73" width="29.8" height="3.68"/><rect class="cls-1" x="419.53" y="310.34" width="20.74" height="3.68" transform="translate(812.86 528.74) rotate(180)"/><rect class="cls-1" x="397.08" y="214.73" width="13.75" height="3.68"/><rect class="cls-1" x="333.4" y="223.51" width="21.28" height="3.68"/><rect class="cls-4" x="404.52" y="319.12" width="6.25" height="3.68" transform="translate(768.35 546.3) rotate(180)"/><rect class="cls-1" x="414.02" y="319.12" width="20.5" height="3.68" transform="translate(801.6 546.3) rotate(180)"/><rect class="cls-10" x="341.26" y="232.29" width="10.82" height="3.68"/><rect class="cls-1" x="355.76" y="232.29" width="10.82" height="3.68"/><rect class="cls-1" x="419.53" y="327.9" width="24.49" height="3.68" transform="translate(816.61 563.86) rotate(180)"/><rect class="cls-1" x="333.4" y="241.07" width="42.68" height="3.68"/><rect class="cls-4" x="426.02" y="336.68" width="6.88" height="3.68" transform="translate(811.98 581.42) rotate(180)"/><rect class="cls-10" x="436.02" y="336.68" width="6.88" height="3.68" transform="translate(831.98 581.42) rotate(180)"/><rect class="cls-1" x="341.33" y="249.85" width="22.5" height="3.68"/><rect class="cls-1" x="413.52" y="345.46" width="6.01" height="3.68" transform="translate(786.11 598.98) rotate(180)"/><rect class="cls-10" x="333.4" y="258.63" width="16.43" height="3.68"/><rect class="cls-1" x="402.7" y="354.24" width="26.76" height="3.68" transform="translate(785.22 616.54) rotate(180)"/><rect class="cls-1" x="389.08" y="258.63" width="21.75" height="3.68"/><rect class="cls-1" x="341.26" y="267.41" width="21.08" height="3.68"/><rect class="cls-4" x="412.02" y="363.02" width="6" height="3.68" transform="translate(783.1 634.1) rotate(180)"/><rect class="cls-1" x="421.27" y="363.02" width="21.63" height="3.68" transform="translate(817.23 634.1) rotate(180)"/><rect class="cls-1" x="333.4" y="276.19" width="25.43" height="3.68"/><rect class="cls-10" x="410.77" y="371.8" width="25.25" height="3.68" transform="translate(799.85 651.66) rotate(180)"/><rect class="cls-1" x="341.98" y="284.97" width="35.35" height="3.68"/><rect class="cls-1" x="429.77" y="380.57" width="14.25" height="3.68" transform="translate(826.85 669.22) rotate(180)"/><rect class="cls-4" x="333.4" y="293.75" width="7.86" height="3.68"/><rect class="cls-1" x="345.49" y="293.75" width="19.59" height="3.68"/><rect class="cls-1" x="416.08" y="389.35" width="31.94" height="3.68" transform="translate(817.16 686.78) rotate(180)"/><rect class="cls-1" x="341.33" y="302.53" width="37.75" height="3.68"/><rect class="cls-4" x="429.46" y="398.13" width="11.81" height="3.68" transform="translate(823.79 704.34) rotate(180)"/><rect class="cls-1" x="333.4" y="311.31" width="52.56" height="3.68"/><rect class="cls-1" x="439.46" y="406.91" width="15.81" height="3.68" transform="translate(847.79 721.9) rotate(180)"/><rect class="cls-10" x="333.4" y="320.09" width="27.77" height="3.68"/><rect class="cls-4" x="341.26" y="328.87" width="9.57" height="3.68"/><rect class="cls-1" x="357.58" y="328.87" width="41.5" height="3.68"/><path class="cls-11" d="M372.06,282.36a2.2,2.2,0,1,1-2.2-2.2A2.2,2.2,0,0,1,372.06,282.36Z" transform="translate(-46.94 -95.61)"/><path class="cls-11" d="M381.59,282.36a2.2,2.2,0,1,1-2.2-2.2A2.2,2.2,0,0,1,381.59,282.36Z" transform="translate(-46.94 -95.61)"/><path class="cls-11" d="M391.11,282.36a2.2,2.2,0,1,1-2.19-2.2A2.19,2.19,0,0,1,391.11,282.36Z" transform="translate(-46.94 -95.61)"/><rect class="cls-12" x="422.58" y="288.1" width="50.46" height="47.58" rx="9.31"/><path class="cls-2" d="M510.68,431.66v-.75a8.94,8.94,0,0,0,8.93-8.93V393a9,9,0,0,0-8.93-8.93H488.32v-.75h22.36a9.7,9.7,0,0,1,9.68,9.68v29A9.69,9.69,0,0,1,510.68,431.66Z" transform="translate(-46.94 -95.61)"/><path class="cls-2" d="M475.13,424.25V390.74a7.26,7.26,0,0,1,7.46-7h-3.77a9.3,9.3,0,0,0-9.3,9.3v29a9.31,9.31,0,0,0,9.3,9.31h3.77A7.26,7.26,0,0,1,475.13,424.25Z" transform="translate(-46.94 -95.61)"/><path class="cls-2" d="M507.44,410.74h3a1.06,1.06,0,0,0,1.09-1v-3.57a1.06,1.06,0,0,0-1.09-1h-2.33a.92.92,0,0,1-.85-.57,6.65,6.65,0,0,0-.27-.61.82.82,0,0,1,.17-1l1.65-1.55a1,1,0,0,0,0-1.45l-2.68-2.53a1.14,1.14,0,0,0-1.54,0L502.9,399a.94.94,0,0,1-1,.17l-.71-.27a.85.85,0,0,1-.57-.79V395.9a1.06,1.06,0,0,0-1.09-1h-3.79a1.05,1.05,0,0,0-1.08,1v2.19a.86.86,0,0,1-.61.8c-.23.08-.45.17-.68.27a1,1,0,0,1-1-.16l-1.65-1.55a1.15,1.15,0,0,0-1.54,0L486.49,400a1,1,0,0,0,0,1.45l1.66,1.56a.8.8,0,0,1,.19.93l-.29.68a.88.88,0,0,1-.83.53h-2.35a1,1,0,0,0-1.08,1v3.57a1.06,1.06,0,0,0,1.1,1h2.32a.91.91,0,0,1,.85.57,6.46,6.46,0,0,0,.27.6.84.84,0,0,1-.17,1l-1.64,1.55a1,1,0,0,0,0,1.45l2.69,2.52a1.14,1.14,0,0,0,1.54,0l1.65-1.56a.92.92,0,0,1,1-.18l.71.27a.83.83,0,0,1,.57.78V420a1.06,1.06,0,0,0,1.09,1h3.78a1.06,1.06,0,0,0,1.09-1v-2.19a.87.87,0,0,1,.61-.81c.21-.07.43-.16.64-.25a1,1,0,0,1,1,.16l1.65,1.55a1.14,1.14,0,0,0,1.54,0l2.67-2.53a1,1,0,0,0,0-1.45l-1.66-1.56a.82.82,0,0,1-.19-.94C507.18,411.41,507.43,410.77,507.44,410.74ZM492.37,407a5.41,5.41,0,0,1,7.22-3.81,5.07,5.07,0,0,1,3.34,5.63,5.41,5.41,0,0,1-7.22,3.81A5.06,5.06,0,0,1,492.37,407Z" transform="translate(-46.94 -95.61)"/><rect class="cls-4" x="123.92" y="288.1" width="50.46" height="47.58" rx="9.31"/><path class="cls-2" d="M212,431.66v-.75a8.93,8.93,0,0,0,8.93-8.93V393a8.94,8.94,0,0,0-8.93-8.93H189.66v-.75H212a9.69,9.69,0,0,1,9.68,9.68v29A9.69,9.69,0,0,1,212,431.66Z" transform="translate(-46.94 -95.61)"/><path class="cls-2" d="M176.47,424.25V390.74a7.26,7.26,0,0,1,7.46-7h-3.77a9.3,9.3,0,0,0-9.3,9.3v29a9.3,9.3,0,0,0,9.3,9.31h3.77A7.26,7.26,0,0,1,176.47,424.25Z" transform="translate(-46.94 -95.61)"/><polygon class="cls-11" points="140.98 302.43 152.38 310.14 163.79 302.43 140.98 302.43"/><polygon class="cls-11" points="165.22 320.33 139.55 320.33 139.55 302.97 152.38 311.65 165.22 302.97 165.22 320.33"/><rect class="cls-3" x="160.57" y="297.53" width="40.54" height="38.22" rx="7.26"/><path class="cls-2" d="M212.51,424.1V400.4a7.26,7.26,0,0,1,7.26-7.26h-5a7.26,7.26,0,0,0-7.26,7.26v23.7a7.26,7.26,0,0,0,7.26,7.26h5A7.26,7.26,0,0,1,212.51,424.1Z" transform="translate(-46.94 -95.61)"/><path class="cls-2" d="M240.57,431.66v-.6a7.18,7.18,0,0,0,7.17-7.17V400.62a7.18,7.18,0,0,0-7.17-7.18H222.62v-.6h17.95a7.79,7.79,0,0,1,7.78,7.78v23.27A7.78,7.78,0,0,1,240.57,431.66Z" transform="translate(-46.94 -95.61)"/><path class="cls-11" d="M222.43,413.11v0l3.91,1.29v2.17l-6.26-2.55v-1.88l6.26-2.55v2.17Z" transform="translate(-46.94 -95.61)"/><path class="cls-11" d="M229.35,417.85h-2.41l3.52-11.19h2.41Z" transform="translate(-46.94 -95.61)"/><path class="cls-11" d="M237.54,413.14v0l-3.87-1.29v-2.17l6.23,2.55v1.88l-6.23,2.55v-2.16Z" transform="translate(-46.94 -95.61)"/><path class="cls-4" d="M330.32,421.85A9.82,9.82,0,1,1,320.5,412,9.82,9.82,0,0,1,330.32,421.85Z" transform="translate(-46.94 -95.61)"/><circle class="cls-13" cx="320.5" cy="421.85" r="8.74" transform="translate(-173.32 610.81) rotate(-85.26)"/><path class="cls-4" d="M328.22,421.85a7.72,7.72,0,1,1-7.72-7.71A7.72,7.72,0,0,1,328.22,421.85Z" transform="translate(-46.94 -95.61)"/><path class="cls-13" d="M321.51,425.79h-2.86a1.19,1.19,0,0,1-1.19-1.2V424h1.7v.11h2.35a.82.82,0,0,0,.82-.82.54.54,0,0,0-.53-.54h-2.11a2.23,2.23,0,0,1-2.23-2.23v-.3a2.52,2.52,0,0,1,2.52-2.52h2.86a1.19,1.19,0,0,1,1.19,1.19v.69h-1.7v-.18H320a.81.81,0,0,0-.82.82v.3a.54.54,0,0,0,.53.54h2.11a2.23,2.23,0,0,1,2.23,2.23A2.52,2.52,0,0,1,321.51,425.79Z" transform="translate(-46.94 -95.61)"/><rect class="cls-13" x="272.96" y="321.25" width="1.7" height="10"/><circle class="cls-11" cx="286.93" cy="324.19" r="11.87"/><polygon class="cls-5" points="285.57 328.34 282.01 324.78 284.05 322.74 285.57 324.27 289.81 320.03 291.84 322.07 285.57 328.34"/><path class="cls-4" d="M385.45,389.5a21.18,21.18,0,1,0-32.76,17.72v13.51h23.16V407.22A21.16,21.16,0,0,0,385.45,389.5Z" transform="translate(-46.94 -95.61)"/><path class="cls-13" d="M377.72,389.5a13.45,13.45,0,1,1-13.45-13.44A13.45,13.45,0,0,1,377.72,389.5Z" transform="translate(-46.94 -95.61)"/><polygon class="cls-5" points="330.41 326.07 322.71 332.51 311.25 332.51 304.26 326.07 304.26 315.95 330.41 315.95 330.41 326.07"/><path class="cls-14" d="M377.46,414.43H351a1,1,0,0,1-1-1h0a1,1,0,0,1,1-1h26.43a1,1,0,0,1,1,1h0A1,1,0,0,1,377.46,414.43Z" transform="translate(-46.94 -95.61)"/><path class="cls-14" d="M377.46,417.67H351a1,1,0,0,1-1-1h0a1,1,0,0,1,1-1h26.44a1,1,0,0,1,1,1h0A1,1,0,0,1,377.46,417.67Z" transform="translate(-46.94 -95.61)"/><path class="cls-14" d="M377.46,420.91H351a1,1,0,0,1-1-1h0a1,1,0,0,1,1-1h26.44a1,1,0,0,1,1,1h0A1,1,0,0,1,377.46,420.91Z" transform="translate(-46.94 -95.61)"/><path class="cls-2" d="M365.94,431.62h-4.28a3.81,3.81,0,0,1-3.8-3.81h11.88A3.81,3.81,0,0,1,365.94,431.62Z" transform="translate(-46.94 -95.61)"/></g><g id="man"><path class="cls-3" d="M99.28,385.26v22.65l0,0,16,16a22.62,22.62,0,0,0,6.65-16v-.07A22.65,22.65,0,0,0,99.28,385.26Z" transform="translate(-46.94 -95.61)"/><path class="cls-12" d="M82.19,391.88a22.56,22.56,0,0,0-6.65,16l22.64.06V385.26A22.57,22.57,0,0,0,82.19,391.88Z" transform="translate(-46.94 -95.61)"/><path class="cls-2" d="M98.18,408.14l-22.86-.06v-.21A22.75,22.75,0,0,1,82,391.73h0a22.7,22.7,0,0,1,16.14-6.68h.22v23.08Zm-22.43-.48,22.22,0V385.48a22.44,22.44,0,0,0-22.22,22.18Z" transform="translate(-46.94 -95.61)"/><path class="cls-11" d="M98.2,409h0L75.54,409s0,0,0,0a22.66,22.66,0,0,0,38.65,16Z" transform="translate(-46.94 -95.61)"/><path class="cls-4" d="M104.81,415.66H76.53A21.63,21.63,0,0,0,77.86,419h30.29Z" transform="translate(-46.94 -95.61)"/><path class="cls-4" d="M114.18,425.05l-2.69-2.7H79.88a22.72,22.72,0,0,0,3,3.35h30.62C113.73,425.49,114,425.27,114.18,425.05Z" transform="translate(-46.94 -95.61)"/><path class="cls-4" d="M75.78,412.32h25.7L98.2,409h0L75.54,409s0,0,0,0A22.52,22.52,0,0,0,75.78,412.32Z" transform="translate(-46.94 -95.61)"/><path class="cls-4" d="M87.61,429.05a22.71,22.71,0,0,0,21.14,0Z" transform="translate(-46.94 -95.61)"/><rect class="cls-15" x="479.58" y="315.64" width="10.69" height="13.62"/><polygon class="cls-16" points="490.27 320.04 479.58 322.14 479.58 315.64 490.27 315.64 490.27 320.04"/><rect class="cls-15" x="556.36" y="405.17" width="10.69" height="13.62" transform="translate(-136.8 69.99) rotate(-15.54)"/><polygon class="cls-16" points="519.74 314.3 509.83 318.87 507.8 311.24 518.09 308.38 519.74 314.3"/><path class="cls-15" d="M524.41,189.37l-41.13,26.31-42-12a8.21,8.21,0,0,1-5.81-6.27l-.69-3.4-.78.19a1.7,1.7,0,0,0-1.31,1.66l0,3.05a1.23,1.23,0,0,1-1.52,1.2l-8.6-2a4,4,0,0,0-1.76,0h0a4.79,4.79,0,0,0-3.75,3.58l0,.15a5.12,5.12,0,0,0,1.59,5.11l1,.92a4.06,4.06,0,0,0,1.69.89l6.23,1.55a12.1,12.1,0,0,0,3.84.34h0a13.6,13.6,0,0,1,5.86.88L482,228.77l44.48-20.23Z" transform="translate(-46.94 -95.61)"/><polygon class="cls-17" points="477.48 93.76 437.62 119.25 437.62 131.99 479.52 112.94 477.48 93.76"/><polygon class="cls-3" points="470.31 182.12 478.17 318.4 492.15 318.4 493.96 182.12 470.31 182.12"/><polygon class="cls-3" points="513.96 182.12 513.96 256.43 519.58 312.55 507.8 316.37 493.56 259.23 484.84 181.23 513.96 182.12"/><polygon class="cls-2" points="507.43 316.46 493.19 259.32 485.8 193.18 486.55 193.1 493.93 259.19 508.16 316.28 507.43 316.46"/><path class="cls-17" d="M520.11,194.52l-1.73,30.75L517.25,258v19.69H560.9l-3.15-29.93,3.15-49a10.65,10.65,0,0,0-10.65-10.65H528.49A8.69,8.69,0,0,0,520.11,194.52Z" transform="translate(-46.94 -95.61)"/><polygon class="cls-2" points="472.19 123.46 471.4 123.42 471.77 116.89 464.27 120.3 463.95 119.58 472.63 115.64 472.19 123.46"/><path class="cls-2" d="M526.61,416.92l-5.68,4.25-19.82,5.17v.5a4.6,4.6,0,0,0,4.61,4.61H534.2a3,3,0,0,0,3-3V417.37h-.39S530.86,425,526.61,416.92Z" transform="translate(-46.94 -95.61)"/><path class="cls-2" d="M556.77,414.47l-6.11,9.72-6.57,2.86-4.89,1.05h0a3.42,3.42,0,0,0,3.36,3.41l13.41.15,17.86-6.94a1.89,1.89,0,0,0,.64-2.85l-7-9.27S564.13,418.13,556.77,414.47Z" transform="translate(-46.94 -95.61)"/><path class="cls-2" d="M483.79,229.46V214l6.66-4.26v15.93Zm.79-15.08v13.71l5.08-2.93v-14Z" transform="translate(-46.94 -95.61)"/><polygon class="cls-15" points="495.85 76.73 495.85 92.54 497.81 92.54 488.49 100.31 482.88 92.54 484.84 92.54 484.84 76.73 495.85 76.73"/><path class="cls-15" d="M533.51,183.4h0a12.14,12.14,0,0,1-12.18-12.08l0-3.1-2.72-.18,1.27-2.62a22.51,22.51,0,0,0,1.56-15.36h13.82a10.7,10.7,0,0,1,10.69,10.69V171A12.42,12.42,0,0,1,533.51,183.4Z" transform="translate(-46.94 -95.61)"/><polygon class="cls-16" points="484.84 88.1 492.13 85.1 484.84 92.02 484.84 88.1"/><path class="cls-5" d="M549.2,160.55a27.27,27.27,0,0,0-1.85-6.44,18.21,18.21,0,0,0-4.3-6.47c-2.68-2.46-6.44-3.14-9.92-3.74a42.94,42.94,0,0,0-12.14-.35c-2.2.25-5.1.88-6,3.21a5.24,5.24,0,0,0,.1,3.58,10.21,10.21,0,0,0,.47,1.7,8.35,8.35,0,0,0,1.15,1.62,11,11,0,0,0,2.8,2.55,11.69,11.69,0,0,0,5.57,1.06l4.33.09a4.59,4.59,0,0,1,1.85.31c1.68.82,1.59,2.84,1.93,4.37a39.81,39.81,0,0,1,.89,6.8,13.4,13.4,0,0,1,0,1.79,9.79,9.79,0,0,1-.4,1.92,3,3,0,0,1-.87,1.56,1.81,1.81,0,0,1-1.28.29,16.55,16.55,0,0,1-1.86.09l-2.07-.15-1.54-2.85c-1-1.81-2-4.05-4.43-3.86s-3.9,3.13-4.34,5.14a11.84,11.84,0,0,0,.31,5.51c1.39,5.19,6.2,6.6,11.1,6a19.37,19.37,0,0,0,5.62-1.62,37,37,0,0,0,3.45-1.37,3.53,3.53,0,0,0,1.26-2.58,10.11,10.11,0,0,0-.11-2.85,13.67,13.67,0,0,0-1.72-5.42,4.51,4.51,0,0,1-1-2.05c-.13-1-.23-2.08-.34-3.12a9.35,9.35,0,0,1-.2-2.84,2.82,2.82,0,0,1,2-2.34,2.78,2.78,0,0,1,2.11.51,4.26,4.26,0,0,1,1.64,2.17,8.59,8.59,0,0,1,.11,3.61c-.1.83-.15,1.69-.3,2.52a11.38,11.38,0,0,0,.11,2.1,39.32,39.32,0,0,0,.88,4.92c.6,2.22,1.62,1.69,2.92.18a18.23,18.23,0,0,0,4.26-10.24A22.2,22.2,0,0,0,549.2,160.55Z" transform="translate(-46.94 -95.61)"/><path class="cls-2" d="M531.54,201,529,188.09h1.27l5.69,7.85ZM530,189.05l2,10.2,2.92-3.35Z" transform="translate(-46.94 -95.61)"/><path class="cls-2" d="M538.64,200.83l-3.76-5,9.41-7.77h1.6ZM536,196l2.58,3.41,6-10.48Z" transform="translate(-46.94 -95.61)"/><rect class="cls-2" x="488.09" y="100.31" width="0.79" height="45.76"/><polygon class="cls-2" points="470.31 177.92 470.57 182.47 513.96 182.47 513.96 177.92 470.31 177.92"/><path class="cls-15" d="M561.32,196.68l25.24,42-25.65,34a13.2,13.2,0,0,0-2.4,5.39l-2,10.05H545.71l2.81-9.91h-2.71a1.89,1.89,0,0,1-1.89-1.89h0l4.19-1.82,1-.41a5.8,5.8,0,0,0,3-2.67l18.3-34.62L548,205.45A8,8,0,0,1,549,195h0A8,8,0,0,1,561.32,196.68Z" transform="translate(-46.94 -95.61)"/><path class="cls-17" d="M561.07,196.09a8.15,8.15,0,0,0-12.6-1.72c-3,2.8-4.23,6.95-1.87,10.26l23,31.16,11.69-5.87Z" transform="translate(-46.94 -95.61)"/><rect class="cls-2" x="557.61" y="208.12" width="0.79" height="23.3" transform="translate(-70.5 270.62) rotate(-35.63)"/><path class="cls-2" d="M569.24,236.62l-4.56-6.33,13.61-6.9,4,6.69Zm-3.38-6.05,3.63,5.05,11.69-5.87L578,224.42Z" transform="translate(-46.94 -95.61)"/><path class="cls-2" d="M523.47,165.66c-1.43,0-2.51-2.23-2.51-5.19v-.37h5v.37C526,163.43,524.9,165.66,523.47,165.66Zm-1.75-4.81c.08,2.41,1,4.06,1.75,4.06s1.67-1.65,1.75-4.06Z" transform="translate(-46.94 -95.61)"/><path class="cls-2" d="M524.68,160.85l0-.75,13.07-.17a2.82,2.82,0,0,1,2.86,2.86l0,2.51h-1l0-2.48a2.15,2.15,0,0,0-2.17-2.13Z" transform="translate(-46.94 -95.61)"/><circle class="cls-2" cx="476.53" cy="66.36" r="0.49"/><path class="cls-2" d="M560.9,288.72H547.46a7,7,0,0,1-6.94-6.94v-4.06h.75v4.06a6.2,6.2,0,0,0,6.19,6.19H560.9Z" transform="translate(-46.94 -95.61)"/></g><g id="Man_2" data-name="Man 2"><rect class="cls-10" x="286.93" y="27.14" width="4.56" height="210.79"/><rect class="cls-2" x="289.67" y="31.02" width="1.83" height="0.78"/><rect class="cls-2" x="289.67" y="37.25" width="1.83" height="0.78"/><rect class="cls-2" x="289.67" y="43.48" width="1.83" height="0.78"/><rect class="cls-2" x="289.67" y="49.71" width="1.83" height="0.78"/><rect class="cls-2" x="289.67" y="55.94" width="1.83" height="0.78"/><rect class="cls-2" x="289.67" y="62.16" width="1.83" height="0.78"/><rect class="cls-2" x="289.67" y="68.39" width="1.83" height="0.78"/><rect class="cls-2" x="289.67" y="74.62" width="1.83" height="0.78"/><rect class="cls-2" x="289.67" y="80.85" width="1.83" height="0.78"/><rect class="cls-2" x="289.67" y="87.08" width="1.83" height="0.78"/><rect class="cls-2" x="289.67" y="93.3" width="1.83" height="0.78"/><rect class="cls-2" x="289.67" y="99.53" width="1.83" height="0.78"/><rect class="cls-2" x="289.67" y="105.76" width="1.83" height="0.78"/><rect class="cls-2" x="289.67" y="111.99" width="1.83" height="0.78"/><rect class="cls-2" x="289.67" y="118.22" width="1.83" height="0.78"/><rect class="cls-2" x="289.67" y="124.44" width="1.83" height="0.78"/><rect class="cls-2" x="289.67" y="130.67" width="1.83" height="0.78"/><rect class="cls-2" x="289.67" y="136.9" width="1.83" height="0.78"/><rect class="cls-2" x="289.67" y="143.13" width="1.83" height="0.78"/><rect class="cls-2" x="289.67" y="149.36" width="1.83" height="0.78"/><rect class="cls-2" x="289.67" y="155.59" width="1.83" height="0.78"/><rect class="cls-2" x="289.67" y="161.81" width="1.83" height="0.78"/><rect class="cls-2" x="289.67" y="168.04" width="1.83" height="0.78"/><rect class="cls-2" x="289.67" y="174.27" width="1.83" height="0.78"/><rect class="cls-2" x="289.67" y="180.5" width="1.83" height="0.78"/><rect class="cls-2" x="289.67" y="186.73" width="1.83" height="0.78"/><rect class="cls-2" x="289.67" y="192.95" width="1.83" height="0.78"/><rect class="cls-2" x="289.67" y="199.18" width="1.83" height="0.78"/><rect class="cls-2" x="289.67" y="205.41" width="1.83" height="0.78"/><rect class="cls-2" x="289.67" y="211.64" width="1.83" height="0.78"/><rect class="cls-2" x="289.67" y="217.87" width="1.83" height="0.78"/><rect class="cls-2" x="289.67" y="224.09" width="1.83" height="0.78"/><rect class="cls-2" x="289.67" y="230.32" width="1.83" height="0.78"/><polygon class="cls-18" points="237.28 191.6 241.4 241.04 235.21 317.73 225.06 317.73 220.63 238.73 208.11 191.6 237.28 191.6"/><path class="cls-15" d="M318.52,133.25l-15.33,23.87-25.73,45.06-24.11,40.64a75,75,0,0,0-10.5,38.27v6.12h41.36V264.47l17.68-24.94a14.45,14.45,0,0,0,2.4-11.12l-6.16-20.95,17.73-46.88,10.66-24.12,5.93-7.25,2-3.63h2A2.59,2.59,0,0,0,339,123v-1H336.4l-1.93-3.31a1.3,1.3,0,0,0-1.12-.65h-7.49Z" transform="translate(-46.94 -95.61)"/><path class="cls-4" d="M326.52,136.46l-8-3.21-15.33,23.87-25.73,45.06-24.11,40.64a75,75,0,0,0-10.5,38.27v6.12h41.36V264.47l17.68-24.94a14.45,14.45,0,0,0,2.4-11.12l-6.16-20.95,17.73-46.88Z" transform="translate(-46.94 -95.61)"/><path class="cls-15" d="M278.47,237.18l17.36,50,28.39,33.37-1.82,7.63a2,2,0,0,0,1.19,2.74l1.71.59,2.46,2.31h4l2.33,1.53,1-1.2h2.91a.79.79,0,0,0,.68-1.19l-2.94-5.07-4.61-8.24-22.28-37.15-9.11-43.78C298,229.2,278.47,237.18,278.47,237.18Z" transform="translate(-46.94 -95.61)"/><path class="cls-4" d="M308.78,282.53l-8.51-45.31c-1.71-9.55-22.45-.56-22.45-.56l18,50.55,28.39,33.37,6.84-.9Z" transform="translate(-46.94 -95.61)"/><polygon class="cls-19" points="287.8 238.82 285.31 235.99 285.31 232.88 286.06 232.88 286.06 235.71 288.36 238.32 287.8 238.82"/><rect class="cls-19" x="334.74" y="330.21" width="0.75" height="4.39" transform="translate(-178.6 166.69) rotate(-36.23)"/><rect class="cls-19" x="323.03" y="328.78" width="3.04" height="0.75" transform="translate(-113.89 479.31) rotate(-77.52)"/><path class="cls-19" d="M329.06,123.9l.59-2.64,3.17-1.51,3.06.79-.19.72.36-.1.2.73Zm1.24-2.12-.23,1,1.94-.56,3.68-1-2.8-.72Z" transform="translate(-46.94 -95.61)"/><polygon class="cls-20" points="195.92 191.6 206.9 255.48 204.82 320.5 216.87 320.5 232.76 243.14 232.17 191.6 195.92 191.6"/><path class="cls-3" d="M271.88,412.08h10.6l4.42,5,6.56,3.1A15.2,15.2,0,0,1,307,428.51H293.87l-22-3.11Z" transform="translate(-46.94 -95.61)"/><circle class="cls-11" cx="230.34" cy="323.13" r="3.33"/><polygon class="cls-2" points="223.46 332.93 248.31 335.51 260.73 335.51 260.73 332.38 248.31 332.38 223.46 329.79 223.46 332.93"/><path class="cls-3" d="M251.76,415.21l12.19.21,2.84,4.79h6.55a15.24,15.24,0,0,1,13.57,8.32H251.76Z" transform="translate(-46.94 -95.61)"/><circle class="cls-11" cx="210.22" cy="326.26" r="3.33"/><rect class="cls-2" x="250.28" y="428.53" width="37.27" height="3.13" transform="translate(490.89 764.59) rotate(180)"/><path class="cls-15" d="M307.35,217.82l-12.17,9.74h0a7.27,7.27,0,0,1-7.27-5.56h0a5.75,5.75,0,0,1,2-5.83l1.56-1.25,8.27-6.62Z" transform="translate(-46.94 -95.61)"/><path class="cls-15" d="M307.28,226.83l-4.69-5.2-10.77-7,7.32-14.95a14.26,14.26,0,0,1,19.07-6.54L320,194a10.13,10.13,0,0,1,4.71,13.42l-.4.85-2,10.84-2.54-1.21-4,7.81A5.18,5.18,0,0,1,307.28,226.83Z" transform="translate(-46.94 -95.61)"/><polygon class="cls-16" points="255.65 126.03 252.12 128.85 248.89 121.64 255.65 126.03"/><path class="cls-2" d="M332.08,201.62a2.56,2.56,0,0,0-1.09-1.73,4.28,4.28,0,0,0,.84-3.83,3.21,3.21,0,0,0-.39-.89c-.63-1-2.38-1.65-3.43-1a4.38,4.38,0,0,0-6.64-5.42,4.94,4.94,0,0,0-8.68-.78c-.9-3.25-7.3-3-9.11-.81a6.39,6.39,0,0,0-1.24,3.44,9.33,9.33,0,0,0-2.6-1.16,3.29,3.29,0,0,0-2.72.46,4,4,0,0,0-1.11,1.63c-.89,2.06-.56,3.81-.76,5.93-.17,1.72-.6.63-2,.9A3.06,3.06,0,0,0,292,199a3.42,3.42,0,0,0-1.56,4.28c.17.91,1.61,3.62.77,4.1s-1.95-.9-2.93-.19a2.29,2.29,0,0,0-.45,2.61,6,6,0,0,0,3.05,3.44L293.8,215a8.74,8.74,0,0,0,6,1.24c2.18-.36,2.86-1.21,3.94-3,1.51-2.44-.94-4.84,1.12-7.33a2.8,2.8,0,0,1,1.91-1.12,2.55,2.55,0,0,1,1.76.64,4,4,0,0,1,1.3,3.56A5.8,5.8,0,0,1,308,212.4a7.7,7.7,0,0,1,3.36,1.44c-.94-.71,1.16-3.71,1.52-4.35a12.5,12.5,0,0,0,1.93-5.46,2.18,2.18,0,0,1,.22-1.27,1.34,1.34,0,0,1,1.77-.19,5.32,5.32,0,0,1,1.31,1.44,4.32,4.32,0,0,0,2.35,1.54c1.52.35,2.44-.82,3.69-.78s1.88,1.64,3,2.13a3.44,3.44,0,0,0,3.88-.66,4.9,4.9,0,0,0,1-2.52A6.17,6.17,0,0,0,332.08,201.62Z" transform="translate(-46.94 -95.61)"/><polygon class="cls-19" points="217.38 319.88 216.65 319.73 232.39 243.06 231.83 194.73 232.58 194.72 233.13 243.13 217.38 319.88"/><polygon class="cls-19" points="271.89 219.22 248.54 191.73 237.39 159.61 238.1 159.37 249.22 191.41 272.46 218.73 271.89 219.22"/><polygon class="cls-19" points="237.47 172.65 236.72 172.62 236.91 168.74 239.47 165.12 240.08 165.55 237.65 168.99 237.47 172.65"/><path class="cls-19" d="M265.05,301.07H255.9v-.75h9.15a9.13,9.13,0,0,0,9.11-9.12h.75A9.88,9.88,0,0,1,265.05,301.07Z" transform="translate(-46.94 -95.61)"/><rect class="cls-2" x="195.92" y="186.44" width="41.36" height="5.16"/><circle class="cls-2" cx="273.51" cy="114.51" r="0.52"/><path class="cls-2" d="M312.11,218.7a4,4,0,0,0,.41,2.73,1.82,1.82,0,0,0,1.79.79c.33-.05.19-.55-.14-.5-1.66.25-1.63-2-1.55-3,0-.33-.49-.33-.51,0Z" transform="translate(-46.94 -95.61)"/><path class="cls-2" d="M318.76,207.1a13,13,0,0,0,3.6,2.4c.3.14.57-.31.26-.44a12.58,12.58,0,0,1-3.49-2.32c-.24-.23-.61.13-.37.36Z" transform="translate(-46.94 -95.61)"/></g><g id="woman"><polygon class="cls-15" points="629.74 193.16 626.52 263.41 638.06 323.98 639.7 328.61 628.94 329.71 629.65 323.98 609.1 267.82 597.01 176.51 629.74 193.16"/><polygon class="cls-15" points="613.86 176.51 598.66 252.06 591.36 323.98 593.49 331.46 579.14 328.6 582.59 323.98 582.59 176.51 613.86 176.51"/><polygon class="cls-4" points="613.86 176.51 600.89 256.53 592.45 316.81 582.59 316.81 582.59 176.51 613.86 176.51"/><polygon class="cls-15" points="590.67 98.44 588.15 129.87 562.82 166.99 552.1 173.91 543.92 185.7 546.18 186.28 551 181.07 562.66 181.09 568.1 169.59 600.89 133.16 606.31 99.35 590.67 98.44"/><path class="cls-1" d="M629.53,290.37h47.31l-3-28.87-.61-54.34a22,22,0,0,0-21.92-19.86h0a21,21,0,0,0-20.89,18.95L629.79,260Z" transform="translate(-46.94 -95.61)"/><path class="cls-15" d="M646.72,194.71c-1.84-1.9.26-8-1.78-10.42h-.4a9.37,9.37,0,0,1-9.37-9.21l0-2.14-2.16-.71,1.78-3.73a6.12,6.12,0,0,0,.36-4.39h0a12,12,0,0,1,11.9-12l5.33,0a13.67,13.67,0,0,1,13.74,13.67h0a12.91,12.91,0,0,1-2.45,7.61,34.88,34.88,0,0,0-4.87,10.88c-1.54,7.2,1,10.42,1,10.42S649,197.05,646.72,194.71Z" transform="translate(-46.94 -95.61)"/><path class="cls-2" d="M685,419.58l3,6.22v5.86H653.5a6.5,6.5,0,0,1,5.26-6.38l8.39-1.65,9.43-4.05h0a3.54,3.54,0,0,0,3.54,3.53h1.34a3.53,3.53,0,0,0,3.53-3.54Z" transform="translate(-46.94 -95.61)"/><path class="cls-2" d="M638.31,419.58l3,6.22v5.86H606.82a6.49,6.49,0,0,1,5.26-6.38l8.39-1.65,9.43-4.05h0a3.53,3.53,0,0,0,3.53,3.53h1.34a3.53,3.53,0,0,0,3.54-3.54Z" transform="translate(-46.94 -95.61)"/><path class="cls-16" d="M644.94,184.29h0c.83,1,1,2.62,1,4.31h0l6.86-4.32Z" transform="translate(-46.94 -95.61)"/><path class="cls-21" d="M644.46,173.39a2.53,2.53,0,1,0,2.53-2.53A2.53,2.53,0,0,0,644.46,173.39Z" transform="translate(-46.94 -95.61)"/><circle class="cls-2" cx="590.26" cy="72.32" r="0.5"/><path class="cls-2" d="M641.3,179.93a2.4,2.4,0,0,0,.61-.33,2.36,2.36,0,0,0,.91-1.67.27.27,0,0,0-.24-.29.27.27,0,0,0-.28.24,1.8,1.8,0,0,1-2.14,1.63.26.26,0,0,0-.1.52A2.39,2.39,0,0,0,641.3,179.93Z" transform="translate(-46.94 -95.61)"/><polygon class="cls-4" points="629.74 193.16 626.52 263.41 637.07 318.78 628.09 319.73 609.1 267.82 597.01 176.51 629.74 193.16"/><polygon class="cls-16" points="582.86 164.37 582.61 192.21 629.64 192.21 626.88 165.89 626.63 143.22 583 151.5 582.86 164.37"/><rect class="cls-11" x="591.64" y="249.66" width="118.48" height="40.71" transform="translate(1254.82 444.42) rotate(180)"/><polygon class="cls-2" points="544.83 153.57 540.37 155.81 540.37 194.28 544.83 194.28 544.83 153.57"/><rect class="cls-3" x="670.43" y="254.84" width="33.2" height="29.53" transform="translate(1327.13 443.61) rotate(180)"/><rect class="cls-22" x="596.83" y="254.84" width="70.24" height="6.89" transform="translate(1216.96 420.96) rotate(180)"/><rect class="cls-22" x="596.83" y="266.09" width="70.24" height="6.89" transform="translate(1216.96 443.45) rotate(180)"/><rect class="cls-22" x="622.67" y="277.33" width="44.4" height="6.89" transform="translate(1242.79 465.95) rotate(180)"/><polygon class="cls-2" points="663.56 195.15 544.7 195.15 544.7 194.38 662.8 194.38 662.8 154.44 554.91 154.44 554.91 153.67 663.56 153.67 663.56 195.15"/><path class="cls-15" d="M672.34,201.53l7.6,35.11-12.72,44.25,2.88,7.69,3.48,2.4H661l-2.05-8.27,3.25-7.83,7-38-12.63-30.42a8.32,8.32,0,0,1,5.94-11.33h0A8.33,8.33,0,0,1,672.34,201.53Z" transform="translate(-46.94 -95.61)"/><path class="cls-1" d="M666,229.26l-10.1-22.62c-2-4.81,1.5-10.91,6.58-12h0c4.49-1,8.92,2.4,9.89,6.89l5.79,26.74Z" transform="translate(-46.94 -95.61)"/><path class="cls-2" d="M642.12,148.88a19,19,0,0,1,10.92-.63,23,23,0,0,1,10.17,4.5,14.79,14.79,0,0,1,5.5,9.47,15.26,15.26,0,0,1-1.81,8.7c-1.29,2.52-2.15,5.13-3.95,7.4a54.16,54.16,0,0,0-4.2,5.39c.62-1,.4-3.8.49-5.05.14-2.1.73-4.14.83-6.24.08-1.8-.63-5.56-3.31-3.34a6.27,6.27,0,0,0-1.29,1.68l-.85,1.41c.85-1.41-.61-6.15-1.37-7.49-1.33-2.33-3.22-2.69-5.8-2.81-3.21-.14-6.34.2-9.57.19a4.25,4.25,0,0,1-1.38-.16,3,3,0,0,1-1.79-3C634.9,154.67,638.34,150.44,642.12,148.88Z" transform="translate(-46.94 -95.61)"/><path class="cls-2" d="M671.54,149.08a15.32,15.32,0,0,1,15.26-.63c11.92,6.7,9.59,24.22.86,32.66-1.8,1.74-4.25,3.16-5.74,5.17-1.34,1.82-1.73,4.56-1.92,6.8.09-1-1.5-3.26-1.77-4.43a12,12,0,0,1-.15-5.06c.74-3.48,2-6.8,2.51-10.42.35-2.64.43-5.58-1.17-7.72s-3.86-2.39-6.28-2c-2.22.35-3.49.65-4.58-1.65A10.17,10.17,0,0,1,671.54,149.08Z" transform="translate(-46.94 -95.61)"/><rect class="cls-1" x="665.34" y="154.48" width="4.32" height="10.07" rx="1.97" transform="translate(1302.44 -13.93) rotate(160.05)"/><path class="cls-2" d="M634.34,167.75c0-2.91,1.39-5.18,3.17-5.18s3.18,2.27,3.18,5.18-1.39,5.17-3.18,5.17S634.34,170.65,634.34,167.75Zm.74,0c0,2.4,1.12,4.43,2.43,4.43s2.43-2,2.43-4.43-1.11-4.43-2.43-4.43S635.08,165.35,635.08,167.75Z" transform="translate(-46.94 -95.61)"/><rect class="cls-2" x="593.38" y="70.23" width="13.58" height="0.75"/><rect class="cls-2" x="661.54" y="210.3" width="0.77" height="19.82" transform="translate(-79.21 193.3) rotate(-24.05)"/><polygon class="cls-2" points="627.73 319.86 608.74 267.96 599.36 197.22 600.12 197.12 609.48 267.77 628.45 319.6 627.73 319.86"/></g><g id="woman_2" data-name="woman 2"><path class="cls-15" d="M132.78,406.19l-2,16.57-3.28,3.05a5.69,5.69,0,0,0-1.8,4.15v1.7h19l-1.31-5.82-2.15-3.27.79-16.38Z" transform="translate(-46.94 -95.61)"/><path class="cls-2" d="M141.29,422.57a31.9,31.9,0,0,0,2.15,3.27l1.31,5.82h-19V430a5.69,5.69,0,0,1,1.8-4.15l3.28-3.05S137.51,414.18,141.29,422.57Z" transform="translate(-46.94 -95.61)"/><path class="cls-15" d="M176.32,406.19l2,16.57,3.28,3.05a5.69,5.69,0,0,1,1.8,4.15v1.7h-19l1.31-5.82,2.15-3.27L167,406.19Z" transform="translate(-46.94 -95.61)"/><path class="cls-2" d="M167.82,422.57a31.9,31.9,0,0,1-2.15,3.27l-1.31,5.82h19V430a5.69,5.69,0,0,0-1.8-4.15l-3.28-3.05S171.6,414.18,167.82,422.57Z" transform="translate(-46.94 -95.61)"/><polygon class="cls-23" points="97.08 314.04 109.85 170.56 84.77 179.05 83.49 314.04 97.08 314.04"/><rect class="cls-23" x="81.8" y="311" width="18.48" height="5.51"/><polygon class="cls-23" points="118.7 314.04 107.47 170.56 132.81 170.91 132.81 314.04 118.7 314.04"/><rect class="cls-23" x="162.95" y="406.6" width="18.48" height="5.51" transform="translate(297.45 723.11) rotate(180)"/><path class="cls-2" d="M147.6,412.5H128.35v-6.28H147.6Zm-18.48-.77h17.71V407H129.12Z" transform="translate(-46.94 -95.61)"/><path class="cls-2" d="M181.82,412.5H162.56v-6.28h19.26Zm-18.49-.77h17.72V407H163.33Z" transform="translate(-46.94 -95.61)"/><polygon class="cls-23" points="84.68 195.04 84.68 176.38 131.77 176.38 132.81 195.04 84.68 195.04"/><path class="cls-12" d="M130.42,280.91v-10l4.72-36.76-7.19-23,1.41-14.44a12,12,0,0,1,11.95-10.84H167.9a12.08,12.08,0,0,1,12,13.45l-6.5,30.05,6,48.11-10.56.75A13.14,13.14,0,0,1,155.68,270h0a17.17,17.17,0,0,1-14.49,10.19Z" transform="translate(-46.94 -95.61)"/><polygon class="cls-15" points="106.7 78.55 106.7 90.21 97.97 90.21 112.33 104.94 122.87 90.21 115.81 90.35 115.81 78.55 106.7 78.55"/><path class="cls-15" d="M161.36,181.1h-2.64a7.22,7.22,0,0,1-7.22-7.22v-2.64a17.67,17.67,0,0,1,17.67-17.67h.35a3.9,3.9,0,0,1,3.74,5l-.29,1a29.11,29.11,0,0,0,4.39,7.49c.5.64-2.59.64-2.59.64h0A13.41,13.41,0,0,1,161.36,181.1Z" transform="translate(-46.94 -95.61)"/><path class="cls-5" d="M163.06,160.5c1.28-1.22,3.18-1.41,4.94-1.55.49,0,9.07-.8,8.94-1.36-1.46-6.49-7.7-11.18-14.27-12.19-7.41-1.14-19.52,1.68-23,9.18C138.21,157.8,138,161.44,138,165a33.51,33.51,0,0,0,1.21,9.78c1.63,5.27,4.17,8.07,9.65,8.2l15,.37c-3.19-5.09-2.88-11.54-2.47-17.53C161.46,163.9,161.68,161.81,163.06,160.5Z" transform="translate(-46.94 -95.61)"/><rect class="cls-2" x="132.87" y="225.45" width="0.77" height="5.29" transform="translate(-108.84 -45.55) rotate(-17.33)"/><rect class="cls-24" x="167.86" y="186.57" width="61.44" height="13.98" transform="translate(350.22 291.5) rotate(180)"/><rect class="cls-2" x="117.42" y="90.21" width="3.5" height="95.46"/><rect class="cls-11" x="167.86" y="200.54" width="61.44" height="80.73" transform="translate(350.22 386.21) rotate(180)"/><rect class="cls-25" x="176.08" y="204.67" width="44.85" height="30.86" transform="translate(350.09 344.58) rotate(180)"/><rect class="cls-26" x="176.08" y="239.1" width="44.85" height="30.86" transform="translate(350.09 413.45) rotate(180)"/><rect class="cls-11" x="168.99" y="94.03" width="5.5" height="0.94"/><rect class="cls-11" x="168.99" y="96.85" width="5.5" height="0.94"/><rect class="cls-11" x="168.99" y="99.67" width="5.5" height="0.94"/><path class="cls-2" d="M229.66,281.64H167.49V185.81h62.17Zm-61.44-.73h60.71V186.55H168.22Z" transform="translate(-46.94 -95.61)"/><polygon class="cls-15" points="182.54 155.18 178.49 161.09 178.49 168.82 182.6 172.2 183.63 171.34 183.63 155.86 182.54 155.18"/><path class="cls-15" d="M129.78,193.67l-18.84,49,40,21,2.85,3.5a4.08,4.08,0,0,0,2.46,1.44l8.44,1.46a3.2,3.2,0,0,0,3.18-1.35l.28-.42a3.08,3.08,0,0,0-1.1-4.45l-7.25-3.9,3.54-1.48a2.31,2.31,0,0,0,.65-3.85h0l-8.68,3.79L125.6,238.32l19.65-36.59a8.73,8.73,0,0,0-2.29-11.5h0A8.73,8.73,0,0,0,129.78,193.67Z" transform="translate(-46.94 -95.61)"/><path class="cls-12" d="M152.47,256.47,125.6,238.32l20.68-37.09c2.3-3.85.29-8.32-3.32-11l0-.8c-4.49-3.33-10.88-.86-13.16,4.24l-18.84,49,38.06,20Z" transform="translate(-46.94 -95.61)"/><rect class="cls-2" x="119.28" y="227.36" width="23.99" height="0.77" transform="translate(-178.42 139.92) rotate(-61.74)"/><path class="cls-2" d="M131.87,295.88l-.34-.69,2.38-1.18a13,13,0,0,0,7.25-11.69V280.5h.77v1.82a13.74,13.74,0,0,1-7.68,12.38Z" transform="translate(-46.94 -95.61)"/><path class="cls-2" d="M179.37,295.88,177,294.7a13.74,13.74,0,0,1-7.68-12.38v-.8h.77v.8A13,13,0,0,0,177.33,294l2.38,1.18Z" transform="translate(-46.94 -95.61)"/><ellipse class="cls-2" cx="123.55" cy="66.39" rx="0.38" ry="0.78"/><path class="cls-2" d="M168.25,161a4.79,4.79,0,0,1,3.39-.93c.32,0,.32-.46,0-.5a5.21,5.21,0,0,0-3.64,1c-.26.19,0,.62.25.43Z" transform="translate(-46.94 -95.61)"/><path class="cls-2" d="M166.18,171.09a3.74,3.74,0,0,0,3.85,4c.32,0,.32-.51,0-.5a3.24,3.24,0,0,1-3.35-3.48c0-.32-.49-.32-.5,0Z" transform="translate(-46.94 -95.61)"/><polygon class="cls-2" points="112.28 159.41 111.96 105.09 97.7 90.47 98.24 89.94 112.71 104.78 113.03 159.41 112.28 159.41"/></g><g id="line"><line class="cls-27" y1="336.06" x2="716.53" y2="336.06"/></g></svg>