<svg id="Tutorials" xmlns="http://www.w3.org/2000/svg" xmlns:xlink="http://www.w3.org/1999/xlink" viewBox="0 0 228.63 164.17"><defs><style>.cls-1{mask:url(#mask);}.cls-2,.cls-4{mix-blend-mode:multiply;}.cls-2{fill:url(#_ÂÁ_Ï_ÌÌ_È_ËÂÌÚ_3);}.cls-3{mask:url(#mask-2);}.cls-4{fill:url(#_ÂÁ_Ï_ÌÌ_È_ËÂÌÚ_2);}.cls-5{fill:none;}.cls-6{opacity:0.45;}.cls-7{fill:url(#_ÂÁ_Ï_ÌÌ_È_ËÂÌÚ_200);}.cls-8{mask:url(#mask-3);}.cls-9{opacity:0.58;fill:url(#_ÂÁ_Ï_ÌÌ_È_ËÂÌÚ_262);}.cls-10{fill:url(#_ÂÁ_Ï_ÌÌ_È_ËÂÌÚ_151);}.cls-11{fill:#fff;}.cls-12{fill:url(#_ÂÁ_Ï_ÌÌ_È_ËÂÌÚ_497);}.cls-13,.cls-20,.cls-24{opacity:0.43;}.cls-13{fill:url(#_ÂÁ_Ï_ÌÌ_È_ËÂÌÚ_194);}.cls-14{fill:url(#_ÂÁ_Ï_ÌÌ_È_ËÂÌÚ_126);}.cls-15{fill:#f9f7f6;}.cls-16{fill:url(#_ÂÁ_Ï_ÌÌ_È_ËÂÌÚ_30);}.cls-17{fill:url(#_ÂÁ_Ï_ÌÌ_È_ËÂÌÚ_41);}.cls-18{fill:url(#_ÂÁ_Ï_ÌÌ_È_ËÂÌÚ_178);}.cls-19,.cls-26,.cls-27{opacity:0.66;}.cls-19{fill:url(#_ÂÁ_Ï_ÌÌ_È_ËÂÌÚ_299);}.cls-20{fill:url(#_ÂÁ_Ï_ÌÌ_È_ËÂÌÚ_194-2);}.cls-21{fill:url(#_ÂÁ_Ï_ÌÌ_È_ËÂÌÚ_30-2);}.cls-22{fill:url(#Sky_16);}.cls-23{fill:#f8f8f8;}.cls-24{fill:url(#_ÂÁ_Ï_ÌÌ_È_ËÂÌÚ_194-3);}.cls-25,.cls-315{opacity:0.54;}.cls-25{fill:url(#_ÂÁ_Ï_ÌÌ_È_ËÂÌÚ_115);}.cls-26{fill:url(#_ÂÁ_Ï_ÌÌ_È_ËÂÌÚ_299-2);}.cls-27{fill:url(#_ÂÁ_Ï_ÌÌ_È_ËÂÌÚ_299-3);}.cls-28{fill:url(#_ÂÁ_Ï_ÌÌ_È_ËÂÌÚ_194-4);}.cls-29,.cls-30,.cls-31,.cls-32{opacity:0.14;}.cls-29{fill:url(#_ÂÁ_Ï_ÌÌ_È_ËÂÌÚ_356);}.cls-30{fill:url(#_ÂÁ_Ï_ÌÌ_È_ËÂÌÚ_356-2);}.cls-31{fill:url(#_ÂÁ_Ï_ÌÌ_È_ËÂÌÚ_356-3);}.cls-32{fill:url(#_ÂÁ_Ï_ÌÌ_È_ËÂÌÚ_356-4);}.cls-33{fill:#7e5cad;}.cls-34{fill:#ff94a5;}.cls-35{fill:url(#_ÂÁ_Ï_ÌÌ_È_ËÂÌÚ_55);}.cls-36{fill:url(#_ÂÁ_Ï_ÌÌ_È_ËÂÌÚ_55-2);}.cls-37{fill:url(#_ÂÁ_Ï_ÌÌ_È_ËÂÌÚ_41-2);}.cls-38,.cls-40{fill:#807f7d;}.cls-39{fill:#cecece;}.cls-40{opacity:0.76;}.cls-41{fill:url(#_ÂÁ_Ï_ÌÌ_È_ËÂÌÚ_6);}.cls-42{fill:url(#Earthtone_1_Radial);}.cls-43{opacity:0.86;}.cls-44{clip-path:url(#clip-path);}.cls-45{fill:#4b413e;}.cls-46{fill:#4c423f;}.cls-47{fill:#4d433f;}.cls-48{fill:#4e4440;}.cls-49{fill:#4f4540;}.cls-50{fill:#504641;}.cls-51{fill:#514641;}.cls-52{fill:#524742;}.cls-53{fill:#534842;}.cls-54{fill:#544943;}.cls-55{fill:#554a43;}.cls-56{fill:#564b44;}.cls-57{fill:#574c44;}.cls-58{fill:#584d45;}.cls-59{fill:#594e45;}.cls-60{fill:#5a4f46;}.cls-61{fill:#5b4f47;}.cls-62{fill:#5c5047;}.cls-63{fill:#5d5148;}.cls-64{fill:#5e5248;}.cls-65{fill:#5f5349;}.cls-66{fill:#605449;}.cls-67{fill:#61554a;}.cls-68{fill:#62564a;}.cls-69{fill:#63574b;}.cls-70{fill:#64584b;}.cls-71{fill:#65594c;}.cls-72{fill:#66594c;}.cls-73{fill:#675a4d;}.cls-74{fill:#685b4d;}.cls-75{fill:#695c4e;}.cls-76{fill:#6a5d4f;}.cls-77{fill:#6b5e4f;}.cls-78{fill:#6c5f50;}.cls-79{fill:#6d6050;}.cls-80{fill:#6e6151;}.cls-81{fill:#6f6251;}.cls-82{fill:#706252;}.cls-83{fill:#716352;}.cls-84{fill:#726453;}.cls-85{fill:#736553;}.cls-86{fill:#746654;}.cls-87{fill:#756754;}.cls-88{fill:#766855;}.cls-89{fill:#776955;}.cls-90{fill:#786a56;}.cls-91{fill:#796b57;}.cls-92{fill:#7a6b57;}.cls-93{fill:#7b6c58;}.cls-94{fill:#7c6d58;}.cls-95{fill:#7d6e59;}.cls-96{fill:#7e6f59;}.cls-97{fill:#7f705a;}.cls-98{fill:#80715a;}.cls-99{fill:#81725b;}.cls-100{fill:#82735b;}.cls-101{fill:#83745c;}.cls-102{fill:#84755c;}.cls-103{fill:#85755d;}.cls-104{fill:#86765d;}.cls-105{fill:#87775e;}.cls-106{fill:#88785f;}.cls-107{fill:#89795f;}.cls-108{fill:#8a7a60;}.cls-109{fill:#8b7b60;}.cls-110{fill:#8c7c61;}.cls-111{fill:#8d7d61;}.cls-112{fill:#8e7e62;}.cls-113{fill:#8f7e62;}.cls-114{fill:#907f63;}.cls-115{fill:#918063;}.cls-116{fill:#928164;}.cls-117{fill:#938264;}.cls-118{fill:#948365;}.cls-119{fill:#958465;}.cls-120{fill:#968566;}.cls-121{fill:#978667;}.cls-122{fill:#988767;}.cls-123{fill:#998868;}.cls-124{fill:#9a8868;}.cls-125{fill:#9b8969;}.cls-126{fill:#9c8a69;}.cls-127{fill:#9d8b6a;}.cls-128{fill:#9e8c6a;}.cls-129{fill:#a08d6b;}.cls-130{fill:#a18e6b;}.cls-131{fill:#a28f6c;}.cls-132{fill:#a3906c;}.cls-133{fill:#a4916d;}.cls-134{fill:#a5916d;}.cls-135{fill:#a6926e;}.cls-136{fill:#a7936e;}.cls-137{fill:#a8946f;}.cls-138{fill:#a99570;}.cls-139{fill:#aa9670;}.cls-140{fill:#ab9771;}.cls-141{fill:#ac9871;}.cls-142{fill:#ad9972;}.cls-143{fill:#ae9a72;}.cls-144{fill:#af9b73;}.cls-145{fill:#b09b73;}.cls-146{fill:#b19c74;}.cls-147{fill:#b29d74;}.cls-148{fill:#b39e75;}.cls-149{fill:#b49f75;}.cls-150{fill:#b5a076;}.cls-151{fill:#b6a176;}.cls-152{fill:#b7a277;}.cls-153{fill:#b8a378;}.cls-154{fill:#b9a478;}.cls-155{fill:#baa479;}.cls-156{fill:#bba579;}.cls-157{fill:#bca67a;}.cls-158{fill:#bda77a;}.cls-159{fill:#bea87b;}.cls-160{fill:#bfa97b;}.cls-161{fill:#c0aa7c;}.cls-162{fill:#c1ab7c;}.cls-163{fill:#c2ac7d;}.cls-164{fill:#c3ad7d;}.cls-165{fill:#c4ae7e;}.cls-166{fill:#c5ae7e;}.cls-167{fill:#c6af7f;}.cls-168{fill:#c7b080;}.cls-169{fill:#c8b180;}.cls-170{fill:#c9b281;}.cls-171{fill:#cab381;}.cls-172{fill:#cbb482;}.cls-173{fill:#ccb582;}.cls-174{fill:#cdb683;}.cls-175{fill:#ceb783;}.cls-176{fill:#cfb784;}.cls-177{fill:#d0b884;}.cls-178{fill:#d1b985;}.cls-179{fill:#d2ba85;}.cls-180{fill:#d3bb86;}.cls-181{fill:#d4bc86;}.cls-182{fill:#d5bd87;}.cls-183{fill:#d6be88;}.cls-184{fill:#d7bf88;}.cls-185{fill:#d8c089;}.cls-186{fill:#d9c089;}.cls-187{fill:#dac18a;}.cls-188{fill:#dbc28a;}.cls-189{fill:#dcc38b;}.cls-190{fill:#ddc48b;}.cls-191{fill:#dec58c;}.cls-192{fill:#dfc68c;}.cls-193{fill:#e0c78d;}.cls-194{fill:#e1c88d;}.cls-195{fill:#e2c98e;}.cls-196{fill:#e3ca8e;}.cls-197{fill:#e4ca8f;}.cls-198{fill:#e5cb90;}.cls-199{fill:#e6cc90;}.cls-200{fill:#e7cd91;}.cls-201{fill:#e8ce91;}.cls-202{fill:#e9cf92;}.cls-203{fill:#ead092;}.cls-204{fill:#ebd193;}.cls-205{fill:#ecd293;}.cls-206{fill:#edd394;}.cls-207{fill:#eed394;}.cls-208{fill:#efd495;}.cls-209{fill:#f0d595;}.cls-210{fill:#f1d696;}.cls-211{fill:#f2d796;}.cls-212{fill:#f3d897;}.cls-213{fill:#f3d898;}.cls-214{fill:#f3d999;}.cls-215{fill:#f3d99a;}.cls-216{fill:#f3d99b;}.cls-217{fill:#f4da9c;}.cls-218{fill:#f4da9d;}.cls-219{fill:#f4db9e;}.cls-220{fill:#f4db9f;}.cls-221{fill:#f4dba0;}.cls-222{fill:#f4dca1;}.cls-223{fill:#f4dca2;}.cls-224{fill:#f4dca3;}.cls-225{fill:#f5dda4;}.cls-226{fill:#f5dda5;}.cls-227{fill:#f5dea6;}.cls-228{fill:#f5dea7;}.cls-229{fill:#f5dea8;}.cls-230{fill:#f5dfa9;}.cls-231{fill:#f5dfaa;}.cls-232{fill:#f5dfab;}.cls-233{fill:#f5e0ac;}.cls-234{fill:#f6e0ae;}.cls-235{fill:#f6e1af;}.cls-236{fill:#f6e1b0;}.cls-237{fill:#f6e1b1;}.cls-238{fill:#f6e2b2;}.cls-239{fill:#f6e2b3;}.cls-240{fill:#f6e2b4;}.cls-241{fill:#f6e3b5;}.cls-242{fill:#f6e3b6;}.cls-243{fill:#f7e4b7;}.cls-244{fill:#f7e4b8;}.cls-245{fill:#f7e4b9;}.cls-246{fill:#f7e5ba;}.cls-247{fill:#f7e5bb;}.cls-248{fill:#f7e5bc;}.cls-249{fill:#f7e6bd;}.cls-250{fill:#f7e6be;}.cls-251{fill:#f8e7bf;}.cls-252{fill:#f8e7c0;}.cls-253{fill:#f8e7c1;}.cls-254{fill:#f8e8c2;}.cls-255{fill:#f8e8c3;}.cls-256{fill:url(#_ÂÁ_Ï_ÌÌ_È_ËÂÌÚ_155);}.cls-257{fill:url(#Pink_Tourmaline);}.cls-258{fill:url(#_ÂÁ_Ï_ÌÌ_È_ËÂÌÚ_5);}.cls-259{fill:url(#Pink_Tourmaline-2);}.cls-260{fill:url(#Stainless_Steel);}.cls-261{fill:url(#_ÂÁ_Ï_ÌÌ_È_ËÂÌÚ_84);}.cls-262{fill:url(#_ÂÁ_Ï_ÌÌ_È_ËÂÌÚ_151-2);}.cls-263{fill:url(#Sky_16-2);}.cls-264{fill:#fffcfc;}.cls-265,.cls-266,.cls-288{opacity:0.5;}.cls-265{fill:url(#_ÂÁ_Ï_ÌÌ_È_ËÂÌÚ_84-2);}.cls-266{fill:url(#_ÂÁ_Ï_ÌÌ_È_ËÂÌÚ_84-3);}.cls-267{fill:url(#_ÂÁ_Ï_ÌÌ_È_ËÂÌÚ_84-4);}.cls-268{fill:url(#_ÂÁ_Ï_ÌÌ_È_ËÂÌÚ_84-5);}.cls-269{fill:url(#_ÂÁ_Ï_ÌÌ_È_ËÂÌÚ_84-6);}.cls-270{fill:url(#_ÂÁ_Ï_ÌÌ_È_ËÂÌÚ_84-7);}.cls-271{fill:url(#_ÂÁ_Ï_ÌÌ_È_ËÂÌÚ_84-8);}.cls-272{fill:url(#_ÂÁ_Ï_ÌÌ_È_ËÂÌÚ_84-9);}.cls-273{fill:url(#_ÂÁ_Ï_ÌÌ_È_ËÂÌÚ_84-10);}.cls-274{fill:url(#_ÂÁ_Ï_ÌÌ_È_ËÂÌÚ_84-11);}.cls-275{fill:url(#_ÂÁ_Ï_ÌÌ_È_ËÂÌÚ_84-12);}.cls-276{fill:url(#_ÂÁ_Ï_ÌÌ_È_ËÂÌÚ_84-13);}.cls-277{fill:url(#_ÂÁ_Ï_ÌÌ_È_ËÂÌÚ_84-14);}.cls-278{fill:url(#_ÂÁ_Ï_ÌÌ_È_ËÂÌÚ_84-15);}.cls-279{fill:url(#_ÂÁ_Ï_ÌÌ_È_ËÂÌÚ_84-16);}.cls-280{fill:url(#_ÂÁ_Ï_ÌÌ_È_ËÂÌÚ_84-17);}.cls-281{fill:url(#_ÂÁ_Ï_ÌÌ_È_ËÂÌÚ_84-18);}.cls-282{fill:url(#_ÂÁ_Ï_ÌÌ_È_ËÂÌÚ_84-19);}.cls-283{fill:url(#_ÂÁ_Ï_ÌÌ_È_ËÂÌÚ_84-20);}.cls-284{fill:url(#_ÂÁ_Ï_ÌÌ_È_ËÂÌÚ_84-21);}.cls-285{fill:url(#_ÂÁ_Ï_ÌÌ_È_ËÂÌÚ_84-22);}.cls-286{fill:url(#_ÂÁ_Ï_ÌÌ_È_ËÂÌÚ_84-23);}.cls-287{fill:url(#_ÂÁ_Ï_ÌÌ_È_ËÂÌÚ_84-24);}.cls-288{fill:url(#_ÂÁ_Ï_ÌÌ_È_ËÂÌÚ_84-25);}.cls-289{fill:url(#_ÂÁ_Ï_ÌÌ_È_ËÂÌÚ_84-26);}.cls-290{opacity:0.61;fill:url(#_ÂÁ_Ï_ÌÌ_È_ËÂÌÚ_84-27);}.cls-291,.cls-292,.cls-293,.cls-294,.cls-295,.cls-296{opacity:0.51;}.cls-291{fill:url(#_ÂÁ_Ï_ÌÌ_È_ËÂÌÚ_84-28);}.cls-292{fill:url(#_ÂÁ_Ï_ÌÌ_È_ËÂÌÚ_84-29);}.cls-293{fill:url(#_ÂÁ_Ï_ÌÌ_È_ËÂÌÚ_84-30);}.cls-294{fill:url(#_ÂÁ_Ï_ÌÌ_È_ËÂÌÚ_84-31);}.cls-295{fill:url(#_ÂÁ_Ï_ÌÌ_È_ËÂÌÚ_84-32);}.cls-296{fill:url(#_ÂÁ_Ï_ÌÌ_È_ËÂÌÚ_84-33);}.cls-297{fill:url(#_ÂÁ_Ï_ÌÌ_È_ËÂÌÚ_183);}.cls-298,.cls-305,.cls-330{fill:#edad96;}.cls-299{fill:#ffc7a6;}.cls-300,.cls-309{fill:#1a1a7d;}.cls-300{opacity:0.22;}.cls-301{fill:url(#_ÂÁ_Ï_ÌÌ_È_ËÂÌÚ_17);}.cls-302{fill:url(#_ÂÁ_Ï_ÌÌ_È_ËÂÌÚ_65);}.cls-303{fill:#5a5754;}.cls-304{fill:url(#_ÂÁ_Ï_ÌÌ_È_ËÂÌÚ_88);}.cls-305{opacity:0.57;}.cls-306{fill:url(#_ÂÁ_Ï_ÌÌ_È_ËÂÌÚ_65-2);}.cls-307{fill:url(#_ÂÁ_Ï_ÌÌ_È_ËÂÌÚ_45);}.cls-308{fill:url(#_ÂÁ_Ï_ÌÌ_È_ËÂÌÚ_45-2);}.cls-310{fill:url(#_ÂÁ_Ï_ÌÌ_È_ËÂÌÚ_65-3);}.cls-311,.cls-312{fill:#fff9fb;}.cls-311{opacity:0.11;}.cls-312{opacity:0.3;}.cls-313{fill:url(#_ÂÁ_Ï_ÌÌ_È_ËÂÌÚ_45-3);}.cls-314{fill:url(#_ÂÁ_Ï_ÌÌ_È_ËÂÌÚ_45-4);}.cls-315{fill:url(#_ÂÁ_Ï_ÌÌ_È_ËÂÌÚ_45-5);}.cls-316{fill:#d09484;}.cls-316,.cls-330{opacity:0.74;}.cls-317{fill:url(#_ÂÁ_Ï_ÌÌ_È_ËÂÌÚ_55-3);}.cls-318{fill:#c09530;}.cls-319{fill:url(#_ÂÁ_Ï_ÌÌ_È_ËÂÌÚ_94);}.cls-320{opacity:0.67;fill:url(#_ÂÁ_Ï_ÌÌ_È_ËÂÌÚ_93);}.cls-321{fill:url(#_ÂÁ_Ï_ÌÌ_È_ËÂÌÚ_219);}.cls-322{fill:#0a2b3d;opacity:0.34;}.cls-323{fill:url(#_ÂÁ_Ï_ÌÌ_È_ËÂÌÚ_100);}.cls-324{fill:url(#_ÂÁ_Ï_ÌÌ_È_ËÂÌÚ_100-2);}.cls-325{fill:url(#_ÂÁ_Ï_ÌÌ_È_ËÂÌÚ_161);}.cls-326{fill:url(#_ÂÁ_Ï_ÌÌ_È_ËÂÌÚ_45-6);}.cls-327{fill:url(#_ÂÁ_Ï_ÌÌ_È_ËÂÌÚ_45-7);}.cls-328{opacity:0.56;fill:url(#_ÂÁ_Ï_ÌÌ_È_ËÂÌÚ_89);}.cls-329{fill:url(#_ÂÁ_Ï_ÌÌ_È_ËÂÌÚ_94-2);}.cls-331{mask:url(#mask-4);}.cls-332{opacity:0.89;fill:url(#_ÂÁ_Ï_ÌÌ_È_ËÂÌÚ_295);}.cls-333{opacity:0.46;fill:url(#_ÂÁ_Ï_ÌÌ_È_ËÂÌÚ_94-3);}.cls-334{filter:url(#luminosity-noclip-4);}.cls-335{filter:url(#luminosity-noclip-3);}.cls-336{filter:url(#luminosity-noclip-2);}.cls-337{filter:url(#luminosity-noclip);}</style><filter id="luminosity-noclip" x="6.73" y="-8274" width="184.46" height="32766" filterUnits="userSpaceOnUse" color-interpolation-filters="sRGB"><feFlood flood-color="#fff" result="bg"/><feBlend in="SourceGraphic" in2="bg"/></filter><mask id="mask" x="6.73" y="-8274" width="184.46" height="32766" maskUnits="userSpaceOnUse"><g class="cls-337"/></mask><linearGradient id="_ÂÁ_Ï_ÌÌ_È_ËÂÌÚ_3" x1="98.96" y1="152.02" x2="98.96" y2="137.61" gradientUnits="userSpaceOnUse"><stop offset="0" stop-color="#333"/><stop offset="0.01" stop-color="#373737"/><stop offset="0.21" stop-color="#737373"/><stop offset="0.4" stop-color="#a5a5a5"/><stop offset="0.58" stop-color="#ccc"/><stop offset="0.75" stop-color="#e8e8e8"/><stop offset="0.89" stop-color="#f9f9f9"/><stop offset="1" stop-color="#fff"/></linearGradient><filter id="luminosity-noclip-2" x="153.75" y="-8274" width="11.52" height="32766" filterUnits="userSpaceOnUse" color-interpolation-filters="sRGB"><feFlood flood-color="#fff" result="bg"/><feBlend in="SourceGraphic" in2="bg"/></filter><mask id="mask-2" x="153.75" y="-8274" width="11.52" height="32766" maskUnits="userSpaceOnUse"><g class="cls-336"/></mask><linearGradient id="_ÂÁ_Ï_ÌÌ_È_ËÂÌÚ_2" x1="159.51" y1="102.01" x2="159.51" y2="96.02" gradientUnits="userSpaceOnUse"><stop offset="0"/><stop offset="0.11" stop-color="#141414"/><stop offset="0.33" stop-color="#474747"/><stop offset="0.65" stop-color="#9b9b9b"/><stop offset="1" stop-color="#fff"/></linearGradient><linearGradient id="_ÂÁ_Ï_ÌÌ_È_ËÂÌÚ_200" x1="5.69" y1="82.5" x2="234.31" y2="82.5" gradientUnits="userSpaceOnUse"><stop offset="0" stop-color="#ffbdcf"/><stop offset="0.25" stop-color="#ffe5dc"/><stop offset="0.5" stop-color="#ffefc7"/><stop offset="0.76" stop-color="#ffc0c6"/><stop offset="0.99" stop-color="#ffeede"/></linearGradient><filter id="luminosity-noclip-3" x="6.73" y="137.61" width="184.46" height="14.41" filterUnits="userSpaceOnUse" color-interpolation-filters="sRGB"><feFlood flood-color="#fff" result="bg"/><feBlend in="SourceGraphic" in2="bg"/></filter><mask id="mask-3" x="1.04" y="137.19" width="184.46" height="14.41" maskUnits="userSpaceOnUse"><g class="cls-335"><g transform="translate(-5.69 -0.42)"><g class="cls-1"><path class="cls-2" d="M6.73,137.61S21,149.09,35,150.17c17.25,1.32,21.05-4.9,39.1-5.63,22.56-.92,23.72,8.5,45.16,7.39,16.64-.86,17.91-6.64,42.83-9.86,16.36-2.11,29.12-4.46,29.12-4.46Z"/></g></g></g></mask><linearGradient id="_ÂÁ_Ï_ÌÌ_È_ËÂÌÚ_262" x1="98.96" y1="152.02" x2="98.96" y2="137.61" gradientUnits="userSpaceOnUse"><stop offset="0" stop-color="#ffeada"/><stop offset="0.2" stop-color="#d3aec0"/><stop offset="0.4" stop-color="#ae7caa"/><stop offset="0.58" stop-color="#915599"/><stop offset="0.75" stop-color="#7d398d"/><stop offset="0.89" stop-color="#702886"/><stop offset="1" stop-color="#6c2283"/></linearGradient><linearGradient id="_ÂÁ_Ï_ÌÌ_È_ËÂÌÚ_151" x1="26.58" y1="108.53" x2="47.36" y2="108.53" gradientUnits="userSpaceOnUse"><stop offset="0" stop-color="#df7091"/><stop offset="0.27" stop-color="#eb7f92"/><stop offset="0.7" stop-color="#fa9293"/><stop offset="1" stop-color="#ff9993"/></linearGradient><linearGradient id="_ÂÁ_Ï_ÌÌ_È_ËÂÌÚ_497" x1="13.69" y1="115.38" x2="33.53" y2="115.38" gradientUnits="userSpaceOnUse"><stop offset="0" stop-color="#58b6c1"/><stop offset="0.24" stop-color="#48a6b6"/><stop offset="0.71" stop-color="#1d7c9b"/><stop offset="1" stop-color="#005f88"/></linearGradient><linearGradient id="_ÂÁ_Ï_ÌÌ_È_ËÂÌÚ_194" x1="170.55" y1="84.64" x2="195.97" y2="84.64" gradientUnits="userSpaceOnUse"><stop offset="0" stop-color="#f48da9"/><stop offset="0.5" stop-color="#ffb7bc"/><stop offset="1" stop-color="#ffb0c9"/></linearGradient><linearGradient id="_ÂÁ_Ï_ÌÌ_È_ËÂÌÚ_126" x1="170.55" y1="89.59" x2="175.11" y2="89.59" gradientUnits="userSpaceOnUse"><stop offset="0" stop-color="#fff"/><stop offset="1" stop-color="#6c2283"/></linearGradient><linearGradient id="_ÂÁ_Ï_ÌÌ_È_ËÂÌÚ_30" x1="80.55" y1="56.01" x2="103.77" y2="131.94" gradientUnits="userSpaceOnUse"><stop offset="0" stop-color="#ffe5e5"/><stop offset="1" stop-color="#6c2283"/></linearGradient><linearGradient id="_ÂÁ_Ï_ÌÌ_È_ËÂÌÚ_41" x1="91.14" y1="135.59" x2="91.14" y2="125.19" gradientUnits="userSpaceOnUse"><stop offset="0" stop-color="#bb9fb9"/><stop offset="1" stop-color="#420b84"/></linearGradient><linearGradient id="_ÂÁ_Ï_ÌÌ_È_ËÂÌÚ_178" x1="91.37" y1="132.43" x2="91.37" y2="137.28" gradientUnits="userSpaceOnUse"><stop offset="0.41" stop-color="#ca97be"/><stop offset="1" stop-color="#6c2283"/></linearGradient><linearGradient id="_ÂÁ_Ï_ÌÌ_È_ËÂÌÚ_299" x1="85.62" y1="120.96" x2="97.38" y2="120.96" gradientUnits="userSpaceOnUse"><stop offset="0" stop-color="#f8c4ca"/><stop offset="1" stop-color="#6c2283"/></linearGradient><linearGradient id="_ÂÁ_Ï_ÌÌ_È_ËÂÌÚ_194-2" x1="156.05" y1="35.99" x2="176.17" y2="35.99" xlink:href="#_ÂÁ_Ï_ÌÌ_È_ËÂÌÚ_194"/><linearGradient id="_ÂÁ_Ï_ÌÌ_È_ËÂÌÚ_30-2" x1="161.34" y1="43.75" x2="165.94" y2="43.75" xlink:href="#_ÂÁ_Ï_ÌÌ_È_ËÂÌÚ_30"/><linearGradient id="Sky_16" x1="44.7" y1="91.98" x2="140.18" y2="91.98" gradientUnits="userSpaceOnUse"><stop offset="0" stop-color="#fff0d9"/><stop offset="0.5" stop-color="#ffdbcc"/><stop offset="0.58" stop-color="#f7d7cd"/><stop offset="0.69" stop-color="#e0cdcf"/><stop offset="0.84" stop-color="#bbbcd3"/><stop offset="1" stop-color="#8ba7d8"/></linearGradient><linearGradient id="_ÂÁ_Ï_ÌÌ_È_ËÂÌÚ_194-3" x1="80.52" y1="94.87" x2="91.16" y2="94.87" gradientTransform="translate(92.23 -32.91) rotate(45)" xlink:href="#_ÂÁ_Ï_ÌÌ_È_ËÂÌÚ_194"/><linearGradient id="_ÂÁ_Ï_ÌÌ_È_ËÂÌÚ_115" x1="71.2" y1="88.56" x2="78.64" y2="88.56" gradientUnits="userSpaceOnUse"><stop offset="0" stop-color="#3ad0f8"/><stop offset="0.54" stop-color="#417ec4"/><stop offset="1" stop-color="#473c9a"/></linearGradient><linearGradient id="_ÂÁ_Ï_ÌÌ_È_ËÂÌÚ_299-2" x1="122.2" y1="80.13" x2="138.22" y2="80.13" xlink:href="#_ÂÁ_Ï_ÌÌ_È_ËÂÌÚ_299"/><linearGradient id="_ÂÁ_Ï_ÌÌ_È_ËÂÌÚ_299-3" x1="122.2" y1="96.98" x2="138.22" y2="96.98" xlink:href="#_ÂÁ_Ï_ÌÌ_È_ËÂÌÚ_299"/><linearGradient id="_ÂÁ_Ï_ÌÌ_È_ËÂÌÚ_194-4" x1="50.28" y1="107.29" x2="59.05" y2="107.29" xlink:href="#_ÂÁ_Ï_ÌÌ_È_ËÂÌÚ_194"/><linearGradient id="_ÂÁ_Ï_ÌÌ_È_ËÂÌÚ_356" x1="140.08" y1="107.8" x2="143.91" y2="107.8" gradientTransform="translate(34.2 249.79) rotate(-90)" gradientUnits="userSpaceOnUse"><stop offset="0" stop-color="#0068af"/><stop offset="0.19" stop-color="#0076b5"/><stop offset="1" stop-color="#00adcb"/></linearGradient><linearGradient id="_ÂÁ_Ï_ÌÌ_È_ËÂÌÚ_356-2" x1="135.49" y1="107.71" x2="139.32" y2="107.71" gradientTransform="translate(29.7 245.11) rotate(-90)" xlink:href="#_ÂÁ_Ï_ÌÌ_È_ËÂÌÚ_356"/><linearGradient id="_ÂÁ_Ï_ÌÌ_È_ËÂÌÚ_356-3" x1="130.9" y1="107.8" x2="134.73" y2="107.8" gradientTransform="translate(25.02 240.61) rotate(-90)" xlink:href="#_ÂÁ_Ï_ÌÌ_È_ËÂÌÚ_356"/><linearGradient id="_ÂÁ_Ï_ÌÌ_È_ËÂÌÚ_356-4" x1="126.31" y1="107.71" x2="130.14" y2="107.71" gradientTransform="translate(20.52 235.94) rotate(-90)" xlink:href="#_ÂÁ_Ï_ÌÌ_È_ËÂÌÚ_356"/><linearGradient id="_ÂÁ_Ï_ÌÌ_È_ËÂÌÚ_55" x1="56.86" y1="93.2" x2="59.22" y2="93.2" gradientUnits="userSpaceOnUse"><stop offset="0" stop-color="#ff6169"/><stop offset="1" stop-color="#ffae66"/></linearGradient><linearGradient id="_ÂÁ_Ï_ÌÌ_È_ËÂÌÚ_55-2" x1="61.48" y1="93.2" x2="63.83" y2="93.2" xlink:href="#_ÂÁ_Ï_ÌÌ_È_ËÂÌÚ_55"/><linearGradient id="_ÂÁ_Ï_ÌÌ_È_ËÂÌÚ_41-2" x1="93.43" y1="51.43" x2="118.55" y2="133.56" xlink:href="#_ÂÁ_Ï_ÌÌ_È_ËÂÌÚ_41"/><radialGradient id="_ÂÁ_Ï_ÌÌ_È_ËÂÌÚ_6" cx="-356.96" cy="64.59" r="2.43" gradientTransform="matrix(-1, 0, 0, 1, -158.76, 0)" gradientUnits="userSpaceOnUse"><stop offset="0.01" stop-color="#bbb9b9"/><stop offset="0.36" stop-color="#807f7d"/><stop offset="0.55" stop-color="#8f8d8c"/><stop offset="0.65" stop-color="#989695"/><stop offset="0.87" stop-color="#9a9898"/><stop offset="1" stop-color="#989695"/><stop offset="1" stop-color="#cac8c8"/></radialGradient><radialGradient id="Earthtone_1_Radial" cx="-434.91" cy="219.09" r="10.05" gradientTransform="matrix(-0.9, -0.37, -0.38, 0.93, -176.33, -310.17)" gradientUnits="userSpaceOnUse"><stop offset="0" stop-color="#f8e8c3"/><stop offset="0.5" stop-color="#f3d897"/><stop offset="1" stop-color="#e7bf57"/></radialGradient><clipPath id="clip-path" transform="translate(-5.69 -0.42)"><path class="cls-5" d="M119.52,47.78c-.3.72,5.17,3.63,12.2,6.52s13,4.63,13.27,3.92-5.17-3.64-12.2-6.52S119.81,47.06,119.52,47.78Z"/></clipPath><linearGradient id="_ÂÁ_Ï_ÌÌ_È_ËÂÌÚ_155" x1="-503.39" y1="214.71" x2="-494.86" y2="214.51" gradientTransform="matrix(-0.92, -0.4, -0.4, 0.92, -228.64, -366.84)" gradientUnits="userSpaceOnUse"><stop offset="0" stop-color="#e2dedb"/><stop offset="0" stop-color="#dad4d1"/><stop offset="0.3" stop-color="#dcdcdd"/><stop offset="0.38" stop-color="#d2d3d4"/><stop offset="0.52" stop-color="#b8b9bb"/><stop offset="0.7" stop-color="#8e9093"/><stop offset="0.76" stop-color="#7c7f82"/><stop offset="1" stop-color="#cac8c8"/><stop offset="1" stop-color="#989695"/></linearGradient><linearGradient id="Pink_Tourmaline" x1="-303.28" y1="33.98" x2="-295.09" y2="33.79" gradientTransform="matrix(-1, 0, 0, 1, -158.76, 0)" gradientUnits="userSpaceOnUse"><stop offset="0" stop-color="#f9c3d6"/><stop offset="0.5" stop-color="#fceef2"/><stop offset="1" stop-color="#93566a"/></linearGradient><linearGradient id="_ÂÁ_Ï_ÌÌ_È_ËÂÌÚ_5" x1="-307.75" y1="50.02" x2="-282.58" y2="37.74" gradientTransform="matrix(-1, 0, 0, 1, -158.76, 0)" gradientUnits="userSpaceOnUse"><stop offset="0" stop-color="#e2dedb"/><stop offset="0" stop-color="#dad4d1"/><stop offset="0.29" stop-color="#dcdcdd"/><stop offset="0.37" stop-color="#d2d3d4"/><stop offset="0.51" stop-color="#b8b9bb"/><stop offset="0.68" stop-color="#8e9093"/><stop offset="0.75" stop-color="#7c7f82"/><stop offset="1" stop-color="#cac8c8"/><stop offset="1" stop-color="#989695"/></linearGradient><linearGradient id="Pink_Tourmaline-2" x1="-379.23" y1="118.11" x2="-355.91" y2="117.57" xlink:href="#Pink_Tourmaline"/><linearGradient id="Stainless_Steel" x1="-380.09" y1="124.85" x2="-354.68" y2="124.26" gradientTransform="matrix(1, 0, 0, -1, 576, 249.11)" gradientUnits="userSpaceOnUse"><stop offset="0" stop-color="#e2dedb"/><stop offset="0" stop-color="#d6d0cc"/><stop offset="0" stop-color="#c6bdb8"/><stop offset="0.06" stop-color="#b7aeaa"/><stop offset="0.15" stop-color="#9b928f"/><stop offset="0.52" stop-color="#dadada"/><stop offset="0.61" stop-color="#cecccb"/><stop offset="0.79" stop-color="#ada7a4"/><stop offset="0.88" stop-color="#9b928f"/><stop offset="1" stop-color="#cac8c8"/><stop offset="1" stop-color="#989695"/></linearGradient><linearGradient id="_ÂÁ_Ï_ÌÌ_È_ËÂÌÚ_84" x1="122.33" y1="132.43" x2="171.4" y2="132.43" gradientUnits="userSpaceOnUse"><stop offset="0" stop-color="#69cade"/><stop offset="0.21" stop-color="#59bfd3"/><stop offset="0.64" stop-color="#2ea1b7"/><stop offset="1" stop-color="#04849b"/></linearGradient><linearGradient id="_ÂÁ_Ï_ÌÌ_È_ËÂÌÚ_151-2" x1="115.65" y1="122.09" x2="164.72" y2="122.09" xlink:href="#_ÂÁ_Ï_ÌÌ_È_ËÂÌÚ_151"/><linearGradient id="Sky_16-2" x1="126.75" y1="112.16" x2="175.49" y2="112.16" xlink:href="#Sky_16"/><linearGradient id="_ÂÁ_Ï_ÌÌ_È_ËÂÌÚ_84-2" x1="105.28" y1="85.42" x2="120.79" y2="85.42" xlink:href="#_ÂÁ_Ï_ÌÌ_È_ËÂÌÚ_84"/><linearGradient id="_ÂÁ_Ï_ÌÌ_È_ËÂÌÚ_84-3" x1="96.82" y1="83.36" x2="116.56" y2="83.36" xlink:href="#_ÂÁ_Ï_ÌÌ_È_ËÂÌÚ_84"/><linearGradient id="_ÂÁ_Ï_ÌÌ_È_ËÂÌÚ_84-4" x1="67.1" y1="101.18" x2="115.65" y2="101.18" xlink:href="#_ÂÁ_Ï_ÌÌ_È_ËÂÌÚ_84"/><linearGradient id="_ÂÁ_Ï_ÌÌ_È_ËÂÌÚ_84-5" x1="67.1" y1="100.78" x2="67.26" y2="100.78" xlink:href="#_ÂÁ_Ï_ÌÌ_È_ËÂÌÚ_84"/><linearGradient id="_ÂÁ_Ï_ÌÌ_È_ËÂÌÚ_84-6" x1="69.65" y1="100.78" x2="69.81" y2="100.78" xlink:href="#_ÂÁ_Ï_ÌÌ_È_ËÂÌÚ_84"/><linearGradient id="_ÂÁ_Ï_ÌÌ_È_ËÂÌÚ_84-7" x1="72.2" y1="100.78" x2="72.36" y2="100.78" xlink:href="#_ÂÁ_Ï_ÌÌ_È_ËÂÌÚ_84"/><linearGradient id="_ÂÁ_Ï_ÌÌ_È_ËÂÌÚ_84-8" x1="74.75" y1="100.78" x2="74.91" y2="100.78" xlink:href="#_ÂÁ_Ï_ÌÌ_È_ËÂÌÚ_84"/><linearGradient id="_ÂÁ_Ï_ÌÌ_È_ËÂÌÚ_84-9" x1="77.3" y1="100.78" x2="77.47" y2="100.78" xlink:href="#_ÂÁ_Ï_ÌÌ_È_ËÂÌÚ_84"/><linearGradient id="_ÂÁ_Ï_ÌÌ_È_ËÂÌÚ_84-10" x1="79.85" y1="100.78" x2="80.02" y2="100.78" xlink:href="#_ÂÁ_Ï_ÌÌ_È_ËÂÌÚ_84"/><linearGradient id="_ÂÁ_Ï_ÌÌ_È_ËÂÌÚ_84-11" x1="82.4" y1="100.78" x2="82.57" y2="100.78" xlink:href="#_ÂÁ_Ï_ÌÌ_È_ËÂÌÚ_84"/><linearGradient id="_ÂÁ_Ï_ÌÌ_È_ËÂÌÚ_84-12" x1="84.96" y1="100.78" x2="85.12" y2="100.78" xlink:href="#_ÂÁ_Ï_ÌÌ_È_ËÂÌÚ_84"/><linearGradient id="_ÂÁ_Ï_ÌÌ_È_ËÂÌÚ_84-13" x1="87.51" y1="100.78" x2="87.67" y2="100.78" xlink:href="#_ÂÁ_Ï_ÌÌ_È_ËÂÌÚ_84"/><linearGradient id="_ÂÁ_Ï_ÌÌ_È_ËÂÌÚ_84-14" x1="90.06" y1="100.78" x2="90.22" y2="100.78" xlink:href="#_ÂÁ_Ï_ÌÌ_È_ËÂÌÚ_84"/><linearGradient id="_ÂÁ_Ï_ÌÌ_È_ËÂÌÚ_84-15" x1="92.61" y1="100.78" x2="92.77" y2="100.78" xlink:href="#_ÂÁ_Ï_ÌÌ_È_ËÂÌÚ_84"/><linearGradient id="_ÂÁ_Ï_ÌÌ_È_ËÂÌÚ_84-16" x1="95.16" y1="100.78" x2="95.32" y2="100.78" xlink:href="#_ÂÁ_Ï_ÌÌ_È_ËÂÌÚ_84"/><linearGradient id="_ÂÁ_Ï_ÌÌ_È_ËÂÌÚ_84-17" x1="97.71" y1="100.78" x2="97.87" y2="100.78" xlink:href="#_ÂÁ_Ï_ÌÌ_È_ËÂÌÚ_84"/><linearGradient id="_ÂÁ_Ï_ÌÌ_È_ËÂÌÚ_84-18" x1="100.26" y1="100.78" x2="100.42" y2="100.78" xlink:href="#_ÂÁ_Ï_ÌÌ_È_ËÂÌÚ_84"/><linearGradient id="_ÂÁ_Ï_ÌÌ_È_ËÂÌÚ_84-19" x1="102.81" y1="100.78" x2="102.97" y2="100.78" xlink:href="#_ÂÁ_Ï_ÌÌ_È_ËÂÌÚ_84"/><linearGradient id="_ÂÁ_Ï_ÌÌ_È_ËÂÌÚ_84-20" x1="105.36" y1="100.78" x2="105.52" y2="100.78" xlink:href="#_ÂÁ_Ï_ÌÌ_È_ËÂÌÚ_84"/><linearGradient id="_ÂÁ_Ï_ÌÌ_È_ËÂÌÚ_84-21" x1="107.91" y1="100.78" x2="108.08" y2="100.78" xlink:href="#_ÂÁ_Ï_ÌÌ_È_ËÂÌÚ_84"/><linearGradient id="_ÂÁ_Ï_ÌÌ_È_ËÂÌÚ_84-22" x1="110.46" y1="100.78" x2="110.63" y2="100.78" xlink:href="#_ÂÁ_Ï_ÌÌ_È_ËÂÌÚ_84"/><linearGradient id="_ÂÁ_Ï_ÌÌ_È_ËÂÌÚ_84-23" x1="113.01" y1="100.78" x2="113.18" y2="100.78" xlink:href="#_ÂÁ_Ï_ÌÌ_È_ËÂÌÚ_84"/><linearGradient id="_ÂÁ_Ï_ÌÌ_È_ËÂÌÚ_84-24" x1="115.57" y1="100.78" x2="115.73" y2="100.78" xlink:href="#_ÂÁ_Ï_ÌÌ_È_ËÂÌÚ_84"/><linearGradient id="_ÂÁ_Ï_ÌÌ_È_ËÂÌÚ_84-25" x1="76.18" y1="79.72" x2="84.86" y2="79.72" xlink:href="#_ÂÁ_Ï_ÌÌ_È_ËÂÌÚ_84"/><linearGradient id="_ÂÁ_Ï_ÌÌ_È_ËÂÌÚ_84-26" x1="80.44" y1="81.9" x2="84.97" y2="81.9" xlink:href="#_ÂÁ_Ï_ÌÌ_È_ËÂÌÚ_84"/><linearGradient id="_ÂÁ_Ï_ÌÌ_È_ËÂÌÚ_84-27" x1="66.22" y1="73.53" x2="83.91" y2="73.53" xlink:href="#_ÂÁ_Ï_ÌÌ_È_ËÂÌÚ_84"/><linearGradient id="_ÂÁ_Ï_ÌÌ_È_ËÂÌÚ_84-28" x1="82.53" y1="76.66" x2="105.83" y2="76.66" xlink:href="#_ÂÁ_Ï_ÌÌ_È_ËÂÌÚ_84"/><linearGradient id="_ÂÁ_Ï_ÌÌ_È_ËÂÌÚ_84-29" x1="82.53" y1="80.32" x2="105.83" y2="80.32" xlink:href="#_ÂÁ_Ï_ÌÌ_È_ËÂÌÚ_84"/><linearGradient id="_ÂÁ_Ï_ÌÌ_È_ËÂÌÚ_84-30" x1="82.53" y1="83.97" x2="105.83" y2="83.97" xlink:href="#_ÂÁ_Ï_ÌÌ_È_ËÂÌÚ_84"/><linearGradient id="_ÂÁ_Ï_ÌÌ_È_ËÂÌÚ_84-31" x1="93.14" y1="96.98" x2="116.44" y2="96.98" xlink:href="#_ÂÁ_Ï_ÌÌ_È_ËÂÌÚ_84"/><linearGradient id="_ÂÁ_Ï_ÌÌ_È_ËÂÌÚ_84-32" x1="87.32" y1="87.62" x2="100.34" y2="87.62" xlink:href="#_ÂÁ_Ï_ÌÌ_È_ËÂÌÚ_84"/><linearGradient id="_ÂÁ_Ï_ÌÌ_È_ËÂÌÚ_84-33" x1="87.32" y1="91.27" x2="100.34" y2="91.27" xlink:href="#_ÂÁ_Ï_ÌÌ_È_ËÂÌÚ_84"/><linearGradient id="_ÂÁ_Ï_ÌÌ_È_ËÂÌÚ_183" x1="1097.83" y1="67.54" x2="1113.45" y2="67.54" gradientTransform="translate(-1046.03)" gradientUnits="userSpaceOnUse"><stop offset="0" stop-color="#363b88"/><stop offset="0.14" stop-color="#404089"/><stop offset="1" stop-color="#775e91"/></linearGradient><linearGradient id="_ÂÁ_Ï_ÌÌ_È_ËÂÌÚ_17" x1="1096.89" y1="53.35" x2="1111.23" y2="53.35" gradientTransform="translate(-1046.03)" gradientUnits="userSpaceOnUse"><stop offset="0" stop-color="#d47780"/><stop offset="1" stop-color="#ffa48e"/></linearGradient><linearGradient id="_ÂÁ_Ï_ÌÌ_È_ËÂÌÚ_65" x1="1097.83" y1="55.6" x2="1111.45" y2="55.6" gradientTransform="translate(-1046.03)" gradientUnits="userSpaceOnUse"><stop offset="0" stop-color="#5e3266"/><stop offset="0.5" stop-color="#9a557c"/><stop offset="1" stop-color="#d27690"/></linearGradient><linearGradient id="_ÂÁ_Ï_ÌÌ_È_ËÂÌÚ_88" x1="1102.66" y1="66.2" x2="1111.12" y2="66.2" gradientTransform="translate(-1046.03)" gradientUnits="userSpaceOnUse"><stop offset="0" stop-color="#433266"/><stop offset="0.37" stop-color="#664277"/><stop offset="1" stop-color="#9d5c91"/></linearGradient><linearGradient id="_ÂÁ_Ï_ÌÌ_È_ËÂÌÚ_65-2" x1="1101.8" y1="43.32" x2="1107.48" y2="43.32" xlink:href="#_ÂÁ_Ï_ÌÌ_È_ËÂÌÚ_65"/><linearGradient id="_ÂÁ_Ï_ÌÌ_È_ËÂÌÚ_45" x1="1101.48" y1="43.06" x2="1107.16" y2="43.06" gradientTransform="translate(-1046.03)" gradientUnits="userSpaceOnUse"><stop offset="0" stop-color="#763266"/><stop offset="0.49" stop-color="#af5f7b"/><stop offset="1" stop-color="#e68b8f"/></linearGradient><linearGradient id="_ÂÁ_Ï_ÌÌ_È_ËÂÌÚ_45-2" x1="1089.45" y1="46.22" x2="1103.37" y2="46.22" xlink:href="#_ÂÁ_Ï_ÌÌ_È_ËÂÌÚ_45"/><linearGradient id="_ÂÁ_Ï_ÌÌ_È_ËÂÌÚ_65-3" x1="1090.17" y1="46.38" x2="1103.37" y2="46.38" xlink:href="#_ÂÁ_Ï_ÌÌ_È_ËÂÌÚ_65"/><linearGradient id="_ÂÁ_Ï_ÌÌ_È_ËÂÌÚ_45-3" x1="1103.99" y1="49.25" x2="1110.97" y2="49.25" xlink:href="#_ÂÁ_Ï_ÌÌ_È_ËÂÌÚ_45"/><linearGradient id="_ÂÁ_Ï_ÌÌ_È_ËÂÌÚ_45-4" x1="1097.37" y1="58.2" x2="1097.77" y2="58.2" xlink:href="#_ÂÁ_Ï_ÌÌ_È_ËÂÌÚ_45"/><linearGradient id="_ÂÁ_Ï_ÌÌ_È_ËÂÌÚ_45-5" x1="1096.89" y1="49.82" x2="1103.83" y2="49.82" xlink:href="#_ÂÁ_Ï_ÌÌ_È_ËÂÌÚ_45"/><linearGradient id="_ÂÁ_Ï_ÌÌ_È_ËÂÌÚ_55-3" x1="150.84" y1="95.84" x2="168.15" y2="95.84" xlink:href="#_ÂÁ_Ï_ÌÌ_È_ËÂÌÚ_55"/><linearGradient id="_ÂÁ_Ï_ÌÌ_È_ËÂÌÚ_94" x1="154.95" y1="88.67" x2="159.39" y2="88.67" gradientUnits="userSpaceOnUse"><stop offset="0" stop-color="#ff6169"/><stop offset="1" stop-color="#a42c58"/></linearGradient><linearGradient id="_ÂÁ_Ï_ÌÌ_È_ËÂÌÚ_93" x1="161.59" y1="90.9" x2="168.18" y2="90.9" gradientUnits="userSpaceOnUse"><stop offset="0" stop-color="#ff6169"/><stop offset="1" stop-color="#ff8e68"/></linearGradient><linearGradient id="_ÂÁ_Ï_ÌÌ_È_ËÂÌÚ_219" x1="156.5" y1="102.51" x2="170.9" y2="102.51" gradientUnits="userSpaceOnUse"><stop offset="0" stop-color="#363b88"/><stop offset="0.13" stop-color="#3c4489"/><stop offset="1" stop-color="#607b90"/></linearGradient><linearGradient id="_ÂÁ_Ï_ÌÌ_È_ËÂÌÚ_100" x1="148.09" y1="102.7" x2="163.3" y2="102.7" gradientUnits="userSpaceOnUse"><stop offset="0" stop-color="#363b88"/><stop offset="1" stop-color="#286691"/></linearGradient><linearGradient id="_ÂÁ_Ï_ÌÌ_È_ËÂÌÚ_100-2" x1="164.16" y1="107.11" x2="169.63" y2="107.11" xlink:href="#_ÂÁ_Ï_ÌÌ_È_ËÂÌÚ_100"/><linearGradient id="_ÂÁ_Ï_ÌÌ_È_ËÂÌÚ_161" x1="159.93" y1="84.04" x2="162.69" y2="84.04" gradientUnits="userSpaceOnUse"><stop offset="0" stop-color="#4a4a88"/><stop offset="0.43" stop-color="#76598c"/><stop offset="1" stop-color="#ad6b91"/></linearGradient><linearGradient id="_ÂÁ_Ï_ÌÌ_È_ËÂÌÚ_45-6" x1="151.5" y1="86.9" x2="160.71" y2="86.9" gradientTransform="matrix(1, 0, 0, 1, 0, 0)" xlink:href="#_ÂÁ_Ï_ÌÌ_È_ËÂÌÚ_45"/><linearGradient id="_ÂÁ_Ï_ÌÌ_È_ËÂÌÚ_45-7" x1="160.11" y1="83.99" x2="162.87" y2="83.99" gradientTransform="matrix(1, 0, 0, 1, 0, 0)" xlink:href="#_ÂÁ_Ï_ÌÌ_È_ËÂÌÚ_45"/><linearGradient id="_ÂÁ_Ï_ÌÌ_È_ËÂÌÚ_89" x1="151.58" y1="86.97" x2="160.29" y2="86.97" gradientUnits="userSpaceOnUse"><stop offset="0" stop-color="#f3f3f3"/><stop offset="0.45" stop-color="#edc2c4"/><stop offset="1" stop-color="#e68b8f"/></linearGradient><linearGradient id="_ÂÁ_Ï_ÌÌ_È_ËÂÌÚ_94-2" x1="86.28" y1="79.59" x2="89.79" y2="79.59" gradientTransform="matrix(0.96, -0.27, 0.27, 0.96, 60.11, 41.61)" xlink:href="#_ÂÁ_Ï_ÌÌ_È_ËÂÌÚ_94"/><filter id="luminosity-noclip-4" x="153.75" y="96.02" width="11.52" height="5.99" filterUnits="userSpaceOnUse" color-interpolation-filters="sRGB"><feFlood flood-color="#fff" result="bg"/><feBlend in="SourceGraphic" in2="bg"/></filter><mask id="mask-4" x="148.07" y="95.61" width="11.52" height="5.99" maskUnits="userSpaceOnUse"><g class="cls-334"><g transform="translate(-5.69 -0.42)"><g class="cls-3"><polygon class="cls-4" points="164.23 102.01 154.68 102.01 153.75 96.02 165.27 96.02 164.23 102.01"/></g></g></g></mask><linearGradient id="_ÂÁ_Ï_ÌÌ_È_ËÂÌÚ_295" x1="153.83" y1="101.59" x2="153.83" y2="95.61" gradientUnits="userSpaceOnUse"><stop offset="0" stop-color="#fff"/><stop offset="1" stop-color="#eef2f9"/></linearGradient><linearGradient id="_ÂÁ_Ï_ÌÌ_È_ËÂÌÚ_94-3" x1="163.2" y1="93.59" x2="165.03" y2="93.59" xlink:href="#_ÂÁ_Ï_ÌÌ_È_ËÂÌÚ_94"/></defs><title>Tutorials</title><g class="cls-6"><path class="cls-7" d="M143.36,4.29q-1.34.6-2.64,1.32c-5.06,2.83-9.32,7.15-14.65,9.48-6.31,2.75-12.48.9-19-.43-4.63-.95-10.18-1.78-14.32,1.11-2.9,2-4.41,5.49-5.5,8.72-2.34,6.87-2.94,15.7-8.36,21.05C72.8,51.6,58.5,47.89,51.5,53c-11.62,8.41,1.34,21.76-.85,25.93-6.88,13-34.55,5.77-42,18.5-2.56,4.37-3.9,12-2.21,16.71,1.44,4,5.31,6.64,7.89,10.07,5.68,7.56,4.9,18.75,11.6,25.46,6.1,6.12,16.13,6.16,24.7,4.49s17.26-4.63,25.84-3c12.11,2.26,21.63,13.22,34,13.49,18.56.4,30.83-23.26,49.38-22.55,6.92.27,13.14,4,19.78,5.9,10,2.86,21.91,4.58,31.87.65,9.44-3.73,13.84-13.06,16.63-22.25,9.71-32,9.67-71.61-11.83-99C200.59,7.32,168-6.74,143.36,4.29Z" transform="translate(-5.69 -0.42)"/></g><g class="cls-8"><path class="cls-9" d="M6.73,137.61S21,149.09,35,150.17c17.25,1.32,21.05-4.9,39.1-5.63,22.56-.92,23.72,8.5,45.16,7.39,16.64-.86,17.91-6.64,42.83-9.86,16.36-2.11,29.12-4.46,29.12-4.46Z" transform="translate(-5.69 -0.42)"/></g><path class="cls-10" d="M36.29,138.1l-8.68-1.4a1.2,1.2,0,0,1-1-1.37l9.64-55.4a1.23,1.23,0,0,1,1.42-1l8.67,1.4a1.2,1.2,0,0,1,1,1.37l-9.64,55.4A1.23,1.23,0,0,1,36.29,138.1Z" transform="translate(-5.69 -0.42)"/><path class="cls-11" d="M39.09,113l-5.83-.94a1,1,0,0,1-.85-1.15L36,90.33a1,1,0,0,1,1.19-.82l5.83.95a1,1,0,0,1,.85,1.14l-3.59,20.63A1,1,0,0,1,39.09,113Z" transform="translate(-5.69 -0.42)"/><polygon class="cls-11" points="33.47 121.04 24.47 119.58 24.63 118.66 33.63 120.11 33.47 121.04"/><polygon class="cls-11" points="32.78 124.97 23.79 123.52 23.95 122.59 32.95 124.05 32.78 124.97"/><polygon class="cls-11" points="32.1 128.91 23.1 127.45 23.26 126.53 32.26 127.99 32.1 128.91"/><path class="cls-12" d="M21.26,137.84l-6.76-1.67a1,1,0,0,1-.78-1.26L24.65,93.67A1.08,1.08,0,0,1,26,92.92l6.76,1.66a1,1,0,0,1,.78,1.27L22.57,137.09A1.08,1.08,0,0,1,21.26,137.84Z" transform="translate(-5.69 -0.42)"/><polygon class="cls-11" points="13.21 128.78 11.17 128.28 16.51 108.13 18.55 108.63 13.21 128.78"/><polygon class="cls-11" points="17.22 129.77 15.18 129.26 20.52 109.12 22.56 109.62 17.22 129.77"/><polygon class="cls-11" points="24.76 106.94 15.91 104.77 16.23 103.56 25.08 105.73 24.76 106.94"/><polygon class="cls-11" points="16.47 132.63 10.42 131.13 10.59 130.49 16.64 131.98 16.47 132.63"/><path class="cls-11" d="M24.87,99.14a3,3,0,0,1,3.58-2,2.83,2.83,0,0,1,2.13,3.46,3,3,0,0,1-3.59,2A2.83,2.83,0,0,1,24.87,99.14Z" transform="translate(-5.69 -0.42)"/><polygon class="cls-13" points="176.02 71.11 170.54 86.5 175.11 88.12 173.49 92.69 188.87 98.17 195.97 78.21 176.02 71.11"/><polygon class="cls-14" points="175.11 88.12 170.54 86.5 173.49 92.69 175.11 88.12"/><rect class="cls-15" x="182.01" y="78.92" width="16.33" height="1.53" transform="translate(32.04 -59.57) rotate(19.59)"/><rect class="cls-15" x="180.82" y="82.29" width="16.33" height="1.53" transform="translate(33.1 -58.97) rotate(19.59)"/><rect class="cls-15" x="179.62" y="85.66" width="16.33" height="1.53" transform="translate(34.15 -58.37) rotate(19.59)"/><rect class="cls-16" x="40.47" y="62.76" width="103.38" height="62.42" rx="21.17"/><rect class="cls-17" x="80.49" y="125.19" width="21.31" height="10.4"/><rect class="cls-18" x="71.88" y="132.43" width="38.98" height="4.85" rx="1.97"/><rect class="cls-19" x="85.62" y="119.44" width="11.76" height="3.04"/><polygon class="cls-20" points="156.05 33.58 161.34 43.8 164.37 42.23 165.94 45.27 176.17 39.98 169.31 26.72 156.05 33.58"/><polygon class="cls-21" points="164.37 42.23 161.34 43.8 165.94 45.27 164.37 42.23"/><rect class="cls-15" x="164.26" y="33.02" width="11.51" height="1.08" transform="translate(-2.11 81.42) rotate(-27.34)"/><rect class="cls-15" x="165.42" y="35.26" width="11.51" height="1.08" transform="translate(-3.01 82.19) rotate(-27.34)"/><rect class="cls-15" x="166.58" y="37.49" width="11.51" height="1.08" transform="translate(-3.9 82.98) rotate(-27.34)"/><rect class="cls-22" x="44.7" y="67.26" width="95.48" height="49.44" rx="18.11"/><rect class="cls-23" x="64.38" y="72.12" width="53.92" height="33.16"/><circle class="cls-24" cx="85.84" cy="94.87" r="5.32" transform="translate(-47.63 88.07) rotate(-45)"/><path class="cls-25" d="M71.2,88.56a3.72,3.72,0,1,1,3.72,3.72A3.73,3.73,0,0,1,71.2,88.56Z" transform="translate(-5.69 -0.42)"/><rect class="cls-26" x="122.2" y="72.12" width="16.02" height="16.02"/><rect class="cls-27" x="122.2" y="91.25" width="16.02" height="11.45"/><rect class="cls-28" x="50.28" y="105.28" width="8.77" height="4.02"/><rect class="cls-11" x="50.28" y="72.12" width="3.83" height="3.83"/><rect class="cls-11" x="55.13" y="72.12" width="3.83" height="3.83"/><rect class="cls-11" x="50.28" y="76.86" width="3.83" height="3.83"/><rect class="cls-11" x="55.13" y="76.86" width="3.83" height="3.83"/><rect class="cls-11" x="50.37" y="81.45" width="3.83" height="3.83"/><rect class="cls-11" x="55.22" y="81.45" width="3.83" height="3.83"/><rect class="cls-11" x="50.28" y="86.04" width="3.83" height="3.83"/><rect class="cls-11" x="55.13" y="86.04" width="3.83" height="3.83"/><rect class="cls-11" x="50.28" y="90.63" width="3.83" height="3.83"/><rect class="cls-11" x="55.13" y="90.63" width="3.83" height="3.83"/><rect class="cls-11" x="50.28" y="95.21" width="3.83" height="3.83"/><rect class="cls-11" x="55.13" y="95.21" width="3.83" height="3.83"/><rect class="cls-29" x="140.08" y="105.88" width="3.83" height="3.83" transform="translate(244.1 -34.61) rotate(90)"/><rect class="cls-30" x="135.49" y="105.79" width="3.83" height="3.83" transform="translate(239.42 -30.12) rotate(90)"/><rect class="cls-31" x="130.9" y="105.88" width="3.83" height="3.83" transform="translate(234.93 -25.44) rotate(90)"/><rect class="cls-32" x="126.32" y="105.79" width="3.83" height="3.83" transform="translate(230.25 -20.94) rotate(90)"/><path class="cls-33" d="M123.49,72.54H70.28a1.4,1.4,0,0,1-1.4-1.4h0a1.39,1.39,0,0,1,1.4-1.4h53.21a1.4,1.4,0,0,1,1.41,1.4h0A1.41,1.41,0,0,1,123.49,72.54Z" transform="translate(-5.69 -0.42)"/><rect class="cls-34" x="50.86" y="87.23" width="2.67" height="1.45"/><rect class="cls-34" x="55.72" y="87.16" width="2.67" height="1.45"/><path class="cls-35" d="M56.86,93.2A1.18,1.18,0,1,1,58,94.38,1.18,1.18,0,0,1,56.86,93.2Z" transform="translate(-5.69 -0.42)"/><path class="cls-36" d="M61.48,93.2a1.18,1.18,0,1,1,1.18,1.18A1.18,1.18,0,0,1,61.48,93.2Z" transform="translate(-5.69 -0.42)"/><rect class="cls-11" x="123.78" y="74.31" width="12.53" height="0.63"/><path class="cls-37" d="M138.83,63.17H56.63A10.67,10.67,0,0,0,48.46,67a10.54,10.54,0,0,1,6.24-2h82.22A10.58,10.58,0,0,1,147.5,75.51v41.26a10.59,10.59,0,0,1-7.06,10,10.69,10.69,0,0,0,9.09-10.58V73.87A10.7,10.7,0,0,0,138.83,63.17Z" transform="translate(-5.69 -0.42)"/><rect class="cls-11" x="123.78" y="76.65" width="12.53" height="0.63"/><rect class="cls-11" x="123.78" y="78.98" width="12.53" height="0.63"/><rect class="cls-11" x="123.78" y="81.32" width="12.53" height="0.63"/><rect class="cls-11" x="124.46" y="92.49" width="0.76" height="9.14"/><rect class="cls-11" x="126.34" y="94.13" width="0.79" height="7.49"/><rect class="cls-11" x="128.15" y="96.42" width="1" height="5.03"/><rect class="cls-11" x="131.72" y="94.13" width="0.79" height="7.49"/><rect class="cls-11" x="133.63" y="92.49" width="0.76" height="9.14"/><rect class="cls-38" x="194.43" y="61.83" width="6.66" height="6.66" transform="translate(397.97 95.78) rotate(170.33)"/><rect class="cls-39" x="138.63" y="51.98" width="60.95" height="1.68" transform="translate(301.93 162.88) rotate(-158.77)"/><rect class="cls-39" x="137.64" y="53.89" width="60.95" height="1.68" transform="matrix(-0.93, -0.36, 0.36, -0.93, 299.31, 166.21)"/><rect class="cls-39" x="180.02" y="89.28" width="48.32" height="1.68" transform="translate(143.92 306.11) rotate(-99.66)"/><rect class="cls-39" x="177.88" y="89.45" width="48.32" height="1.68" transform="translate(141.24 304.2) rotate(-99.66)"/><rect class="cls-40" x="168.64" y="22.81" width="0.58" height="60.95" transform="translate(52.4 191.04) rotate(-68.77)"/><rect class="cls-40" x="167.64" y="24.73" width="0.58" height="60.95" transform="translate(49.98 191.33) rotate(-68.77)"/><polygon class="cls-38" points="195.32 65.74 195.32 65.74 194.03 65.96 202.14 113.6 201.78 113.66 193.66 66.03 195.32 65.74"/><polygon class="cls-38" points="193.16 65.92 193.16 65.92 191.87 66.14 199.98 113.77 199.61 113.84 191.5 66.2 193.16 65.92"/><rect class="cls-39" x="194.86" y="61.26" width="6.66" height="6.66" transform="translate(398.73 94.61) rotate(170.34)"/><path class="cls-41" d="M200.63,64.59A2.44,2.44,0,1,0,198.2,67,2.43,2.43,0,0,0,200.63,64.59Z" transform="translate(-5.69 -0.42)"/><path class="cls-42" d="M119.52,47.78c-.3.72,5.17,3.63,12.2,6.52s13,4.63,13.27,3.92-5.17-3.64-12.2-6.52S119.81,47.06,119.52,47.78Z" transform="translate(-5.69 -0.42)"/><g class="cls-43"><g class="cls-44"><rect class="cls-45" x="113.54" y="46.65" width="26.06" height="11.87"/><path class="cls-45" d="M137,46.56h-7.5v-3a9.67,9.67,0,0,0-5.89,4.65,9.84,9.84,0,0,0,3.9,13.35V59.43H135v3a9.7,9.7,0,0,0,5.89-4.65A9.84,9.84,0,0,0,137,44.44Z" transform="translate(-5.69 -0.42)"/><path class="cls-46" d="M137,46.56h-7.47v-3a9.67,9.67,0,0,0-5.87,4.63,9.81,9.81,0,0,0,3.89,13.31v-2.1H135v3a9.67,9.67,0,0,0,5.87-4.63A9.8,9.8,0,0,0,137,44.47Z" transform="translate(-5.69 -0.42)"/><path class="cls-47" d="M137,46.56h-7.46V43.62a9.66,9.66,0,0,0-5.85,4.62,9.78,9.78,0,0,0,3.88,13.27V59.43H135v3a9.71,9.71,0,0,0,2-17.89Z" transform="translate(-5.69 -0.42)"/><path class="cls-48" d="M137,46.56h-7.44V43.64a9.68,9.68,0,0,0-2,17.84v-2H135v2.92a9.6,9.6,0,0,0,5.83-4.6A9.74,9.74,0,0,0,137,44.52Z" transform="translate(-5.69 -0.42)"/><path class="cls-49" d="M136.94,46.56h-7.41V43.67a9.64,9.64,0,0,0-2,17.78v-2H135v2.89a9.59,9.59,0,0,0,5.82-4.59,9.73,9.73,0,0,0-3.86-13.19Z" transform="translate(-5.69 -0.42)"/><path class="cls-50" d="M136.93,46.56h-7.39V43.7a9.54,9.54,0,0,0-5.8,4.58,9.69,9.69,0,0,0,3.84,13.15v-2H135V62.3a9.54,9.54,0,0,0,5.8-4.58,9.69,9.69,0,0,0-3.84-13.15Z" transform="translate(-5.69 -0.42)"/><path class="cls-51" d="M136.91,46.56h-7.36V43.73a9.51,9.51,0,0,0-5.78,4.56A9.65,9.65,0,0,0,127.6,61.4v-2H135v2.84a9.52,9.52,0,0,0,5.78-4.57,9.65,9.65,0,0,0-3.83-13.11Z" transform="translate(-5.69 -0.42)"/><path class="cls-52" d="M136.9,46.56h-7.35v-2.8a9.45,9.45,0,0,0-5.76,4.55,9.64,9.64,0,0,0,3.82,13.07v-2H135v2.81a9.52,9.52,0,0,0,5.76-4.55,9.64,9.64,0,0,0-3.82-13.07Z" transform="translate(-5.69 -0.42)"/><path class="cls-53" d="M136.89,46.56h-7.33V43.78a9.49,9.49,0,0,0-5.74,4.54,9.59,9.59,0,0,0,3.8,13V59.43H135v2.78a9.47,9.47,0,0,0,5.74-4.53,9.61,9.61,0,0,0-3.8-13Z" transform="translate(-5.69 -0.42)"/><path class="cls-54" d="M136.87,46.56h-7.3V43.81a9.51,9.51,0,0,0-1.93,17.52v-1.9h7.3v2.75a9.44,9.44,0,0,0,5.73-4.52,9.57,9.57,0,0,0-3.8-13Z" transform="translate(-5.69 -0.42)"/><path class="cls-55" d="M136.86,46.56h-7.28V43.84a9.42,9.42,0,0,0-5.71,4.51,9.54,9.54,0,0,0,3.78,12.95V59.43h7.28v2.73a9.48,9.48,0,0,0,1.93-17.46Z" transform="translate(-5.69 -0.42)"/><path class="cls-56" d="M136.84,46.56h-7.25V43.87a9.4,9.4,0,0,0-5.7,4.49,9.52,9.52,0,0,0,3.78,12.92V59.43h7.25v2.7a9.38,9.38,0,0,0,5.7-4.5,9.51,9.51,0,0,0-3.78-12.91Z" transform="translate(-5.69 -0.42)"/><path class="cls-57" d="M136.83,46.56H129.6V43.9a9.32,9.32,0,0,0-5.68,4.48,9.48,9.48,0,0,0,3.76,12.87V59.43h7.23V62.1a9.35,9.35,0,0,0,5.68-4.48,9.48,9.48,0,0,0-3.76-12.87Z" transform="translate(-5.69 -0.42)"/><path class="cls-58" d="M136.82,46.56H129.6V43.92A9.37,9.37,0,0,0,124,48.39a9.47,9.47,0,0,0,3.74,12.84v-1.8h7.22v2.64a9.3,9.3,0,0,0,5.65-4.47,9.46,9.46,0,0,0-3.74-12.83Z" transform="translate(-5.69 -0.42)"/><path class="cls-59" d="M136.8,46.56h-7.19V44a9.36,9.36,0,0,0-1.9,17.25V59.43h7.19V62a9.32,9.32,0,0,0,5.64-4.45A9.42,9.42,0,0,0,136.8,44.8Z" transform="translate(-5.69 -0.42)"/><path class="cls-60" d="M136.79,46.56h-7.17V44A9.26,9.26,0,0,0,124,48.42a9.38,9.38,0,0,0,3.72,12.75V59.43h7.17V62a9.3,9.3,0,0,0,5.62-4.44,9.39,9.39,0,0,0-3.72-12.76Z" transform="translate(-5.69 -0.42)"/><path class="cls-61" d="M136.77,46.56h-7.14V44A9.23,9.23,0,0,0,124,48.44a9.37,9.37,0,0,0,3.72,12.71V59.43h7.14V62a9.26,9.26,0,0,0,5.61-4.43,9.37,9.37,0,0,0-3.72-12.71Z" transform="translate(-5.69 -0.42)"/><path class="cls-62" d="M136.76,46.56h-7.12V44a9.19,9.19,0,0,0-5.59,4.41,9.33,9.33,0,0,0,3.7,12.67V59.43h7.12V62a9.23,9.23,0,0,0,5.59-4.41,9.34,9.34,0,0,0-3.7-12.68Z" transform="translate(-5.69 -0.42)"/><path class="cls-63" d="M136.74,46.56h-7.09v-2.5a9.23,9.23,0,0,0-5.58,4.4,9.32,9.32,0,0,0,3.7,12.64V59.43h7.09v2.5a9.16,9.16,0,0,0,5.58-4.4,9.31,9.31,0,0,0-3.7-12.63Z" transform="translate(-5.69 -0.42)"/><path class="cls-64" d="M136.73,46.56h-7.08V44.09a9.22,9.22,0,0,0-1.87,17V59.43h7.08V61.9a9.16,9.16,0,0,0,5.55-4.38,9.29,9.29,0,0,0-3.68-12.6Z" transform="translate(-5.69 -0.42)"/><path class="cls-65" d="M136.72,46.56h-7.06V44.12a9.11,9.11,0,0,0-5.53,4.37,9.25,9.25,0,0,0,3.66,12.56V59.43h7.06v2.45a9.13,9.13,0,0,0,5.53-4.38A9.24,9.24,0,0,0,136.72,45Z" transform="translate(-5.69 -0.42)"/><path class="cls-66" d="M136.7,46.56h-7V44.15a9.1,9.1,0,0,0-5.52,4.36A9.22,9.22,0,0,0,127.81,61V59.43h7v2.42a9.1,9.1,0,0,0,5.52-4.36A9.22,9.22,0,0,0,136.7,45Z" transform="translate(-5.69 -0.42)"/><path class="cls-67" d="M136.69,46.56h-7V44.18a9,9,0,0,0-5.5,4.34A9.19,9.19,0,0,0,127.82,61V59.43h7v2.39a9.08,9.08,0,0,0,5.5-4.34A9.19,9.19,0,0,0,136.69,45Z" transform="translate(-5.69 -0.42)"/><path class="cls-68" d="M136.67,46.56h-7V44.21a9,9,0,0,0-5.49,4.33A9.15,9.15,0,0,0,127.84,61V59.43h7v2.36a9,9,0,0,0,5.49-4.33A9.15,9.15,0,0,0,136.67,45Z" transform="translate(-5.69 -0.42)"/><path class="cls-69" d="M136.66,46.56h-7V44.23a9.07,9.07,0,0,0-1.84,16.71V59.43h7v2.33a9,9,0,0,0,5.46-4.31,9.14,9.14,0,0,0-3.62-12.4Z" transform="translate(-5.69 -0.42)"/><path class="cls-70" d="M136.65,46.56h-7v-2.3a9,9,0,0,0-1.84,16.66V59.43h7v2.31a9,9,0,0,0,1.84-16.66Z" transform="translate(-5.69 -0.42)"/><path class="cls-71" d="M136.63,46.56h-6.92V44.29a9,9,0,0,0-1.83,16.6V59.43h6.92v2.28a9,9,0,0,0,5.43-4.29,9.07,9.07,0,0,0-3.6-12.32Z" transform="translate(-5.69 -0.42)"/><path class="cls-72" d="M136.62,46.56h-6.9V44.32a8.88,8.88,0,0,0-5.41,4.27,9,9,0,0,0,3.58,12.28V59.43h6.9v2.25a8.9,8.9,0,0,0,5.41-4.28,9,9,0,0,0-3.58-12.27Z" transform="translate(-5.69 -0.42)"/><path class="cls-73" d="M136.6,46.56h-6.87V44.35a8.87,8.87,0,0,0-5.4,4.26,9,9,0,0,0,3.58,12.23V59.43h6.87v2.22a8.87,8.87,0,0,0,5.4-4.26,9,9,0,0,0-3.58-12.24Z" transform="translate(-5.69 -0.42)"/><path class="cls-74" d="M136.59,46.56h-6.85V44.37a8.86,8.86,0,0,0-5.38,4.25,9,9,0,0,0,3.56,12.2V59.43h6.85v2.19a8.85,8.85,0,0,0,5.38-4.24,9,9,0,0,0-3.56-12.2Z" transform="translate(-5.69 -0.42)"/><path class="cls-75" d="M136.58,46.56h-6.84V44.4a8.88,8.88,0,0,0-5.36,4.23,9,9,0,0,0,3.55,12.16V59.43h6.84v2.16a8.88,8.88,0,0,0,5.36-4.23,9,9,0,0,0-3.55-12.16Z" transform="translate(-5.69 -0.42)"/><path class="cls-76" d="M136.56,46.56h-6.81V44.43a8.79,8.79,0,0,0-5.34,4.22A8.93,8.93,0,0,0,128,60.77V59.43h6.81v2.14a8.83,8.83,0,0,0,5.34-4.22,8.93,8.93,0,0,0-3.54-12.12Z" transform="translate(-5.69 -0.42)"/><path class="cls-77" d="M136.55,46.56h-6.79v-2.1a8.8,8.8,0,0,0-5.33,4.2A8.9,8.9,0,0,0,128,60.74V59.43h6.79v2.11a8.83,8.83,0,0,0,1.8-16.28Z" transform="translate(-5.69 -0.42)"/><path class="cls-78" d="M136.53,46.56h-6.76V44.49a8.72,8.72,0,0,0-5.31,4.19,8.87,8.87,0,0,0,3.52,12V59.43h6.76v2.08a8.72,8.72,0,0,0,5.31-4.19,8.87,8.87,0,0,0-3.52-12Z" transform="translate(-5.69 -0.42)"/><path class="cls-79" d="M136.52,46.56h-6.74V44.51a8.74,8.74,0,0,0-5.29,4.18,8.84,8.84,0,0,0,3.5,12V59.43h6.74v2A8.67,8.67,0,0,0,140,57.3a8.83,8.83,0,0,0-3.5-12Z" transform="translate(-5.69 -0.42)"/><path class="cls-80" d="M136.5,46.56h-6.72v-2a8.71,8.71,0,0,0-5.27,4.17A8.81,8.81,0,0,0,128,60.66V59.43h6.72v2A8.69,8.69,0,0,0,140,57.29a8.82,8.82,0,0,0-3.5-12Z" transform="translate(-5.69 -0.42)"/><path class="cls-81" d="M136.49,46.56h-6.7v-2a8.67,8.67,0,0,0-5.25,4.15A8.78,8.78,0,0,0,128,60.64V59.43h6.7v2A8.67,8.67,0,0,0,140,57.28a8.78,8.78,0,0,0-3.48-11.92Z" transform="translate(-5.69 -0.42)"/><path class="cls-82" d="M136.48,46.56H129.8v-2a8.68,8.68,0,0,0-1.77,16V59.43h6.68v2a8.69,8.69,0,0,0,1.77-16Z" transform="translate(-5.69 -0.42)"/><path class="cls-83" d="M136.46,46.56h-6.65V44.63a8.57,8.57,0,0,0-5.22,4.12,8.72,8.72,0,0,0,3.46,11.84V59.43h6.65v1.94a8.6,8.6,0,0,0,5.22-4.12,8.72,8.72,0,0,0-3.46-11.84Z" transform="translate(-5.69 -0.42)"/><path class="cls-84" d="M136.45,45.43a8.65,8.65,0,1,0,3.44,11.8A8.72,8.72,0,0,0,136.45,45.43Z" transform="translate(-5.69 -0.42)"/><path class="cls-85" d="M136.43,45.46a8.62,8.62,0,1,0,3.44,11.76A8.66,8.66,0,0,0,136.43,45.46Z" transform="translate(-5.69 -0.42)"/><path class="cls-86" d="M136.42,45.48a8.59,8.59,0,1,0,3.42,11.72A8.63,8.63,0,0,0,136.42,45.48Z" transform="translate(-5.69 -0.42)"/><ellipse class="cls-87" cx="132.25" cy="53" rx="8.56" ry="8.65" transform="translate(16.03 142.47) rotate(-60.96)"/><path class="cls-88" d="M136.39,45.54a8.53,8.53,0,1,0,3.4,11.64A8.57,8.57,0,0,0,136.39,45.54Z" transform="translate(-5.69 -0.42)"/><path class="cls-89" d="M136.38,45.56a8.51,8.51,0,1,0,3.39,11.6A8.56,8.56,0,0,0,136.38,45.56Z" transform="translate(-5.69 -0.42)"/><path class="cls-90" d="M136.36,45.59a8.47,8.47,0,1,0,3.38,11.56A8.52,8.52,0,0,0,136.36,45.59Z" transform="translate(-5.69 -0.42)"/><ellipse class="cls-91" cx="132.25" cy="53" rx="8.45" ry="8.53" transform="translate(16.13 142.6) rotate(-61.02)"/><path class="cls-92" d="M136.34,45.64a8.42,8.42,0,1,0,3.35,11.48A8.46,8.46,0,0,0,136.34,45.64Z" transform="translate(-5.69 -0.42)"/><path class="cls-93" d="M136.32,45.66a8.39,8.39,0,1,0,3.34,11.45A8.43,8.43,0,0,0,136.32,45.66Z" transform="translate(-5.69 -0.42)"/><path class="cls-94" d="M136.31,45.69a8.36,8.36,0,1,0,3.33,11.4A8.4,8.4,0,0,0,136.31,45.69Z" transform="translate(-5.69 -0.42)"/><path class="cls-95" d="M136.29,45.71a8.33,8.33,0,1,0,3.32,11.37A8.37,8.37,0,0,0,136.29,45.71Z" transform="translate(-5.69 -0.42)"/><path class="cls-96" d="M136.28,45.74a8.3,8.3,0,1,0,3.31,11.32A8.36,8.36,0,0,0,136.28,45.74Z" transform="translate(-5.69 -0.42)"/><path class="cls-97" d="M136.26,45.76a8.27,8.27,0,1,0,3.3,11.29A8.31,8.31,0,0,0,136.26,45.76Z" transform="translate(-5.69 -0.42)"/><path class="cls-98" d="M136.25,45.79A8.24,8.24,0,1,0,139.54,57,8.29,8.29,0,0,0,136.25,45.79Z" transform="translate(-5.69 -0.42)"/><path class="cls-99" d="M136.24,45.82A8.21,8.21,0,1,0,139.51,57,8.26,8.26,0,0,0,136.24,45.82Z" transform="translate(-5.69 -0.42)"/><ellipse class="cls-100" cx="132.25" cy="53" rx="8.18" ry="8.26" transform="translate(16.11 142.57) rotate(-61.01)"/><path class="cls-101" d="M136.21,45.87A8.15,8.15,0,1,0,139.46,57,8.2,8.2,0,0,0,136.21,45.87Z" transform="translate(-5.69 -0.42)"/><path class="cls-102" d="M136.19,45.89A8.12,8.12,0,1,0,139.43,57,8.17,8.17,0,0,0,136.19,45.89Z" transform="translate(-5.69 -0.42)"/><path class="cls-103" d="M136.18,45.92a8.1,8.1,0,1,0,3.23,11A8.14,8.14,0,0,0,136.18,45.92Z" transform="translate(-5.69 -0.42)"/><path class="cls-104" d="M136.17,45.94a8.07,8.07,0,1,0,3.21,11A8.11,8.11,0,0,0,136.17,45.94Z" transform="translate(-5.69 -0.42)"/><path class="cls-105" d="M136.15,46a8,8,0,1,0,3.2,11A8.07,8.07,0,0,0,136.15,46Z" transform="translate(-5.69 -0.42)"/><path class="cls-106" d="M136.14,46a8,8,0,1,0,3.19,10.93A8.06,8.06,0,0,0,136.14,46Z" transform="translate(-5.69 -0.42)"/><path class="cls-107" d="M136.12,46a8,8,0,1,0,3.18,10.89A8,8,0,0,0,136.12,46Z" transform="translate(-5.69 -0.42)"/><path class="cls-108" d="M136.11,46.05a7.95,7.95,0,1,0,3.17,10.84A8,8,0,0,0,136.11,46.05Z" transform="translate(-5.69 -0.42)"/><path class="cls-109" d="M136.09,46.07a7.92,7.92,0,1,0,3.16,10.81A8,8,0,0,0,136.09,46.07Z" transform="translate(-5.69 -0.42)"/><path class="cls-110" d="M136.08,46.1a7.89,7.89,0,1,0,3.15,10.76A7.93,7.93,0,0,0,136.08,46.1Z" transform="translate(-5.69 -0.42)"/><path class="cls-111" d="M136.07,46.12a7.86,7.86,0,1,0,3.13,10.73A7.91,7.91,0,0,0,136.07,46.12Z" transform="translate(-5.69 -0.42)"/><path class="cls-112" d="M136.05,46.15a7.83,7.83,0,1,0,3.12,10.68A7.86,7.86,0,0,0,136.05,46.15Z" transform="translate(-5.69 -0.42)"/><path class="cls-113" d="M136,46.17a7.8,7.8,0,1,0,3.11,10.65A7.85,7.85,0,0,0,136,46.17Z" transform="translate(-5.69 -0.42)"/><path class="cls-114" d="M136,46.2a7.77,7.77,0,1,0,3.1,10.61A7.81,7.81,0,0,0,136,46.2Z" transform="translate(-5.69 -0.42)"/><path class="cls-115" d="M136,46.22a7.75,7.75,0,1,0,3.09,10.57A7.79,7.79,0,0,0,136,46.22Z" transform="translate(-5.69 -0.42)"/><path class="cls-116" d="M136,46.25a7.72,7.72,0,1,0,3.07,10.53A7.75,7.75,0,0,0,136,46.25Z" transform="translate(-5.69 -0.42)"/><path class="cls-117" d="M136,46.27a7.69,7.69,0,1,0,3.07,10.49A7.74,7.74,0,0,0,136,46.27Z" transform="translate(-5.69 -0.42)"/><path class="cls-118" d="M136,46.3A7.66,7.66,0,1,0,139,56.75,7.7,7.7,0,0,0,136,46.3Z" transform="translate(-5.69 -0.42)"/><path class="cls-119" d="M136,46.33a7.63,7.63,0,1,0,3,10.4A7.65,7.65,0,0,0,136,46.33Z" transform="translate(-5.69 -0.42)"/><path class="cls-120" d="M135.94,46.35a7.6,7.6,0,1,0,3,10.37A7.65,7.65,0,0,0,135.94,46.35Z" transform="translate(-5.69 -0.42)"/><path class="cls-121" d="M135.93,46.38a7.57,7.57,0,1,0,3,10.33A7.6,7.6,0,0,0,135.93,46.38Z" transform="translate(-5.69 -0.42)"/><path class="cls-122" d="M135.91,46.4a7.54,7.54,0,1,0,3,10.29A7.58,7.58,0,0,0,135.91,46.4Z" transform="translate(-5.69 -0.42)"/><path class="cls-123" d="M135.9,46.43a7.51,7.51,0,1,0,3,10.25A7.55,7.55,0,0,0,135.9,46.43Z" transform="translate(-5.69 -0.42)"/><path class="cls-124" d="M135.88,46.45a7.48,7.48,0,1,0,3,10.21A7.53,7.53,0,0,0,135.88,46.45Z" transform="translate(-5.69 -0.42)"/><path class="cls-125" d="M135.87,46.48a7.46,7.46,0,1,0,3,10.17A7.49,7.49,0,0,0,135.87,46.48Z" transform="translate(-5.69 -0.42)"/><path class="cls-126" d="M135.86,46.5a7.43,7.43,0,1,0,2.95,10.13A7.47,7.47,0,0,0,135.86,46.5Z" transform="translate(-5.69 -0.42)"/><path class="cls-127" d="M135.84,46.53a7.4,7.4,0,1,0,2.95,10.09A7.43,7.43,0,0,0,135.84,46.53Z" transform="translate(-5.69 -0.42)"/><ellipse class="cls-128" cx="132.25" cy="53" rx="7.37" ry="7.44" transform="translate(16.14 142.62) rotate(-61.03)"/><path class="cls-129" d="M135.81,46.58a7.34,7.34,0,1,0,2.93,10A7.38,7.38,0,0,0,135.81,46.58Z" transform="translate(-5.69 -0.42)"/><path class="cls-130" d="M135.8,46.61a7.31,7.31,0,1,0,2.91,10A7.34,7.34,0,0,0,135.8,46.61Z" transform="translate(-5.69 -0.42)"/><path class="cls-131" d="M135.78,46.63a7.28,7.28,0,1,0,2.91,9.93A7.32,7.32,0,0,0,135.78,46.63Z" transform="translate(-5.69 -0.42)"/><ellipse class="cls-132" cx="132.25" cy="53" rx="7.25" ry="7.32" transform="translate(16.21 142.69) rotate(-61.07)"/><path class="cls-133" d="M135.76,46.68a7.22,7.22,0,1,0,2.87,9.85A7.26,7.26,0,0,0,135.76,46.68Z" transform="translate(-5.69 -0.42)"/><path class="cls-134" d="M135.74,46.71a7.19,7.19,0,1,0,2.87,9.81A7.22,7.22,0,0,0,135.74,46.71Z" transform="translate(-5.69 -0.42)"/><path class="cls-135" d="M135.73,46.73a7.16,7.16,0,1,0,2.85,9.78A7.2,7.2,0,0,0,135.73,46.73Z" transform="translate(-5.69 -0.42)"/><path class="cls-136" d="M135.71,46.76a7.13,7.13,0,1,0,2.85,9.73A7.17,7.17,0,0,0,135.71,46.76Z" transform="translate(-5.69 -0.42)"/><path class="cls-137" d="M135.7,46.78a7.11,7.11,0,1,0,2.83,9.7A7.14,7.14,0,0,0,135.7,46.78Z" transform="translate(-5.69 -0.42)"/><path class="cls-138" d="M135.69,46.81a7.08,7.08,0,1,0,2.82,9.65A7.13,7.13,0,0,0,135.69,46.81Z" transform="translate(-5.69 -0.42)"/><ellipse class="cls-139" cx="132.25" cy="53" rx="7.05" ry="7.12" transform="translate(16.19 142.67) rotate(-61.06)"/><path class="cls-140" d="M135.66,46.86a7,7,0,1,0,2.79,9.57A7,7,0,0,0,135.66,46.86Z" transform="translate(-5.69 -0.42)"/><path class="cls-141" d="M135.64,46.89a7,7,0,1,0,2.79,9.53A7,7,0,0,0,135.64,46.89Z" transform="translate(-5.69 -0.42)"/><path class="cls-142" d="M135.63,46.91a7,7,0,1,0,2.77,9.5A7,7,0,0,0,135.63,46.91Z" transform="translate(-5.69 -0.42)"/><path class="cls-143" d="M135.61,46.94a6.93,6.93,0,1,0,2.77,9.45A7,7,0,0,0,135.61,46.94Z" transform="translate(-5.69 -0.42)"/><path class="cls-144" d="M135.6,47a6.9,6.9,0,1,0,2.75,9.42A6.94,6.94,0,0,0,135.6,47Z" transform="translate(-5.69 -0.42)"/><path class="cls-145" d="M135.59,47a6.87,6.87,0,1,0,2.74,9.37A6.91,6.91,0,0,0,135.59,47Z" transform="translate(-5.69 -0.42)"/><path class="cls-146" d="M135.57,47a6.84,6.84,0,1,0,2.73,9.34A6.87,6.87,0,0,0,135.57,47Z" transform="translate(-5.69 -0.42)"/><path class="cls-147" d="M135.56,47a6.82,6.82,0,1,0,2.71,9.29A6.85,6.85,0,0,0,135.56,47Z" transform="translate(-5.69 -0.42)"/><path class="cls-148" d="M135.54,47.06a6.78,6.78,0,1,0,2.71,9.26A6.82,6.82,0,0,0,135.54,47.06Z" transform="translate(-5.69 -0.42)"/><path class="cls-149" d="M135.53,47.09a6.76,6.76,0,1,0,2.69,9.22A6.79,6.79,0,0,0,135.53,47.09Z" transform="translate(-5.69 -0.42)"/><path class="cls-150" d="M135.52,47.12a6.73,6.73,0,1,0,2.68,9.17A6.77,6.77,0,0,0,135.52,47.12Z" transform="translate(-5.69 -0.42)"/><path class="cls-151" d="M135.5,47.14a6.7,6.7,0,1,0,2.67,9.14A6.72,6.72,0,0,0,135.5,47.14Z" transform="translate(-5.69 -0.42)"/><ellipse class="cls-152" cx="132.25" cy="53" rx="6.67" ry="6.74" transform="translate(16.04 142.49) rotate(-60.96)"/><path class="cls-153" d="M135.47,47.19a6.64,6.64,0,1,0,2.65,9.06A6.67,6.67,0,0,0,135.47,47.19Z" transform="translate(-5.69 -0.42)"/><path class="cls-154" d="M135.46,47.22a6.61,6.61,0,1,0,2.63,9A6.64,6.64,0,0,0,135.46,47.22Z" transform="translate(-5.69 -0.42)"/><ellipse class="cls-155" cx="132.25" cy="53" rx="6.58" ry="6.65" transform="translate(16.11 142.58) rotate(-61.01)"/><ellipse class="cls-156" cx="132.25" cy="53" rx="6.55" ry="6.62" transform="translate(16.19 142.68) rotate(-61.06)"/><path class="cls-157" d="M135.42,47.29a6.52,6.52,0,1,0,2.6,8.9A6.56,6.56,0,0,0,135.42,47.29Z" transform="translate(-5.69 -0.42)"/><path class="cls-158" d="M135.4,47.32A6.49,6.49,0,1,0,138,56.18,6.52,6.52,0,0,0,135.4,47.32Z" transform="translate(-5.69 -0.42)"/><path class="cls-159" d="M135.39,47.34A6.47,6.47,0,1,0,138,56.16,6.52,6.52,0,0,0,135.39,47.34Z" transform="translate(-5.69 -0.42)"/><path class="cls-160" d="M135.38,47.37a6.44,6.44,0,1,0,2.56,8.78A6.47,6.47,0,0,0,135.38,47.37Z" transform="translate(-5.69 -0.42)"/><path class="cls-161" d="M135.36,47.4a6.4,6.4,0,1,0,2.55,8.74A6.43,6.43,0,0,0,135.36,47.4Z" transform="translate(-5.69 -0.42)"/><path class="cls-162" d="M135.35,47.42a6.38,6.38,0,1,0,2.54,8.7A6.42,6.42,0,0,0,135.35,47.42Z" transform="translate(-5.69 -0.42)"/><path class="cls-163" d="M135.33,47.45a6.35,6.35,0,1,0,2.53,8.66A6.37,6.37,0,0,0,135.33,47.45Z" transform="translate(-5.69 -0.42)"/><path class="cls-164" d="M135.32,47.47a6.32,6.32,0,1,0,2.52,8.62A6.36,6.36,0,0,0,135.32,47.47Z" transform="translate(-5.69 -0.42)"/><path class="cls-165" d="M135.3,47.5a6.29,6.29,0,1,0,2.51,8.58A6.31,6.31,0,0,0,135.3,47.5Z" transform="translate(-5.69 -0.42)"/><path class="cls-166" d="M135.29,47.52a6.26,6.26,0,1,0,2.5,8.54A6.31,6.31,0,0,0,135.29,47.52Z" transform="translate(-5.69 -0.42)"/><path class="cls-167" d="M135.28,47.55a6.23,6.23,0,1,0,2.48,8.5A6.26,6.26,0,0,0,135.28,47.55Z" transform="translate(-5.69 -0.42)"/><path class="cls-168" d="M135.26,47.57A6.2,6.2,0,1,0,137.73,56,6.24,6.24,0,0,0,135.26,47.57Z" transform="translate(-5.69 -0.42)"/><path class="cls-169" d="M135.25,47.6A6.18,6.18,0,1,0,137.71,56,6.2,6.2,0,0,0,135.25,47.6Z" transform="translate(-5.69 -0.42)"/><path class="cls-170" d="M135.23,47.62A6.14,6.14,0,1,0,137.68,56,6.17,6.17,0,0,0,135.23,47.62Z" transform="translate(-5.69 -0.42)"/><ellipse class="cls-171" cx="132.25" cy="53" rx="6.12" ry="6.18" transform="translate(16.12 142.59) rotate(-61.02)"/><path class="cls-172" d="M135.21,47.68a6.09,6.09,0,1,0,2.42,8.3A6.12,6.12,0,0,0,135.21,47.68Z" transform="translate(-5.69 -0.42)"/><path class="cls-173" d="M135.19,47.7A6.06,6.06,0,1,0,137.61,56,6.1,6.1,0,0,0,135.19,47.7Z" transform="translate(-5.69 -0.42)"/><path class="cls-174" d="M135.18,47.73a6,6,0,1,0,2.4,8.22A6.05,6.05,0,0,0,135.18,47.73Z" transform="translate(-5.69 -0.42)"/><ellipse class="cls-175" cx="132.25" cy="53" rx="6" ry="6.06" transform="translate(16.17 142.65) rotate(-61.05)"/><path class="cls-176" d="M135.15,47.78a6,6,0,1,0,2.38,8.14A6,6,0,0,0,135.15,47.78Z" transform="translate(-5.69 -0.42)"/><path class="cls-177" d="M135.13,47.8a5.94,5.94,0,1,0,2.37,8.11A6,6,0,0,0,135.13,47.8Z" transform="translate(-5.69 -0.42)"/><path class="cls-178" d="M135.12,47.83a5.91,5.91,0,1,0,2.36,8.06A5.95,5.95,0,0,0,135.12,47.83Z" transform="translate(-5.69 -0.42)"/><path class="cls-179" d="M135.11,47.85a5.88,5.88,0,1,0,2.34,8A5.92,5.92,0,0,0,135.11,47.85Z" transform="translate(-5.69 -0.42)"/><path class="cls-180" d="M135.09,47.88a5.85,5.85,0,1,0,2.34,8A5.89,5.89,0,0,0,135.09,47.88Z" transform="translate(-5.69 -0.42)"/><path class="cls-181" d="M135.08,47.9a5.83,5.83,0,1,0,2.32,8A5.86,5.86,0,0,0,135.08,47.9Z" transform="translate(-5.69 -0.42)"/><path class="cls-182" d="M135.06,47.93a5.79,5.79,0,1,0,2.31,7.91A5.81,5.81,0,0,0,135.06,47.93Z" transform="translate(-5.69 -0.42)"/><path class="cls-183" d="M135.05,48a5.76,5.76,0,1,0,2.3,7.86A5.79,5.79,0,0,0,135.05,48Z" transform="translate(-5.69 -0.42)"/><ellipse class="cls-184" cx="132.25" cy="53" rx="5.74" ry="5.79" transform="translate(16.2 142.69) rotate(-61.07)"/><path class="cls-185" d="M135,48a5.71,5.71,0,1,0,2.28,7.78A5.74,5.74,0,0,0,135,48Z" transform="translate(-5.69 -0.42)"/><path class="cls-186" d="M135,48a5.68,5.68,0,1,0,2.26,7.75A5.71,5.71,0,0,0,135,48Z" transform="translate(-5.69 -0.42)"/><path class="cls-187" d="M135,48.06a5.65,5.65,0,1,0,2.26,7.7A5.68,5.68,0,0,0,135,48.06Z" transform="translate(-5.69 -0.42)"/><path class="cls-188" d="M135,48.08a5.62,5.62,0,1,0,2.24,7.67A5.65,5.65,0,0,0,135,48.08Z" transform="translate(-5.69 -0.42)"/><path class="cls-189" d="M135,48.11a5.59,5.59,0,1,0,2.22,7.63A5.62,5.62,0,0,0,135,48.11Z" transform="translate(-5.69 -0.42)"/><path class="cls-190" d="M135,48.13a5.56,5.56,0,1,0,2.22,7.59A5.6,5.6,0,0,0,135,48.13Z" transform="translate(-5.69 -0.42)"/><path class="cls-191" d="M134.94,48.16a5.54,5.54,0,1,0,2.2,7.55A5.56,5.56,0,0,0,134.94,48.16Z" transform="translate(-5.69 -0.42)"/><path class="cls-192" d="M134.92,48.18a5.5,5.5,0,1,0,2.2,7.51A5.55,5.55,0,0,0,134.92,48.18Z" transform="translate(-5.69 -0.42)"/><path class="cls-193" d="M134.91,48.21a5.48,5.48,0,1,0,2.18,7.47A5.5,5.5,0,0,0,134.91,48.21Z" transform="translate(-5.69 -0.42)"/><path class="cls-194" d="M134.9,48.24a5.45,5.45,0,1,0,2.17,7.42A5.48,5.48,0,0,0,134.9,48.24Z" transform="translate(-5.69 -0.42)"/><ellipse class="cls-195" cx="132.25" cy="53" rx="5.42" ry="5.47" transform="translate(16.1 142.57) rotate(-61.01)"/><path class="cls-196" d="M134.87,48.29A5.39,5.39,0,1,0,137,55.64,5.41,5.41,0,0,0,134.87,48.29Z" transform="translate(-5.69 -0.42)"/><path class="cls-197" d="M134.85,48.31A5.36,5.36,0,1,0,137,55.62,5.39,5.39,0,0,0,134.85,48.31Z" transform="translate(-5.69 -0.42)"/><path class="cls-198" d="M134.84,48.34A5.33,5.33,0,1,0,137,55.61,5.35,5.35,0,0,0,134.84,48.34Z" transform="translate(-5.69 -0.42)"/><ellipse class="cls-199" cx="132.25" cy="53" rx="5.3" ry="5.35" transform="translate(16.17 142.66) rotate(-61.05)"/><path class="cls-200" d="M134.81,48.39a5.27,5.27,0,1,0,2.1,7.19A5.29,5.29,0,0,0,134.81,48.39Z" transform="translate(-5.69 -0.42)"/><path class="cls-201" d="M134.8,48.41a5.24,5.24,0,1,0,2.09,7.16A5.29,5.29,0,0,0,134.8,48.41Z" transform="translate(-5.69 -0.42)"/><path class="cls-202" d="M134.78,48.44a5.21,5.21,0,1,0,2.08,7.11A5.24,5.24,0,0,0,134.78,48.44Z" transform="translate(-5.69 -0.42)"/><path class="cls-203" d="M134.77,48.47a5.18,5.18,0,1,0,2.06,7.07A5.2,5.2,0,0,0,134.77,48.47Z" transform="translate(-5.69 -0.42)"/><path class="cls-204" d="M134.75,48.49a5.15,5.15,0,1,0,2.06,7A5.18,5.18,0,0,0,134.75,48.49Z" transform="translate(-5.69 -0.42)"/><path class="cls-205" d="M134.74,48.52a5.12,5.12,0,1,0,2,7A5.14,5.14,0,0,0,134.74,48.52Z" transform="translate(-5.69 -0.42)"/><path class="cls-206" d="M134.73,48.54a5.1,5.1,0,1,0,2,7A5.13,5.13,0,0,0,134.73,48.54Z" transform="translate(-5.69 -0.42)"/><path class="cls-207" d="M134.71,48.57a5.07,5.07,0,1,0,2,6.91A5.09,5.09,0,0,0,134.71,48.57Z" transform="translate(-5.69 -0.42)"/><path class="cls-208" d="M134.7,48.59a5,5,0,1,0,2,6.88A5.08,5.08,0,0,0,134.7,48.59Z" transform="translate(-5.69 -0.42)"/><path class="cls-209" d="M134.68,48.62a5,5,0,1,0,2,6.83A5,5,0,0,0,134.68,48.62Z" transform="translate(-5.69 -0.42)"/><path class="cls-210" d="M134.67,48.64a5,5,0,1,0,2,6.8A5,5,0,0,0,134.67,48.64Z" transform="translate(-5.69 -0.42)"/><path class="cls-211" d="M134.66,48.67a5,5,0,1,0,2,6.75A5,5,0,0,0,134.66,48.67Z" transform="translate(-5.69 -0.42)"/><path class="cls-212" d="M134.64,48.69a4.92,4.92,0,1,0,2,6.72A4.94,4.94,0,0,0,134.64,48.69Z" transform="translate(-5.69 -0.42)"/><path class="cls-212" d="M134.63,48.72a4.9,4.9,0,1,0,2,6.67A4.93,4.93,0,0,0,134.63,48.72Z" transform="translate(-5.69 -0.42)"/><path class="cls-213" d="M134.57,48.82a4.78,4.78,0,1,0,1.91,6.52A4.8,4.8,0,0,0,134.57,48.82Z" transform="translate(-5.69 -0.42)"/><path class="cls-214" d="M134.52,48.91a4.67,4.67,0,1,0,1.86,6.38A4.7,4.7,0,0,0,134.52,48.91Z" transform="translate(-5.69 -0.42)"/><path class="cls-215" d="M134.47,49a4.56,4.56,0,1,0,1.81,6.22A4.58,4.58,0,0,0,134.47,49Z" transform="translate(-5.69 -0.42)"/><path class="cls-216" d="M134.41,49.11a4.45,4.45,0,1,0,1.77,6.07A4.46,4.46,0,0,0,134.41,49.11Z" transform="translate(-5.69 -0.42)"/><path class="cls-217" d="M134.36,49.21a4.34,4.34,0,1,0,1.73,5.91A4.36,4.36,0,0,0,134.36,49.21Z" transform="translate(-5.69 -0.42)"/><path class="cls-218" d="M134.3,49.3A4.22,4.22,0,1,0,136,55.07,4.25,4.25,0,0,0,134.3,49.3Z" transform="translate(-5.69 -0.42)"/><path class="cls-219" d="M134.25,49.4A4.12,4.12,0,1,0,135.89,55,4.14,4.14,0,0,0,134.25,49.4Z" transform="translate(-5.69 -0.42)"/><path class="cls-220" d="M134.2,49.5A4,4,0,1,0,135.79,55,4,4,0,0,0,134.2,49.5Z" transform="translate(-5.69 -0.42)"/><path class="cls-221" d="M134.14,49.59a3.89,3.89,0,1,0,1.55,5.31A3.91,3.91,0,0,0,134.14,49.59Z" transform="translate(-5.69 -0.42)"/><path class="cls-222" d="M134.09,49.69a3.78,3.78,0,1,0,1.5,5.16A3.8,3.8,0,0,0,134.09,49.69Z" transform="translate(-5.69 -0.42)"/><path class="cls-223" d="M134,49.79a3.67,3.67,0,1,0,1.47,5A3.69,3.69,0,0,0,134,49.79Z" transform="translate(-5.69 -0.42)"/><path class="cls-224" d="M134,49.89a3.56,3.56,0,1,0,1.42,4.85A3.57,3.57,0,0,0,134,49.89Z" transform="translate(-5.69 -0.42)"/><path class="cls-225" d="M133.93,50a3.45,3.45,0,1,0,1.37,4.71A3.47,3.47,0,0,0,133.93,50Z" transform="translate(-5.69 -0.42)"/><path class="cls-226" d="M133.87,50.08a3.34,3.34,0,1,0,1.33,4.55A3.34,3.34,0,0,0,133.87,50.08Z" transform="translate(-5.69 -0.42)"/><path class="cls-227" d="M133.82,50.18a3.23,3.23,0,1,0,1.28,4.4A3.24,3.24,0,0,0,133.82,50.18Z" transform="translate(-5.69 -0.42)"/><path class="cls-228" d="M133.76,50.28A3.11,3.11,0,1,0,135,54.52,3.13,3.13,0,0,0,133.76,50.28Z" transform="translate(-5.69 -0.42)"/><path class="cls-229" d="M133.71,50.37a3,3,0,1,0,1.2,4.1A3,3,0,0,0,133.71,50.37Z" transform="translate(-5.69 -0.42)"/><path class="cls-230" d="M133.66,50.47a2.89,2.89,0,1,0,1.15,3.94A2.92,2.92,0,0,0,133.66,50.47Z" transform="translate(-5.69 -0.42)"/><path class="cls-231" d="M133.6,50.57a2.78,2.78,0,1,0,1.11,3.79A2.79,2.79,0,0,0,133.6,50.57Z" transform="translate(-5.69 -0.42)"/><path class="cls-232" d="M133.55,50.66a2.67,2.67,0,1,0,1.06,3.64A2.68,2.68,0,0,0,133.55,50.66Z" transform="translate(-5.69 -0.42)"/><path class="cls-233" d="M133.49,50.76a2.56,2.56,0,1,0,1,3.49A2.56,2.56,0,0,0,133.49,50.76Z" transform="translate(-5.69 -0.42)"/><path class="cls-234" d="M133.44,50.86a2.45,2.45,0,1,0,1,3.34A2.47,2.47,0,0,0,133.44,50.86Z" transform="translate(-5.69 -0.42)"/><path class="cls-235" d="M133.39,51a2.33,2.33,0,1,0,.93,3.18A2.35,2.35,0,0,0,133.39,51Z" transform="translate(-5.69 -0.42)"/><path class="cls-236" d="M133.33,51.05a2.22,2.22,0,1,0,.89,3A2.24,2.24,0,0,0,133.33,51.05Z" transform="translate(-5.69 -0.42)"/><path class="cls-237" d="M133.28,51.15a2.12,2.12,0,1,0,.84,2.88A2.12,2.12,0,0,0,133.28,51.15Z" transform="translate(-5.69 -0.42)"/><path class="cls-238" d="M133.23,51.25A2,2,0,1,0,134,54,2,2,0,0,0,133.23,51.25Z" transform="translate(-5.69 -0.42)"/><path class="cls-239" d="M133.17,51.35a1.89,1.89,0,1,0,.75,2.57A1.88,1.88,0,0,0,133.17,51.35Z" transform="translate(-5.69 -0.42)"/><path class="cls-240" d="M133.12,51.44a1.78,1.78,0,1,0,.71,2.43A1.8,1.8,0,0,0,133.12,51.44Z" transform="translate(-5.69 -0.42)"/><path class="cls-241" d="M133.06,51.54a1.67,1.67,0,1,0,.67,2.27A1.68,1.68,0,0,0,133.06,51.54Z" transform="translate(-5.69 -0.42)"/><path class="cls-242" d="M133,51.64a1.56,1.56,0,1,0,.62,2.12A1.56,1.56,0,0,0,133,51.64Z" transform="translate(-5.69 -0.42)"/><path class="cls-243" d="M133,51.73a1.45,1.45,0,1,0,.57,2A1.46,1.46,0,0,0,133,51.73Z" transform="translate(-5.69 -0.42)"/><path class="cls-244" d="M132.9,51.83a1.34,1.34,0,0,0-1.82.51,1.35,1.35,0,0,0,.53,1.83,1.34,1.34,0,1,0,1.29-2.34Z" transform="translate(-5.69 -0.42)"/><path class="cls-245" d="M132.85,51.93a1.22,1.22,0,1,0,.49,1.67A1.24,1.24,0,0,0,132.85,51.93Z" transform="translate(-5.69 -0.42)"/><ellipse class="cls-246" cx="132.25" cy="53" rx="1.11" ry="1.12" transform="translate(17.07 143.74) rotate(-61.61)"/><path class="cls-247" d="M132.74,52.12a1,1,0,0,0-1.37.39,1,1,0,0,0,.4,1.36,1,1,0,1,0,1-1.75Z" transform="translate(-5.69 -0.42)"/><path class="cls-248" d="M132.69,52.22a.89.89,0,1,0,.35,1.21A.9.9,0,0,0,132.69,52.22Z" transform="translate(-5.69 -0.42)"/><path class="cls-249" d="M132.63,52.32a.78.78,0,1,0,.31,1.06A.77.77,0,0,0,132.63,52.32Z" transform="translate(-5.69 -0.42)"/><path class="cls-250" d="M132.58,52.42a.66.66,0,0,0-.91.25.67.67,0,0,0,.26.91.66.66,0,1,0,.65-1.16Z" transform="translate(-5.69 -0.42)"/><path class="cls-251" d="M132.52,52.51a.55.55,0,1,0,.23.76A.56.56,0,0,0,132.52,52.51Z" transform="translate(-5.69 -0.42)"/><path class="cls-252" d="M132.47,52.61a.45.45,0,0,0-.61.17.45.45,0,0,0,.18.61.45.45,0,0,0,.61-.17A.45.45,0,0,0,132.47,52.61Z" transform="translate(-5.69 -0.42)"/><path class="cls-253" d="M132.42,52.71a.33.33,0,1,0,.13.45A.33.33,0,0,0,132.42,52.71Z" transform="translate(-5.69 -0.42)"/><path class="cls-254" d="M132.36,52.8a.22.22,0,0,0-.21.39.22.22,0,0,0,.3-.08A.23.23,0,0,0,132.36,52.8Z" transform="translate(-5.69 -0.42)"/><path class="cls-255" d="M132.31,52.9a.11.11,0,0,0-.15,0,.12.12,0,0,0,0,.16.11.11,0,0,0,.15-.05A.11.11,0,0,0,132.31,52.9Z" transform="translate(-5.69 -0.42)"/></g></g><path class="cls-256" d="M136.4,32.63l7.81,3.43,2.39-8a1.33,1.33,0,0,0-.74-1.59L142,24.79a1.15,1.15,0,0,0-1.47.49Z" transform="translate(-5.69 -0.42)"/><path class="cls-257" d="M137.18,31.43a11.78,11.78,0,0,1,3.71.86,11.59,11.59,0,0,1,3.6,2.36l-.5,1.69a11.62,11.62,0,0,0-7.65-3.42Z" transform="translate(-5.69 -0.42)"/><path class="cls-258" d="M144.77,58.26,119.63,47.84a20.33,20.33,0,0,1,1.16-3.79c3.6-8.71,12.31-13.37,19.45-10.42s10,12.42,6.39,21.13A21.2,21.2,0,0,1,144.77,58.26Z" transform="translate(-5.69 -0.42)"/><path class="cls-259" d="M208.68,112.08a11.45,11.45,0,0,1,11.66,11.24H197A11.45,11.45,0,0,1,208.68,112.08Z" transform="translate(-5.69 -0.42)"/><rect class="cls-260" x="195.93" y="123.32" width="25.37" height="2.46" transform="translate(411.55 248.69) rotate(180)"/><path class="cls-261" d="M126.43,127.38h40.88a4.1,4.1,0,0,1,4.1,4.1v1.91a4.1,4.1,0,0,1-4.1,4.1H126.43a4.09,4.09,0,0,1-4.09-4.09v-1.91a4.09,4.09,0,0,1,4.09-4.09Z"/><rect class="cls-11" x="124.97" y="129.33" width="22.4" height="6.19"/><rect class="cls-11" x="154.62" y="129.33" width="1.14" height="6.19"/><rect class="cls-11" x="158.04" y="129.33" width="1.14" height="6.19"/><rect class="cls-11" x="161.22" y="129.33" width="1.14" height="6.19"/><rect class="cls-262" x="115.65" y="117.04" width="49.07" height="10.1" rx="4.1"/><rect class="cls-11" x="118.28" y="118.99" width="22.4" height="6.19"/><rect class="cls-11" x="147.94" y="118.99" width="1.14" height="6.19"/><rect class="cls-11" x="151.36" y="118.99" width="1.14" height="6.19"/><rect class="cls-11" x="154.53" y="118.99" width="1.14" height="6.19"/><rect class="cls-263" x="126.75" y="107.14" width="48.74" height="10.03" rx="3.4"/><rect class="cls-11" x="129.37" y="109.08" width="22.25" height="6.15"/><rect class="cls-11" x="158.82" y="109.08" width="1.13" height="6.15"/><rect class="cls-11" x="162.22" y="109.08" width="1.13" height="6.15"/><rect class="cls-11" x="165.38" y="109.08" width="1.13" height="6.15"/><path class="cls-264" d="M51.6,109.27V77.94a9.06,9.06,0,0,1,9-9.06H138a9,9,0,0,1,5.59,2,9,9,0,0,0-7.17-3.53H59.08a9,9,0,0,0-9,9v31.33a9,9,0,0,0,3.46,7.11A9,9,0,0,1,51.6,109.27Z" transform="translate(-5.69 -0.42)"/><path class="cls-265" d="M120.79,94.35H105.28l.18-.2,15.33-17.67Zm-15-.25h14.73v-17Z" transform="translate(-5.69 -0.42)"/><polygon class="cls-266" points="116.56 95.29 96.81 95.29 96.81 95.05 116.32 95.05 116.32 71.42 116.56 71.42 116.56 95.29"/><rect class="cls-267" x="67.1" y="101.12" width="48.55" height="0.11"/><rect class="cls-268" x="67.1" y="100.35" width="0.16" height="0.86"/><rect class="cls-269" x="69.65" y="100.35" width="0.16" height="0.86"/><rect class="cls-270" x="72.2" y="100.35" width="0.16" height="0.86"/><rect class="cls-271" x="74.75" y="100.35" width="0.16" height="0.86"/><rect class="cls-272" x="77.3" y="100.35" width="0.16" height="0.86"/><rect class="cls-273" x="79.85" y="100.35" width="0.16" height="0.86"/><rect class="cls-274" x="82.4" y="100.35" width="0.16" height="0.86"/><rect class="cls-275" x="84.96" y="100.35" width="0.16" height="0.86"/><rect class="cls-276" x="87.51" y="100.35" width="0.16" height="0.86"/><rect class="cls-277" x="90.06" y="100.35" width="0.16" height="0.86"/><rect class="cls-278" x="92.61" y="100.35" width="0.16" height="0.86"/><rect class="cls-279" x="95.16" y="100.35" width="0.16" height="0.86"/><rect class="cls-280" x="97.71" y="100.35" width="0.16" height="0.86"/><rect class="cls-281" x="100.26" y="100.35" width="0.16" height="0.86"/><rect class="cls-282" x="102.81" y="100.35" width="0.16" height="0.86"/><rect class="cls-283" x="105.36" y="100.35" width="0.16" height="0.86"/><rect class="cls-284" x="107.91" y="100.35" width="0.16" height="0.86"/><rect class="cls-285" x="110.46" y="100.35" width="0.16" height="0.86"/><rect class="cls-286" x="113.01" y="100.35" width="0.16" height="0.86"/><rect class="cls-287" x="115.57" y="100.35" width="0.16" height="0.86"/><path class="cls-288" d="M80.52,84.06a4.34,4.34,0,1,1,4.34-4.34A4.35,4.35,0,0,1,80.52,84.06Zm0-8.53a4.19,4.19,0,1,0,4.18,4.19A4.19,4.19,0,0,0,80.52,75.53Z" transform="translate(-5.69 -0.42)"/><path class="cls-289" d="M80.44,84.17V79.64H85Zm.16-4.38v4l4-4Z" transform="translate(-5.69 -0.42)"/><rect class="cls-290" x="66.22" y="72.86" width="17.68" height="1.34"/><rect class="cls-291" x="82.53" y="75.99" width="23.3" height="1.34"/><rect class="cls-292" x="82.53" y="79.64" width="23.3" height="1.34"/><rect class="cls-293" x="82.53" y="83.3" width="23.3" height="1.34"/><rect class="cls-294" x="93.14" y="96.31" width="23.3" height="1.34"/><rect class="cls-295" x="87.32" y="86.95" width="13.02" height="1.34"/><rect class="cls-296" x="87.32" y="90.6" width="13.02" height="1.34"/><path class="cls-297" d="M51.94,58.58a2.44,2.44,0,0,0,0,1.54,4.45,4.45,0,0,0,1.27,2.59c.7.6,1.31.51,3.88.75a17.92,17.92,0,0,1,4,.64c3.05,1.14,2.7,2.1,2.66,4.56A19.42,19.42,0,0,0,64,71.87c.64,4.38,1.3,5.47,1.3,5.47l1.36-.08.23-4.69c.21-4.35,1-8,.28-9.35a5.39,5.39,0,0,0-2.93-2.92,31.47,31.47,0,0,0-6.45-2.14C56.9,58,52.76,57.09,51.94,58.58Z" transform="translate(-5.69 -0.42)"/><path class="cls-298" d="M57.86,45.74c-.17.24.14.5.12,1.16s-.37,1-.21,1.2,1.25.52,1.37,0A3.34,3.34,0,0,0,59,45.71C58.78,45.34,58.05,45.48,57.86,45.74Z" transform="translate(-5.69 -0.42)"/><path class="cls-299" d="M56.6,41.11a2.87,2.87,0,0,0-.78,2.72c.31,1.84,2.22,2.62,3.86,2.93,1,.2,1.63-2.06,1.39-3.39C60.69,41.22,58.53,39.78,56.6,41.11Z" transform="translate(-5.69 -0.42)"/><path class="cls-298" d="M56.91,47.51a7.92,7.92,0,0,0-5.54,4.42c-1.12,2.07,4,1.53,4.9.88a6.72,6.72,0,0,1,5.14-1.53c2.19.42,3.51,2.32,3.26,3.7-.28,1.55-2.61,2-2.53,2.25s3.3.31,4.18-1.85-1.58-4.8-5-7.15A6,6,0,0,0,56.91,47.51Z" transform="translate(-5.69 -0.42)"/><path class="cls-300" d="M65.9,76.54s-.67-1.09-1.31-5.47a22,22,0,0,1-.27-3.21c.05-2.46.39-3.42-2.65-4.57a18.46,18.46,0,0,0-4-.63c-2.57-.25-3.19-.15-3.89-.76a4.56,4.56,0,0,1-1.27-2.59,3.81,3.81,0,0,1-.07-1.26,1.23,1.23,0,0,0-.52.49,2.44,2.44,0,0,0,0,1.54,4.43,4.43,0,0,0,1.27,2.59c.7.61,1.31.51,3.88.75a17.92,17.92,0,0,1,4,.64c3.05,1.14,2.7,2.11,2.66,4.56A19.42,19.42,0,0,0,64,71.83c.64,4.39,1.3,5.48,1.3,5.48l1.36-.09s0-.28,0-.73Z" transform="translate(-5.69 -0.42)"/><path class="cls-301" d="M54.3,53.21a6.47,6.47,0,0,0-2.59-.84c-.59,0-.85-.08-.85-.08A11.6,11.6,0,0,1,53.3,49a7.68,7.68,0,0,1,4.43-1.65c.2,0-.06.33,0,.78s.68.57.93.53c.94-.14.55-1.18.79-1.13a9.88,9.88,0,0,1,5.68,3.77c.44.68-1.09.46-1.91,1.42-1.49,1.78-.06,4.1-1.24,5.13-.86.75-1.89-.26-4.3-.17a13.42,13.42,0,0,0-6.09,1.73c0-.16-.07-.39-.1-.68-.13-1-.55-4.58.88-5.33A5.29,5.29,0,0,1,54.3,53.21Z" transform="translate(-5.69 -0.42)"/><path class="cls-302" d="M65.34,51.66a2.43,2.43,0,0,0-.15-.26c0,.45-1.32.46-2,1.23-1.48,1.78-.07,4.1-1.23,5.13-.85.75-1.87-.25-4.26-.16a13.2,13.2,0,0,0-5.94,1.68c0,.21.06.39.08.53a13.07,13.07,0,0,1,6-1.73c2.39-.09,3.4.91,4.25.16,1.17-1-.24-3.35,1.24-5.12C64.19,52.15,65.81,52.34,65.34,51.66Z" transform="translate(-5.69 -0.42)"/><path class="cls-299" d="M52.85,55.35c-.25,0,1-1.61,1.45-2.14A3.69,3.69,0,0,0,53,52.63a11.65,11.65,0,0,0-1.83-.3c-1,1.91-1.8,2.93-1.23,3.62,2,2.42,9.9,3.34,10,3S54.58,55.56,52.85,55.35Z" transform="translate(-5.69 -0.42)"/><path class="cls-298" d="M59.72,58.73c-1.92-.06-7.64-1-9.33-3-.54-.65.13-1.59,1.07-3.32l-.31,0c-1,1.91-1.8,2.93-1.23,3.62,2,2.42,9.9,3.34,10,3C59.89,58.89,59.83,58.82,59.72,58.73Z" transform="translate(-5.69 -0.42)"/><polygon class="cls-303" points="62.16 52.13 52.35 51.85 50.74 58.8 60.37 58.8 62.16 52.13"/><path class="cls-304" d="M57.72,74a31.57,31.57,0,0,0,3.13-3.84,52.43,52.43,0,0,0,3.26-5.72c.8-1.73,1.36-3.49.68-4.71a2.56,2.56,0,0,0-2.93-1.1c-.34.13-.83.41-1.31,2.45-.61,2.63-.61,3.37-1.14,5.33-.34,1.22-2.78,7-2.78,7Z" transform="translate(-5.69 -0.42)"/><path class="cls-305" d="M60,46.51c-1.64-.31-3.55-1.09-3.86-2.93a3.17,3.17,0,0,1,.51-2.48h0a2.87,2.87,0,0,0-.78,2.72c.31,1.84,2.22,2.62,3.86,2.93a.78.78,0,0,0,.76-.33A.7.7,0,0,1,60,46.51Z" transform="translate(-5.69 -0.42)"/><path class="cls-306" d="M57.67,42c.22-.09.18.56.94,1,1,.51,2.59.4,2.8-.1s-.38-1.36-.92-1.73a3.87,3.87,0,0,0-3-.31,3.32,3.32,0,0,0-1.23,4.57c.48.59,1.34.74,1.4.63s-1.35-.82-1.32-1.6c0-.44.37-1.21,1-.46C57.45,44.16,57.26,42.13,57.67,42Z" transform="translate(-5.69 -0.42)"/><path class="cls-307" d="M57.35,41.66c.23-.09.46.56,1.22,1,1,.51,2.32.4,2.53-.1s-.38-1.36-.93-1.73a3.84,3.84,0,0,0-3-.31,3.32,3.32,0,0,0-1.24,4.57c.48.59,1.36.85,1.42.74s-1.06-.79-1-1.57c0-.43.4-.86.63-.82s.36.76.41.75S57,41.82,57.35,41.66Z" transform="translate(-5.69 -0.42)"/><path class="cls-308" d="M57.28,40.8c.23-.45-.21-1.29-.87-1.62a2,2,0,0,0-1.9-.17c-.81.6-.34,2.14-.92,3.06-.34.54-1.35,1-2.21,1.62s.29,2-.61,2.75a3.66,3.66,0,0,1-1.51.56c-1,.29-1.8-.39-3.14-.07a3.84,3.84,0,0,0-2.28,1.87,3.64,3.64,0,0,0,0,3.28c1.11,1.79,4.09,1.87,4.91.85s-.76-3,.17-4c.61-.6,1.72.18,2.82-.53A2.45,2.45,0,0,0,53,45.69c-.11-.62-.38-1-.15-1.46s1-.45,1.61-1.14.36-1.43,1-1.87S57.06,41.25,57.28,40.8Z" transform="translate(-5.69 -0.42)"/><path class="cls-309" d="M57.68,73.39c.57.26.26,1.39-.4,2.79s-1.91,2.19-2.48,1.92c-.84-.4-.23-1.71.72-3S56.37,72.77,57.68,73.39Z" transform="translate(-5.69 -0.42)"/><path class="cls-309" d="M65.56,76.93c-.59.22-.37,1.36.17,2.81s1.73,2.33,2.32,2.11c.87-.33.36-1.68-.48-3S66.92,76.42,65.56,76.93Z" transform="translate(-5.69 -0.42)"/><path class="cls-310" d="M56.41,39.18a1.16,1.16,0,0,1,.29,1.13c-.23.45-1.06-.15-1.83.42-.6.44-.22,1.05-1,1.87s-1.32.55-1.6,1.14,0,.84.14,1.46A2.45,2.45,0,0,1,51.16,48c-1.1.7-2.21-.07-2.82.53-.93.92.66,2.92-.17,4-.65.81-2.67.92-4,0,1.28,1.39,3.86,1.39,4.61.45s-.76-3,.17-4c.61-.6,1.72.18,2.82-.53A2.45,2.45,0,0,0,53,45.69c-.11-.61-.38-1-.15-1.46s1-.45,1.61-1.14.36-1.43,1-1.87,1.6,0,1.82-.42S57.07,39.52,56.41,39.18Z" transform="translate(-5.69 -0.42)"/><path class="cls-311" d="M48.43,49.42c.54-.8.59-1.71.12-2s-1.3.06-1.85.85-.6,1.71-.12,2S47.88,50.21,48.43,49.42Z" transform="translate(-5.69 -0.42)"/><path class="cls-312" d="M47.81,48c-.22-.17-.61,0-.87.3s-.29.75-.07.92.61,0,.87-.31S48,48.15,47.81,48Z" transform="translate(-5.69 -0.42)"/><path class="cls-311" d="M61,42.5c-.14.31-.61.39-1.07.19s-.72-.61-.59-.91.61-.39,1.07-.19S61.11,42.2,61,42.5Z" transform="translate(-5.69 -0.42)"/><path class="cls-313" d="M58.85,48.86c.93-.14.54-1.18.78-1.14A9.93,9.93,0,0,1,64.94,51a9.91,9.91,0,0,0-5.49-3.5c-.24,0,.15,1-.79,1.13a1,1,0,0,1-.7-.12C58.13,48.91,58.63,48.89,58.85,48.86Z" transform="translate(-5.69 -0.42)"/><path class="cls-314" d="M51.69,58.92c-.08-1-.08-1.76-.08-1.76L51.34,57a22.15,22.15,0,0,0,.25,2.35l.16-.09A3.18,3.18,0,0,1,51.69,58.92Z" transform="translate(-5.69 -0.42)"/><path class="cls-315" d="M53.48,49.2a7.81,7.81,0,0,1,4.3-1.66c0-.14,0-.22-.05-.22A7.68,7.68,0,0,0,53.3,49a11.6,11.6,0,0,0-2.44,3.32l.28,0A11.2,11.2,0,0,1,53.48,49.2Z" transform="translate(-5.69 -0.42)"/><path class="cls-299" d="M152.31,93.72l1,.14c.32,0,1,.33.91.63l-1.4,2.31c0,.08,2.44,2.08,2.44,2.08s0,.49.09.67c.13.38-.23,1-1.37.33-.77-.49-3.61-2-3.64-2.7s1.43-3.07,1.43-3.07A.5.5,0,0,1,152.31,93.72Z" transform="translate(-5.69 -0.42)"/><path class="cls-316" d="M153.05,95.22a2.1,2.1,0,0,1,.48.38l.56-.92c.12-.3-.58-.59-.9-.63l-1-.14a.5.5,0,0,0-.55.39s-.19.3-.43.72C151.75,95.09,152.32,94.83,153.05,95.22Z" transform="translate(-5.69 -0.42)"/><path class="cls-298" d="M161.74,88.14c-1.19-.17-1.39-2.8-1.39-2.8h-2.11s.14,2.53-1,3.22a3.17,3.17,0,0,0,2.32,1.52C160.73,90.08,161.79,88.15,161.74,88.14Z" transform="translate(-5.69 -0.42)"/><path class="cls-317" d="M155.73,87.67c1.14-.15,1.54,1.64,3.13,1.68,1.41,0,1.38-.54,2.85-1.45s3.3.54,3.54.91a29.66,29.66,0,0,1,2.86,4.69c.45,1.06-3.15.4-3.13,1.71a34.66,34.66,0,0,0,.41,6.65c.58,3.18-12,2.54-11.43.29.44-1.68,0-3.1.37-5.61.48-3.58-4.17-.92-3.4-3.16S154.31,87.85,155.73,87.67Z" transform="translate(-5.69 -0.42)"/><rect class="cls-318" x="149.6" y="100.38" width="10.4" height="3.06"/><path class="cls-319" d="M158,89.68a2,2,0,0,0,1.4-.36,3.94,3.94,0,0,1-.51,0c-1.59,0-2-1.83-3.12-1.68A2.13,2.13,0,0,0,155,88C156,87.94,156.44,89.64,158,89.68Z" transform="translate(-5.69 -0.42)"/><path class="cls-320" d="M168.14,93.48a32.94,32.94,0,0,0-2.86-4.62c-.42-.61-2.35-1.75-3.54-1l-.15.1a3.52,3.52,0,0,1,2.8,1.15,21.4,21.4,0,0,1,2.86,4.69.34.34,0,0,1,0,.34C167.85,94.06,168.34,93.9,168.14,93.48Z" transform="translate(-5.69 -0.42)"/><polygon class="cls-298" points="149.09 106.97 151.41 106.57 150.82 105.67 149.26 105.86 149.09 106.97"/><path class="cls-321" d="M156.72,106.57a1.52,1.52,0,0,0-.22-.48c.88-.88,3.2-2.36,5.84-4.45,3.16-2.49,6.89-5.4,8.37-2.62,1.06,2-2.66,5.2-6.49,6.46-3.19,1-6.23,1.92-7.41,1.57A1.75,1.75,0,0,0,156.72,106.57Z" transform="translate(-5.69 -0.42)"/><path class="cls-309" d="M155.62,107c0,.63-1.16.8-2.7.76s-2.76-.85-2.75-1.48c0-.93,1.47-.9,3-.55S155.66,105.52,155.62,107Z" transform="translate(-5.69 -0.42)"/><path class="cls-322" d="M170.71,99a2.29,2.29,0,0,0-.5-.66s0,0,0,0c1.06,2-2.66,5.2-6.49,6.46-2.9,1-5.67,1.76-7,1.64a.24.24,0,0,1,0,.08,1.69,1.69,0,0,1,.09.47c1.18.36,4.22-.52,7.41-1.57C168.05,104.21,171.77,101,170.71,99Z" transform="translate(-5.69 -0.42)"/><polygon class="cls-298" points="159.31 107.42 157 106.97 157.61 106.08 159.16 106.31 159.31 107.42"/><path class="cls-323" d="M163.07,107a1.79,1.79,0,0,1,.23-.48c-.75-.85-2.84-2.09-5.45-4.51-3-2.74-8-5.71-9.6-3-1.1,1.94,3.69,5.29,7.49,6.63,3.16,1.12,6,1.91,7.24,1.8A2,2,0,0,1,163.07,107Z" transform="translate(-5.69 -0.42)"/><path class="cls-324" d="M164.16,107.4c0,.63,1.14.83,2.68.83s2.79-.8,2.79-1.42c0-.93-1.45-.93-3-.62S164.16,106,164.16,107.4Z" transform="translate(-5.69 -0.42)"/><path class="cls-299" d="M156.54,83.38A2.89,2.89,0,0,1,159.21,80a2.84,2.84,0,0,1,2.47,3.34c-.26,1.15-1.66,3.54-2.47,3.54S156.77,84.72,156.54,83.38Z" transform="translate(-5.69 -0.42)"/><path class="cls-325" d="M160,81a1.24,1.24,0,0,0,.27,1c.26.3.57.29.73.54.28.43-.26.8,0,1.28.36.74-.13,1-.56,1.36a1.39,1.39,0,0,0-.52,1.25,1.62,1.62,0,0,0,1.1,1.64,1.33,1.33,0,0,0,1.41-.38,2.3,2.3,0,0,0-.14-2.3c-.27-.37-.53-.43-.56-.75s.34-.53.62-1a3,3,0,0,0-.08-2.41,2.1,2.1,0,0,0-.94-1.13c-.47-.23-1.18-.27-1.39,0C159.86,80.29,160.05,80.51,160,81Z" transform="translate(-5.69 -0.42)"/><path class="cls-305" d="M157.52,83.38a2.92,2.92,0,0,1,2.16-3.28,1.89,1.89,0,0,0-.47-.06,2.89,2.89,0,0,0-2.67,3.34c.23,1.34,1.72,3.54,2.67,3.54a.84.84,0,0,0,.44-.18A6,6,0,0,1,157.52,83.38Z" transform="translate(-5.69 -0.42)"/><path class="cls-326" d="M160.3,79.43a1.38,1.38,0,0,1,.35,1.37c-.24.78-1.32,1.12-2,1.17s-.76-.13-1.07,0c-.59.31-.73,1.33-.65,2,.15,1.44,1.22,1.37,1.38,2.43a2.35,2.35,0,0,1-.61,1.69c-.22.2-1.38,1.34-1.39,1.74a4.62,4.62,0,0,0,.32,2.33c.35.84-.91,2.34-2.41,2.45a2.63,2.63,0,0,1-2.68-1.89,3,3,0,0,1,1.31-2.88c.87-.62,1.61-.48,1.79-1.09.08-.25-.14-.63-.31-1.14a2.52,2.52,0,0,1,0-1.92c.28-.71,1-.58,1.22-1.23.13-.48-.29-.72-.43-1.37-.27-1.33,1.06-2.63,1.24-2.8C157.52,79.33,159.47,78.68,160.3,79.43Z" transform="translate(-5.69 -0.42)"/><path class="cls-327" d="M160.22,80.94c0,.58,0,.78.27,1s.56.3.72.55c.28.42-.26.79,0,1.28.36.73-.12,1-.56,1.36a1.41,1.41,0,0,0-.52,1.24c0,.61.31,1.49,1.1,1.64a1.32,1.32,0,0,0,1.41-.37,2.32,2.32,0,0,0-.14-2.31c-.26-.36-.53-.43-.56-.74s.35-.53.62-1a2.88,2.88,0,0,0-.08-2.41,2.06,2.06,0,0,0-.94-1.13c-.47-.23-1.17-.28-1.39,0C160,80.23,160.23,80.46,160.22,80.94Z" transform="translate(-5.69 -0.42)"/><path class="cls-328" d="M152.29,93.09a3,3,0,0,1,1.31-2.85c.87-.61,1.61-.48,1.79-1.08.08-.25-.14-.63-.31-1.13a2.49,2.49,0,0,1,0-1.91c.28-.7,1-.57,1.22-1.21.13-.48-.29-.72-.43-1.36-.27-1.32,1.06-2.61,1.24-2.78a4.41,4.41,0,0,1,3.14-1.24c-.87-.63-2.72,0-3.79,1-.18.17-1.51,1.46-1.24,2.78.13.64.56.88.43,1.36-.19.64-.94.51-1.23,1.21a2.56,2.56,0,0,0,0,1.91c.16.51.39.88.31,1.13-.19.61-.92.47-1.79,1.09a2.93,2.93,0,0,0-1.31,2.84,2.58,2.58,0,0,0,2,1.82A2.52,2.52,0,0,1,152.29,93.09Z" transform="translate(-5.69 -0.42)"/><path class="cls-329" d="M165,95.21c.05.12.9-.63,1.84-.71s1.43-.58,1.36-.86-1-.26-2,0S164.85,95,165,95.21Z" transform="translate(-5.69 -0.42)"/><path class="cls-299" d="M165.13,94.49l.73,1.67c0,.07-1.43,2.57-1.43,2.57a.5.5,0,0,0-.07.41h0c.1.39-.12,2,.14,1.71,0,0,3.83-3.95,3.67-4.69a24.26,24.26,0,0,0-1-2.69C166.8,93.45,165.46,93.71,165.13,94.49Z" transform="translate(-5.69 -0.42)"/><path class="cls-330" d="M164.38,99.45c.3-.47,2.05-3.28,2-3.36l-1-2a1.08,1.08,0,0,0-.28.39l.73,1.67c0,.07-1.43,2.57-1.43,2.57a.5.5,0,0,0-.07.41A2.11,2.11,0,0,1,164.38,99.45Z" transform="translate(-5.69 -0.42)"/><g class="cls-331"><polygon class="cls-332" points="158.54 101.59 149 101.59 148.07 95.61 159.59 95.61 158.54 101.59"/></g><path class="cls-333" d="M165,95.21a4.13,4.13,0,0,1-.63-.69,4.88,4.88,0,0,1-.46-.8,8.48,8.48,0,0,1-.62-1.75h0a9.3,9.3,0,0,0,.71,1.69c.15.27.32.52.48.78s.34.5.51.76Z" transform="translate(-5.69 -0.42)"/><path class="cls-322" d="M156.47,105.17c-3.81-1.35-8.6-4.69-7.5-6.64a2.29,2.29,0,0,1,.32-.43,2,2,0,0,0-1,.92c-1.1,1.94,3.69,5.29,7.49,6.63,3.16,1.12,6,1.92,7.24,1.8a2.15,2.15,0,0,1,.09-.47v0A32.75,32.75,0,0,1,156.47,105.17Z" transform="translate(-5.69 -0.42)"/></svg>