<svg id="Graphics" xmlns="http://www.w3.org/2000/svg" viewBox="0 0 716.53 361.27"><defs><style>.cls-1{fill:#fff;}.cls-2{fill:#b8b9c3;}.cls-3{fill:#c2d7fb;}.cls-4{fill:#ffddd3;}.cls-5{fill:#f9fbff;}.cls-6{fill:#b3cdfa;}.cls-7{fill:#dde2ff;}.cls-8{fill:#ffe1a7;}.cls-9{fill:#536dfe;}.cls-10,.cls-22,.cls-23{fill:#191c3c;}.cls-11{fill:#5361f0;}.cls-12{fill:#ff5722;}.cls-13{fill:#e3edfe;}.cls-14{fill:#ff794e;}.cls-15{fill:#2e35a8;}.cls-16{fill:#fec55e;}.cls-17{fill:#7581f3;}.cls-18{fill:#fdab74;}.cls-19{fill:#eceefd;}.cls-20{fill:#feb423;}.cls-21{fill:#4d5068;}.cls-22{opacity:0.1;}.cls-23{opacity:0.3;}.cls-24{fill:#e9f1fe;}.cls-25{fill:none;stroke:#191c3c;stroke-miterlimit:10;stroke-width:0.5px;}</style></defs><title>Tutorials_2</title><g id="Bulb_and_elements" data-name="Bulb and elements"><rect class="cls-1" x="175.61" y="69.48" width="118.85" height="64.19"/><rect class="cls-2" x="175.61" y="69.48" width="118.85" height="14.31"/><polygon class="cls-3" points="294.83 133.66 294.08 133.66 294.08 69.85 175.99 69.85 175.99 107.51 175.24 107.51 175.24 69.1 294.83 69.1 294.83 133.66"/><path class="cls-4" d="M230.93,193.87H335c-.16,0,.24-23.4-.06-25.76-3.58,1.89-6.31,5.49-10.11,7.37a17.28,17.28,0,0,1-10.17,1.86c-3.21-.54-5.82-3-9.11-3.18-4.27-.29-7.17,3.2-10.22,5.59-4.29,3.35-9.72,7.42-15.25,8.26-3.56.55-6.43-1-8.65-3.73-2.87-3.47-4.33-6.63-9.2-7.3a15.27,15.27,0,0,0-11.07,2.79c-3.73,2.91-5.95,7.68-10.23,9.69a9.83,9.83,0,0,1-4.9.86c-1.09-.09-3.88-1.57-4.85-.73C230.44,190.21,230.93,192.92,230.93,193.87Z" transform="translate(-46.94 -70.77)"/><path class="cls-1" d="M234.28,147.31a1.57,1.57,0,1,1-1.57-1.56A1.57,1.57,0,0,1,234.28,147.31Z" transform="translate(-46.94 -70.77)"/><path class="cls-1" d="M241.56,147.31a1.57,1.57,0,1,1-1.57-1.56A1.57,1.57,0,0,1,241.56,147.31Z" transform="translate(-46.94 -70.77)"/><path class="cls-1" d="M248.84,147.31a1.57,1.57,0,1,1-1.56-1.56A1.56,1.56,0,0,1,248.84,147.31Z" transform="translate(-46.94 -70.77)"/><rect class="cls-1" x="122.09" y="24.26" width="117.74" height="36.93"/><rect class="cls-5" x="127.33" y="28.65" width="28.21" height="28.15"/><rect class="cls-5" x="163.36" y="28.65" width="71.17" height="4.96"/><rect class="cls-5" x="163.36" y="37.83" width="71.17" height="4.96"/><rect class="cls-5" x="163.36" y="47" width="28.46" height="4.96"/><path class="cls-3" d="M287.14,132.34H168.65V94.66H287.14Zm-117.74-.75h117V95.41h-117Z" transform="translate(-46.94 -70.77)"/><rect class="cls-6" x="97.46" y="109.84" width="158.22" height="14.31"/><rect class="cls-1" x="103.51" y="127.44" width="146.14" height="28.05"/><rect class="cls-5" x="110.67" y="133.86" width="64.85" height="1.65"/><rect class="cls-5" x="148.93" y="171.25" width="94.37" height="1.65"/><rect class="cls-5" x="149.07" y="179.91" width="94.37" height="1.65"/><rect class="cls-5" x="149.21" y="188.58" width="94.37" height="1.65"/><rect class="cls-5" x="149.35" y="197.25" width="52.6" height="1.65"/><rect class="cls-5" x="110.67" y="140.64" width="104.3" height="1.65"/><rect class="cls-5" x="110.67" y="147.42" width="132.63" height="1.65"/><path class="cls-1" d="M160,188.34a2.09,2.09,0,1,1-2.08-2.08A2.09,2.09,0,0,1,160,188.34Z" transform="translate(-46.94 -70.77)"/><path class="cls-1" d="M169.71,188.34a2.09,2.09,0,1,1-2.09-2.08A2.1,2.1,0,0,1,169.71,188.34Z" transform="translate(-46.94 -70.77)"/><path class="cls-1" d="M179.4,188.34a2.09,2.09,0,1,1-2.08-2.08A2.09,2.09,0,0,1,179.4,188.34Z" transform="translate(-46.94 -70.77)"/><circle class="cls-7" cx="175.19" cy="254.38" r="18.99" transform="translate(-176.8 135.22) rotate(-46.43)"/><polygon class="cls-3" points="161.01 211.06 97.08 211.06 97.08 109.46 256.05 109.46 256.05 210.68 255.3 210.68 255.3 110.21 97.83 110.21 97.83 210.31 161.01 210.31 161.01 211.06"/><rect class="cls-8" x="398.52" y="96.48" width="158.22" height="14.31"/><rect class="cls-1" x="404.57" y="114.09" width="146.14" height="28.05"/><rect class="cls-5" x="411.73" y="120.51" width="64.85" height="1.65"/><rect class="cls-5" x="449.99" y="157.9" width="94.37" height="1.65"/><rect class="cls-5" x="450.13" y="166.56" width="94.37" height="1.65"/><rect class="cls-5" x="450.27" y="175.23" width="94.37" height="1.65"/><rect class="cls-5" x="450.41" y="183.9" width="52.6" height="1.65"/><rect class="cls-5" x="411.73" y="127.29" width="104.3" height="1.65"/><rect class="cls-5" x="411.73" y="134.07" width="132.63" height="1.65"/><path class="cls-1" d="M461.07,175a2.09,2.09,0,1,1-2.08-2.08A2.09,2.09,0,0,1,461.07,175Z" transform="translate(-46.94 -70.77)"/><path class="cls-1" d="M470.77,175a2.09,2.09,0,1,1-2.09-2.08A2.1,2.1,0,0,1,470.77,175Z" transform="translate(-46.94 -70.77)"/><path class="cls-1" d="M480.46,175a2.09,2.09,0,1,1-2.08-2.08A2.09,2.09,0,0,1,480.46,175Z" transform="translate(-46.94 -70.77)"/><polygon class="cls-3" points="557.11 197.33 556.36 197.33 556.36 96.86 398.89 96.86 398.89 197.33 398.14 197.33 398.14 96.11 557.11 96.11 557.11 197.33"/><path class="cls-9" d="M333.14,316.36a3.16,3.16,0,1,1,3.16-3.16A3.17,3.17,0,0,1,333.14,316.36Zm0-5.82a2.66,2.66,0,1,0,2.66,2.66A2.66,2.66,0,0,0,333.14,310.54Z" transform="translate(-46.94 -70.77)"/><path class="cls-9" d="M435,325.17a3.17,3.17,0,1,1,3.16-3.16A3.17,3.17,0,0,1,435,325.17Zm0-5.83a2.67,2.67,0,1,0,2.66,2.67A2.67,2.67,0,0,0,435,319.34Z" transform="translate(-46.94 -70.77)"/><path class="cls-10" d="M548,321.3a2,2,0,1,1,2-2A2,2,0,0,1,548,321.3Zm0-3.41a1.46,1.46,0,1,0,1.46,1.45A1.45,1.45,0,0,0,548,317.89Z" transform="translate(-46.94 -70.77)"/><path class="cls-10" d="M594.17,376.58a2,2,0,1,1,2-1.95A2,2,0,0,1,594.17,376.58Zm0-3.41a1.46,1.46,0,1,0,1.46,1.46A1.46,1.46,0,0,0,594.17,373.17Z" transform="translate(-46.94 -70.77)"/><path class="cls-11" d="M91.53,303.12a1.21,1.21,0,1,1-1.21-1.2A1.21,1.21,0,0,1,91.53,303.12Z" transform="translate(-46.94 -70.77)"/><circle class="cls-12" cx="24.69" cy="283.57" r="1.2"/><circle class="cls-12" cx="308.92" cy="262.28" r="1.2"/><path class="cls-12" d="M356.06,372.4a2.86,2.86,0,1,1,2.86-2.86A2.86,2.86,0,0,1,356.06,372.4Zm0-5.22a2.36,2.36,0,1,0,2.36,2.36A2.36,2.36,0,0,0,356.06,367.18Z" transform="translate(-46.94 -70.77)"/><path class="cls-10" d="M461.37,303.88a2,2,0,1,1,1.95-2A2,2,0,0,1,461.37,303.88Zm0-3.41a1.46,1.46,0,1,0,1.45,1.45A1.46,1.46,0,0,0,461.37,300.47Z" transform="translate(-46.94 -70.77)"/><path class="cls-10" d="M478.38,370a2,2,0,1,1,1.95-2A2,2,0,0,1,478.38,370Zm0-3.41a1.46,1.46,0,1,0,1.45,1.46A1.46,1.46,0,0,0,478.38,366.63Z" transform="translate(-46.94 -70.77)"/><path class="cls-10" d="M150.17,315.15a2,2,0,1,1,2-1.95A1.95,1.95,0,0,1,150.17,315.15Zm0-3.4a1.45,1.45,0,1,0,1.46,1.45A1.45,1.45,0,0,0,150.17,311.75Z" transform="translate(-46.94 -70.77)"/><path class="cls-10" d="M107.07,356.3a2,2,0,1,1,2-1.95A2,2,0,0,1,107.07,356.3Zm0-3.41a1.46,1.46,0,1,0,1.46,1.46A1.45,1.45,0,0,0,107.07,352.89Z" transform="translate(-46.94 -70.77)"/><circle class="cls-11" cx="534.48" cy="280.95" r="1.2"/><path class="cls-11" d="M460.94,386.08a1.2,1.2,0,1,1-1.2-1.2A1.21,1.21,0,0,1,460.94,386.08Z" transform="translate(-46.94 -70.77)"/><circle class="cls-10" cx="289.68" cy="306.15" r="1.2"/><circle class="cls-12" cx="407.39" cy="273.14" r="1.2"/><circle class="cls-12" cx="499.84" cy="289.78" r="1.2"/><circle class="cls-12" cx="86.73" cy="297.31" r="1.2"/><rect class="cls-13" x="288.15" y="312.64" width="50.46" height="47.58" rx="9.31"/><path class="cls-10" d="M376.25,431.37v-.75a9,9,0,0,0,8.93-8.93v-29a8.94,8.94,0,0,0-8.93-8.93H353.9V383h22.35a9.69,9.69,0,0,1,9.68,9.68v29A9.69,9.69,0,0,1,376.25,431.37Z" transform="translate(-46.94 -70.77)"/><path class="cls-10" d="M340.7,424V390.45a7.26,7.26,0,0,1,7.46-7H344.4a9.31,9.31,0,0,0-9.31,9.31v29A9.31,9.31,0,0,0,344.4,431h3.76A7.26,7.26,0,0,1,340.7,424Z" transform="translate(-46.94 -70.77)"/><path class="cls-10" d="M373,410.44h3a1.06,1.06,0,0,0,1.09-1v-3.57a1,1,0,0,0-1.09-1h-2.32a.93.93,0,0,1-.86-.58c-.08-.2-.17-.4-.26-.6a.84.84,0,0,1,.17-1l1.64-1.55a1,1,0,0,0,0-1.45l-2.68-2.52a1.14,1.14,0,0,0-1.54,0l-1.65,1.56a.94.94,0,0,1-1,.18c-.23-.1-.49-.19-.71-.27a.86.86,0,0,1-.57-.79v-2.21a1.05,1.05,0,0,0-1.08-1h-3.79a1.06,1.06,0,0,0-1.09,1v2.19a.87.87,0,0,1-.61.8l-.67.26a.94.94,0,0,1-1-.15l-1.65-1.55a1.14,1.14,0,0,0-1.54,0l-2.67,2.54a1,1,0,0,0,0,1.45l1.66,1.56a.8.8,0,0,1,.19.93c-.1.22-.2.46-.28.67a.9.9,0,0,1-.84.54h-2.35a1.07,1.07,0,0,0-1.08,1v3.57a1.06,1.06,0,0,0,1.09,1h2.32a.93.93,0,0,1,.86.58c.08.2.17.4.26.6a.82.82,0,0,1-.16,1l-1.65,1.56a1,1,0,0,0,0,1.45l2.68,2.52a1.14,1.14,0,0,0,1.54,0l1.65-1.57a.94.94,0,0,1,1-.18c.23.1.49.19.71.27a.86.86,0,0,1,.57.79v2.21a1.06,1.06,0,0,0,1.09,1h3.79a1.06,1.06,0,0,0,1.09-1v-2.19a.87.87,0,0,1,.61-.8l.64-.25a1,1,0,0,1,1,.16l1.65,1.55a1.14,1.14,0,0,0,1.54,0l2.67-2.52a1,1,0,0,0,0-1.46l-1.66-1.56a.81.81,0,0,1-.19-.93C372.75,411.12,373,410.48,373,410.44Zm-15.08-3.71a5.41,5.41,0,0,1,7.22-3.81,5.06,5.06,0,0,1,3.34,5.63,5.4,5.4,0,0,1-7.21,3.81A5.07,5.07,0,0,1,357.94,406.73Z" transform="translate(-46.94 -70.77)"/><path class="cls-12" d="M468.46,421.2a9.81,9.81,0,1,1-9.81-9.82A9.81,9.81,0,0,1,468.46,421.2Z" transform="translate(-46.94 -70.77)"/><circle class="cls-14" cx="458.65" cy="421.2" r="8.74" transform="translate(-45.93 772.72) rotate(-85.26)"/><path class="cls-12" d="M466.37,421.2a7.72,7.72,0,1,1-7.72-7.72A7.72,7.72,0,0,1,466.37,421.2Z" transform="translate(-46.94 -70.77)"/><path class="cls-14" d="M459.66,425.13H456.8a1.19,1.19,0,0,1-1.19-1.19v-.61h1.69v.11h2.36a.82.82,0,0,0,.82-.82.54.54,0,0,0-.54-.54h-2.1a2.23,2.23,0,0,1-2.23-2.23v-.31a2.51,2.51,0,0,1,2.51-2.52H461a1.19,1.19,0,0,1,1.19,1.2v.69h-1.69v-.19h-2.36a.82.82,0,0,0-.82.82v.31a.54.54,0,0,0,.54.53h2.1a2.23,2.23,0,0,1,2.23,2.24A2.52,2.52,0,0,1,459.66,425.13Z" transform="translate(-46.94 -70.77)"/><rect class="cls-14" x="411.1" y="345.43" width="1.7" height="10"/><rect class="cls-1" x="527.78" y="329.55" width="33.13" height="31.24" rx="7.26"/><path class="cls-10" d="M578.8,425.63V406.26a5.94,5.94,0,0,1,5.94-5.94h-4.09a5.94,5.94,0,0,0-5.94,5.94v19.37a5.94,5.94,0,0,0,5.94,5.93h4.09A5.94,5.94,0,0,1,578.8,425.63Z" transform="translate(-46.94 -70.77)"/><path class="cls-10" d="M601.74,431.81v-.49a5.87,5.87,0,0,0,5.86-5.87v-19a5.87,5.87,0,0,0-5.86-5.86H587.06v-.5h14.68a6.37,6.37,0,0,1,6.35,6.36v19A6.36,6.36,0,0,1,601.74,431.81Z" transform="translate(-46.94 -70.77)"/><polygon class="cls-15" points="545.9 349.32 542.34 345.76 544.37 343.73 545.9 345.25 550.14 341.02 552.17 343.05 545.9 349.32"/><path class="cls-16" d="M483,145.69A74.92,74.92,0,1,0,367.1,208.38v47.81H449V208.38A74.83,74.83,0,0,0,483,145.69Z" transform="translate(-46.94 -70.77)"/><rect class="cls-10" x="387.08" y="140.42" width="0.75" height="91.5" transform="translate(-81.4 33.16) rotate(-14.63)"/><rect class="cls-10" x="380.36" y="185.8" width="91.2" height="0.75" transform="translate(96.25 484.37) rotate(-76.14)"/><polygon class="cls-15" points="407.39 188.76 380.15 211.54 339.61 211.54 314.85 188.76 314.85 152.96 407.39 152.96 407.39 188.76"/><path class="cls-17" d="M454.72,233.87H361.2a3.44,3.44,0,0,1-3.44-3.43h0A3.44,3.44,0,0,1,361.2,227h93.52a3.44,3.44,0,0,1,3.43,3.43h0A3.44,3.44,0,0,1,454.72,233.87Z" transform="translate(-46.94 -70.77)"/><path class="cls-17" d="M454.72,245.34H361.2a3.44,3.44,0,0,1-3.44-3.43h0a3.45,3.45,0,0,1,3.44-3.44h93.52a3.44,3.44,0,0,1,3.43,3.44h0A3.44,3.44,0,0,1,454.72,245.34Z" transform="translate(-46.94 -70.77)"/><path class="cls-17" d="M454.72,256.81H361.2a3.45,3.45,0,0,1-3.44-3.43h0a3.45,3.45,0,0,1,3.44-3.44h93.52a3.44,3.44,0,0,1,3.43,3.44h0A3.44,3.44,0,0,1,454.72,256.81Z" transform="translate(-46.94 -70.77)"/><path class="cls-10" d="M414,294.69H398.83a13.45,13.45,0,0,1-13.45-13.45h42A13.45,13.45,0,0,1,414,294.69Z" transform="translate(-46.94 -70.77)"/><polygon class="cls-10" points="335.05 79.5 328.66 71.11 329.26 70.66 335.05 78.27 341.15 70.27 347.25 78.27 353.35 70.27 359.45 78.27 365.55 70.27 371.64 78.27 377.75 70.27 383.85 78.27 389.66 70.66 390.26 71.11 383.85 79.5 377.75 71.5 371.64 79.5 365.55 71.5 359.45 79.5 353.35 71.5 347.25 79.5 341.15 71.5 335.05 79.5"/><path class="cls-1" d="M465.13,151.16a5,5,0,0,1-5-5,52.31,52.31,0,0,0-52.25-52.25,5,5,0,0,1,0-10,62.31,62.31,0,0,1,62.25,62.25A5,5,0,0,1,465.13,151.16Z" transform="translate(-46.94 -70.77)"/><rect class="cls-18" x="499.84" y="27.74" width="89.58" height="6.93"/><rect class="cls-1" x="504.33" y="29.62" width="3.75" height="3.16"/><polygon class="cls-3" points="589.8 92.23 589.05 92.23 589.05 28.11 500.22 28.11 500.22 92.23 499.47 92.23 499.47 27.36 589.8 27.36 589.8 92.23"/><rect class="cls-5" x="553.22" y="109.32" width="17.31" height="17.28" transform="translate(1076.81 165.14) rotate(180)"/><rect class="cls-5" x="576.86" y="109.32" width="17.31" height="17.28" transform="translate(1124.1 165.14) rotate(180)"/><rect class="cls-5" x="600.5" y="109.32" width="29.26" height="17.28" transform="translate(1183.33 165.14) rotate(180)"/><rect class="cls-5" x="506.16" y="60.59" width="34.87" height="3.12"/><rect class="cls-5" x="505.79" y="68.96" width="77.03" height="1.56"/><rect class="cls-5" x="505.79" y="74.66" width="77.03" height="1.56"/><rect class="cls-5" x="506.12" y="80.36" width="77.03" height="1.56"/><rect class="cls-5" x="506.45" y="86.06" width="38.53" height="1.56"/><rect class="cls-1" x="360.34" y="315.45" width="76.81" height="45.44"/><polygon class="cls-10" points="355.86 360.89 359.97 360.89 359.97 315.02 355.86 316.85 355.86 360.89"/><rect class="cls-12" x="360.34" y="315.45" width="76.81" height="5.94"/><rect class="cls-1" x="364.19" y="317.07" width="3.22" height="2.71"/><path class="cls-19" d="M419.83,399.49a3.57,3.57,0,1,1-3.56-3.57A3.57,3.57,0,0,1,419.83,399.49Z" transform="translate(-46.94 -70.77)"/><path class="cls-19" d="M419.83,411.41a3.57,3.57,0,1,1-3.56-3.57A3.57,3.57,0,0,1,419.83,411.41Z" transform="translate(-46.94 -70.77)"/><circle class="cls-19" cx="369.33" cy="352.55" r="3.56"/><rect class="cls-19" x="375.44" y="327.33" width="29.9" height="3.52"/><rect class="cls-19" x="375.44" y="338.87" width="29.9" height="3.52"/><rect class="cls-9" x="455.85" y="395.92" width="23.86" height="30.96" transform="translate(888.62 752.04) rotate(180)"/><rect class="cls-19" x="375.44" y="350.42" width="29.9" height="3.52"/><path class="cls-10" d="M484.46,432H406.9V385.85h77.56Zm-76.81-.75h76.06V386.6H407.65Z" transform="translate(-46.94 -70.77)"/></g><g id="woman_2" data-name="woman 2"><path class="cls-12" d="M635.69,175.16c-2-5.11-6.14-9.16-8.17-14.26-1-2.47-1.49-5.21-3.1-7.33l-9.5-3.3a10.31,10.31,0,0,0-6.54,8.88c-.34,6.19,4.92,11.37,5.68,17.52a12.58,12.58,0,0,1-.33,4.73c-.74,2.78-2.42,5.22-3.56,7.87s-1.68,5.87-.16,8.32a8.81,8.81,0,0,0,3.48,3A19.07,19.07,0,0,0,632,200a9.87,9.87,0,0,0,2.63-2.18c1.55-1.91,1.95-4.49,2.21-6.94C637.4,185.63,637.63,180.11,635.69,175.16Z" transform="translate(-46.94 -70.77)"/><path class="cls-6" d="M655.57,406.4l2,16.57,3.28,3.06a5.67,5.67,0,0,1,1.81,4.15v1.7h-19l1.31-5.83,2.15-3.27-.79-16.38Z" transform="translate(-46.94 -70.77)"/><path class="cls-10" d="M647.06,422.78a30.79,30.79,0,0,1-2.15,3.27l-1.31,5.83h19v-1.7a5.67,5.67,0,0,0-1.81-4.15L657.53,423S650.84,414.39,647.06,422.78Z" transform="translate(-46.94 -70.77)"/><path class="cls-6" d="M612,406.4l-2,16.57L606.79,426a5.67,5.67,0,0,0-1.81,4.15v1.7h19l-1.32-5.83-2.15-3.27.79-16.38Z" transform="translate(-46.94 -70.77)"/><path class="cls-10" d="M620.53,422.78a32.47,32.47,0,0,0,2.15,3.27l1.32,5.83H605v-1.7a5.67,5.67,0,0,1,1.81-4.15l3.27-3.06S616.76,414.39,620.53,422.78Z" transform="translate(-46.94 -70.77)"/><polygon class="cls-16" points="597.39 339.09 584.63 195.61 609.71 204.1 610.99 339.09 597.39 339.09"/><rect class="cls-20" x="641.13" y="406.82" width="18.48" height="5.51" transform="translate(1253.81 748.37) rotate(180)"/><polygon class="cls-16" points="575.78 339.09 587.01 195.61 561.67 195.96 561.67 339.09 575.78 339.09"/><rect class="cls-20" x="559.98" y="336.05" width="18.48" height="5.51"/><path class="cls-10" d="M640.75,406.43H660v6.28H640.75Zm18.48.77H641.52v4.74h17.71Z" transform="translate(-46.94 -70.77)"/><path class="cls-10" d="M606.53,406.43h19.26v6.28H606.53Zm18.49.77H607.3v4.74H625Z" transform="translate(-46.94 -70.77)"/><polygon class="cls-16" points="609.8 220.09 609.8 201.43 562.71 201.43 561.67 220.09 609.8 220.09"/><path class="cls-21" d="M657.93,281.12v-10l-4.72-36.77,7.19-23L659,196.87A12,12,0,0,0,647,186H620.45a12.08,12.08,0,0,0-12,13.45l6.5,30-6,48.11,10.56.75a13.15,13.15,0,0,0,13.14-8.21h0a17.2,17.2,0,0,0,14.49,10.19Z" transform="translate(-46.94 -70.77)"/><polygon class="cls-6" points="587.78 103.59 587.78 115.26 596.51 115.26 582.14 129.99 571.61 115.26 578.67 115.4 578.67 103.59 587.78 103.59"/><path class="cls-6" d="M627,181.32h2.65a7.22,7.22,0,0,0,7.22-7.22v-2.64c0-9.76.75-17.67-9-17.67h-9a3.9,3.9,0,0,0-3.74,5l.82,5.07-.84,5.18a5.28,5.28,0,0,0-.07,1C615.2,177.14,623,181.26,627,181.32Z" transform="translate(-46.94 -70.77)"/><rect class="cls-10" x="652.45" y="227.92" width="5.29" height="0.77" transform="translate(195.04 714.85) rotate(-72.67)"/><rect class="cls-9" x="512.12" y="116.01" width="61.44" height="8.22"/><rect class="cls-10" x="556.04" y="186.21" width="3.5" height="95.46" transform="translate(1068.64 397.11) rotate(180)"/><rect class="cls-1" x="512.12" y="122.65" width="61.44" height="88.06"/><path class="cls-10" d="M558.69,186h62.17v95.83H558.69Zm61.44.73H559.42v94.36h60.71Z" transform="translate(-46.94 -70.77)"/><polygon class="cls-6" points="509.28 180.23 513.32 186.14 513.32 193.88 509.21 197.25 508.19 196.4 508.19 180.91 509.28 180.23"/><path class="cls-6" d="M658.58,193.89l18.84,49-40,21-2.85,3.49a4,4,0,0,1-2.46,1.44l-8.44,1.46a3.15,3.15,0,0,1-3.17-1.35l-.29-.41a3.1,3.1,0,0,1,1.1-4.46l7.25-3.89L625,258.68a2.3,2.3,0,0,1-.65-3.84h0l8.68,3.79,29.75-20.1L643.1,202a8.73,8.73,0,0,1,2.29-11.5h0A8.74,8.74,0,0,1,658.58,193.89Z" transform="translate(-46.94 -70.77)"/><path class="cls-21" d="M661.15,235.57l-19.07-34.12c-2.31-3.85-.3-8.33,3.31-11l0-.81c4.49-3.33,10.88-.85,13.17,4.25L672.46,230Z" transform="translate(-46.94 -70.77)"/><rect class="cls-10" x="656.69" y="215.97" width="0.77" height="23.99" transform="translate(-76.55 267.55) rotate(-28.26)"/><path class="cls-10" d="M656.48,296.09l.34-.69-2.38-1.18a13,13,0,0,1-7.25-11.69v-1.82h-.77v1.82a13.73,13.73,0,0,0,7.68,12.38Z" transform="translate(-46.94 -70.77)"/><path class="cls-10" d="M609,296.09l2.37-1.18A13.73,13.73,0,0,0,619,282.53v-.79h-.77v.79A13,13,0,0,1,611,294.22l-2.38,1.18Z" transform="translate(-46.94 -70.77)"/><ellipse class="cls-10" cx="571.99" cy="91.44" rx="0.38" ry="0.78"/><path class="cls-10" d="M620.24,160.7a4.74,4.74,0,0,0-3.51.18c-.3.13-.45-.34-.16-.47a5.17,5.17,0,0,1,3.77-.2c.31.1.2.59-.1.49Z" transform="translate(-46.94 -70.77)"/><ellipse class="cls-10" cx="578.54" cy="91.4" rx="0.38" ry="0.78"/><path class="cls-10" d="M626.79,160.67a4.74,4.74,0,0,0-3.51.18c-.3.13-.45-.35-.16-.48a5.12,5.12,0,0,1,3.77-.19c.31.1.21.59-.1.49Z" transform="translate(-46.94 -70.77)"/><polygon class="cls-10" points="582.2 184.46 582.52 130.14 596.78 115.52 596.24 115 581.77 129.83 581.45 184.46 582.2 184.46"/><path class="cls-12" d="M633.91,162.93c-1.46-1.58-3.12-4.28-5.24-5.05-2.64-1-5.5.33-8.22-1a14,14,0,0,1-4.38-4.08,10.12,10.12,0,0,1-1.58-2.53,6.28,6.28,0,0,1,1.77-6.54c5-4.71,12.66-.75,18.3.32a22.26,22.26,0,0,1,7.64,2.56,16.06,16.06,0,0,1,7.35,9.69c1.43,5.84-.87,12.31,1.45,17.85,1.35,3.25,4.08,5.67,6.41,8.3a81.53,81.53,0,0,1,5.8,7.79,27.26,27.26,0,0,1,2.87,4.88,15.57,15.57,0,0,1,.62,9,10.22,10.22,0,0,1-1.23,3.54,8.6,8.6,0,0,1-3,2.67,7.63,7.63,0,0,1-4.37,1.29,10,10,0,0,1-3.47-1.71c-2.53-1.51-5-3.1-7.39-4.85a39.53,39.53,0,0,1-11.54-12.54,18.65,18.65,0,0,1-2-5c-.9-4.22.21-8.61,1.69-12.67.75-2.06,1.61-4.19,1.37-6.37A9.84,9.84,0,0,0,633.91,162.93Z" transform="translate(-46.94 -70.77)"/><path class="cls-10" d="M619.48,173.78c3,.43,4.77-2.14,5.42-4.7.07-.32-.41-.45-.49-.14-.56,2.25-2.11,4.74-4.79,4.36-.32,0-.45.44-.14.48Z" transform="translate(-46.94 -70.77)"/><path class="cls-22" d="M631.42,167.55a2.55,2.55,0,1,1-2.54-2.54A2.55,2.55,0,0,1,631.42,167.55Z" transform="translate(-46.94 -70.77)"/><polygon class="cls-23" points="578.67 110.39 584.49 106.98 578.67 115.4 578.67 110.39"/><path class="cls-10" d="M605,242.2h4.63a1.65,1.65,0,0,0,1.69-1.6V235a1.65,1.65,0,0,0-1.7-1.59H606a1.45,1.45,0,0,1-1.33-.89c-.12-.32-.26-.64-.41-1a1.28,1.28,0,0,1,.26-1.51l2.56-2.42a1.54,1.54,0,0,0,0-2.26l-4.17-3.93a1.76,1.76,0,0,0-2.4,0L598,223.91a1.45,1.45,0,0,1-1.54.28c-.37-.15-.77-.3-1.11-.42a1.33,1.33,0,0,1-.89-1.23v-3.45a1.65,1.65,0,0,0-1.69-1.6h-5.9a1.65,1.65,0,0,0-1.7,1.6v3.42a1.34,1.34,0,0,1-.94,1.24q-.54.19-1.05.42a1.5,1.5,0,0,1-1.61-.25L579,221.51a1.77,1.77,0,0,0-2.4,0l-4.16,3.94a1.54,1.54,0,0,0,0,2.26l2.59,2.43a1.29,1.29,0,0,1,.3,1.46c-.16.34-.32.72-.45,1a1.39,1.39,0,0,1-1.3.84h-3.66a1.65,1.65,0,0,0-1.69,1.6l0,5.56a1.64,1.64,0,0,0,1.69,1.6h3.63a1.42,1.42,0,0,1,1.32.89c.13.32.27.63.42.94a1.29,1.29,0,0,1-.26,1.52L572.46,248a1.53,1.53,0,0,0,0,2.26l4.18,3.93a1.76,1.76,0,0,0,2.39,0l2.58-2.44a1.47,1.47,0,0,1,1.54-.28l1.11.42a1.33,1.33,0,0,1,.89,1.23v3.45a1.65,1.65,0,0,0,1.69,1.6h5.9a1.66,1.66,0,0,0,1.7-1.61v-3.41a1.36,1.36,0,0,1,.95-1.25c.33-.12.67-.25,1-.39a1.48,1.48,0,0,1,1.61.25l2.56,2.41a1.77,1.77,0,0,0,2.4,0l4.16-3.93a1.54,1.54,0,0,0,0-2.26l-2.58-2.43a1.26,1.26,0,0,1-.3-1.46C604.63,243.25,605,242.26,605,242.2Zm-23.47-5.79c1-4.92,6.38-7.69,11.24-5.93a7.88,7.88,0,0,1,5.2,8.77c-1,4.92-6.38,7.7-11.24,5.93A7.87,7.87,0,0,1,581.56,236.41Z" transform="translate(-46.94 -70.77)"/><path class="cls-12" d="M648.32,153.86c1.81,6.64,3.15,14.68,8.74,19.36,3.86,3.23,9.17,3.82,13.19.61.25-.2-.1-.56-.35-.36-5.87,4.68-12.86.51-16.12-5-2.61-4.43-3.64-9.78-5-14.7a.25.25,0,0,0-.48.13Z" transform="translate(-46.94 -70.77)"/><path class="cls-12" d="M609.8,154.92c-1.61,2.9-.73,5.42.64,8.28a45.44,45.44,0,0,1,3.43,8.4c1.42,5.55.71,9.53-4.14,13-.26.19,0,.62.26.43,3.52-2.54,5.49-4.94,5.13-9.45a28.24,28.24,0,0,0-2-8.08c-1.55-3.87-5.28-8-2.83-12.36a.25.25,0,0,0-.44-.25Z" transform="translate(-46.94 -70.77)"/><path class="cls-12" d="M630.66,158.9c10.33,6.91,2.56,18.82,2.37,28.64-.13,6.83,3.18,12.12,8.11,16.59.23.22.59-.13.35-.35-4.08-3.7-7.36-8.12-7.9-13.78-.5-5.3,1.18-10.56,2.22-15.7,1.46-7.14,1.42-11.6-4.9-15.83-.27-.18-.52.25-.25.43Z" transform="translate(-46.94 -70.77)"/><path class="cls-12" d="M648.13,163.83a26.58,26.58,0,0,0,4.65,12.57c2.34,3.48,5.67,4.75,9.59,5.81a.25.25,0,0,0,.13-.49c-4.21-1.13-7.52-2.6-9.86-6.49a26,26,0,0,1-4-11.4c0-.32-.52-.32-.5,0Z" transform="translate(-46.94 -70.77)"/></g><g id="Man_2" data-name="Man 2"><path class="cls-13" d="M501.65,196.74h0a9,9,0,0,0-13.33,3.14l-14.49,28-19.5,10.84v11l30.33-12.13,19.15-28.47A9,9,0,0,0,501.65,196.74Z" transform="translate(-46.94 -70.77)"/><polygon class="cls-6" points="448.04 334.6 448.04 346.35 445.13 352.23 459.38 351.48 459.38 345.98 456.75 335.23 448.04 334.6"/><path class="cls-6" d="M529.94,416.75l-.73-9.87,10.39-1.5.33,3.47a4.85,4.85,0,0,0,1.72,3.27h0v7.13l-7.11,4.63Z" transform="translate(-46.94 -70.77)"/><path class="cls-24" d="M485,274l2-70.83A18.22,18.22,0,0,1,505.18,186h0a20.61,20.61,0,0,1,20.47,18.17L530,274Z" transform="translate(-46.94 -70.77)"/><polygon class="cls-11" points="438.04 203.23 447.04 344.56 459.54 344.56 466.38 203.23 438.04 203.23"/><polygon class="cls-11" points="448.04 203.23 458.04 270.89 482.21 343.06 494.71 340.56 480.75 270.48 483.04 203.23 448.04 203.23"/><path class="cls-10" d="M495,417.12,489.44,421l-19.25,4.38v.81A4.81,4.81,0,0,0,475,431h28.19a3.12,3.12,0,0,0,3.12-3.12V416.75S499.9,425.5,495,417.12Z" transform="translate(-46.94 -70.77)"/><path class="cls-10" d="M514.73,431.5h11.83l17.35-6a1.69,1.69,0,0,0,1.07-2.08l-3.33-11.33s-1,9.69-11.71,4.63l-5.67,6.13-14,3.12v1.08A4.42,4.42,0,0,0,514.73,431.5Z" transform="translate(-46.94 -70.77)"/><path class="cls-6" d="M501.1,175.48l.19,9.28,0,2.24c-.26-.19-3.1,3.81-3.1,3.81,3.11,1.34,0,8.69,0,8.69l6.47-7.14c4,3,9.57-2.1,9.42-4.32l-.14-2.83-.73-10.57Z" transform="translate(-46.94 -70.77)"/><path class="cls-6" d="M494.52,181.63l7-.06L514,184.76l6-15.51a14.26,14.26,0,0,0-8.1-18.46l-1.86-.72A10.14,10.14,0,0,0,497,155.69l-.35.87-6.63,8.8,2.61,1.06-3,8.26A5.18,5.18,0,0,0,494.52,181.63Z" transform="translate(-46.94 -70.77)"/><polygon class="cls-23" points="454.29 110.8 454.38 115.23 462.39 112.8 454.29 110.8"/><path class="cls-10" d="M497.47,144.27h.14a6.43,6.43,0,0,1,1.07-6,6.25,6.25,0,0,0,2,2.08,3.06,3.06,0,0,0,2.36.21c2.15-.33,4-1.63,5.82-2.69a.89.89,0,0,1,.38-.15.85.85,0,0,1,.38.09,51.15,51.15,0,0,1,6.11,3.39c1.64.93,3.45.81,5.23,1.39s3.65,1.45,5.62,1.42a19.8,19.8,0,0,0-1.49,3.2,2.61,2.61,0,0,0,.63,2.53,23,23,0,0,0,5.17,5c-.65-.5-2.33,3.78-2.39,4.21-.24,1.52-.55,3.14.1,4.6a8.17,8.17,0,0,0,2.28,2.69c-.85.64-2.22.24-3,1a2.7,2.7,0,0,0-.53.86,16.68,16.68,0,0,0-1.23,4.77c0,.46,0,4.92.71,4.85a7.18,7.18,0,0,1-2.86-.52c-.59-.18-1.73-.76-2.32-.4-.94.56-.95,3.05-1.13,4,0,.18-.11.4-.29.4a.41.41,0,0,1-.18,0,5.52,5.52,0,0,0-1.68-.67c-.74-.12-1,.28-1.6.48a5.73,5.73,0,0,1-2,0,1.79,1.79,0,0,1-.85-.22,1.71,1.71,0,0,1-.5-.6,8.4,8.4,0,0,1-.69-1.6,13.76,13.76,0,0,0-.62-2c-.25-.52-.81-1.41-1.42-1.57-.36-.09-.75.12-1.1.16a9.41,9.41,0,0,1,1-2.44c.43-1,.87-1.95,1.31-2.93a5.27,5.27,0,0,0,.59-2c0-1.59-1.36-3.88-3-4.1a3.65,3.65,0,0,0-3.19,1.33,5.24,5.24,0,0,0-1.15,3.35,7,7,0,0,0-3.05-1.37c1.06.19,1.78-3.07,2-3.71a11.4,11.4,0,0,1,2.48-4.67,2.28,2.28,0,0,0,.16-3.56,4.85,4.85,0,0,0-2.7-1.21c-1-.17-2-.17-3-.33a8.61,8.61,0,0,1-6.24-3.87,10.32,10.32,0,0,1-1.53-7.12A5,5,0,0,0,497.47,144.27Z" transform="translate(-46.94 -70.77)"/><path class="cls-10" d="M498.9,160.65a.52.52,0,0,0,0,.73.52.52,0,1,0,.76-.7A.52.52,0,0,0,498.9,160.65Z" transform="translate(-46.94 -70.77)"/><path class="cls-10" d="M498.58,173a4,4,0,0,1-2.28,1.54,1.82,1.82,0,0,1-1.8-.77c-.18-.28.28-.51.46-.24.94,1.39,2.57-.14,3.27-.91.23-.24.57.14.35.38Z" transform="translate(-46.94 -70.77)"/><path class="cls-10" d="M502.61,160.23a13,13,0,0,1-4.2-1c-.3-.13-.15-.63.15-.5a12.47,12.47,0,0,0,4.07,1c.34,0,.32.55,0,.52Z" transform="translate(-46.94 -70.77)"/><polygon class="cls-10" points="481.86 343.18 457.69 271.01 448.74 210.52 449.48 210.41 458.41 270.84 482.57 342.94 481.86 343.18"/><polygon class="cls-10" points="438.04 203.23 483.04 203.23 482.69 209.75 438.55 209.75 438.04 203.23"/><path class="cls-10" d="M521.1,292.88H507.85a7.64,7.64,0,0,1-7.62-7.63v-1.51H501v1.51a6.88,6.88,0,0,0,6.87,6.87H521.1Z" transform="translate(-46.94 -70.77)"/><polygon class="cls-10" points="480.5 239.9 477.63 234.23 477.63 212.59 482 212.59 482 213.34 478.38 213.34 478.38 234.14 481.17 239.56 480.5 239.9"/><path class="cls-6" d="M502.26,203.85l-14.49,28-33,18.34-5.1-2.86h-7.34a1.42,1.42,0,0,0,1,1.91l4.61,1,1.48,2-4,2.33h-7.05a3.63,3.63,0,0,0-2.28.81l-1.73,1.42a2.56,2.56,0,0,0-.94,2v1.81a2.66,2.66,0,0,0,.62,1.71l1.34,1.62a4.57,4.57,0,0,0,3.51,1.64h10.86l4.77-2a3.26,3.26,0,0,0,1.44-1.18l3.46-5.19L498.6,241.5,517.76,213a9,9,0,0,0-2.16-12.32h0A9,9,0,0,0,502.26,203.85Z" transform="translate(-46.94 -70.77)"/><path class="cls-24" d="M516,200h0a9.26,9.26,0,0,0-13.68,3.22L487.41,232,456,249.41l5.52,7.2,37-14.75,19.65-29.2A9.25,9.25,0,0,0,516,200Z" transform="translate(-46.94 -70.77)"/><polygon class="cls-10" points="409.23 178.96 408.87 178.31 440.55 160.79 443.4 155.16 444.07 155.5 441.12 161.33 409.23 178.96"/><polygon class="cls-10" points="414.71 186.19 414.43 185.49 451.34 170.79 463.6 152.33 464.23 152.75 451.84 171.4 451.73 171.44 414.71 186.19"/></g><g id="woman"><path class="cls-15" d="M324.56,181.78q-.56-6.74-1.1-13.49c-.57-7,.35-18.27-8.19-20.85a1.84,1.84,0,0,0-1.64.07,1.86,1.86,0,0,0-.57.94c-1.46,4-1.84,8.29-2.2,12.52s-1.44,8.33-2,12.57c-.28,2.2-2,12.12-.33,13.68,3.07,2.82,6,6.25,9.39,8.65,3.11,2.2,5.38,5.65,7.7,8.69-.12-3.56.07-7.19-.12-10.7C325.33,189.85,324.56,185.8,324.56,181.78Z" transform="translate(-46.94 -70.77)"/><path class="cls-6" d="M314.23,190.13s-4.82-8.07-2.82-10.47h.28a9.38,9.38,0,0,0,9.39-9.38l.48-4.31a5,5,0,0,0-.11-1.72l-.95-3.88a20.23,20.23,0,0,0,.42-2.49A11.76,11.76,0,0,0,309.38,148l-5.26,0a13.46,13.46,0,0,0-13.52,13.46h0A12.65,12.65,0,0,0,293,169a40.63,40.63,0,0,1,5.24,10.6c1.51,7.09-2.32,9.24-2.32,9.24-8.59,3.27-10.1,9.69-10.1,9.69l-2,5.5,38.54,5.77C320.26,196.42,314.23,190.13,314.23,190.13Z" transform="translate(-46.94 -70.77)"/><path class="cls-23" d="M311.41,184c-.55-1.75-.74-3.42,0-4.32h.12s0,0,0,0h-8.42Z" transform="translate(-46.94 -70.77)"/><circle class="cls-22" cx="260.93" cy="100.29" r="3.01"/><polygon class="cls-6" points="253.77 218.94 257.09 282.92 262.59 349.99 259.95 356.58 273.6 353.85 270.32 349.46 270.32 209.25 253.77 218.94"/><path class="cls-10" d="M309.49,420.33l-2.76,5.83v5.5H339a6.11,6.11,0,0,0-4.93-6l-7.88-1.55-8.84-3.79h0a3.32,3.32,0,0,1-3.32,3.31h-1.26a3.32,3.32,0,0,1-3.32-3.32Z" transform="translate(-46.94 -70.77)"/><polygon class="cls-21" points="276.93 201.66 270.51 346.75 260.93 346.75 246.98 201.66 276.93 201.66"/><path class="cls-6" d="M358.47,232.51l-34.09-8.27L300.72,200a8.47,8.47,0,1,0-11.25,12.6l31.37,23,36.93,5.86.18-.62a3.2,3.2,0,0,1,2.85-2.28l1-.07v-4.6h-.61a3.39,3.39,0,0,1-2.72-1.36Z" transform="translate(-46.94 -70.77)"/><path class="cls-10" d="M312,163.82a.48.48,0,0,1-.48.48.49.49,0,0,1-.48-.48.48.48,0,0,1,.48-.48A.47.47,0,0,1,312,163.82Z" transform="translate(-46.94 -70.77)"/><path class="cls-10" d="M320,163.34a.48.48,0,0,1-.48.48.49.49,0,0,1-.48-.48.48.48,0,0,1,.48-.48A.47.47,0,0,1,320,163.34Z" transform="translate(-46.94 -70.77)"/><path class="cls-10" d="M315.33,173.48a2.27,2.27,0,0,1-.65-.35,2.53,2.53,0,0,1-1-1.77.29.29,0,0,1,.26-.3.28.28,0,0,1,.3.26,1.89,1.89,0,0,0,2.26,1.72.28.28,0,1,1,.11.54A2.43,2.43,0,0,1,315.33,173.48Z" transform="translate(-46.94 -70.77)"/><rect class="cls-6" x="254.96" y="118.87" width="11.94" height="24.35"/><polygon class="cls-1" points="258.56 130.03 263.68 139.25 266.9 130.03 270.94 130.03 270.94 201.66 244.63 200.87 249.07 127.9 258.56 130.03"/><polygon class="cls-6" points="238.38 221.12 234.34 284.74 233.52 349.8 231.49 356.92 245.13 354.19 241.85 349.8 251.45 212.56 238.38 221.12"/><path class="cls-10" d="M280.82,420.33l-2.77,5.83v5.5h32.31a6.11,6.11,0,0,0-4.93-6l-7.88-1.55-8.84-3.79h0a3.32,3.32,0,0,1-3.32,3.31h-1.26a3.32,3.32,0,0,1-3.31-3.32Z" transform="translate(-46.94 -70.77)"/><polygon class="cls-21" points="229.34 217.28 232.43 347.54 242.89 347.54 259.93 200.87 230.53 200.87 229.34 217.28"/><path class="cls-12" d="M273.9,288.05l5-73.75c.94-13.88,8.22-25.73,22.13-25.73l8.75,8.81-1.16,90.67Z" transform="translate(-46.94 -70.77)"/><path class="cls-12" d="M313.84,189.64h0a57.78,57.78,0,0,1,12.74,33.65l2.95,64.76H313.84Z" transform="translate(-46.94 -70.77)"/><path class="cls-10" d="M314.56,265.55h-1.1v-77l1.12,1.44,6.15,18.78L316.39,211l3.32,4.68v.14Zm-.35-74.26v70.38l4.73-45.76-3.66-5.15,4.54-2.35Z" transform="translate(-46.94 -70.77)"/><rect class="cls-10" x="232.72" y="353.81" width="129.11" height="0.75" transform="translate(-135.56 538.17) rotate(-83.42)"/><path class="cls-10" d="M283,303.12h-4.53v-.74H283a10.57,10.57,0,0,0,10.55-10.56v-1.76h.75v1.76A11.31,11.31,0,0,1,283,303.12Z" transform="translate(-46.94 -70.77)"/><path class="cls-10" d="M311.51,168a4.15,4.15,0,1,1,4.15-4.15A4.16,4.16,0,0,1,311.51,168Zm0-7.55a3.4,3.4,0,1,0,3.4,3.4A3.4,3.4,0,0,0,311.51,160.42Z" transform="translate(-46.94 -70.77)"/><path class="cls-10" d="M320.81,167.67a4.15,4.15,0,1,1,4.15-4.15A4.15,4.15,0,0,1,320.81,167.67Zm0-7.55a3.4,3.4,0,1,0,3.4,3.4A3.4,3.4,0,0,0,320.81,160.12Z" transform="translate(-46.94 -70.77)"/><rect class="cls-10" x="303.8" y="160.08" width="0.75" height="7.14" transform="translate(79.46 389.01) rotate(-87.3)"/><rect class="cls-10" x="268.35" y="91.93" width="1.92" height="0.75"/><polygon class="cls-10" points="243.47 208.6 239.87 208.6 239.87 207.85 243.11 207.85 247.47 202.54 247.47 189.35 234.43 189.35 234.43 188.6 248.22 188.6 248.22 202.81 243.47 208.6"/><polygon class="cls-10" points="280.96 208.6 278.02 208.6 275.96 203.6 275.96 188.6 280.21 188.6 280.21 189.35 276.71 189.35 276.71 203.53 278.52 207.85 280.96 207.85 280.96 208.6"/><path class="cls-10" d="M309.26,265.92h-1.41l-7.05-57.86,3.73-4.93-7.72-4,4.06-11.27,9.28,9.34Zm-.74-.75h0l.87-67.64-8.22-8.28-3.43,9.54,7.93,4.08-4.09,5.4Z" transform="translate(-46.94 -70.77)"/><path class="cls-6" d="M296.52,207.54l27.86,28.7,42.17,10.23,4,.67,4.12-3.27h3.69a2.49,2.49,0,0,1,2.49,2.49v.78h6.52a3.66,3.66,0,0,1,2,.6l.74.49a2.71,2.71,0,0,1,1.2,2.25v2.58a3.35,3.35,0,0,1-1.39,2.73l-.62.46a4.39,4.39,0,0,1-2.59.85h-9.5l-8.4-1.91-47.93-7.61-35.57-27.44A8.46,8.46,0,0,1,283,209.39h0A8.47,8.47,0,0,1,296.52,207.54Z" transform="translate(-46.94 -70.77)"/><path class="cls-1" d="M296.28,207a8.68,8.68,0,0,0-13.85,1.9h0a8.7,8.7,0,0,0,2.32,11L299.21,231l7.17-13.66Z" transform="translate(-46.94 -70.77)"/><path class="cls-15" d="M319.08,149.65c-1.38-3.14-5.95-5-9.7-5.71-5.62-1.15-11.6.31-15.46,4.72-10.23,11.68-11.58,28.06-12.42,42.83a3.33,3.33,0,0,0,.08,1.18,3.2,3.2,0,0,0,1.17,1.39c5.38,4.35,11.91,7.18,17.14,11.55-.74-.61-.58-8-.59-9.27,0-2.5-.15-5.11-.13-7.64l.06-12.17c0-1.6,0-3.2.14-4.79.16-2.07.5-4.11.85-6.16.94-5.54,1.15-5.56,6.49-4.93A11.71,11.71,0,0,0,318.48,155,5.82,5.82,0,0,0,319.08,149.65Z" transform="translate(-46.94 -70.77)"/></g><g id="Man_2-2" data-name="Man 2"><polygon class="cls-6" points="104.44 282.63 104.44 315.22 126.17 337.35 126.17 282.63 104.44 282.63"/><polygon class="cls-6" points="184.52 282.63 184.72 316.39 153.94 336.75 153.94 282.63 184.52 282.63"/><path class="cls-11" d="M151.38,353.4h0a29.18,29.18,0,0,1,29.17-29.18h21.73a29.19,29.19,0,0,1,29.18,29.18H218.38l.2,36.41H164.46V353.4Z" transform="translate(-46.94 -70.77)"/><polygon class="cls-16" points="117.52 319.04 171.64 319.04 171.62 315.31 117.52 315.31 117.52 319.04"/><path class="cls-16" d="M159.33,333.39H223.5a29.61,29.61,0,0,0-5.52-4.58H164.86A29.68,29.68,0,0,0,159.33,333.39Z" transform="translate(-46.94 -70.77)"/><path class="cls-16" d="M151.38,353.4h13.08v2.9h53.93v-2.9h13.08c0-.57,0-1.12-.06-1.68h-80C151.4,352.28,151.38,352.83,151.38,353.4Z" transform="translate(-46.94 -70.77)"/><polygon class="cls-16" points="117.52 303.86 117.52 308.43 171.58 308.43 171.56 303.86 117.52 303.86"/><polygon class="cls-16" points="117.52 292.4 117.52 296.98 171.52 296.98 171.5 292.4 117.52 292.4"/><path class="cls-16" d="M154.5,340.27a28.9,28.9,0,0,0-1.84,4.57h77.52a28.94,28.94,0,0,0-1.85-4.57Z" transform="translate(-46.94 -70.77)"/><rect class="cls-21" x="106.95" y="338.63" width="71.53" height="17.74"/><path class="cls-6" d="M221.4,419.59h11.06l4.43-2H256a7,7,0,0,1,7,7h0a7,7,0,0,1-7,7H237.89l-6.23-2.21-10.26-.8Z" transform="translate(-46.94 -70.77)"/><path class="cls-11" d="M232.46,419.59l4.43-2H256a7,7,0,0,1,7,7h0a7,7,0,0,1-7,7H237.89l-6.23-2.21C240.61,425.43,232.46,419.59,232.46,419.59Z" transform="translate(-46.94 -70.77)"/><path class="cls-10" d="M259.42,424.62a7,7,0,0,0-7-7H256a7,7,0,0,1,0,14.08h-3.62A7,7,0,0,0,259.42,424.62Z" transform="translate(-46.94 -70.77)"/><path class="cls-6" d="M160.43,419.59H149.37l-4.43-2H125.83a7,7,0,0,0-7,7h0a7,7,0,0,0,7,7h18.1l6.24-2.21,10.26-.8Z" transform="translate(-46.94 -70.77)"/><path class="cls-11" d="M149.37,419.59l-4.43-2H125.83a7,7,0,0,0-7,7h0a7,7,0,0,0,7,7h18.1l6.24-2.21C141.22,425.43,149.37,419.59,149.37,419.59Z" transform="translate(-46.94 -70.77)"/><path class="cls-10" d="M122.41,424.62a7,7,0,0,1,7-7h-3.62a7,7,0,1,0,0,14.08h3.62A7,7,0,0,1,122.41,424.62Z" transform="translate(-46.94 -70.77)"/><rect class="cls-24" x="115.31" y="297.31" width="59.96" height="38.15"/><path class="cls-21" d="M156.21,417.58l90.94-32.8h0a22.82,22.82,0,0,1-16.67,30.78L158,430.26Z" transform="translate(-46.94 -70.77)"/><path class="cls-21" d="M224.41,430.26,150.48,414.6a25.43,25.43,0,0,1-19-32.38h0l94,35.36Z" transform="translate(-46.94 -70.77)"/><path class="cls-10" d="M224.75,430.71l-.41-.09L150.4,415a25.88,25.88,0,0,1-20-30.26l.74.15a25.11,25.11,0,0,0,19.38,29.37l73.52,15.57.94-12-62.91-23.68.26-.7,63.45,23.88Z" transform="translate(-46.94 -70.77)"/><polygon class="cls-10" points="117.89 297.31 117.14 297.31 117.14 283 104.44 283 104.44 282.25 117.89 282.25 117.89 297.31"/><polygon class="cls-10" points="171.15 297.31 171.06 282.25 184.52 282.25 184.52 283 171.82 283 171.9 297.31 171.15 297.31"/><path class="cls-13" d="M198.45,387.16a6.23,6.23,0,1,1-6.23-6.23A6.24,6.24,0,0,1,198.45,387.16Z" transform="translate(-46.94 -70.77)"/><polygon class="cls-6" points="151.42 253.45 144.48 264.69 137.54 253.45 137.54 241 151.42 241 151.42 253.45"/><polygon class="cls-1" points="137.54 253.45 136.68 253.45 140.3 271.78 144.48 264.69 137.54 253.45"/><polygon class="cls-1" points="151.42 253.45 152.83 253.45 149.51 271.78 144.48 264.69 151.42 253.45"/><path class="cls-10" d="M187.06,343.59l-3.9-19.74h1.53l7.17,11.61Zm-3-19,3.34,16.92,3.57-6-6.71-10.87Z" transform="translate(-46.94 -70.77)"/><path class="cls-10" d="M196.65,343.5l-5.68-8,7.18-11.63h2.06Zm-4.78-8.05,4.36,6.16,3.08-17h-.74Z" transform="translate(-46.94 -70.77)"/><path class="cls-6" d="M198,318.16l-13.54,3.19v-31a10.75,10.75,0,0,1,10.75-10.76H202a10.76,10.76,0,0,1,10.76,10.76v4.85l-.5,2.83,1,3.58a9.18,9.18,0,0,1,.16,4l-1.63,9C211.73,321.88,205.3,318.16,198,318.16Z" transform="translate(-46.94 -70.77)"/><polygon class="cls-23" points="151.42 247.39 146.47 245.83 149.75 256.16 151.42 253.45 151.42 247.39"/><path class="cls-10" d="M209.25,273.53c-4.14-1.43-8.69-.89-13-.08a14.28,14.28,0,0,0-5.25,1.78,5.29,5.29,0,0,0-2.6,4.64c-2.16,0-4.56.16-6,1.73a6.57,6.57,0,0,0-1.46,3.25c-1.36,7,2.42,14.07,1.94,21.19-.1,1.46-.37,3,.18,4.34s2.38,2.31,3.52,1.4a20.15,20.15,0,0,0,1-8.19,9.57,9.57,0,0,1,.08-3.81c.4-1.21,1.73-2.24,2.93-1.8,2,.73,1.7,5.19,1.82,6.85a11.49,11.49,0,0,0,2.47-.35,40,40,0,0,0,.27-7.18l-.12-4.68c0-.53.23-4.16-.12-4.37,4,2.37,9.54,4.11,14.12,3.05,3.84-.89,7.31-4.09,7.62-8C217,278.9,213.4,275,209.25,273.53Z" transform="translate(-46.94 -70.77)"/><path class="cls-10" d="M203,307.3a4.72,4.72,0,0,0,4.73,2.72c.32,0,.32-.53,0-.5a4.26,4.26,0,0,1-4.3-2.47c-.14-.3-.57,0-.43.25Z" transform="translate(-46.94 -70.77)"/><path class="cls-10" d="M198,297.14c1.78-.1,3.55-.19,5.33-.27.32,0,.32-.51,0-.5-1.78.08-3.55.17-5.33.27-.32,0-.32.52,0,.5Z" transform="translate(-46.94 -70.77)"/><path class="cls-10" d="M206.85,297c1.35,0,2.69.15,4,.32.32,0,.32-.46,0-.5-1.34-.17-2.68-.28-4-.32-.32,0-.32.49,0,.5Z" transform="translate(-46.94 -70.77)"/><path class="cls-10" d="M201.45,299.26c0,.42-.16.76-.37.76s-.38-.34-.38-.76.17-.75.38-.75S201.45,298.85,201.45,299.26Z" transform="translate(-46.94 -70.77)"/><path class="cls-10" d="M208.68,299.26c0,.42-.17.76-.38.76s-.38-.34-.38-.76.17-.75.38-.75S208.68,298.85,208.68,299.26Z" transform="translate(-46.94 -70.77)"/></g><g id="line"><line class="cls-25" y1="360.89" x2="716.53" y2="360.89"/></g></svg>