<svg id="Graphics" xmlns="http://www.w3.org/2000/svg" xmlns:xlink="http://www.w3.org/1999/xlink" viewBox="0 0 716.53 382.45"><defs><style>.cls-1{fill:#91e2f9;}.cls-2{fill:#2e35a8;}.cls-3{fill:#e3edfe;}.cls-4{fill:#eef4fe;}.cls-5{fill:#ff5722;}.cls-21,.cls-6{fill:#191c3c;}.cls-7{fill:#fff;}.cls-8{fill:#536dfe;}.cls-9{fill:#5361f0;}.cls-10{fill:url(#linear-gradient);}.cls-11{fill:url(#linear-gradient-2);}.cls-12{fill:url(#linear-gradient-3);}.cls-13{fill:#a7e8fa;}.cls-14{fill:url(#linear-gradient-4);}.cls-15{fill:#fec55e;}.cls-16{fill:#6471f1;}.cls-17,.cls-25{fill:none;stroke:#191c3c;stroke-miterlimit:10;}.cls-17{stroke-width:0.75px;}.cls-18{fill:#b3cdfa;}.cls-19{fill:#4d5068;}.cls-20{fill:#231f20;}.cls-21{opacity:0.3;}.cls-22{fill:url(#linear-gradient-5);}.cls-23{fill:url(#linear-gradient-6);}.cls-24{fill:#30334f;}.cls-25{stroke-width:0.5px;}</style><linearGradient id="linear-gradient" x1="345.73" y1="146.69" x2="430.01" y2="55.29" gradientUnits="userSpaceOnUse"><stop offset="0" stop-color="#5361f0"/><stop offset="0.14" stop-color="#586bf1"/><stop offset="0.38" stop-color="#6585f3"/><stop offset="0.69" stop-color="#79b0f6"/><stop offset="1" stop-color="#91e2f9"/></linearGradient><linearGradient id="linear-gradient-2" x1="357.68" y1="358.09" x2="409.01" y2="307.42" gradientUnits="userSpaceOnUse"><stop offset="0" stop-color="#2e35a8"/><stop offset="0.37" stop-color="#3a43c0"/><stop offset="1" stop-color="#5361f0"/></linearGradient><linearGradient id="linear-gradient-3" x1="372.91" y1="113.3" x2="398.08" y2="88.3" xlink:href="#linear-gradient"/><linearGradient id="linear-gradient-4" x1="372.91" y1="113.3" x2="398.08" y2="88.3" xlink:href="#linear-gradient"/><linearGradient id="linear-gradient-5" x1="552.19" y1="306.8" x2="552.19" y2="189.91" gradientUnits="userSpaceOnUse"><stop offset="0" stop-color="#91e2f9"/><stop offset="0.14" stop-color="#8edbf9"/><stop offset="0.34" stop-color="#85c8f7"/><stop offset="0.58" stop-color="#76a9f5"/><stop offset="0.84" stop-color="#617ef2"/><stop offset="1" stop-color="#5361f0"/></linearGradient><linearGradient id="linear-gradient-6" x1="534.48" y1="271.61" x2="615.28" y2="271.61" xlink:href="#linear-gradient-5"/></defs><title>Tutorials_1</title><g id="plants"><path class="cls-1" d="M520.16,430.84s57.57-24.35,69.47-78.35c0,0-39,.43-75.51,73Z" transform="translate(-46.94 -49.62)"/><path class="cls-2" d="M588.07,354.31C576.05,366,564,377.7,552,389.5c-11.74,11.59-23.67,23.14-33,36.86-.27.4-1-.07-.71-.48,9.12-13.59,20.86-25,32.45-36.47,12.13-12,24.33-23.9,36.78-35.54.31-.29.81.14.5.44Z" transform="translate(-46.94 -49.62)"/><path class="cls-1" d="M107.62,426.93s-44.2-44.2-34.94-98.71c0,0,36,15,42.55,96Z" transform="translate(-46.94 -49.62)"/><path class="cls-2" d="M73.44,330.49c6.74,15.39,13.57,30.74,20.21,46.17,6.52,15.15,13.24,30.33,16.68,46.53.1.48.94.31.84-.17-3.34-16-9.92-31-16.36-46-6.75-15.66-13.57-31.29-20.74-46.76-.18-.39-.8-.18-.63.22Z" transform="translate(-46.94 -49.62)"/><path class="cls-1" d="M110.88,401.64S142.53,370,135.9,331c0,0-25.75,10.78-30.47,68.76Z" transform="translate(-46.94 -49.62)"/><path class="cls-2" d="M135.35,332.58c-4.82,11-9.71,22-14.47,33.06-4.66,10.85-9.47,21.72-11.94,33.33-.07.33-.67.21-.6-.13,2.39-11.47,7.1-22.22,11.72-32.93,4.83-11.22,9.71-22.41,14.84-33.49.13-.27.58-.12.45.16Z" transform="translate(-46.94 -49.62)"/><path class="cls-1" d="M520.54,431.17s45.71-65.38,21.93-131.83c0,0-41.85,26.92-32.1,130.14Z" transform="translate(-46.94 -49.62)"/><path class="cls-2" d="M542,302.36c-5,20.85-10.21,41.66-15.12,62.53-4.81,20.49-9.88,41.06-10.6,62.19,0,.62-1.11.59-1.1,0,.64-20.88,5.57-41.2,10.34-61.44,5-21.18,10.08-42.35,15.64-63.39.14-.52,1-.39.84.14Z" transform="translate(-46.94 -49.62)"/></g><g id="phone_and_elements" data-name="phone and elements"><path class="cls-3" d="M154.91,203.61h8.8a3.23,3.23,0,0,0,3.23-3.23V189.14a3.23,3.23,0,0,0-3.23-3.22h-6.89a2.71,2.71,0,0,1-2.53-1.8c-.24-.64-.5-1.28-.79-1.9a2.74,2.74,0,0,1,.5-3.07l4.88-4.87a3.24,3.24,0,0,0,0-4.57l-8-7.93a3.22,3.22,0,0,0-4.56,0l-4.91,4.91a2.67,2.67,0,0,1-2.94.56c-.7-.3-1.46-.6-2.11-.85a2.67,2.67,0,0,1-1.69-2.48v-7a3.23,3.23,0,0,0-3.22-3.23H120.26A3.23,3.23,0,0,0,117,157v6.89a2.72,2.72,0,0,1-1.8,2.52c-.68.25-1.34.53-2,.83a2.71,2.71,0,0,1-3.06-.49l-4.89-4.86a3.22,3.22,0,0,0-4.56,0l-7.92,8a3.24,3.24,0,0,0,0,4.57l4.93,4.89a2.68,2.68,0,0,1,.57,2.94c-.3.7-.6,1.46-.85,2.11A2.66,2.66,0,0,1,95,186l-7,0a3.24,3.24,0,0,0-3.22,3.24l0,11.22a3.21,3.21,0,0,0,3.23,3.22H95a2.69,2.69,0,0,1,2.52,1.8c.24.64.51,1.27.8,1.9a2.73,2.73,0,0,1-.5,3.06l-4.87,4.89a3.23,3.23,0,0,0,0,4.56l8,7.92a3.21,3.21,0,0,0,4.56,0l4.9-4.92a2.69,2.69,0,0,1,2.94-.57c.7.3,1.46.61,2.11.86a2.65,2.65,0,0,1,1.69,2.48v7a3.24,3.24,0,0,0,3.24,3.22l11.22,0a3.23,3.23,0,0,0,3.23-3.23l0-6.89a2.71,2.71,0,0,1,1.81-2.53c.64-.24,1.27-.51,1.9-.79a2.69,2.69,0,0,1,3.06.5l4.88,4.87a3.24,3.24,0,0,0,4.57,0l7.93-7.95a3.23,3.23,0,0,0,0-4.56L154,210.34a2.66,2.66,0,0,1-.56-2.93C154.13,205.73,154.87,203.73,154.91,203.61Zm-44.69-11.69a15.91,15.91,0,1,1,9.91,17.71A15.92,15.92,0,0,1,110.22,191.92Z" transform="translate(-46.94 -49.62)"/><path class="cls-3" d="M674.15,165.81H683a3.22,3.22,0,0,0,3.22-3.23V151.35a3.22,3.22,0,0,0-3.23-3.23H676a2.71,2.71,0,0,1-2.52-1.81c-.24-.64-.51-1.27-.79-1.9a2.72,2.72,0,0,1,.5-3.06l4.87-4.88a3.22,3.22,0,0,0,0-4.56L670.16,124a3.22,3.22,0,0,0-4.56,0l-4.91,4.91a2.66,2.66,0,0,1-2.94.57c-.7-.3-1.46-.6-2.11-.86a2.66,2.66,0,0,1-1.69-2.48v-7a3.22,3.22,0,0,0-3.23-3.22H639.5a3.22,3.22,0,0,0-3.23,3.22v6.89a2.72,2.72,0,0,1-1.8,2.52c-.68.26-1.34.54-2,.84a2.71,2.71,0,0,1-3.06-.5l-4.89-4.86a3.24,3.24,0,0,0-4.57,0L612,132a3.22,3.22,0,0,0,0,4.56l4.93,4.9a2.69,2.69,0,0,1,.57,2.94c-.3.7-.6,1.45-.86,2.11a2.64,2.64,0,0,1-2.47,1.69h-7a3.23,3.23,0,0,0-3.22,3.24l0,11.23a3.23,3.23,0,0,0,3.23,3.22l6.89,0a2.71,2.71,0,0,1,2.53,1.8c.24.64.51,1.28.79,1.9a2.71,2.71,0,0,1-.5,3.07l-4.86,4.88a3.22,3.22,0,0,0,0,4.56l8,7.93a3.23,3.23,0,0,0,4.56,0l4.9-4.92a2.65,2.65,0,0,1,2.94-.57c.7.3,1.46.6,2.11.85a2.66,2.66,0,0,1,1.69,2.48v7a3.23,3.23,0,0,0,3.23,3.22l11.23,0a3.22,3.22,0,0,0,3.22-3.23v-6.89a2.74,2.74,0,0,1,1.8-2.53c.65-.24,1.28-.5,1.91-.79a2.73,2.73,0,0,1,3.06.5l4.88,4.87a3.22,3.22,0,0,0,4.56,0l7.93-7.95a3.24,3.24,0,0,0,0-4.57l-4.92-4.9a2.67,2.67,0,0,1-.56-2.94C673.37,167.93,674.11,165.93,674.15,165.81Zm-44.69-11.68a15.91,15.91,0,1,1,9.91,17.7A15.91,15.91,0,0,1,629.46,154.13Z" transform="translate(-46.94 -49.62)"/><path class="cls-4" d="M249.75,193h9.8a3.6,3.6,0,0,0,3.6-3.6v-12.5a3.59,3.59,0,0,0-3.6-3.59h-7.68a3,3,0,0,1-2.81-2c-.27-.71-.56-1.42-.88-2.12a3,3,0,0,1,.56-3.41l5.43-5.43a3.6,3.6,0,0,0,0-5.08l-8.85-8.84a3.59,3.59,0,0,0-5.08,0l-5.47,5.47a3,3,0,0,1-3.27.63c-.79-.34-1.63-.67-2.35-1a3,3,0,0,1-1.88-2.76V141a3.6,3.6,0,0,0-3.6-3.6H211.15a3.6,3.6,0,0,0-3.59,3.6v7.68a3,3,0,0,1-2,2.8q-1.12.44-2.22.93a3,3,0,0,1-3.41-.55l-5.45-5.42a3.59,3.59,0,0,0-5.08,0l-8.82,8.87a3.59,3.59,0,0,0,0,5.08l5.49,5.46a3,3,0,0,1,.63,3.27c-.33.78-.66,1.62-.94,2.35a3,3,0,0,1-2.76,1.88l-7.76,0a3.6,3.6,0,0,0-3.58,3.61l0,12.5a3.6,3.6,0,0,0,3.6,3.59l7.68,0a3,3,0,0,1,2.81,2c.28.71.57,1.42.89,2.11a3,3,0,0,1-.56,3.42l-5.42,5.44a3.6,3.6,0,0,0,0,5.08l8.87,8.83a3.6,3.6,0,0,0,5.08,0l5.46-5.49a3,3,0,0,1,3.27-.63c.78.33,1.63.67,2.35.95a3,3,0,0,1,1.89,2.76v7.75a3.58,3.58,0,0,0,3.6,3.59l12.51,0a3.58,3.58,0,0,0,3.58-3.6v-7.68a3,3,0,0,1,2-2.81c.72-.27,1.42-.56,2.12-.88a3,3,0,0,1,3.41.56l5.44,5.42a3.59,3.59,0,0,0,5.08,0L254.2,211a3.6,3.6,0,0,0,0-5.08l-5.48-5.47a3,3,0,0,1-.63-3.27C248.89,195.33,249.71,193.1,249.75,193ZM200,180a17.72,17.72,0,1,1,11,19.71A17.74,17.74,0,0,1,200,180Z" transform="translate(-46.94 -49.62)"/><path class="cls-4" d="M554.94,299.35h6.77a2.48,2.48,0,0,0,2.48-2.48v-8.64a2.46,2.46,0,0,0-2.48-2.47h-5.3a2.09,2.09,0,0,1-1.94-1.39c-.19-.49-.39-1-.61-1.46a2.1,2.1,0,0,1,.39-2.36l3.74-3.75a2.48,2.48,0,0,0,0-3.51l-6.11-6.1a2.48,2.48,0,0,0-3.51,0L544.59,271a2.06,2.06,0,0,1-2.26.43l-1.62-.66a2,2,0,0,1-1.3-1.9v-5.36a2.48,2.48,0,0,0-2.48-2.48h-8.64a2.48,2.48,0,0,0-2.48,2.48v5.3a2.09,2.09,0,0,1-1.39,1.94c-.52.2-1,.41-1.53.64a2.08,2.08,0,0,1-2.36-.38l-3.76-3.74a2.49,2.49,0,0,0-3.51,0l-6.09,6.13a2.49,2.49,0,0,0,0,3.51l3.79,3.76a2,2,0,0,1,.44,2.26c-.23.54-.46,1.12-.66,1.63a2,2,0,0,1-1.9,1.3H503.5a2.49,2.49,0,0,0-2.48,2.49l0,8.63a2.49,2.49,0,0,0,2.49,2.48h5.3a2.07,2.07,0,0,1,1.94,1.38c.19.49.39,1,.61,1.46a2.08,2.08,0,0,1-.38,2.36l-3.74,3.76a2.48,2.48,0,0,0,0,3.51l6.12,6.09a2.48,2.48,0,0,0,3.51,0l3.77-3.78a2,2,0,0,1,2.26-.44c.53.23,1.12.46,1.62.66a2,2,0,0,1,1.3,1.9v5.35a2.47,2.47,0,0,0,2.48,2.48H537a2.49,2.49,0,0,0,2.48-2.49v-5.3a2.09,2.09,0,0,1,1.38-1.94c.5-.19,1-.39,1.47-.61a2.09,2.09,0,0,1,2.35.39l3.76,3.74a2.47,2.47,0,0,0,3.5,0l6.1-6.12a2.48,2.48,0,0,0,0-3.51l-3.78-3.77a2,2,0,0,1-.44-2.26C554.34,301,554.91,299.44,554.94,299.35Zm-34.37-9A12.24,12.24,0,1,1,528.19,304,12.24,12.24,0,0,1,520.57,290.37Z" transform="translate(-46.94 -49.62)"/><path class="cls-4" d="M648.92,246.31h6.77a2.48,2.48,0,0,0,2.48-2.48v-8.64a2.49,2.49,0,0,0-2.49-2.48h-5.3a2.08,2.08,0,0,1-1.94-1.38c-.18-.5-.39-1-.61-1.47a2.09,2.09,0,0,1,.39-2.35l3.75-3.75a2.48,2.48,0,0,0,0-3.51l-6.11-6.1a2.48,2.48,0,0,0-3.51,0l-3.78,3.77a2,2,0,0,1-2.26.44c-.54-.23-1.12-.47-1.62-.66a2,2,0,0,1-1.3-1.91v-5.35a2.48,2.48,0,0,0-2.48-2.48h-8.64a2.48,2.48,0,0,0-2.48,2.48v5.3a2.08,2.08,0,0,1-1.38,1.94c-.52.19-1,.41-1.54.64a2.07,2.07,0,0,1-2.35-.38l-3.76-3.74a2.48,2.48,0,0,0-3.51,0l-6.09,6.12a2.47,2.47,0,0,0,0,3.51L605,227.6a2,2,0,0,1,.44,2.26c-.23.54-.46,1.12-.65,1.62a2,2,0,0,1-1.9,1.3l-5.36,0a2.46,2.46,0,0,0-2.47,2.48l0,8.64a2.48,2.48,0,0,0,2.48,2.48l5.31,0a2.1,2.1,0,0,1,1.94,1.39c.19.49.39,1,.61,1.46a2.08,2.08,0,0,1-.38,2.35l-3.75,3.76a2.49,2.49,0,0,0,0,3.51l6.12,6.09a2.48,2.48,0,0,0,3.51,0l3.77-3.79a2.06,2.06,0,0,1,2.26-.43c.54.23,1.12.46,1.62.65a2,2,0,0,1,1.3,1.91v5.35a2.49,2.49,0,0,0,2.49,2.48l8.63,0a2.48,2.48,0,0,0,2.48-2.48v-5.3a2.09,2.09,0,0,1,1.39-1.94c.49-.19,1-.39,1.46-.61a2.08,2.08,0,0,1,2.36.38l3.75,3.75a2.49,2.49,0,0,0,3.51,0l6.1-6.11a2.48,2.48,0,0,0,0-3.51l-3.78-3.77a2.06,2.06,0,0,1-.43-2.26C648.33,247.93,648.9,246.4,648.92,246.31Zm-34.36-9a12.24,12.24,0,1,1,7.62,13.61A12.24,12.24,0,0,1,614.56,237.32Z" transform="translate(-46.94 -49.62)"/><path class="cls-4" d="M188.5,277.56h6.77a2.48,2.48,0,0,0,2.48-2.48v-8.64a2.48,2.48,0,0,0-2.48-2.48H190a2.06,2.06,0,0,1-1.94-1.38c-.19-.5-.39-1-.61-1.47a2.07,2.07,0,0,1,.38-2.35l3.75-3.75a2.48,2.48,0,0,0,0-3.51l-6.11-6.1a2.48,2.48,0,0,0-3.51,0l-3.77,3.77a2,2,0,0,1-2.26.44c-.54-.23-1.13-.47-1.63-.66A2.05,2.05,0,0,1,173,247v-5.35a2.49,2.49,0,0,0-2.49-2.48h-8.63a2.48,2.48,0,0,0-2.48,2.48V247a2.09,2.09,0,0,1-1.39,1.94c-.52.19-1,.41-1.54.64a2.07,2.07,0,0,1-2.35-.38l-3.76-3.74a2.48,2.48,0,0,0-3.51,0l-6.09,6.12a2.48,2.48,0,0,0,0,3.51l3.79,3.77a2.06,2.06,0,0,1,.44,2.26c-.23.54-.46,1.12-.66,1.62a2,2,0,0,1-1.9,1.3l-5.36,0a2.47,2.47,0,0,0-2.47,2.48l0,8.64a2.49,2.49,0,0,0,2.49,2.48l5.3,0a2.09,2.09,0,0,1,1.94,1.39c.19.49.39,1,.61,1.46a2.07,2.07,0,0,1-.38,2.35l-3.74,3.76a2.48,2.48,0,0,0,0,3.51l6.12,6.09a2.48,2.48,0,0,0,3.51,0l3.77-3.79a2.06,2.06,0,0,1,2.26-.43c.54.23,1.12.46,1.62.65a2,2,0,0,1,1.3,1.91v5.35a2.49,2.49,0,0,0,2.49,2.48l8.64,0a2.46,2.46,0,0,0,2.47-2.48v-5.3a2.09,2.09,0,0,1,1.39-1.94c.49-.19,1-.39,1.46-.61a2.08,2.08,0,0,1,2.36.38l3.75,3.75a2.49,2.49,0,0,0,3.51,0l6.1-6.11a2.48,2.48,0,0,0,0-3.51l-3.78-3.77a2,2,0,0,1-.44-2.26C187.9,279.18,188.47,277.65,188.5,277.56Zm-34.37-9a12.24,12.24,0,1,1,7.62,13.61A12.24,12.24,0,0,1,154.13,268.57Z" transform="translate(-46.94 -49.62)"/><path class="cls-4" d="M563.82,210.1h9.8a3.6,3.6,0,0,0,3.59-3.6V194a3.61,3.61,0,0,0-3.6-3.59h-7.68a3,3,0,0,1-2.81-2c-.27-.72-.56-1.43-.88-2.12a3,3,0,0,1,.56-3.42l5.43-5.43a3.6,3.6,0,0,0,0-5.08l-8.85-8.84a3.61,3.61,0,0,0-5.09,0L548.83,169a3,3,0,0,1-3.28.63c-.78-.33-1.62-.67-2.35-1a3,3,0,0,1-1.88-2.76v-7.76a3.59,3.59,0,0,0-3.59-3.59H525.22a3.59,3.59,0,0,0-3.59,3.59v7.68a3,3,0,0,1-2,2.81c-.75.28-1.49.59-2.22.92A3,3,0,0,1,514,169l-5.44-5.41a3.59,3.59,0,0,0-5.08,0l-8.82,8.87a3.6,3.6,0,0,0,0,5.09l5.49,5.45a3,3,0,0,1,.63,3.27c-.33.78-.66,1.63-.95,2.35a3,3,0,0,1-2.75,1.89l-7.76,0a3.59,3.59,0,0,0-3.58,3.6l0,12.51a3.59,3.59,0,0,0,3.6,3.58l7.68,0a3,3,0,0,1,2.81,2c.27.72.57,1.42.89,2.12a3,3,0,0,1-.56,3.41l-5.42,5.44a3.6,3.6,0,0,0,0,5.08l8.87,8.83a3.59,3.59,0,0,0,5.08,0l5.46-5.48a3,3,0,0,1,3.27-.64c.78.34,1.62.67,2.35,1a2.94,2.94,0,0,1,1.88,2.75l0,7.76a3.6,3.6,0,0,0,3.6,3.59l12.5,0a3.6,3.6,0,0,0,3.59-3.6v-7.68a3,3,0,0,1,2-2.81c.71-.27,1.42-.57,2.12-.89a3,3,0,0,1,3.41.56l5.43,5.42a3.6,3.6,0,0,0,5.09,0l8.83-8.86a3.59,3.59,0,0,0,0-5.08l-5.47-5.46a3,3,0,0,1-.63-3.28C563,212.46,563.78,210.24,563.82,210.1Zm-49.78-13a17.72,17.72,0,1,1,11,19.72A17.72,17.72,0,0,1,514,197.09Z" transform="translate(-46.94 -49.62)"/><rect class="cls-5" x="53.7" y="334.23" width="50.46" height="47.58" rx="9.31"/><path class="cls-6" d="M141.79,431.81v-.75a8.94,8.94,0,0,0,8.93-8.94v-29a8.94,8.94,0,0,0-8.93-8.94H119.44v-.75h22.35a9.7,9.7,0,0,1,9.68,9.69v29A9.7,9.7,0,0,1,141.79,431.81Z" transform="translate(-46.94 -49.62)"/><path class="cls-6" d="M106.25,424.4V390.88a7.26,7.26,0,0,1,7.46-7h-3.77a9.3,9.3,0,0,0-9.3,9.3v29a9.3,9.3,0,0,0,9.3,9.3h3.77A7.26,7.26,0,0,1,106.25,424.4Z" transform="translate(-46.94 -49.62)"/><path class="cls-7" d="M139.62,412.58h3.57a1.31,1.31,0,0,0,1.31-1.31v-4.55a1.31,1.31,0,0,0-1.31-1.31h-2.79a1.1,1.1,0,0,1-1-.73c-.1-.27-.21-.52-.32-.78a1.11,1.11,0,0,1,.2-1.24l2-2a1.31,1.31,0,0,0,0-1.85L138,395.63a1.31,1.31,0,0,0-1.85,0l-2,2a1.06,1.06,0,0,1-1.19.23l-.86-.35a1.07,1.07,0,0,1-.68-1v-2.82a1.31,1.31,0,0,0-1.31-1.31h-4.55a1.31,1.31,0,0,0-1.3,1.31v2.79a1.1,1.1,0,0,1-.73,1c-.28.11-.55.22-.81.34a1.09,1.09,0,0,1-1.24-.2l-2-2a1.3,1.3,0,0,0-1.85,0l-3.21,3.22a1.31,1.31,0,0,0,0,1.85l2,2a1.09,1.09,0,0,1,.23,1.19c-.12.28-.24.59-.34.85a1.07,1.07,0,0,1-1,.69h-2.82a1.31,1.31,0,0,0-1.3,1.31v4.55a1.31,1.31,0,0,0,1.31,1.31h2.79a1.12,1.12,0,0,1,1,.73,7.35,7.35,0,0,0,.32.77,1.11,1.11,0,0,1-.2,1.24l-2,2a1.32,1.32,0,0,0,0,1.85l3.22,3.21a1.31,1.31,0,0,0,1.85,0l2-2a1.09,1.09,0,0,1,1.19-.23l.85.35a1.07,1.07,0,0,1,.69,1v2.82a1.31,1.31,0,0,0,1.31,1.31h4.55a1.31,1.31,0,0,0,1.31-1.31v-2.79a1.1,1.1,0,0,1,.73-1c.26-.1.52-.21.77-.33a1.1,1.1,0,0,1,1.24.21l2,2a1.31,1.31,0,0,0,1.85,0l3.21-3.22a1.31,1.31,0,0,0,0-1.85l-2-2a1.09,1.09,0,0,1-.23-1.19C139.31,413.44,139.61,412.63,139.62,412.58ZM120.7,407.7a7.28,7.28,0,1,1,4.53,8.1A7.28,7.28,0,0,1,120.7,407.7Z" transform="translate(-46.94 -49.62)"/><path class="cls-3" d="M490.33,353.91h8.05a3,3,0,0,0,2.95-3V340.69a3,3,0,0,0-2.95-2.95h-6.3a2.49,2.49,0,0,1-2.31-1.65q-.33-.89-.72-1.74a2.48,2.48,0,0,1,.46-2.8L494,327.1a3,3,0,0,0,0-4.17l-7.26-7.25a3,3,0,0,0-4.17,0L478,320.17a2.43,2.43,0,0,1-2.68.52c-.64-.28-1.34-.56-1.93-.79a2.41,2.41,0,0,1-1.54-2.26v-6.37a3,3,0,0,0-2.95-2.95H458.66a3,3,0,0,0-3,2.95v6.3a2.48,2.48,0,0,1-1.65,2.31c-.61.23-1.22.48-1.82.76a2.48,2.48,0,0,1-2.8-.45L445,315.74a3,3,0,0,0-4.17,0L433.56,323a2.94,2.94,0,0,0,0,4.17l4.5,4.48a2.44,2.44,0,0,1,.52,2.69c-.27.64-.55,1.33-.78,1.92a2.41,2.41,0,0,1-2.26,1.55l-6.37,0a3,3,0,0,0-2.94,2.95l0,10.27a2.94,2.94,0,0,0,3,2.94l6.29,0a2.48,2.48,0,0,1,2.31,1.65c.23.59.47,1.17.73,1.74a2.48,2.48,0,0,1-.46,2.8l-4.44,4.46a2.94,2.94,0,0,0,0,4.17l7.27,7.25a3,3,0,0,0,4.17,0l4.48-4.5a2.44,2.44,0,0,1,2.69-.52l1.92.78a2.41,2.41,0,0,1,1.55,2.26v6.37a2.94,2.94,0,0,0,3,2.94l10.27,0a2.93,2.93,0,0,0,2.94-2.95v-6.3a2.49,2.49,0,0,1,1.65-2.31q.89-.33,1.74-.72a2.46,2.46,0,0,1,2.8.46l4.46,4.45a3,3,0,0,0,4.17,0l7.25-7.26a3,3,0,0,0,0-4.18l-4.49-4.48a2.44,2.44,0,0,1-.52-2.69C489.63,355.85,490.3,354,490.33,353.91Zm-40.84-10.68a14.54,14.54,0,1,1,9.05,16.18A14.55,14.55,0,0,1,449.49,343.23Z" transform="translate(-46.94 -49.62)"/><path class="cls-8" d="M714.31,329a3.16,3.16,0,1,1,3.16-3.16A3.17,3.17,0,0,1,714.31,329Zm0-5.82a2.66,2.66,0,1,0,2.66,2.66A2.67,2.67,0,0,0,714.31,323.22Z" transform="translate(-46.94 -49.62)"/><path class="cls-8" d="M140.93,320.52a3.17,3.17,0,1,1,3.16-3.16A3.17,3.17,0,0,1,140.93,320.52Zm0-5.83a2.67,2.67,0,1,0,2.66,2.67A2.67,2.67,0,0,0,140.93,314.69Z" transform="translate(-46.94 -49.62)"/><path class="cls-6" d="M230.47,398.73a2,2,0,1,1,2-2A2,2,0,0,1,230.47,398.73Zm0-3.41a1.46,1.46,0,1,0,1.46,1.45A1.45,1.45,0,0,0,230.47,395.32Z" transform="translate(-46.94 -49.62)"/><path class="cls-6" d="M465.51,345.06a2,2,0,1,1,1.95-2A2,2,0,0,1,465.51,345.06Zm0-3.41A1.46,1.46,0,1,0,467,343.1,1.45,1.45,0,0,0,465.51,341.65Z" transform="translate(-46.94 -49.62)"/><path class="cls-9" d="M646.59,306.83a1.51,1.51,0,1,1-1.5-1.51A1.5,1.5,0,0,1,646.59,306.83Z" transform="translate(-46.94 -49.62)"/><circle class="cls-6" cx="442.37" cy="255.19" r="1.2"/><circle class="cls-5" cx="66.77" cy="273.1" r="1.2"/><circle class="cls-5" cx="196.34" cy="291.31" r="1.2"/><path class="cls-5" d="M429.94,338.49a2.86,2.86,0,1,1,2.86-2.85A2.86,2.86,0,0,1,429.94,338.49Zm0-5.21a2.36,2.36,0,1,0,2.36,2.36A2.36,2.36,0,0,0,429.94,333.28Z" transform="translate(-46.94 -49.62)"/><path class="cls-6" d="M374.55,385.43a2,2,0,1,1,1.95-2A2,2,0,0,1,374.55,385.43Zm0-3.41a1.46,1.46,0,1,0,1.45,1.45A1.46,1.46,0,0,0,374.55,382Z" transform="translate(-46.94 -49.62)"/><path class="cls-6" d="M175.7,355.72a2,2,0,1,1,2-2A2,2,0,0,1,175.7,355.72Zm0-3.41a1.46,1.46,0,1,0,1.46,1.45A1.45,1.45,0,0,0,175.7,352.31Z" transform="translate(-46.94 -49.62)"/><path class="cls-6" d="M175.7,312.55a2,2,0,1,1,2-1.95A1.95,1.95,0,0,1,175.7,312.55Zm0-3.4a1.45,1.45,0,1,0,1.46,1.45A1.45,1.45,0,0,0,175.7,309.15Z" transform="translate(-46.94 -49.62)"/><path class="cls-6" d="M636.67,353.76a2,2,0,1,1,2-1.95A1.95,1.95,0,0,1,636.67,353.76Zm0-3.41a1.46,1.46,0,1,0,1.45,1.46A1.46,1.46,0,0,0,636.67,350.35Z" transform="translate(-46.94 -49.62)"/><circle class="cls-9" cx="312.61" cy="342.05" r="1.2"/><circle class="cls-6" cx="113.08" cy="328.77" r="1.2"/><circle class="cls-6" cx="627.48" cy="277.89" r="1.2"/><circle class="cls-6" cx="407.57" cy="261.66" r="1.2"/><circle class="cls-5" cx="632.95" cy="243.89" r="1.2"/><circle class="cls-5" cx="95.2" cy="312.5" r="1.2"/><circle class="cls-5" cx="443.62" cy="300.24" r="1.2"/><circle class="cls-5" cx="648.39" cy="319.42" r="1.2"/><path class="cls-6" d="M498.28,223.63a6.33,6.33,0,0,0-6.51-6.12H477.89a5.46,5.46,0,0,1-5.09-3.43c-.48-1.22-1-2.42-1.59-3.61a4.93,4.93,0,0,1,1-5.82L482,195.4a5.88,5.88,0,0,0,0-8.67l-5.46-5.14,1.55.09L476.2,170H462.78a6.72,6.72,0,0,0-5.94,1.65L447,181a5.63,5.63,0,0,1-5.92,1.08c-1.41-.57-2.94-1.15-4.25-1.63a5.06,5.06,0,0,1-3.4-4.71V162.5a6.32,6.32,0,0,0-6.5-6.13H404.25a6.32,6.32,0,0,0-6.5,6.13v13.09a5.19,5.19,0,0,1-3.63,4.79c-1.36.48-2.7,1-4,1.58a5.83,5.83,0,0,1-5.39-.35l1.23.07L384,170H369.55a6.72,6.72,0,0,0-4.67,1.81l-15.95,15.12a5.88,5.88,0,0,0,0,8.67l9.92,9.31a4.86,4.86,0,0,1,1.15,5.58c-.6,1.33-1.21,2.77-1.71,4a5.35,5.35,0,0,1-5,3.21l-14,0a6.32,6.32,0,0,0-6.48,6.15l.05,21.33a6.34,6.34,0,0,0,6.52,6.12l13.89,0a5.49,5.49,0,0,1,5.09,3.42c.49,1.22,1,2.43,1.6,3.61a5,5,0,0,1-1,5.82l-9.8,9.28a5.88,5.88,0,0,0,0,8.67l16,15a6.63,6.63,0,0,0,4.81,1.77h14.46l1.85-12.35a5.67,5.67,0,0,1,3.87.13c1.41.56,2.93,1.14,4.25,1.62a5,5,0,0,1,3.4,4.7l0,13.23a6.33,6.33,0,0,0,6.51,6.12l22.62,0a6.31,6.31,0,0,0,6.49-6.14l0-13.09a5.17,5.17,0,0,1,3.63-4.79c1.3-.47,2.57-1,3.83-1.51a5.72,5.72,0,0,1,6.17.95L457,297a6.68,6.68,0,0,0,4.85,1.77h14.4l1.93-12.88h-.24l4.23-4a5.89,5.89,0,0,0,0-8.67l-9.91-9.32a4.86,4.86,0,0,1-1.14-5.58c1.45-3.19,2.93-7,3-7.22H491.8a6.31,6.31,0,0,0,6.49-6.14ZM447.1,239.81c-3.76,18.85-24.48,29.5-43.11,22.74-14.15-5.14-22.76-19.58-20-33.63,3.77-18.86,24.48-29.51,43.11-22.74C441.29,211.32,449.9,225.75,447.1,239.81Z" transform="translate(-46.94 -49.62)"/><path class="cls-9" d="M488.6,251.11h17.74a6.31,6.31,0,0,0,6.49-6.14V223.63a6.33,6.33,0,0,0-6.51-6.12H492.43a5.46,5.46,0,0,1-5.09-3.43c-.49-1.22-1-2.42-1.59-3.61a4.93,4.93,0,0,1,1-5.82l9.82-9.26a5.89,5.89,0,0,0,0-8.67l-16-15.08a6.79,6.79,0,0,0-9.19,0L461.49,181a5.63,5.63,0,0,1-5.92,1.08c-1.42-.57-2.94-1.15-4.25-1.63a5.06,5.06,0,0,1-3.4-4.71V162.5a6.32,6.32,0,0,0-6.51-6.13H418.79a6.32,6.32,0,0,0-6.5,6.13v13.09a5.19,5.19,0,0,1-3.63,4.79c-1.36.48-2.7,1-4,1.58a5.74,5.74,0,0,1-6.18-.94l-9.85-9.24a6.78,6.78,0,0,0-9.19,0l-15.95,15.12a5.88,5.88,0,0,0,0,8.67l9.92,9.31a4.86,4.86,0,0,1,1.15,5.58c-.6,1.33-1.21,2.77-1.72,4a5.32,5.32,0,0,1-5,3.21l-14,0a6.32,6.32,0,0,0-6.48,6.15l.05,21.33a6.34,6.34,0,0,0,6.52,6.12l13.89,0a5.46,5.46,0,0,1,5.08,3.42c.49,1.22,1,2.43,1.6,3.61a4.93,4.93,0,0,1-1,5.82l-9.8,9.28a5.88,5.88,0,0,0,0,8.67l16,15a6.78,6.78,0,0,0,9.19,0l9.88-9.35a5.6,5.6,0,0,1,5.92-1.08c1.41.56,2.93,1.14,4.25,1.62a5,5,0,0,1,3.4,4.7l0,13.23a6.33,6.33,0,0,0,6.51,6.12l22.62,0A6.31,6.31,0,0,0,448,306.2l0-13.09a5.17,5.17,0,0,1,3.63-4.79c1.29-.47,2.57-1,3.83-1.51a5.72,5.72,0,0,1,6.17.95l9.83,9.25a6.79,6.79,0,0,0,9.2,0l16-15.1a5.88,5.88,0,0,0,0-8.67l-9.9-9.32a4.84,4.84,0,0,1-1.14-5.58C487,255.14,488.53,251.34,488.6,251.11Zm-90-22.19c3.76-18.86,24.48-29.51,43.11-22.74,14.14,5.14,22.76,19.57,20,33.63-3.76,18.85-24.48,29.5-43.11,22.74C404.38,257.41,395.77,243,398.57,228.92Z" transform="translate(-46.94 -49.62)"/><path class="cls-6" d="M430.14,265a34.54,34.54,0,0,1-11.74-2.07c-14.35-5.21-23-19.85-20.2-34a30.42,30.42,0,0,1,15.28-20.75,34,34,0,0,1,28.32-2.27c14.35,5.21,23,19.85,20.21,34a30.45,30.45,0,0,1-15.28,20.75A33.77,33.77,0,0,1,430.14,265Zm-.07-60.46a33,33,0,0,0-16.22,4.24A29.67,29.67,0,0,0,398.94,229h0c-2.76,13.84,5.71,28.12,19.72,33.2a33.24,33.24,0,0,0,27.7-2.21,29.71,29.71,0,0,0,14.91-20.25c2.76-13.84-5.72-28.11-19.72-33.2A33.79,33.79,0,0,0,430.07,204.51Z" transform="translate(-46.94 -49.62)"/><path class="cls-6" d="M432.81,93.27a4.12,4.12,0,0,0-4.23-4h-9a3.55,3.55,0,0,1-3.3-2.23c-.31-.79-.66-1.57-1-2.34A3.2,3.2,0,0,1,415.9,81l6.37-6a3.83,3.83,0,0,0,0-5.63L418.73,66l1,.06-1.26-7.59h-8.7a4.38,4.38,0,0,0-3.86,1.08l-6.42,6.05a3.63,3.63,0,0,1-3.84.7c-.92-.37-1.91-.75-2.76-1.06a3.27,3.27,0,0,1-2.2-3.06V53.59a4.11,4.11,0,0,0-4.23-4H371.78a4.1,4.1,0,0,0-4.22,4v8.5a3.36,3.36,0,0,1-2.36,3.11c-.88.31-1.75.65-2.6,1a3.78,3.78,0,0,1-3.51-.23l.81,0-1.26-7.59h-9.38a4.33,4.33,0,0,0-3,1.17l-10.35,9.81a3.82,3.82,0,0,0,0,5.63l6.44,6a3.14,3.14,0,0,1,.75,3.62c-.39.87-.78,1.8-1.11,2.6a3.48,3.48,0,0,1-3.24,2.09l-9.1,0a4.1,4.1,0,0,0-4.21,4l0,13.84a4.11,4.11,0,0,0,4.23,4l9,0a3.55,3.55,0,0,1,3.3,2.22c.32.79.66,1.57,1,2.34a3.21,3.21,0,0,1-.65,3.78l-6.37,6a3.83,3.83,0,0,0,0,5.63l10.4,9.77a4.36,4.36,0,0,0,3.12,1.15H359l1.2-8a3.68,3.68,0,0,1,2.51.08c.91.37,1.9.74,2.76,1a3.29,3.29,0,0,1,2.21,3.06v8.58a4.11,4.11,0,0,0,4.23,4l14.68,0a4.11,4.11,0,0,0,4.22-4l0-8.49a3.37,3.37,0,0,1,2.36-3.12c.84-.3,1.67-.62,2.48-1a3.71,3.71,0,0,1,4,.61l6.38,6a4.34,4.34,0,0,0,3.15,1.14h9.34l1.26-8.35h-.15l2.74-2.59a3.83,3.83,0,0,0,0-5.63l-6.43-6a3.15,3.15,0,0,1-.74-3.62c.94-2.07,1.9-4.53,1.95-4.68H428.6a4.1,4.1,0,0,0,4.22-4Zm-27.87,11.42c-3.08,15.44-20,24.16-35.29,18.62-11.58-4.21-18.64-16-16.34-27.53,3.08-15.44,20-24.15,35.29-18.62C400.18,81.37,407.24,93.19,404.94,104.69Z" transform="translate(-46.94 -49.62)"/><path class="cls-10" d="M426.52,111.11H438a4.1,4.1,0,0,0,4.21-4V93.27a4.1,4.1,0,0,0-4.22-4h-9a3.54,3.54,0,0,1-3.3-2.23c-.32-.79-.66-1.57-1-2.34a3.21,3.21,0,0,1,.66-3.78l6.37-6a3.82,3.82,0,0,0,0-5.63l-10.39-9.78a4.38,4.38,0,0,0-6,0l-6.42,6.05a3.64,3.64,0,0,1-3.85.7c-.91-.37-1.9-.75-2.75-1.06a3.27,3.27,0,0,1-2.21-3.06V53.59a4.1,4.1,0,0,0-4.22-4H381.22a4.1,4.1,0,0,0-4.22,4v8.5a3.37,3.37,0,0,1-2.36,3.11c-.88.31-1.75.65-2.61,1a3.72,3.72,0,0,1-4-.62l-6.39-6a4.4,4.4,0,0,0-6,0l-10.35,9.81a3.83,3.83,0,0,0,0,5.63l6.44,6a3.17,3.17,0,0,1,.75,3.62c-.39.87-.79,1.8-1.12,2.6a3.47,3.47,0,0,1-3.23,2.09l-9.11,0a4.11,4.11,0,0,0-4.21,4l0,13.84a4.11,4.11,0,0,0,4.23,4l9,0a3.54,3.54,0,0,1,3.3,2.22c.32.79.67,1.57,1,2.34a3.2,3.2,0,0,1-.65,3.78l-6.36,6a3.83,3.83,0,0,0,0,5.63L355.88,141a4.39,4.39,0,0,0,6,0l6.41-6.07a3.66,3.66,0,0,1,3.85-.7c.91.37,1.9.74,2.75,1a3.27,3.27,0,0,1,2.21,3.06l0,8.58a4.11,4.11,0,0,0,4.23,4l14.68,0a4.1,4.1,0,0,0,4.21-4v-8.49a3.36,3.36,0,0,1,2.35-3.12c.84-.3,1.67-.62,2.49-1a3.71,3.71,0,0,1,4,.61l6.38,6a4.39,4.39,0,0,0,6,0l10.37-9.8a3.82,3.82,0,0,0,0-5.63l-6.43-6a3.15,3.15,0,0,1-.74-3.62C425.51,113.72,426.48,111.26,426.52,111.11ZM362.45,95.73c3.12-15.61,20.27-24.43,35.69-18.83,11.71,4.26,18.85,16.21,16.53,27.84-3.12,15.62-20.27,24.43-35.69,18.83C367.26,119.32,360.13,107.36,362.45,95.73Z" transform="translate(-46.94 -49.62)"/><path class="cls-6" d="M406.31,331.56a2.4,2.4,0,0,0-2.47-2.33h-5.28a2.08,2.08,0,0,1-1.93-1.3q-.27-.7-.6-1.38a1.89,1.89,0,0,1,.38-2.21l3.73-3.51a2.25,2.25,0,0,0,0-3.3l-2.07-2,.59,0-.74-4.44h-5.09a2.55,2.55,0,0,0-2.26.63l-3.75,3.54a2.13,2.13,0,0,1-2.25.41c-.54-.22-1.12-.44-1.62-.62a1.93,1.93,0,0,1-1.29-1.79v-5a2.4,2.4,0,0,0-2.47-2.33H370.6a2.4,2.4,0,0,0-2.46,2.33v5a2,2,0,0,1-1.38,1.82c-.52.18-1,.39-1.53.6a2.19,2.19,0,0,1-2.05-.13l.47,0-.73-4.44h-5.49a2.59,2.59,0,0,0-1.78.69l-6,5.74a2.22,2.22,0,0,0,0,3.29l3.76,3.54a1.83,1.83,0,0,1,.44,2.12c-.23.5-.46,1.05-.65,1.52a2,2,0,0,1-1.89,1.22h-5.33a2.39,2.39,0,0,0-2.46,2.33l0,8.1a2.4,2.4,0,0,0,2.47,2.33l5.28,0a2.08,2.08,0,0,1,1.93,1.3c.19.47.39.92.61,1.37a1.89,1.89,0,0,1-.38,2.21l-3.73,3.53a2.23,2.23,0,0,0,0,3.29l6.09,5.72a2.55,2.55,0,0,0,1.82.67h5.5l.7-4.69a2.19,2.19,0,0,1,1.47.05l1.61.61a1.93,1.93,0,0,1,1.29,1.79v5a2.41,2.41,0,0,0,2.48,2.33l8.59,0a2.39,2.39,0,0,0,2.46-2.33v-5a2,2,0,0,1,1.38-1.82c.49-.18,1-.37,1.46-.57a2.15,2.15,0,0,1,2.34.36l3.73,3.51a2.52,2.52,0,0,0,1.85.67h5.46l.74-4.89h-.09l1.6-1.52a2.24,2.24,0,0,0,0-3.29l-3.76-3.54a1.83,1.83,0,0,1-.44-2.12c.55-1.21,1.11-2.65,1.14-2.74h6.74a2.39,2.39,0,0,0,2.46-2.33ZM390,338.24c-1.8,9-11.72,14.13-20.64,10.89-6.78-2.46-10.91-9.37-9.57-16.11,1.81-9,11.73-14.13,20.65-10.89C387.22,324.59,391.35,331.51,390,338.24Z" transform="translate(-46.94 -49.62)"/><path class="cls-11" d="M402.63,342h6.74a2.39,2.39,0,0,0,2.46-2.33v-8.1a2.4,2.4,0,0,0-2.47-2.33h-5.27a2.08,2.08,0,0,1-1.94-1.3q-.27-.7-.6-1.38a1.89,1.89,0,0,1,.38-2.21l3.73-3.51a2.24,2.24,0,0,0,0-3.3l-6.08-5.72a2.57,2.57,0,0,0-3.49,0l-3.75,3.54a2.13,2.13,0,0,1-2.25.41c-.54-.22-1.12-.44-1.61-.62a1.92,1.92,0,0,1-1.3-1.79v-5a2.4,2.4,0,0,0-2.46-2.33h-8.6a2.4,2.4,0,0,0-2.46,2.33v5a2,2,0,0,1-1.38,1.82c-.52.18-1,.39-1.53.6a2.14,2.14,0,0,1-2.34-.36l-3.74-3.5a2.58,2.58,0,0,0-3.5,0l-6.05,5.74a2.23,2.23,0,0,0,0,3.29l3.77,3.54a1.84,1.84,0,0,1,.43,2.12c-.23.5-.46,1.05-.65,1.52a2,2,0,0,1-1.89,1.22h-5.33a2.4,2.4,0,0,0-2.46,2.33l0,8.1a2.4,2.4,0,0,0,2.47,2.33l5.28,0a2.08,2.08,0,0,1,1.93,1.3c.19.47.39.92.61,1.37a1.89,1.89,0,0,1-.38,2.21l-3.73,3.53a2.23,2.23,0,0,0,0,3.29l6.09,5.72a2.58,2.58,0,0,0,3.49,0l3.75-3.55a2.13,2.13,0,0,1,2.25-.41l1.61.61a1.93,1.93,0,0,1,1.29,1.79v5a2.41,2.41,0,0,0,2.48,2.33l8.59,0a2.39,2.39,0,0,0,2.46-2.33v-5a2,2,0,0,1,1.38-1.82c.49-.18,1-.37,1.46-.57a2.15,2.15,0,0,1,2.34.36l3.73,3.51a2.57,2.57,0,0,0,3.49,0l6.07-5.74a2.24,2.24,0,0,0,0-3.29l-3.76-3.54a1.83,1.83,0,0,1-.44-2.12C402,343.52,402.6,342.08,402.63,342Zm-37.48-9C367,323.86,377,318.7,386,322c6.85,2.49,11,9.48,9.67,16.29-1.83,9.13-11.86,14.29-20.88,11C368,346.79,363.79,339.8,365.15,333Z" transform="translate(-46.94 -49.62)"/><rect class="cls-9" x="86.84" y="343.67" width="40.54" height="38.22" rx="7.26"/><path class="cls-6" d="M138.78,424.24V400.55a7.26,7.26,0,0,1,7.26-7.27h-5a7.26,7.26,0,0,0-7.26,7.27v23.69a7.27,7.27,0,0,0,7.26,7.27h5A7.27,7.27,0,0,1,138.78,424.24Z" transform="translate(-46.94 -49.62)"/><path class="cls-6" d="M166.84,431.81v-.61A7.18,7.18,0,0,0,174,424V400.76a7.18,7.18,0,0,0-7.17-7.18h-18V393h18a7.78,7.78,0,0,1,7.77,7.78V424A7.78,7.78,0,0,1,166.84,431.81Z" transform="translate(-46.94 -49.62)"/><path class="cls-7" d="M148.7,413.25v.05l3.9,1.28v2.17l-6.25-2.55v-1.88l6.25-2.55v2.17Z" transform="translate(-46.94 -49.62)"/><path class="cls-7" d="M155.62,418h-2.41l3.52-11.19h2.41Z" transform="translate(-46.94 -49.62)"/><path class="cls-7" d="M163.81,413.28v0L159.94,412v-2.17l6.22,2.55v1.89l-6.22,2.55V414.6Z" transform="translate(-46.94 -49.62)"/><path class="cls-6" d="M382.34,84.38A16.58,16.58,0,1,0,398.92,101,16.58,16.58,0,0,0,382.34,84.38Z" transform="translate(-46.94 -49.62)"/><path class="cls-12" d="M401.92,101a16.58,16.58,0,1,1-16.58-16.58A16.57,16.57,0,0,1,401.92,101Z" transform="translate(-46.94 -49.62)"/><path class="cls-13" d="M400.11,101a14.77,14.77,0,1,1-14.77-14.77A14.76,14.76,0,0,1,400.11,101Z" transform="translate(-46.94 -49.62)"/><path class="cls-14" d="M398.37,101a13,13,0,1,1-13-13A13,13,0,0,1,398.37,101Z" transform="translate(-46.94 -49.62)"/><path class="cls-13" d="M387,107.6h-4.83a2,2,0,0,1-2-2v-1h2.86v.18h4a1.4,1.4,0,0,0,1.39-1.39.9.9,0,0,0-.91-.9H384a3.77,3.77,0,0,1-3.77-3.77v-.52a4.25,4.25,0,0,1,4.25-4.25h4.83a2,2,0,0,1,2,2v1.17h-2.86v-.32h-4a1.4,1.4,0,0,0-1.39,1.39v.52a.9.9,0,0,0,.91.9h3.55a3.77,3.77,0,0,1,3.77,3.77A4.25,4.25,0,0,1,387,107.6Z" transform="translate(-46.94 -49.62)"/><rect class="cls-13" x="337.37" y="42.9" width="2.87" height="16.89"/><rect class="cls-15" x="572.94" y="334.49" width="50.46" height="47.58" rx="9.31"/><path class="cls-6" d="M661,432.06v-.75a8.94,8.94,0,0,0,8.93-8.93v-29a8.94,8.94,0,0,0-8.93-8.93H638.68v-.75H661a9.69,9.69,0,0,1,9.68,9.68v29A9.69,9.69,0,0,1,661,432.06Z" transform="translate(-46.94 -49.62)"/><path class="cls-6" d="M625.49,424.65V391.14a7.26,7.26,0,0,1,7.46-7h-3.77a9.31,9.31,0,0,0-9.31,9.31v29a9.31,9.31,0,0,0,9.31,9.31H633A7.26,7.26,0,0,1,625.49,424.65Z" transform="translate(-46.94 -49.62)"/><path class="cls-7" d="M658.54,402.49a10.94,10.94,0,1,0-16.91,9.15v1.3h12v-1.3A10.92,10.92,0,0,0,658.54,402.49Z" transform="translate(-46.94 -49.62)"/><rect class="cls-7" x="593.92" y="366.42" width="13.51" height="1"/><rect class="cls-7" x="593.92" y="364.74" width="13.51" height="1"/><rect class="cls-7" x="593.92" y="368.09" width="13.51" height="1"/><path class="cls-7" d="M648.47,424.24h-2.21a2,2,0,0,1-2-2h6.13A2,2,0,0,1,648.47,424.24Z" transform="translate(-46.94 -49.62)"/><path class="cls-6" d="M302.4,109a3.09,3.09,0,0,0-3.09-3.08h-6.58a2.59,2.59,0,0,1-2.41-1.72c-.23-.62-.48-1.22-.75-1.82a2.59,2.59,0,0,1,.48-2.93l4.65-4.65a3.09,3.09,0,0,0,0-4.36L291,86.76l.76-4.79H285l.05,0a3.07,3.07,0,0,0-2.29.89l-4.69,4.69a2.55,2.55,0,0,1-2.81.54l-2-.82A2.52,2.52,0,0,1,271.64,85V78.31a3.08,3.08,0,0,0-3.09-3.08H257.83a3.08,3.08,0,0,0-3.08,3.08v6.58A2.59,2.59,0,0,1,253,87.3c-.65.24-1.28.51-1.91.79a2.57,2.57,0,0,1-2.92-.47l-1.12-1.12.69-4.4h-6.71a3.08,3.08,0,0,0-1.89.88l-7.56,7.6a3.09,3.09,0,0,0,0,4.36l4.71,4.68a2.53,2.53,0,0,1,.54,2.8c-.28.67-.57,1.4-.81,2a2.55,2.55,0,0,1-2.37,1.62h-6.64a3.09,3.09,0,0,0-3.08,3.09l0,10.72a3.08,3.08,0,0,0,3.09,3.08l6.58,0a2.58,2.58,0,0,1,2.41,1.72c.23.61.49,1.22.76,1.82a2.59,2.59,0,0,1-.48,2.92l-4.64,4.67a3.07,3.07,0,0,0,0,4.35l7.6,7.57a3.07,3.07,0,0,0,2.07.89h6.71L245.66,144l2.7-2.72a2.55,2.55,0,0,1,2.81-.54l2,.81a2.54,2.54,0,0,1,1.62,2.37v6.65a3.07,3.07,0,0,0,3.09,3.07h10.72a3.1,3.1,0,0,0,3.08-3.09l0-6.58a2.6,2.6,0,0,1,1.72-2.41c.62-.23,1.23-.49,1.82-.76a2.61,2.61,0,0,1,2.93.48l4.66,4.65a3.07,3.07,0,0,0,2.1.89h6.71l-2.46-2.91,5.58-5.59a3.08,3.08,0,0,0,0-4.36L290,129.29a2.55,2.55,0,0,1-.54-2.81c.68-1.6,1.39-3.51,1.42-3.62h8.41a3.08,3.08,0,0,0,3.08-3.08Zm-22.13,8.52a17.39,17.39,0,1,1-10.81-19.31A17.39,17.39,0,0,1,280.27,117.56Z" transform="translate(-46.94 -49.62)"/><path class="cls-5" d="M277.13,115.63l-13.52,7.8a1.36,1.36,0,0,1-2.05-1.18V106.64a1.37,1.37,0,0,1,2.05-1.19l13.52,7.81A1.37,1.37,0,0,1,277.13,115.63Z" transform="translate(-46.94 -49.62)"/><path class="cls-6" d="M264.06,122.25V106.64a1.28,1.28,0,0,1,.26-.78l-.71-.41a1.37,1.37,0,0,0-2.05,1.19v15.61a1.36,1.36,0,0,0,2.05,1.18l.7-.4A1.37,1.37,0,0,1,264.06,122.25Z" transform="translate(-46.94 -49.62)"/><path class="cls-5" d="M297.42,122.86h8.41a3.08,3.08,0,0,0,3.08-3.08V109a3.09,3.09,0,0,0-3.09-3.08h-6.58a2.59,2.59,0,0,1-2.41-1.72c-.23-.62-.48-1.22-.75-1.82a2.59,2.59,0,0,1,.48-2.93l4.65-4.65a3.09,3.09,0,0,0,0-4.36l-7.59-7.58a3.08,3.08,0,0,0-4.35,0l-4.69,4.69a2.55,2.55,0,0,1-2.81.54l-2-.82A2.52,2.52,0,0,1,278.14,85V78.31a3.08,3.08,0,0,0-3.09-3.08H264.33a3.08,3.08,0,0,0-3.08,3.08v6.58a2.59,2.59,0,0,1-1.72,2.41c-.65.24-1.28.51-1.91.79a2.57,2.57,0,0,1-2.92-.47L250,83a3.08,3.08,0,0,0-4.36,0l-7.56,7.6a3.09,3.09,0,0,0,0,4.36l4.71,4.68a2.55,2.55,0,0,1,.54,2.81c-.28.66-.57,1.39-.81,2a2.55,2.55,0,0,1-2.37,1.62h-6.64a3.09,3.09,0,0,0-3.08,3.09l0,10.72a3.08,3.08,0,0,0,3.09,3.08l6.58,0a2.58,2.58,0,0,1,2.41,1.72c.23.61.49,1.22.76,1.82a2.59,2.59,0,0,1-.48,2.92l-4.64,4.67a3.07,3.07,0,0,0,0,4.35l7.6,7.57a3.07,3.07,0,0,0,4.35,0l4.68-4.7a2.55,2.55,0,0,1,2.81-.54c.67.28,1.39.57,2,.81a2.54,2.54,0,0,1,1.62,2.37v6.65a3.07,3.07,0,0,0,3.09,3.07h10.72a3.1,3.1,0,0,0,3.08-3.09l0-6.58a2.6,2.6,0,0,1,1.72-2.41c.62-.23,1.23-.49,1.82-.76a2.61,2.61,0,0,1,2.93.48l4.66,4.65a3.08,3.08,0,0,0,4.36,0l7.57-7.59a3.08,3.08,0,0,0,0-4.36l-4.69-4.68a2.55,2.55,0,0,1-.54-2.81C296.68,124.88,297.39,123,297.42,122.86Zm-45.18-11.62A17.74,17.74,0,1,1,263.29,131,17.74,17.74,0,0,1,252.24,111.24Z" transform="translate(-46.94 -49.62)"/><path class="cls-6" d="M269.7,132.55a18.12,18.12,0,0,1-17.83-21.38h0a18.11,18.11,0,1,1,17.83,21.38Zm0-35.48a17.38,17.38,0,0,0-17.08,14.24h0A17.36,17.36,0,1,0,276,98.25,17.3,17.3,0,0,0,269.69,97.07Z" transform="translate(-46.94 -49.62)"/><path class="cls-7" d="M272.2,89.89a2.51,2.51,0,1,1-2.51-2.51A2.51,2.51,0,0,1,272.2,89.89Z" transform="translate(-46.94 -49.62)"/><path class="cls-7" d="M288.47,98.7a2.51,2.51,0,1,1,0-3.55A2.5,2.5,0,0,1,288.47,98.7Z" transform="translate(-46.94 -49.62)"/><path class="cls-7" d="M293.92,116.38a2.51,2.51,0,1,1,2.46-2.55A2.51,2.51,0,0,1,293.92,116.38Z" transform="translate(-46.94 -49.62)"/><path class="cls-7" d="M285.44,132.82a2.5,2.5,0,1,1,3.54-.1A2.5,2.5,0,0,1,285.44,132.82Z" transform="translate(-46.94 -49.62)"/><path class="cls-7" d="M267.87,138.62a2.51,2.51,0,1,1,2.6,2.41A2.5,2.5,0,0,1,267.87,138.62Z" transform="translate(-46.94 -49.62)"/><path class="cls-7" d="M251.26,130.47a2.51,2.51,0,1,1,.18,3.54A2.5,2.5,0,0,1,251.26,130.47Z" transform="translate(-46.94 -49.62)"/><path class="cls-7" d="M245.11,113a2.51,2.51,0,1,1-2.35,2.66A2.51,2.51,0,0,1,245.11,113Z" transform="translate(-46.94 -49.62)"/><path class="cls-7" d="M252.94,96.25a2.51,2.51,0,1,1-3.54.25A2.51,2.51,0,0,1,252.94,96.25Z" transform="translate(-46.94 -49.62)"/><rect class="cls-6" x="355.84" y="309.85" width="43.12" height="71.2"/><rect class="cls-9" x="445.9" y="359.47" width="75.41" height="71.2" transform="translate(920.28 740.53) rotate(180)"/><polygon class="cls-16" points="474.67 309.85 484.53 319.14 406.22 319.14 398.97 309.85 474.67 309.85"/><polygon class="cls-9" points="355.84 309.85 345.98 319.14 391.71 319.14 398.97 309.85 355.84 309.85"/><path class="cls-3" d="M339.13,186.15h6.8a2.49,2.49,0,0,0,2.49-2.49V175a2.48,2.48,0,0,0-2.49-2.49H340.6a2.1,2.1,0,0,1-2-1.39c-.19-.5-.39-1-.61-1.47a2.09,2.09,0,0,1,.39-2.37l3.76-3.76a2.5,2.5,0,0,0,0-3.53l-6.14-6.12a2.48,2.48,0,0,0-3.52,0l-3.79,3.79a2.06,2.06,0,0,1-2.27.44c-.54-.24-1.12-.47-1.63-.67a2,2,0,0,1-1.3-1.91v-5.37a2.5,2.5,0,0,0-2.49-2.5h-8.67a2.5,2.5,0,0,0-2.5,2.5v5.32a2.07,2.07,0,0,1-1.39,1.94c-.52.2-1,.41-1.54.65a2.07,2.07,0,0,1-2.36-.39l-3.78-3.75a2.48,2.48,0,0,0-3.52,0l-6.12,6.15a2.49,2.49,0,0,0,0,3.52l3.81,3.78a2.08,2.08,0,0,1,.44,2.27c-.23.54-.47,1.13-.66,1.63a2.06,2.06,0,0,1-1.91,1.31h-5.38a2.49,2.49,0,0,0-2.48,2.5l0,8.67a2.49,2.49,0,0,0,2.5,2.49l5.32,0a2.1,2.1,0,0,1,2,1.39c.19.5.39,1,.61,1.47a2.1,2.1,0,0,1-.38,2.37l-3.76,3.77a2.48,2.48,0,0,0,0,3.52l6.14,6.12a2.5,2.5,0,0,0,3.53,0l3.78-3.81a2.07,2.07,0,0,1,2.27-.43c.54.23,1.12.46,1.63.65a2.05,2.05,0,0,1,1.3,1.92v5.37a2.49,2.49,0,0,0,2.5,2.49h8.67a2.51,2.51,0,0,0,2.49-2.5v-5.32a2.1,2.1,0,0,1,1.39-1.95c.5-.19,1-.39,1.47-.61a2.08,2.08,0,0,1,2.36.38l3.77,3.76a2.5,2.5,0,0,0,3.53,0l6.12-6.14a2.49,2.49,0,0,0,0-3.52l-3.8-3.79a2.06,2.06,0,0,1-.44-2.27C338.53,187.78,339.1,186.24,339.13,186.15Zm-34.5-9a12.29,12.29,0,1,1,7.65,13.66A12.29,12.29,0,0,1,304.63,177.13Z" transform="translate(-46.94 -49.62)"/><path class="cls-3" d="M571.69,117.06h6.8a2.5,2.5,0,0,0,2.49-2.5v-8.67a2.5,2.5,0,0,0-2.49-2.49h-5.33a2.09,2.09,0,0,1-1.94-1.39c-.19-.5-.39-1-.61-1.47a2.09,2.09,0,0,1,.38-2.37l3.77-3.76a2.5,2.5,0,0,0,0-3.53l-6.13-6.13a2.49,2.49,0,0,0-3.52,0l-3.79,3.8A2.08,2.08,0,0,1,559,89c-.54-.23-1.13-.46-1.63-.66a2,2,0,0,1-1.3-1.91V81a2.5,2.5,0,0,0-2.5-2.49h-8.67A2.5,2.5,0,0,0,542.44,81v5.32a2.1,2.1,0,0,1-1.39,2c-.52.2-1,.41-1.54.64a2.1,2.1,0,0,1-2.37-.38l-3.77-3.75a2.5,2.5,0,0,0-3.53,0L523.73,91a2.48,2.48,0,0,0,0,3.52l3.8,3.78a2.06,2.06,0,0,1,.44,2.27c-.23.54-.46,1.12-.65,1.63a2.08,2.08,0,0,1-1.92,1.31H520a2.49,2.49,0,0,0-2.49,2.5l0,8.67a2.5,2.5,0,0,0,2.5,2.48h5.32a2.11,2.11,0,0,1,2,1.39c.18.5.39,1,.61,1.47a2.07,2.07,0,0,1-.39,2.36l-3.75,3.78a2.49,2.49,0,0,0,0,3.52l6.15,6.12a2.48,2.48,0,0,0,3.52,0l3.79-3.8a2.06,2.06,0,0,1,2.27-.44c.54.23,1.12.47,1.62.66a2.06,2.06,0,0,1,1.31,1.91v5.38A2.49,2.49,0,0,0,545,142l8.67,0a2.48,2.48,0,0,0,2.48-2.49v-5.32a2.09,2.09,0,0,1,1.4-1.95c.49-.19,1-.4,1.46-.62a2.11,2.11,0,0,1,2.37.39l3.77,3.76a2.49,2.49,0,0,0,3.52,0l6.13-6.14a2.5,2.5,0,0,0,0-3.53L571,122.27a2.06,2.06,0,0,1-.44-2.27C571.09,118.7,571.66,117.16,571.69,117.06Zm-34.51-9a12.29,12.29,0,1,1,7.65,13.67A12.29,12.29,0,0,1,537.18,108Z" transform="translate(-46.94 -49.62)"/><path class="cls-3" d="M315.7,265.39h8.8a3.23,3.23,0,0,0,3.23-3.23V250.92a3.23,3.23,0,0,0-3.23-3.22H317.6a2.72,2.72,0,0,1-2.53-1.8c-.24-.64-.5-1.28-.79-1.9a2.73,2.73,0,0,1,.51-3.07l4.87-4.87a3.24,3.24,0,0,0,0-4.57l-8-7.93a3.22,3.22,0,0,0-4.56,0l-4.91,4.91a2.67,2.67,0,0,1-2.94.56c-.7-.3-1.46-.6-2.11-.85a2.66,2.66,0,0,1-1.69-2.48v-7a3.23,3.23,0,0,0-3.22-3.23H281.05a3.23,3.23,0,0,0-3.23,3.23v6.89a2.7,2.7,0,0,1-1.8,2.52c-.68.25-1.34.53-2,.83a2.71,2.71,0,0,1-3.06-.49l-4.89-4.86a3.22,3.22,0,0,0-4.56,0l-7.92,8a3.24,3.24,0,0,0,0,4.57l4.93,4.89a2.68,2.68,0,0,1,.57,2.94c-.3.7-.6,1.46-.85,2.11a2.66,2.66,0,0,1-2.48,1.69l-7,0a3.24,3.24,0,0,0-3.22,3.24l0,11.22a3.21,3.21,0,0,0,3.23,3.22h6.9a2.69,2.69,0,0,1,2.52,1.8c.25.64.51,1.27.8,1.9a2.73,2.73,0,0,1-.5,3.06l-4.87,4.89a3.23,3.23,0,0,0,0,4.56l8,7.92a3.21,3.21,0,0,0,4.56,0l4.9-4.92a2.69,2.69,0,0,1,2.94-.57c.7.3,1.46.61,2.11.86a2.66,2.66,0,0,1,1.69,2.48v7a3.24,3.24,0,0,0,3.24,3.22l11.22,0a3.23,3.23,0,0,0,3.23-3.23l0-6.89a2.72,2.72,0,0,1,1.81-2.53c.64-.24,1.27-.51,1.9-.79a2.69,2.69,0,0,1,3.06.5l4.88,4.87a3.24,3.24,0,0,0,4.57,0l7.93-8a3.23,3.23,0,0,0,0-4.56l-4.92-4.91a2.66,2.66,0,0,1-.56-2.93C314.92,267.51,315.66,265.51,315.7,265.39ZM271,253.71a15.91,15.91,0,1,1,9.91,17.7A15.92,15.92,0,0,1,271,253.71Z" transform="translate(-46.94 -49.62)"/><path class="cls-6" d="M515.93,128.28a2.49,2.49,0,0,0-2.49-2.49h-5.33a2.09,2.09,0,0,1-1.94-1.39c-.19-.5-.4-1-.61-1.47a2.1,2.1,0,0,1,.38-2.37l3.77-3.76a2.5,2.5,0,0,0,0-3.53l-3.43-3.42.25-.2-.42-3.2-4.23,0a2.47,2.47,0,0,0-1.82.73l-3.79,3.79a2.06,2.06,0,0,1-2.27.44c-.54-.24-1.13-.47-1.63-.67a2,2,0,0,1-1.3-1.91v-5.38a2.5,2.5,0,0,0-2.5-2.49h-8.67a2.5,2.5,0,0,0-2.49,2.49v5.33a2.09,2.09,0,0,1-1.39,1.94c-.52.2-1,.41-1.54.65a2.12,2.12,0,0,1-2.37-.39L471,109.82l.14-.11-.42-3.2-4,0h-.22a2.48,2.48,0,0,0-1.64.72l-6.11,6.15a2.48,2.48,0,0,0,0,3.52l3.8,3.78a2.06,2.06,0,0,1,.44,2.27c-.23.54-.46,1.13-.65,1.63a2.06,2.06,0,0,1-1.92,1.31H455a2.5,2.5,0,0,0-2.49,2.5l0,8.67a2.51,2.51,0,0,0,2.5,2.49l5.32,0a2.09,2.09,0,0,1,1.95,1.39c.19.5.4,1,.62,1.47a2.09,2.09,0,0,1-.39,2.37l-3.75,3.77a2.49,2.49,0,0,0,0,3.52l6.15,6.12a2.46,2.46,0,0,0,2,.7l4.22,0,.14-3.6.93-.94a2.07,2.07,0,0,1,2.27-.44c.54.24,1.12.47,1.62.66a2.06,2.06,0,0,1,1.31,1.92v5.37a2.49,2.49,0,0,0,2.49,2.49h8.68a2.49,2.49,0,0,0,2.48-2.5v-5.32a2.1,2.1,0,0,1,1.4-2c.49-.19,1-.39,1.46-.61a2.09,2.09,0,0,1,2.37.38l3.77,3.76a2.47,2.47,0,0,0,2.17.69l3.84,0,.46-3.67,3.18-3.18a2.48,2.48,0,0,0,0-3.52l-3.79-3.79a2.06,2.06,0,0,1-.44-2.27c.55-1.3,1.12-2.84,1.15-2.93h6.8a2.5,2.5,0,0,0,2.49-2.49Zm-18.06,6.86a13.87,13.87,0,1,1-8.63-15.44A13.87,13.87,0,0,1,497.87,135.14Z" transform="translate(-46.94 -49.62)"/><path class="cls-15" d="M511.15,139.45H518a2.5,2.5,0,0,0,2.49-2.49v-8.67a2.49,2.49,0,0,0-2.49-2.49h-5.33a2.09,2.09,0,0,1-1.94-1.39c-.19-.5-.4-1-.61-1.47a2.1,2.1,0,0,1,.38-2.37l3.77-3.76a2.5,2.5,0,0,0,0-3.53l-6.13-6.12a2.47,2.47,0,0,0-3.52,0l-3.79,3.79a2.06,2.06,0,0,1-2.27.44c-.54-.24-1.13-.47-1.63-.67a2,2,0,0,1-1.3-1.91v-5.38a2.5,2.5,0,0,0-2.5-2.49h-8.67a2.5,2.5,0,0,0-2.49,2.49v5.33a2.09,2.09,0,0,1-1.39,1.94c-.52.2-1,.41-1.54.65a2.12,2.12,0,0,1-2.37-.39l-3.77-3.75a2.5,2.5,0,0,0-3.53,0l-6.11,6.15a2.48,2.48,0,0,0,0,3.52l3.8,3.78a2.06,2.06,0,0,1,.44,2.27c-.23.54-.46,1.13-.65,1.63a2.06,2.06,0,0,1-1.92,1.31H459.5a2.5,2.5,0,0,0-2.49,2.5l0,8.67a2.51,2.51,0,0,0,2.5,2.49l5.32,0a2.09,2.09,0,0,1,1.95,1.39c.19.5.4,1,.62,1.47a2.09,2.09,0,0,1-.39,2.37l-3.75,3.77a2.49,2.49,0,0,0,0,3.52l6.15,6.12a2.48,2.48,0,0,0,3.52,0l3.79-3.8a2.07,2.07,0,0,1,2.27-.44c.54.24,1.12.47,1.62.66a2.06,2.06,0,0,1,1.31,1.92v5.37a2.49,2.49,0,0,0,2.49,2.49h8.68a2.49,2.49,0,0,0,2.48-2.5v-5.32a2.1,2.1,0,0,1,1.4-2c.49-.19,1-.39,1.46-.61a2.09,2.09,0,0,1,2.37.38l3.77,3.76a2.49,2.49,0,0,0,3.52,0l6.13-6.14a2.48,2.48,0,0,0,0-3.52l-3.79-3.79a2.06,2.06,0,0,1-.44-2.27C510.55,141.08,511.12,139.54,511.15,139.45Zm-36.07-9.31a13.87,13.87,0,1,1,8.64,15.43A13.88,13.88,0,0,1,475.08,130.14Z" transform="translate(-46.94 -49.62)"/><path class="cls-6" d="M488.73,146.88a14.1,14.1,0,0,1-5.14-1,14.23,14.23,0,0,1-1.8-25.72,14.22,14.22,0,0,1,12.08-.85,14.24,14.24,0,0,1-5.14,27.53Zm0-27.74a13.51,13.51,0,0,0-13.27,11.07h0a13.5,13.5,0,1,0,13.27-11.07Z" transform="translate(-46.94 -49.62)"/><path class="cls-15" d="M496.21,133.08a9.49,9.49,0,1,1-9.49-9.49A9.48,9.48,0,0,1,496.21,133.08Z" transform="translate(-46.94 -49.62)"/><path class="cls-6" d="M479.24,133.08a9.49,9.49,0,0,1,8.48-9.43,8.14,8.14,0,0,0-1-.06,9.49,9.49,0,0,0,0,19c.34,0,.68,0,1-.05A9.49,9.49,0,0,1,479.24,133.08Z" transform="translate(-46.94 -49.62)"/><path class="cls-7" d="M483,133.51v0l1.94.63v1.08L481.8,134V133l3.11-1.26v1.07Z" transform="translate(-46.94 -49.62)"/><path class="cls-7" d="M486.41,135.86h-1.2L487,130.3h1.2Z" transform="translate(-46.94 -49.62)"/><path class="cls-7" d="M490.48,133.52v0l-1.93-.64v-1.08l3.1,1.27V134l-3.1,1.27v-1.08Z" transform="translate(-46.94 -49.62)"/><path class="cls-6" d="M513.06,415.85a1.06,1.06,0,0,0-1.09-1h-2.31a.9.9,0,0,1-.85-.57c-.09-.2-.17-.4-.27-.6a.82.82,0,0,1,.17-1l1.64-1.55a1,1,0,0,0,0-1.45l-.91-.86.26,0-.33-1.95h-2.24a1.13,1.13,0,0,0-1,.27l-1.65,1.56a.92.92,0,0,1-1,.18l-.71-.27a.84.84,0,0,1-.57-.79v-2.21a1.06,1.06,0,0,0-1.09-1h-3.78a1.05,1.05,0,0,0-1.08,1v2.19a.87.87,0,0,1-.61.8l-.67.26a1,1,0,0,1-.9-.05h.21l-.33-1.95h-2.41a1,1,0,0,0-.78.3l-2.67,2.52a1,1,0,0,0,0,1.45l1.65,1.56a.8.8,0,0,1,.2.93c-.1.22-.21.46-.29.67a.89.89,0,0,1-.83.54H486.5a1.05,1.05,0,0,0-1.08,1v3.56a1,1,0,0,0,1.09,1h2.32a.92.92,0,0,1,.85.57q.12.3.27.6a.84.84,0,0,1-.17,1l-1.64,1.55a1,1,0,0,0,0,1.44l2.68,2.52a1.1,1.1,0,0,0,.8.29h2.42l.31-2.07a1,1,0,0,1,.65,0c.23.1.49.19.71.27a.87.87,0,0,1,.57.79v2.21a1.06,1.06,0,0,0,1.09,1h3.78a1.06,1.06,0,0,0,1.08-1v-2.19a.86.86,0,0,1,.6-.8l.64-.25a1,1,0,0,1,1,.16l1.65,1.54a1.12,1.12,0,0,0,.81.3h2.4l.33-2.15h0l.7-.67a1,1,0,0,0,0-1.45l-1.65-1.56a.78.78,0,0,1-.19-.93c.24-.53.48-1.17.5-1.2h3a1,1,0,0,0,1.08-1Zm-8.55,2.7a5.4,5.4,0,0,1-7.2,3.8,5.05,5.05,0,0,1-3.33-5.62,5.39,5.39,0,0,1,7.2-3.8A5.05,5.05,0,0,1,504.51,418.55Z" transform="translate(-46.94 -49.62)"/><path class="cls-7" d="M511.44,420.44h3a1,1,0,0,0,1.08-1v-3.56a1.06,1.06,0,0,0-1.09-1h-2.32a.92.92,0,0,1-.85-.57c-.08-.2-.17-.4-.26-.6a.82.82,0,0,1,.17-1l1.64-1.55a1,1,0,0,0,0-1.45l-2.68-2.52a1.13,1.13,0,0,0-1.53,0l-1.65,1.56a.93.93,0,0,1-1,.18l-.71-.27a.84.84,0,0,1-.57-.79v-2.21a1.06,1.06,0,0,0-1.09-1h-3.78a1.05,1.05,0,0,0-1.08,1v2.19a.87.87,0,0,1-.61.8l-.67.26a1,1,0,0,1-1-.15l-1.65-1.55a1.13,1.13,0,0,0-1.53,0l-2.67,2.52a1,1,0,0,0,0,1.45l1.65,1.56a.82.82,0,0,1,.2.93c-.11.22-.21.46-.29.67a.9.9,0,0,1-.83.54h-2.35a1.05,1.05,0,0,0-1.08,1v3.56a1,1,0,0,0,1.09,1h2.32a.92.92,0,0,1,.85.57c.08.2.17.4.26.6a.84.84,0,0,1-.16,1l-1.64,1.55a1,1,0,0,0,0,1.44l2.68,2.52a1.14,1.14,0,0,0,1.54,0l1.65-1.57a1,1,0,0,1,1-.18l.71.27a.84.84,0,0,1,.57.79v2.21a1.06,1.06,0,0,0,1.09,1h3.77a1.07,1.07,0,0,0,1.09-1v-2.19a.85.85,0,0,1,.6-.8l.64-.25a1,1,0,0,1,1,.16l1.65,1.54a1.13,1.13,0,0,0,1.53,0l2.67-2.52a1,1,0,0,0,0-1.45l-1.66-1.56a.81.81,0,0,1-.19-.93C511.19,421.11,511.43,420.47,511.44,420.44Zm-15-3.71a5.4,5.4,0,0,1,7.21-3.8,5.05,5.05,0,0,1,3.33,5.62,5.4,5.4,0,0,1-7.2,3.8A5.07,5.07,0,0,1,496.4,416.73Z" transform="translate(-46.94 -49.62)"/><path class="cls-6" d="M534.54,412.61a1.29,1.29,0,0,0-1.33-1.25h-2.82a1.12,1.12,0,0,1-1-.69c-.1-.25-.21-.5-.32-.74a1,1,0,0,1,.2-1.18l2-1.89a1.19,1.19,0,0,0,0-1.76l-1.11-1.05.31,0-.39-2.38h-2.73a1.39,1.39,0,0,0-1.21.34l-2,1.9a1.16,1.16,0,0,1-1.21.22l-.86-.34a1,1,0,0,1-.69-.95v-2.69a1.29,1.29,0,0,0-1.33-1.25h-4.6a1.29,1.29,0,0,0-1.32,1.25v2.66a1.06,1.06,0,0,1-.74,1c-.28.1-.55.21-.82.33a1.19,1.19,0,0,1-1.1-.08l.25,0-.39-2.38h-2.95a1.35,1.35,0,0,0-.94.37l-3.25,3.08a1.2,1.2,0,0,0,0,1.76l2,1.9a1,1,0,0,1,.24,1.13c-.12.27-.25.57-.35.82a1.1,1.1,0,0,1-1,.65h-2.85a1.29,1.29,0,0,0-1.32,1.25V417a1.29,1.29,0,0,0,1.33,1.25H505a1.11,1.11,0,0,1,1,.7c.1.24.21.49.32.73a1,1,0,0,1-.2,1.19l-2,1.88a1.2,1.2,0,0,0,0,1.77l3.26,3.06a1.35,1.35,0,0,0,1,.36h2.94l.38-2.51a1.13,1.13,0,0,1,.79,0l.86.33a1,1,0,0,1,.7,1v2.7a1.29,1.29,0,0,0,1.33,1.24H520a1.29,1.29,0,0,0,1.32-1.25v-2.66a1.06,1.06,0,0,1,.74-1l.78-.3a1.14,1.14,0,0,1,1.25.19l2,1.88a1.34,1.34,0,0,0,1,.36H530l.39-2.62h0l.86-.81a1.21,1.21,0,0,0,0-1.77l-2-1.89a1,1,0,0,1-.23-1.14c.29-.65.59-1.42.61-1.47h3.61a1.29,1.29,0,0,0,1.32-1.25Zm-10.42,3.29a6.57,6.57,0,0,1-8.77,4.63,6.17,6.17,0,0,1-4.07-6.85,6.58,6.58,0,0,1,8.78-4.62A6.14,6.14,0,0,1,524.12,415.9Z" transform="translate(-46.94 -49.62)"/><path class="cls-5" d="M532.57,418.2h3.61A1.29,1.29,0,0,0,537.5,417v-4.34a1.3,1.3,0,0,0-1.33-1.25h-2.82a1.12,1.12,0,0,1-1-.69c-.1-.25-.21-.5-.32-.74a1,1,0,0,1,.2-1.18l2-1.89a1.19,1.19,0,0,0,0-1.76L530.93,402a1.37,1.37,0,0,0-1.87,0l-2,1.9a1.16,1.16,0,0,1-1.21.22l-.86-.34a1,1,0,0,1-.69-.95v-2.69a1.29,1.29,0,0,0-1.33-1.25h-4.6a1.29,1.29,0,0,0-1.33,1.25v2.66a1,1,0,0,1-.73,1c-.28.1-.55.21-.82.33a1.16,1.16,0,0,1-1.26-.2l-2-1.88a1.4,1.4,0,0,0-1.88,0l-3.24,3.08a1.19,1.19,0,0,0,0,1.76l2,1.9a1,1,0,0,1,.24,1.13c-.13.27-.25.57-.35.82a1.1,1.1,0,0,1-1,.65h-2.85a1.29,1.29,0,0,0-1.32,1.25V417a1.29,1.29,0,0,0,1.33,1.25H508a1.11,1.11,0,0,1,1,.7c.1.24.21.49.32.73a1,1,0,0,1-.2,1.19l-2,1.88a1.21,1.21,0,0,0,0,1.77l3.26,3.06a1.37,1.37,0,0,0,1.87,0l2-1.9a1.14,1.14,0,0,1,1.21-.22l.86.33a1,1,0,0,1,.7,1v2.7a1.29,1.29,0,0,0,1.33,1.24H523a1.29,1.29,0,0,0,1.32-1.25v-2.66a1.06,1.06,0,0,1,.74-1l.78-.3a1.14,1.14,0,0,1,1.25.19l2,1.88a1.37,1.37,0,0,0,1.87,0l3.26-3.07a1.21,1.21,0,0,0,0-1.77l-2-1.89a1,1,0,0,1-.23-1.14C532.25,419,532.55,418.25,532.57,418.2Zm-18.33-4.52a6.58,6.58,0,0,1,8.78-4.62,6.14,6.14,0,0,1,4.06,6.84,6.57,6.57,0,0,1-8.77,4.63A6.17,6.17,0,0,1,514.24,413.68Z" transform="translate(-46.94 -49.62)"/><line class="cls-17" x1="405.8" y1="163.42" x2="234.25" y2="51.34"/><line class="cls-17" x1="213.26" y1="79.94" x2="361.98" y2="207.37"/><line class="cls-17" x1="429.38" y1="77.01" x2="355.6" y2="169.5"/><line class="cls-17" x1="454.05" y1="89.51" x2="413.3" y2="195.03"/><circle class="cls-9" cx="423.3" cy="234.36" r="20.76" transform="translate(76.82 564.72) rotate(-80.72)"/><path class="cls-6" d="M406,234.36a20.76,20.76,0,0,1,19-20.67c-.58-.05-1.16-.09-1.75-.09a20.76,20.76,0,1,0,0,41.52c.59,0,1.17,0,1.75-.08A20.77,20.77,0,0,1,406,234.36Z" transform="translate(-46.94 -49.62)"/><polygon class="cls-7" points="373.62 193.16 366.41 185.95 370.53 181.83 373.62 184.92 382.2 176.33 386.32 180.45 373.62 193.16"/></g><g id="man"><rect class="cls-9" x="626.53" y="343.92" width="40.54" height="38.22" rx="7.26"/><path class="cls-6" d="M678.47,424.5V400.8a7.26,7.26,0,0,1,7.26-7.26h-5a7.26,7.26,0,0,0-7.26,7.26v23.7a7.26,7.26,0,0,0,7.26,7.26h5A7.26,7.26,0,0,1,678.47,424.5Z" transform="translate(-46.94 -49.62)"/><path class="cls-6" d="M706.53,432.06v-.6a7.18,7.18,0,0,0,7.17-7.18V401a7.18,7.18,0,0,0-7.17-7.17h-18v-.6h18a7.78,7.78,0,0,1,7.78,7.77v23.27A7.79,7.79,0,0,1,706.53,432.06Z" transform="translate(-46.94 -49.62)"/><path class="cls-6" d="M698.34,401.58V411.9h0l7.28,7.3a10.31,10.31,0,0,0,3-7.27v0A10.32,10.32,0,0,0,698.34,401.58Z" transform="translate(-46.94 -49.62)"/><path class="cls-7" d="M689.77,404.43a10.25,10.25,0,0,0-3,7.28l9.79,0h0l.05-10.32A9.19,9.19,0,0,0,689.77,404.43Z" transform="translate(-46.94 -49.62)"/><path class="cls-7" d="M696.85,413.4h0l-10.31,0v0a10.32,10.32,0,0,0,17.6,7.3Z" transform="translate(-46.94 -49.62)"/><path class="cls-5" d="M266,413.45l-20.77,14.8-10.48,0h0a3.79,3.79,0,0,0,3.79,3.79h30.14V413.45Z" transform="translate(-46.94 -49.62)"/><polygon class="cls-18" points="213.58 382.45 221.74 370.63 221.74 382.45 213.58 382.45"/><path class="cls-18" d="M341.08,412.65v7.11l10.18,6.49,13.15,1.53v.75a3.54,3.54,0,0,1-3.54,3.54H329.5l2.08-19.42Z" transform="translate(-46.94 -49.62)"/><path class="cls-5" d="M341.08,419.76l10.18,6.49,13.15,1.53v.75a3.54,3.54,0,0,1-3.54,3.54H329.5l1.33-12.4Z" transform="translate(-46.94 -49.62)"/><polygon class="cls-9" points="246.25 318.17 304.42 318.17 295.92 363.03 283.32 363.03 282.18 341.54 245.63 349.48 246.25 318.17"/><path class="cls-9" d="M248.17,391.15l-.56,6A16.34,16.34,0,0,0,264,413.45h4.72v18.62h72.05l.07-3.25a18.88,18.88,0,0,0-9.14-16.55l-35.13-21.12Z" transform="translate(-46.94 -49.62)"/><path class="cls-6" d="M264,413.82a16.74,16.74,0,0,1-16.72-16.71l.57-6,.75.07-.57,5.95a16,16,0,0,0,16,15.93Z" transform="translate(-46.94 -49.62)"/><path class="cls-19" d="M279.78,309h4.49a13.62,13.62,0,0,1,13.62,13.89l-1.37,68.23H248.17L260.57,325A19.55,19.55,0,0,1,279.78,309Z" transform="translate(-46.94 -49.62)"/><path class="cls-18" d="M284.14,321.35l31.09,16.29,31.61-18.24,3.55-4.91,6.46-3.48h2.85l.94,2.2-4.28.87-.64,1.77,9.36-1.71a6,6,0,0,1,5.43,1.75h0a2.23,2.23,0,0,1,.63,1.56v3.68a2.19,2.19,0,0,1-.87,1.74l-1.77,1.33a7.8,7.8,0,0,1-3.84,1.51l-8.1.84a1.94,1.94,0,0,1-.59,0l-5-1.06L315.22,353l-38-17.73A7.77,7.77,0,0,1,273.48,325h0A7.76,7.76,0,0,1,284.14,321.35Z" transform="translate(-46.94 -49.62)"/><path class="cls-19" d="M309.07,334.41l-24.8-13.35c-3.94-2.06-8.59-1.36-10.44,2.69l-.43.69c-1.78,3.87-.68,9.26,3.18,11.06l26.65,11.89C306.57,346.15,310.23,337.77,309.07,334.41Z" transform="translate(-46.94 -49.62)"/><path class="cls-18" d="M285.66,297.39v14.33A5.33,5.33,0,0,1,280,317h0a5.33,5.33,0,0,1-5-5.68l.8-12.05Z" transform="translate(-46.94 -49.62)"/><path class="cls-18" d="M291.47,281.36l1,6.89,2,2.15a6.65,6.65,0,0,1,1.66,3.14l.46,4.27h-2.1l-.26,5.8a5,5,0,0,1-5.38,4.77l-13.49-1-8.73-12.25a9.5,9.5,0,0,1,.35-9l5.53-9.38,14.66.71A4.57,4.57,0,0,1,291.47,281.36Z" transform="translate(-46.94 -49.62)"/><polygon class="cls-6" points="222.11 379.88 221.36 379.88 221.36 363.46 261.33 363.46 261.33 364.21 222.11 364.21 222.11 379.88"/><polygon class="cls-6" points="267.77 353.41 249.37 341.85 249.78 341.22 268.18 352.78 267.77 353.41"/><rect class="cls-6" x="304.59" y="394.1" width="17.55" height="0.75" transform="translate(-120.13 21.78) rotate(-11.65)"/><rect class="cls-6" x="329.06" y="390.31" width="3.77" height="0.75" transform="translate(-133.69 44.94) rotate(-14.4)"/><path class="cls-2" d="M297.63,273a4.64,4.64,0,0,0-1.52-2.18,3.92,3.92,0,0,0-1.46-.79,7.46,7.46,0,0,0-3.57.4,11.51,11.51,0,0,1-5.38.08c-1.56-.44-2.8-1-4.49-.67a12.3,12.3,0,0,1-3.4.68,18.41,18.41,0,0,1-3.09-1,5.3,5.3,0,0,0-5.41,1.77,6,6,0,0,0-.93,5.69,1.59,1.59,0,0,1,.15.88,1.09,1.09,0,0,1-.39.56c-.81.67-1.94.74-2.88,1.2-1.48.73-3,1.15-3.87,2.74a6.85,6.85,0,0,0,.52,6.54,21.68,21.68,0,0,0,2,2.07c.62.65,1.06,1.43,1.62,2.13,1.33,1.65.4,2.77.27,4.66a11.19,11.19,0,0,0,1,5.46,5.41,5.41,0,0,0,1.86,2.31,6.27,6.27,0,0,0,4.13.53,10.09,10.09,0,0,0,3.55-1,5.82,5.82,0,0,0,2.75-5.52c-.12-1.44-.65-2.82-.88-4.25a4.94,4.94,0,0,1,.84-4.11c1.1-1.22,2.29.22,2.57,1.34a6,6,0,0,1,.1.95l.06,1.82,2.63-.28a21.43,21.43,0,0,1-.51-5.53c0-1.74-1-2.92.48-4.36a3.24,3.24,0,0,1,1-.67,4.17,4.17,0,0,1,2.93.34c1.45.49,3.75.92,5.12,0a4.73,4.73,0,0,0,2-3.93,7.64,7.64,0,0,1-.41-2.42c.23-1.19,1.6-1.78,2.27-2.79A3.1,3.1,0,0,0,297.63,273Z" transform="translate(-46.94 -49.62)"/><rect class="cls-6" x="293.68" y="332.98" width="0.75" height="20.25" transform="translate(-188.2 414.69) rotate(-64.96)"/><rect class="cls-6" x="292.93" y="348.92" width="8.92" height="0.75" transform="translate(-107.21 586.94) rotate(-88.36)"/><polygon class="cls-6" points="202.4 335.35 249.58 335.35 249.58 341.54 201.24 341.54 202.4 335.35"/><path class="cls-6" d="M290.06,288.92c0,.36-.13.66-.29.66s-.29-.3-.29-.66.13-.67.29-.67S290.06,288.55,290.06,288.92Z" transform="translate(-46.94 -49.62)"/><path class="cls-20" d="M287.23,288a19.14,19.14,0,0,1,3.41-.86c.32-.05.19-.53-.13-.48a19.14,19.14,0,0,0-3.41.86c-.3.11-.17.59.13.48Z" transform="translate(-46.94 -49.62)"/><path class="cls-20" d="M287.93,300.9a4.83,4.83,0,0,0,4.68,2.86c.32,0,.32-.52,0-.5a4.36,4.36,0,0,1-4.25-2.61c-.13-.3-.56,0-.43.25Z" transform="translate(-46.94 -49.62)"/><polygon class="cls-21" points="238.72 257.6 232.34 257.6 238.72 261.39 238.72 257.6"/></g><g id="Man_2" data-name="Man 2"><path class="cls-6" d="M538.71,431.33h0a2.68,2.68,0,0,1-2.62-2.43L514.23,149.12a2.21,2.21,0,0,1,2.23-2.43h0a2.68,2.68,0,0,1,2.62,2.43L540.94,428.9A2.21,2.21,0,0,1,538.71,431.33Z" transform="translate(-46.94 -49.62)"/><path class="cls-6" d="M604.85,431.33h0a2.68,2.68,0,0,1-2.62-2.43L580.37,149.12a2.22,2.22,0,0,1,2.24-2.43h0a2.66,2.66,0,0,1,2.61,2.43L607.09,428.9A2.22,2.22,0,0,1,604.85,431.33Z" transform="translate(-46.94 -49.62)"/><polygon class="cls-6" points="543.67 200.55 478.55 200.55 478.2 196.06 543.32 196.06 543.67 200.55"/><polygon class="cls-6" points="546.68 243.89 481.55 243.89 481.2 239.4 546.33 239.4 546.68 243.89"/><polygon class="cls-6" points="539.78 155.34 474.66 155.34 474.31 150.85 539.43 150.85 539.78 155.34"/><polygon class="cls-6" points="548.91 282.38 483.79 282.38 483.43 277.89 548.56 277.89 548.91 282.38"/><polygon class="cls-6" points="554.26 333.26 489.13 333.26 488.78 328.77 553.91 328.77 554.26 333.26"/><polygon class="cls-6" points="557.63 372.65 492.5 372.65 492.15 368.16 557.28 368.16 557.63 372.65"/><polygon class="cls-18" points="566.75 307.2 566.52 312.7 567.29 316.56 556.27 316.56 556.27 312.7 556.56 301.3 566.75 307.2"/><polygon class="cls-21" points="556.37 308.63 566.69 308.63 566.75 307.2 556.56 301.3 556.37 308.63"/><path class="cls-18" d="M594.36,181l-19.48,27.44-32.39-5.68-6.32-6.05L526.1,201h7.46l.54,4.84h-4.51l8.6,4.7,5.15-.77,33.13,13.45,29.72-33.62a7.35,7.35,0,0,0-.38-10.15h0A7.36,7.36,0,0,0,594.36,181Z" transform="translate(-46.94 -49.62)"/><polygon class="cls-18" points="514.59 253.33 514.36 258.83 515.13 262.7 504.11 262.7 504.11 258.83 504.4 247.43 514.59 253.33"/><polygon class="cls-22" points="568.34 190.66 568.34 306.8 553.7 306.8 536.04 189.91 568.34 190.66"/><polygon class="cls-21" points="504.21 254.76 514.53 254.76 514.59 253.33 504.4 247.43 504.21 254.76"/><path class="cls-23" d="M615.28,240.28l-80.8.24L548.07,303h14.17l.87-40.11,29.3.17a22.74,22.74,0,0,0,22.87-22.73Z" transform="translate(-46.94 -49.62)"/><path class="cls-6" d="M614.81,242.59a22,22,0,0,1-6.49,13.56,22.2,22.2,0,0,1-15.77,6.5h-.13v.71h.14a22.91,22.91,0,0,0,16.27-6.71,22.44,22.44,0,0,0,6.72-14.06Z" transform="translate(-46.94 -49.62)"/><path class="cls-24" d="M573.6,240.28l7.24-55.41a23,23,0,0,1,22.77-19.73h5.61a6.71,6.71,0,0,1,6.48,6.7v68.44Z" transform="translate(-46.94 -49.62)"/><polygon class="cls-6" points="527.58 185.68 526.66 190.66 568.76 190.66 568.76 185.68 527.58 185.68"/><polygon class="cls-5" points="527.31 185.68 526.42 190.66 534.63 190.66 534.63 185.68 527.31 185.68"/><path class="cls-18" d="M600.84,176.63l-42.79-5.54-34.18-19.86-10.31-7.85-3.27-1-1.87.41,2.49,2.26.35,0,2.15,2.35,1.41,3.22.8,2-5.31.12-2.14,1,14.11,4.51,32.89,23.95,43,9.63a7.74,7.74,0,0,0,9.34-6.47h0A7.73,7.73,0,0,0,600.84,176.63Z" transform="translate(-46.94 -49.62)"/><path class="cls-24" d="M580.87,174,601,176.47a7.92,7.92,0,0,1,6.83,9h0a7.92,7.92,0,0,1-9.58,6.63l-19.11-4.48Z" transform="translate(-46.94 -49.62)"/><path class="cls-18" d="M608.45,164.85l-.3-.84,3.54-17.56a14.06,14.06,0,0,0-12.3-15.64l-7.11-.86a2.86,2.86,0,0,0-3.17,2.5l.36,4,1.59,1.23-4.55,9.71a.66.66,0,0,0,.52.93l1.45.18-.38,3.18a9.62,9.62,0,0,0,8.4,10.69l3,.36-.54,2.89a5,5,0,0,0,4.81,5.84h0A5,5,0,0,0,608.45,164.85Z" transform="translate(-46.94 -49.62)"/><path class="cls-5" d="M614.13,138.27a13.6,13.6,0,0,0-2.78-6.32c-2.28-2.57-5.74-3.41-8.88-4.41-3.54-1.14-6-1.88-8.9-4.18a10.84,10.84,0,0,0-3.38-2,5.42,5.42,0,0,0-6.38,3.08,7.87,7.87,0,0,0-.2,4.28,12.51,12.51,0,0,0,2.73,6.06c3.14,3.61,8.8,3.43,13,5.15,1.45.59,1,3.8,1,4.94,0,2.22-.41,4.27-2.37,5.64-2.42,1.69-3.94.17-6.14-1.13a6.23,6.23,0,0,0-1.48-.69,3.93,3.93,0,0,0-3.16.73c-3.6,2.52-4.24,9.22-1.88,12.69a2.94,2.94,0,0,0,.84.88,3.34,3.34,0,0,0,1.8.33c2.55-.06,5.19-.24,7.72-.41,2.26-.15,6.14.26,7.52-1.95,1-1.68,0-2.66-.88-4a7.35,7.35,0,0,1-.47-5.69c.45-1.78,1.46-4.59,3.5-2.38s1.68,6.81,1.5,9.61a10.86,10.86,0,0,0,0,1.71,4.79,4.79,0,0,0,1.29,3c1.18.89,1.2.3,2-1.06a33.53,33.53,0,0,0,4-23.89Z" transform="translate(-46.94 -49.62)"/><path class="cls-6" d="M594.17,144.53a.49.49,0,0,1-1-.12.49.49,0,1,1,1,.12Z" transform="translate(-46.94 -49.62)"/><path class="cls-6" d="M596.22,142.77a.31.31,0,0,1-.13,0l-3.52-1.45a.35.35,0,0,1-.2-.46.37.37,0,0,1,.47-.2l3.52,1.46a.35.35,0,0,1,.19.46A.36.36,0,0,1,596.22,142.77Z" transform="translate(-46.94 -49.62)"/><path class="cls-5" d="M614.62,362.12h-11L599,367.3h-6.81A15.78,15.78,0,0,0,578.13,376h36.49Z" transform="translate(-46.94 -49.62)"/><path class="cls-7" d="M612.47,369a3.46,3.46,0,1,1-3.46-3.45A3.45,3.45,0,0,1,612.47,369Z" transform="translate(-46.94 -49.62)"/><rect class="cls-7" x="530.52" y="326.33" width="38.7" height="3.25"/><path class="cls-5" d="M563,310.45H552l-4.58,5.18h-6.79a15.76,15.76,0,0,0-14.06,8.63H563Z" transform="translate(-46.94 -49.62)"/><path class="cls-7" d="M560.87,317.35a3.45,3.45,0,1,1-3.44-3.44A3.44,3.44,0,0,1,560.87,317.35Z" transform="translate(-46.94 -49.62)"/><rect class="cls-7" x="478.99" y="274.64" width="38.63" height="3.25"/><polygon class="cls-6" points="546.55 141.61 532.16 138.24 532.28 137.71 546.67 141.08 546.55 141.61"/><rect class="cls-6" x="510.33" y="212.86" width="5.84" height="0.71"/><polygon class="cls-21" points="552.53 113.1 557.27 113.86 552.09 115.53 552.53 113.1"/></g><g id="woman_2" data-name="woman 2"><path class="cls-6" d="M220.09,162.43c4,6.94.72,15.9-.72,23.16-.57,2.85-1.93,6.75.77,8.81.24.19.49-.23.24-.42-3.76-2.87,1.23-15.74,1.73-19.75.51-4.17.56-8.34-1.6-12a.24.24,0,0,0-.42.24Z" transform="translate(-46.94 -49.62)"/><path class="cls-6" d="M222.69,164.49a.83.83,0,0,0,0-.15,8.07,8.07,0,0,0-4-5c-.8-.47-5.39-2.56-6.17-1.49l-9.89,13.56a52.62,52.62,0,0,0-9.27,16.74c-1.68,5.48-2.06,10.39,1.37,15.28,2.34,3.34,5.91,6,10,6.45s8.48-1.74,9.89-5.57c1-2.73.43-5.76.55-8.67.22-5.48,2.91-10.5,5.09-15.53C222.27,175.34,224,169.72,222.69,164.49Z" transform="translate(-46.94 -49.62)"/><path class="cls-18" d="M213.08,190.43l-2.4.91a7,7,0,0,1-9.05-4.09l-.9-2.41a17.19,17.19,0,0,1,10-22.14l.33-.12a3.8,3.8,0,0,1,5.13,3.29l.07,1a28.25,28.25,0,0,0,6.55,5.32c.68.4-2.13,1.46-2.13,1.46h0A13,13,0,0,1,213.08,190.43Z" transform="translate(-46.94 -49.62)"/><path class="cls-6" d="M215.17,169.78c.15.39.11.76-.08.84s-.46-.19-.61-.58-.11-.76.08-.84S215,169.39,215.17,169.78Z" transform="translate(-46.94 -49.62)"/><path class="cls-6" d="M214,179.67a3.64,3.64,0,0,0,4.87,2.3.25.25,0,0,0-.18-.46,3.15,3.15,0,0,1-4.24-2c-.09-.3-.55-.13-.45.17Z" transform="translate(-46.94 -49.62)"/><polygon class="cls-18" points="140.77 287.74 140.77 375.38 148.98 378.38 151.17 372.87 148.3 369.67 159.31 285.02 140.77 287.74"/><polygon class="cls-18" points="152.68 287.26 154.65 374.49 168.71 378.01 169.52 375.62 162.16 370.15 171.4 280.94 152.68 287.26"/><path class="cls-18" d="M267.63,120.07l-7.53,10.45-3.65,6.08-1.22,9.24L233.6,182.06l-16.24,15.76H200.71a13,13,0,0,0-13,13v49.23h33.55l.36-43.94,21.66-25.62,18.53-43.2,6.16-8.76a3.59,3.59,0,0,0,.18-3.87l-2.94-5.12,3-6.2a2.85,2.85,0,0,0-.55-3.26Z" transform="translate(-46.94 -49.62)"/><path class="cls-9" d="M233.6,182.06l-16.24,15.76H200.71a13,13,0,0,0-13,13v49.23h33.55l.24-23.71,1.08-2.12a12.09,12.09,0,0,0,1.08-7.8l-2-10.31,21.66-25.62Z" transform="translate(-46.94 -49.62)"/><path class="cls-5" d="M187.7,260.06s-11.55,18.39-1.95,36.62l1.95,45.06h31.36l4.33-60.41a62.57,62.57,0,0,0-2.14-21.27H187.7Z" transform="translate(-46.94 -49.62)"/><path class="cls-6" d="M187.7,419.32v8.44a3,3,0,0,0,3,2.95H214.2v-2.08a3.71,3.71,0,0,0-2.37-3.46l-16.59-5.89S192.45,429.13,187.7,419.32Z" transform="translate(-46.94 -49.62)"/><path class="cls-6" d="M201.59,419.32v8.44a3,3,0,0,0,2.95,2.95H230v-2.08a3.71,3.71,0,0,0-2.37-3.46l-18.54-5.89S206.34,429.13,201.59,419.32Z" transform="translate(-46.94 -49.62)"/><path class="cls-6" d="M183,272.07l7.31,8.2,12.43-13.93,12.42,13.93,8.12-9.1c-.17-1.83-.41-3.65-.74-5.45L215.16,274l-12.42-13.93h0L190.31,274l-5.93-6.65A44.92,44.92,0,0,0,183,272.07Z" transform="translate(-46.94 -49.62)"/><polygon class="cls-6" points="173.02 279.65 168.23 285.03 155.8 271.09 143.38 285.03 140.31 281.59 140.6 288.19 143.38 291.31 155.8 277.38 168.23 291.31 172.53 286.49 173.02 279.65"/><polygon class="cls-6" points="155.8 257.16 168.23 271.09 174.1 264.5 174.59 257.67 168.23 264.81 155.8 250.88 143.38 264.81 139.39 260.34 139.67 266.94 143.38 271.09 155.8 257.16"/><path class="cls-6" d="M202.74,286.55l12.42,13.94,7.46-8.36.49-6.83-8,8.91-12.42-13.94-12.43,13.94-8.14-9.14a33,33,0,0,0,2.3,8.87l5.84,6.55Z" transform="translate(-46.94 -49.62)"/><path class="cls-18" d="M188,206.26l-10,27.3,7.29,40.84.49,10.45,1.94,3.89h1.78a2.46,2.46,0,0,0,2.46-2.29l.62-9.13,2.14,4.17,2.19.32-3-8.13a4.41,4.41,0,0,0-1.68-2.15l-1.48-1-3-34.52,12.56-24.38a6.73,6.73,0,0,0-3.2-9.21h0A6.72,6.72,0,0,0,188,206.26Z" transform="translate(-46.94 -49.62)"/><path class="cls-9" d="M197.28,202a6.81,6.81,0,0,0-9.21,3.86L178,233.53c2.45-.27,8.11.59,9.84,2.5l12.71-24.67A6.81,6.81,0,0,0,197.28,202Z" transform="translate(-46.94 -49.62)"/><path class="cls-18" d="M207.61,201.83h-1.29a5.62,5.62,0,0,1-4.82-2.71l-.79-1.3h1.47V185.71h8.65v12.11H213A5.65,5.65,0,0,1,207.61,201.83Z" transform="translate(-46.94 -49.62)"/><path class="cls-21" d="M210.83,191.28s-5.56-.15-5,.06,5,3.45,5,3.45Z" transform="translate(-46.94 -49.62)"/><polygon class="cls-6" points="141.01 186.96 139.55 185.88 139.99 185.29 140.75 185.86 151.34 165.32 151.99 165.65 141.01 186.96"/><rect class="cls-6" x="220.67" y="214.85" width="0.73" height="1.53" transform="translate(-133.92 187.68) rotate(-48.31)"/><polygon class="cls-6" points="148.8 369.88 148.08 369.79 158.07 292.86 158.79 292.96 148.8 369.88"/><path class="cls-6" d="M215.46,175.79a3.66,3.66,0,0,1-2.29-.89,6.34,6.34,0,0,1-2-3.24,6.43,6.43,0,0,1,.05-3.82,3.17,3.17,0,0,1,5.29-1.48,6.34,6.34,0,0,1,2,3.24h0a6.44,6.44,0,0,1,0,3.82,3.43,3.43,0,0,1-2.22,2.27A3,3,0,0,1,215.46,175.79Zm-1.27-9.6a2.33,2.33,0,0,0-.59.08,2.69,2.69,0,0,0-1.72,1.81,6,6,0,0,0,1.75,6.25,2.45,2.45,0,0,0,4.14-1.16,5.7,5.7,0,0,0,0-3.38h0a5.75,5.75,0,0,0-1.79-2.87A3,3,0,0,0,214.19,166.19Z" transform="translate(-46.94 -49.62)"/><rect class="cls-6" x="205.52" y="172.5" width="6.26" height="0.73" transform="translate(-99.91 52.75) rotate(-24.56)"/><path class="cls-6" d="M210.37,151.82c2.52.31,7.22,1.25,8.52,3.73,1.58,3-1.88,6.54-4,8.08-2.38,1.71-5.15,3.12-6.65,5.64s-1.15,5.42-1.75,8.22c-.52,2.37-1.85,4.8-1.95,7.25-.12,2.83,1.23,5.73,1.84,8.46.69,3.05.75,6.55-1.22,9-2.16,2.65-6,3.15-9.38,3.43a24.26,24.26,0,0,1-7.75-.21,8.29,8.29,0,0,1-5.89-4.63c-1.62-4.15,1.56-8.65,1.48-13.11-.07-3.46-2.08-6.57-2.77-10-.87-4.32.48-8.86,2.84-12.58C189.49,155.91,199.37,150.46,210.37,151.82Z" transform="translate(-46.94 -49.62)"/><path class="cls-6" d="M188.22,160.31c-3.6,3-4.81,6.54-5,11.11-.17,4.72,2.49,24-7.25,21.69-.3-.08-.43.39-.13.46,4.2,1,6.85-2.16,7.63-6,1.81-9-3.17-20.16,5.07-26.91.24-.2-.11-.54-.35-.35Z" transform="translate(-46.94 -49.62)"/></g><g id="line"><line class="cls-25" y1="382.05" x2="716.53" y2="382.05"/></g></svg>