<svg id="Graphics" xmlns="http://www.w3.org/2000/svg" xmlns:xlink="http://www.w3.org/1999/xlink" viewBox="0 0 716.53 331.9"><defs><style>.cls-1{fill:#5361f0;}.cls-19,.cls-2,.cls-20{fill:#191c3c;}.cls-3{fill:#ff5722;}.cls-4{fill:#536dfe;}.cls-5{fill:url(#linear-gradient);}.cls-6{fill:#fff;}.cls-7{fill:#2e35a8;}.cls-8{fill:#fec55e;}.cls-9{fill:#e3edfe;}.cls-10{fill:#4d5068;}.cls-11{fill:#23287e;}.cls-12{fill:url(#linear-gradient-2);}.cls-13{fill:#3e52bf;}.cls-14{fill:#bf9447;}.cls-15{fill:#eef4fe;}.cls-16{fill:#b3cdfa;}.cls-17{fill:#ff794e;}.cls-18{fill:url(#linear-gradient-3);}.cls-19{opacity:0.3;}.cls-20{opacity:0.1;}.cls-21{fill:#feb423;}.cls-22{fill:url(#linear-gradient-4);}.cls-23{fill:url(#linear-gradient-5);}.cls-24{fill:#f9fbff;}.cls-25{fill:none;stroke:#191c3c;stroke-miterlimit:10;stroke-width:0.75px;}</style><linearGradient id="linear-gradient" x1="110.65" y1="191.56" x2="161.11" y2="191.56" gradientUnits="userSpaceOnUse"><stop offset="0" stop-color="#536dfe"/><stop offset="1" stop-color="#2e35a8"/></linearGradient><linearGradient id="linear-gradient-2" x1="477.31" y1="3.82" x2="236.31" y2="328.82" gradientUnits="userSpaceOnUse"><stop offset="0" stop-color="#536dfe"/><stop offset="0.19" stop-color="#495fe8"/><stop offset="0.53" stop-color="#3b48c5"/><stop offset="0.82" stop-color="#313ab0"/><stop offset="1" stop-color="#2e35a8"/></linearGradient><linearGradient id="linear-gradient-3" x1="225.87" y1="236.13" x2="256.79" y2="236.13" xlink:href="#linear-gradient"/><linearGradient id="linear-gradient-4" x1="543.56" y1="201.65" x2="581.83" y2="201.65" xlink:href="#linear-gradient-2"/><linearGradient id="linear-gradient-5" x1="569.79" y1="201.18" x2="610.64" y2="201.18" xlink:href="#linear-gradient-2"/></defs><title>Tutorials_3</title><g id="Web_page_and_elements" data-name="Web page and elements"><path class="cls-1" d="M90.55,234.84a1.2,1.2,0,1,1-1.2-1.2A1.2,1.2,0,0,1,90.55,234.84Z" transform="translate(-46.94 -100.14)"/><path class="cls-2" d="M673.66,223a2,2,0,1,1,2-1.95A2,2,0,0,1,673.66,223Zm0-3.41a1.46,1.46,0,1,0,1.45,1.46A1.46,1.46,0,0,0,673.66,219.56Z" transform="translate(-46.94 -100.14)"/><circle class="cls-3" cx="163.23" cy="58.6" r="1.2"/><path class="cls-4" d="M553.07,229.91a3.16,3.16,0,1,1,3.16-3.16A3.16,3.16,0,0,1,553.07,229.91Zm0-5.32a2.16,2.16,0,1,0,2.16,2.16A2.16,2.16,0,0,0,553.07,224.59Z" transform="translate(-46.94 -100.14)"/><path class="cls-4" d="M157.58,206.84a3.16,3.16,0,1,1,3.16-3.16A3.16,3.16,0,0,1,157.58,206.84Zm0-5.28a2.13,2.13,0,1,0,2.13,2.12A2.12,2.12,0,0,0,157.58,201.56Z" transform="translate(-46.94 -100.14)"/><circle class="cls-3" cx="616.82" cy="164.12" r="1.2"/><path class="cls-3" d="M592.89,191.49a2.86,2.86,0,1,1,2.86-2.86A2.86,2.86,0,0,1,592.89,191.49Zm0-5.22a2.36,2.36,0,1,0,2.36,2.36A2.36,2.36,0,0,0,592.89,186.27Z" transform="translate(-46.94 -100.14)"/><path class="cls-2" d="M141.72,276.38a2,2,0,1,1,2-1.95A1.95,1.95,0,0,1,141.72,276.38Zm0-3.4a1.45,1.45,0,1,0,1.46,1.45A1.45,1.45,0,0,0,141.72,273Z" transform="translate(-46.94 -100.14)"/><path class="cls-1" d="M546.55,184a1.2,1.2,0,1,1-1.2-1.2A1.2,1.2,0,0,1,546.55,184Z" transform="translate(-46.94 -100.14)"/><circle class="cls-2" cx="59.75" cy="210.82" r="1.2"/><circle class="cls-2" cx="529.82" cy="154.82" r="1.2"/><circle class="cls-3" cx="511.73" cy="185.77" r="1.2"/><circle class="cls-3" cx="131.74" cy="150.7" r="1.2"/><rect class="cls-5" x="110.65" y="167.77" width="50.46" height="47.58" rx="9.31"/><path class="cls-2" d="M198.74,315.87v-.75a9,9,0,0,0,8.93-8.93v-29a8.94,8.94,0,0,0-8.93-8.93H176.39v-.75h22.35a9.69,9.69,0,0,1,9.68,9.68v29A9.69,9.69,0,0,1,198.74,315.87Z" transform="translate(-46.94 -100.14)"/><path class="cls-2" d="M163.19,308.46V275a7.26,7.26,0,0,1,7.47-7h-3.77a9.31,9.31,0,0,0-9.31,9.31v29a9.3,9.3,0,0,0,9.31,9.3h3.77A7.26,7.26,0,0,1,163.19,308.46Z" transform="translate(-46.94 -100.14)"/><path class="cls-6" d="M195.51,294.94h3a1.05,1.05,0,0,0,1.08-1v-3.57a1.06,1.06,0,0,0-1.09-1h-2.32a.91.91,0,0,1-.85-.58l-.27-.6a.84.84,0,0,1,.17-1l1.64-1.55a1,1,0,0,0,0-1.45l-2.68-2.52a1.14,1.14,0,0,0-1.54,0L191,283.2a1,1,0,0,1-1,.18c-.24-.1-.5-.19-.72-.27a.85.85,0,0,1-.56-.79V280.1a1.06,1.06,0,0,0-1.09-1h-3.79a1.06,1.06,0,0,0-1.09,1v2.2a.87.87,0,0,1-.61.8l-.67.26a1,1,0,0,1-1-.16l-1.65-1.54a1.14,1.14,0,0,0-1.54,0l-2.67,2.53a1,1,0,0,0,0,1.46l1.66,1.55a.83.83,0,0,1,.2.94c-.11.22-.21.46-.29.67a.92.92,0,0,1-.84.54H173a1.06,1.06,0,0,0-1.09,1V294a1.06,1.06,0,0,0,1.09,1h2.32a.92.92,0,0,1,.86.57c.08.21.17.41.26.61a.82.82,0,0,1-.16,1l-1.64,1.56a1,1,0,0,0,0,1.45l2.68,2.52a1.13,1.13,0,0,0,1.54,0l1.65-1.56a.94.94,0,0,1,1-.18l.71.27a.86.86,0,0,1,.57.79v2.21a1.06,1.06,0,0,0,1.09,1h3.79a1.06,1.06,0,0,0,1.09-1V302a.87.87,0,0,1,.61-.8l.64-.25a.93.93,0,0,1,1,.16l1.65,1.54a1.14,1.14,0,0,0,1.54,0l2.67-2.53a1,1,0,0,0,0-1.45l-1.66-1.56a.81.81,0,0,1-.19-.93C195.25,295.61,195.49,295,195.51,294.94Zm-15.08-3.72a5.41,5.41,0,0,1,7.22-3.8,5.05,5.05,0,0,1,3.34,5.63,5.4,5.4,0,0,1-7.21,3.8A5.06,5.06,0,0,1,180.43,291.22Z" transform="translate(-46.94 -100.14)"/><rect class="cls-7" x="606.9" y="344.35" width="34.27" height="139.77" transform="translate(162.86 938.13) rotate(-90)"/><rect class="cls-8" x="566.99" y="404.09" width="34.27" height="20.3" transform="translate(122.96 898.22) rotate(-90)"/><rect class="cls-8" x="584.67" y="410.56" width="34.27" height="7.35" transform="translate(140.64 915.9) rotate(-90)"/><path class="cls-9" d="M527.87,180.67h99.86a16.45,16.45,0,0,1,16.45,16.45v0a16.45,16.45,0,0,1-16.45,16.45H527.87a0,0,0,0,1,0,0v-32.9A0,0,0,0,1,527.87,180.67Z"/><path class="cls-3" d="M674.67,315.48h-104V312h104a14.69,14.69,0,0,0,0-29.37h-104v-3.53h104a18.22,18.22,0,0,1,0,36.43Z" transform="translate(-46.94 -100.14)"/><path class="cls-9" d="M691.2,350.19H554.33V317.3H691.2a16.44,16.44,0,0,1,16.44,16.45h0A16.44,16.44,0,0,1,691.2,350.19Z" transform="translate(-46.94 -100.14)"/><path class="cls-8" d="M691.19,352h-141v-3.53h141a14.69,14.69,0,1,0,0-29.37h-141v-3.53h141a18.22,18.22,0,1,1,0,36.43Z" transform="translate(-46.94 -100.14)"/><path class="cls-2" d="M544.72,352h96.34a22.7,22.7,0,0,1,22.7,22.7v0a22.7,22.7,0,0,1-22.7,22.7H544.72a0,0,0,0,1,0,0V352A0,0,0,0,1,544.72,352Z" transform="translate(1161.55 649.28) rotate(-180)"/><path class="cls-9" d="M578.89,354.22h85.24a20.57,20.57,0,0,1,20.57,20.57v0a20.57,20.57,0,0,1-20.57,20.57H578.89a0,0,0,0,1,0,0V354.22A0,0,0,0,1,578.89,354.22Z" transform="translate(1216.65 649.43) rotate(180)"/><path class="cls-10" d="M599.46,397.56h95.16v-4.41H599.46a18.37,18.37,0,0,1,0-36.73h95.16V352H599.46a22.78,22.78,0,0,0,0,45.55Z" transform="translate(-46.94 -100.14)"/><rect class="cls-3" x="167.15" y="344.35" width="34.27" height="139.77" transform="translate(-276.89 498.38) rotate(-90)"/><rect class="cls-6" x="127.24" y="404.09" width="34.27" height="20.3" transform="translate(-316.8 458.47) rotate(-90)"/><rect class="cls-6" x="212.05" y="404.09" width="34.27" height="20.3" transform="translate(-231.99 543.28) rotate(-90)"/><path class="cls-9" d="M88.12,217.2H188a16.45,16.45,0,0,1,16.45,16.45v0A16.45,16.45,0,0,1,188,250.1H88.12a0,0,0,0,1,0,0V217.2a0,0,0,0,1,0,0Z"/><path class="cls-1" d="M234.92,352H131v-3.52h104a14.69,14.69,0,0,0,0-29.37H131v-3.53h104a18.21,18.21,0,0,1,0,36.42Z" transform="translate(-46.94 -100.14)"/><path class="cls-11" d="M127.67,397H224v-45.4H127.67a22.7,22.7,0,0,0-22.7,22.7h0A22.7,22.7,0,0,0,127.67,397Z" transform="translate(-46.94 -100.14)"/><path class="cls-9" d="M159.71,394.9H245V353.76H159.71a20.57,20.57,0,0,0-20.57,20.57h0A20.57,20.57,0,0,0,159.71,394.9Z" transform="translate(-46.94 -100.14)"/><path class="cls-7" d="M159.71,397.1h95.16v-4.41H159.71a18.37,18.37,0,1,1,0-36.73h95.16v-4.41H159.71a22.78,22.78,0,0,0,0,45.55Z" transform="translate(-46.94 -100.14)"/><polygon class="cls-3" points="137.35 286.25 127.85 280.75 118.35 286.25 118.35 262.12 137.35 262.12 137.35 286.25"/><rect class="cls-8" x="626.02" y="294.21" width="39.55" height="36.73" rx="7.37"/><path class="cls-2" d="M705.21,431.37v-.58a7,7,0,0,0,7-6.89V401.54a7,7,0,0,0-7-6.9H687.69v-.57h17.52a7.54,7.54,0,0,1,7.59,7.47V423.9A7.54,7.54,0,0,1,705.21,431.37Z" transform="translate(-46.94 -100.14)"/><path class="cls-2" d="M677.35,425.65V399.79a5.65,5.65,0,0,1,5.85-5.43h-3a7.23,7.23,0,0,0-7.29,7.18V423.9a7.23,7.23,0,0,0,7.29,7.18h3A5.65,5.65,0,0,1,677.35,425.65Z" transform="translate(-46.94 -100.14)"/><path class="cls-6" d="M703.26,408.55a8.57,8.57,0,0,0-17.14,0,8.42,8.42,0,0,0,3.88,7.06v1h9.38v-1A8.42,8.42,0,0,0,703.26,408.55Z" transform="translate(-46.94 -100.14)"/><rect class="cls-6" x="642.46" y="318.86" width="10.59" height="0.77"/><rect class="cls-6" x="642.46" y="317.57" width="10.59" height="0.77"/><rect class="cls-6" x="642.46" y="320.15" width="10.59" height="0.77"/><path class="cls-6" d="M695.37,425.33h-1.74a1.51,1.51,0,0,1-1.53-1.51h4.8A1.51,1.51,0,0,1,695.37,425.33Z" transform="translate(-46.94 -100.14)"/><rect class="cls-2" x="215.69" y="0.38" width="248.28" height="330.48" rx="9.01"/><rect class="cls-12" x="233.19" y="0.38" width="248.28" height="330.48" rx="9.01"/><path class="cls-2" d="M519.39,431.37H289.14a9.4,9.4,0,0,1-9.38-9.39h.75a8.64,8.64,0,0,0,8.63,8.64H519.39A8.64,8.64,0,0,0,528,422V109.53a8.65,8.65,0,0,0-8.64-8.64H337.64v-.75H519.39a9.4,9.4,0,0,1,9.39,9.39V422A9.4,9.4,0,0,1,519.39,431.37Z" transform="translate(-46.94 -100.14)"/><rect class="cls-1" x="244" y="18.95" width="226.66" height="288"/><rect class="cls-7" x="332.12" y="8.38" width="51.99" height="2"/><rect class="cls-2" x="244" y="116.21" width="226.76" height="4.67"/><rect class="cls-10" x="244" y="103.54" width="226.76" height="12.67"/><rect class="cls-2" x="244" y="103.54" width="11.9" height="12.67"/><rect class="cls-2" x="244" y="221.21" width="226.76" height="4.58"/><rect class="cls-10" x="244" y="208.54" width="226.76" height="12.67"/><rect class="cls-2" x="244" y="208.54" width="11.9" height="12.67"/><polygon class="cls-2" points="272.55 43.63 278.01 40.13 278.01 103.49 272.55 103.49 272.55 43.63"/><rect class="cls-6" x="278.01" y="40.13" width="11.95" height="63.36"/><rect class="cls-3" x="278.01" y="48.38" width="11.95" height="9.47"/><rect class="cls-3" x="278.01" y="85.74" width="11.95" height="9.47"/><polygon class="cls-2" points="262 148.99 267.46 145.49 267.46 208.84 262 208.84 262 148.99"/><rect class="cls-3" x="267.46" y="145.49" width="20.18" height="63.36"/><rect class="cls-9" x="267.46" y="153.74" width="20.18" height="23.43"/><polygon class="cls-2" points="416.05 43.63 421.51 40.13 421.51 103.49 416.05 103.49 416.05 43.63"/><rect class="cls-10" x="421.51" y="40.13" width="11.95" height="63.36"/><rect class="cls-3" x="425.6" y="40.13" width="3.77" height="63.36"/><rect class="cls-8" x="289.96" y="40.13" width="20.05" height="63.41"/><rect class="cls-6" x="294.46" y="45.46" width="11.05" height="55.13"/><polygon class="cls-2" points="430.87 148.63 436.33 145.13 436.33 208.49 430.87 208.49 430.87 148.63"/><rect class="cls-9" x="436.33" y="145.13" width="11.95" height="63.36"/><rect class="cls-3" x="436.33" y="153.38" width="11.95" height="9.47"/><rect class="cls-3" x="436.33" y="190.74" width="11.95" height="9.47"/><rect class="cls-10" x="310.01" y="25.54" width="19.12" height="77.97"/><rect class="cls-3" x="316.19" y="28.61" width="6.76" height="6.76"/><rect class="cls-3" x="316.19" y="41.52" width="6.76" height="6.76"/><rect class="cls-3" x="316.19" y="54.44" width="6.76" height="6.76"/><rect class="cls-3" x="316.19" y="67.35" width="6.76" height="6.76"/><rect class="cls-3" x="316.19" y="80.26" width="6.76" height="6.76"/><rect class="cls-3" x="316.19" y="93.17" width="6.76" height="6.76"/><polygon class="cls-2" points="325.1 247.44 330.56 243.94 330.56 307.29 325.1 307.29 325.1 247.44"/><rect class="cls-8" x="330.56" y="243.94" width="11.95" height="63.36"/><rect class="cls-3" x="330.56" y="252.19" width="11.95" height="47.11"/><rect class="cls-9" x="342.51" y="243.88" width="20.05" height="63.41"/><rect class="cls-8" x="347.01" y="249.21" width="11.05" height="55.13"/><rect class="cls-7" x="362.56" y="229.32" width="21.56" height="77.97"/><rect class="cls-13" x="373.33" y="229.32" width="10.78" height="77.97"/><rect class="cls-9" x="287.64" y="135.64" width="17.88" height="72.9"/><rect class="cls-10" x="293.41" y="138.51" width="6.32" height="64.78"/><rect class="cls-8" x="452.21" y="40.11" width="15.55" height="63.41"/><rect class="cls-3" x="452.21" y="58.6" width="15.55" height="22.46"/><polygon class="cls-2" points="414.01 247.41 419.47 243.91 419.47 307.27 414.01 307.27 414.01 247.41"/><rect class="cls-8" x="419.47" y="243.91" width="11.95" height="63.36"/><rect class="cls-6" x="431.42" y="243.88" width="15.55" height="63.41"/><path class="cls-10" d="M489.24,356.31H483a2.7,2.7,0,0,1-2.71-2.7h0A2.71,2.71,0,0,1,483,350.9h6.21a2.7,2.7,0,0,1,2.7,2.71h0A2.7,2.7,0,0,1,489.24,356.31Z" transform="translate(-46.94 -100.14)"/><path class="cls-10" d="M489.24,365.24H483a2.7,2.7,0,0,1-2.71-2.7h0a2.7,2.7,0,0,1,2.71-2.7h6.21a2.7,2.7,0,0,1,2.7,2.7h0A2.7,2.7,0,0,1,489.24,365.24Z" transform="translate(-46.94 -100.14)"/><path class="cls-10" d="M489.24,374.18H483a2.71,2.71,0,0,1-2.71-2.71h0a2.7,2.7,0,0,1,2.71-2.7h6.21a2.7,2.7,0,0,1,2.7,2.7h0A2.7,2.7,0,0,1,489.24,374.18Z" transform="translate(-46.94 -100.14)"/><path class="cls-10" d="M489.24,383.11H483a2.7,2.7,0,0,1-2.71-2.7h0a2.7,2.7,0,0,1,2.71-2.7h6.21a2.7,2.7,0,0,1,2.7,2.7h0A2.7,2.7,0,0,1,489.24,383.11Z" transform="translate(-46.94 -100.14)"/><path class="cls-10" d="M489.24,392H483a2.7,2.7,0,0,1-2.71-2.7h0a2.7,2.7,0,0,1,2.71-2.7h6.21a2.7,2.7,0,0,1,2.7,2.7h0A2.7,2.7,0,0,1,489.24,392Z" transform="translate(-46.94 -100.14)"/><path class="cls-10" d="M489.24,401H483a2.7,2.7,0,0,1-2.71-2.7h0a2.71,2.71,0,0,1,2.71-2.71h6.21a2.7,2.7,0,0,1,2.7,2.71h0A2.7,2.7,0,0,1,489.24,401Z" transform="translate(-46.94 -100.14)"/><rect class="cls-7" x="326.8" y="368.29" width="15.55" height="63.41" transform="translate(-112.36 634.43) rotate(-90)"/><rect class="cls-8" x="308.7" y="395.39" width="15.55" height="9.21" transform="translate(-130.46 616.32) rotate(-90)"/><rect class="cls-8" x="316.72" y="398.33" width="15.55" height="3.33" transform="translate(-122.44 624.34) rotate(-90)"/><rect class="cls-2" x="305.51" y="145.13" width="15.55" height="63.41"/><rect class="cls-4" x="305.51" y="151.48" width="15.55" height="8.46"/><rect class="cls-4" x="305.51" y="161.95" width="15.55" height="2.17"/><rect class="cls-2" x="384.11" y="243.88" width="15.55" height="63.41"/><rect class="cls-6" x="384.11" y="250.23" width="15.55" height="8.46"/><rect class="cls-6" x="384.11" y="260.7" width="15.55" height="2.17"/><rect class="cls-8" x="377.99" y="244.48" width="15.55" height="63.41" transform="translate(-116.31 42.09) rotate(-19.2)"/><rect class="cls-7" x="371.05" y="252.01" width="15.55" height="8.46" transform="translate(-110.13 38.7) rotate(-19.2)"/><rect class="cls-7" x="375.63" y="265.11" width="15.55" height="8.46" transform="translate(-114.19 40.94) rotate(-19.2)"/><rect class="cls-7" x="380.21" y="278.22" width="15.55" height="8.46" transform="translate(-118.24 43.17) rotate(-19.2)"/><rect class="cls-7" x="384.8" y="291.32" width="15.55" height="8.46" transform="translate(-122.3 45.41) rotate(-19.2)"/><path class="cls-9" d="M440.49,202.63H391.82V184h48.67a9.33,9.33,0,0,1,9.33,9.33h0A9.33,9.33,0,0,1,440.49,202.63Z" transform="translate(-46.94 -100.14)"/><path class="cls-7" d="M440.49,203.63H387.32v-2h53.17a8.33,8.33,0,0,0,0-16.66H387.32v-2h53.17a10.33,10.33,0,0,1,0,20.66Z" transform="translate(-46.94 -100.14)"/><polygon class="cls-3" points="365.01 99.43 359.89 96.43 354.76 99.43 354.76 91.02 365.01 91.02 365.01 99.43"/><path class="cls-9" d="M442.7,162.36h-39V149.5h39a6.43,6.43,0,0,1,6.43,6.43h0A6.43,6.43,0,0,1,442.7,162.36Z" transform="translate(-46.94 -100.14)"/><path class="cls-3" d="M442.7,163.05H402.06v-1.38H442.7a5.74,5.74,0,1,0,0-11.48H402.06v-1.38H442.7a7.12,7.12,0,0,1,0,14.24Z" transform="translate(-46.94 -100.14)"/><path class="cls-9" d="M463.48,307.88H414.81V289.22h48.67a9.33,9.33,0,0,1,9.33,9.33h0A9.33,9.33,0,0,1,463.48,307.88Z" transform="translate(-46.94 -100.14)"/><path class="cls-7" d="M463.48,308.88H410.31v-2h53.17a8.33,8.33,0,0,0,0-16.66H410.31v-2h53.17a10.33,10.33,0,0,1,0,20.66Z" transform="translate(-46.94 -100.14)"/><polygon class="cls-3" points="388 204.69 382.87 201.69 377.75 204.69 377.75 196.27 388 196.27 388 204.69"/><path class="cls-14" d="M395.12,183.42h43.7V162.83h-43.7a10.3,10.3,0,0,0-10.3,10.3h0A10.3,10.3,0,0,0,395.12,183.42Z" transform="translate(-46.94 -100.14)"/><path class="cls-9" d="M409.65,182.49h38.67V163.83H409.65a9.33,9.33,0,0,0-9.33,9.33h0A9.33,9.33,0,0,0,409.65,182.49Z" transform="translate(-46.94 -100.14)"/><path class="cls-8" d="M409.65,183.49h43.17v-2H409.65a8.33,8.33,0,1,1,0-16.66h43.17v-2H409.65a10.33,10.33,0,1,0,0,20.66Z" transform="translate(-46.94 -100.14)"/><path class="cls-2" d="M298.59,371.56h44.67a9.33,9.33,0,0,1,9.33,9.33v1.93a9.33,9.33,0,0,1-9.33,9.33H298.59a0,0,0,0,1,0,0V371.56A0,0,0,0,1,298.59,371.56Z" transform="translate(604.25 663.57) rotate(180)"/><path class="cls-9" d="M323.42,391.22h38.67V372.56H323.42a9.33,9.33,0,0,0-9.33,9.33h0A9.33,9.33,0,0,0,323.42,391.22Z" transform="translate(-46.94 -100.14)"/><path class="cls-10" d="M323.42,392.22h43.17v-2H323.42a8.33,8.33,0,1,1,0-16.66h43.17v-2H323.42a10.33,10.33,0,1,0,0,20.66Z" transform="translate(-46.94 -100.14)"/><polygon class="cls-2" points="310.39 98.41 309.64 98.41 309.64 40.51 289.96 40.51 289.96 39.76 310.39 39.76 310.39 98.41"/><rect class="cls-2" x="433.09" y="40.11" width="0.75" height="63.41"/><polygon class="cls-2" points="288.01 205.58 287.26 205.58 287.26 145.86 272.55 145.86 272.55 145.11 288.01 145.11 288.01 205.58"/><rect class="cls-2" x="436.33" y="153.01" width="11.95" height="0.75"/><rect class="cls-2" x="436.33" y="162.48" width="11.95" height="0.75"/><rect class="cls-2" x="436.33" y="190.36" width="11.95" height="0.75"/><rect class="cls-2" x="436.33" y="199.83" width="11.95" height="0.75"/><polygon class="cls-2" points="342.88 304.33 342.13 304.33 342.13 243.51 359.33 243.56 359.33 244.31 342.88 244.26 342.88 304.33"/><rect class="cls-2" x="431.05" y="243.88" width="0.75" height="60.45"/><rect class="cls-15" x="102.38" y="391.56" width="40.08" height="40.08" rx="6.04" transform="translate(197.9 723.05) rotate(180)"/><path class="cls-3" d="M108.26,391.56h28.32a5.88,5.88,0,0,1,5.88,5.88v6.14H102.38v-6.14A5.88,5.88,0,0,1,108.26,391.56Z" transform="translate(-46.94 -100.14)"/><path class="cls-10" d="M133.32,397.21a3,3,0,1,0,3.05-3A3,3,0,0,0,133.32,397.21Z" transform="translate(-46.94 -100.14)"/><path class="cls-2" d="M134.28,397.21a2.09,2.09,0,1,0,2.09-2.08A2.09,2.09,0,0,0,134.28,397.21Z" transform="translate(-46.94 -100.14)"/><path class="cls-10" d="M114.84,397.21a3,3,0,1,0,3-3A3.06,3.06,0,0,0,114.84,397.21Z" transform="translate(-46.94 -100.14)"/><path class="cls-2" d="M115.81,397.21a2.08,2.08,0,1,0,2.08-2.08A2.08,2.08,0,0,0,115.81,397.21Z" transform="translate(-46.94 -100.14)"/><path class="cls-2" d="M118,398h0a1.63,1.63,0,0,0,1.63-1.63v-5.53a5.7,5.7,0,0,0-5-5.75,5.53,5.53,0,0,0-6.07,5.5v1h3.26v-.89a2.35,2.35,0,0,1,2-2.38,2.27,2.27,0,0,1,2.5,2.25v5.78A1.63,1.63,0,0,0,118,398Z" transform="translate(-46.94 -100.14)"/><path class="cls-2" d="M136.46,398h0a1.63,1.63,0,0,0,1.63-1.63v-5.53a5.69,5.69,0,0,0-5-5.75,5.54,5.54,0,0,0-6.08,5.5v1h3.26v-.89a2.35,2.35,0,0,1,2-2.38,2.26,2.26,0,0,1,2.5,2.25v5.78A1.63,1.63,0,0,0,136.46,398Z" transform="translate(-46.94 -100.14)"/><path class="cls-2" d="M108.26,391.56h2.92a5.88,5.88,0,0,0-5.88,5.88v28.31a5.88,5.88,0,0,0,5.88,5.88h-2.92a5.88,5.88,0,0,1-5.88-5.88V397.44A5.88,5.88,0,0,1,108.26,391.56Z" transform="translate(-46.94 -100.14)"/><rect class="cls-16" x="134.7" y="406.46" width="4.09" height="4.09" rx="0.49" transform="translate(226.56 716.86) rotate(180)"/><rect class="cls-16" x="128.12" y="406.46" width="4.09" height="4.09" rx="0.49" transform="translate(213.4 716.86) rotate(180)"/><rect class="cls-16" x="121.54" y="406.46" width="4.09" height="4.09" rx="0.49" transform="translate(200.24 716.86) rotate(180)"/><rect class="cls-16" x="134.7" y="412.37" width="4.09" height="4.09" rx="0.49" transform="translate(226.56 728.69) rotate(-180)"/><rect class="cls-16" x="128.12" y="412.37" width="4.09" height="4.09" rx="0.49" transform="translate(213.4 728.69) rotate(-180)"/><rect class="cls-16" x="121.54" y="412.37" width="4.09" height="4.09" rx="0.49" transform="translate(200.24 728.69) rotate(180)"/><rect class="cls-16" x="114.96" y="412.37" width="4.09" height="4.09" rx="0.49" transform="translate(187.08 728.69) rotate(-180)"/><rect class="cls-16" x="108.38" y="412.37" width="4.09" height="4.09" rx="0.49" transform="translate(173.92 728.69) rotate(-180)"/><rect class="cls-16" x="134.7" y="418.28" width="4.09" height="4.09" rx="0.49" transform="translate(226.56 740.51) rotate(180)"/><rect class="cls-16" x="128.12" y="418.28" width="4.09" height="4.09" rx="0.49" transform="translate(213.4 740.51) rotate(180)"/><rect class="cls-16" x="121.54" y="418.28" width="4.09" height="4.09" rx="0.49" transform="translate(200.24 740.51) rotate(180)"/><rect class="cls-16" x="114.96" y="418.28" width="4.09" height="4.09" rx="0.49" transform="translate(187.08 740.51) rotate(180)"/><rect class="cls-16" x="108.38" y="418.28" width="4.09" height="4.09" rx="0.49" transform="translate(173.92 740.51) rotate(180)"/><rect class="cls-16" x="108.38" y="424.19" width="4.09" height="4.09" rx="0.49" transform="translate(173.92 752.34) rotate(180)"/><rect class="cls-16" x="114.96" y="424.19" width="4.09" height="4.09" rx="0.49" transform="translate(187.08 752.34) rotate(180)"/><rect class="cls-16" x="121.54" y="424.19" width="4.09" height="4.09" rx="0.49" transform="translate(200.24 752.34) rotate(180)"/><path class="cls-2" d="M136.42,432h-28a6.42,6.42,0,0,1-6.41-6.42h.75a5.67,5.67,0,0,0,5.66,5.67h28a5.67,5.67,0,0,0,5.66-5.67v-28a5.67,5.67,0,0,0-5.66-5.66h-14v-.75h14a6.42,6.42,0,0,1,6.41,6.41v28A6.43,6.43,0,0,1,136.42,432Z" transform="translate(-46.94 -100.14)"/><rect class="cls-1" x="37.41" y="307.8" width="25.13" height="23.69" rx="4.59"/><path class="cls-2" d="M87.45,427.13V412.45a4.5,4.5,0,0,1,4.5-4.51h-3.1a4.5,4.5,0,0,0-4.5,4.51v14.68a4.5,4.5,0,0,0,4.5,4.51H92A4.5,4.5,0,0,1,87.45,427.13Z" transform="translate(-46.94 -100.14)"/><path class="cls-2" d="M104.84,431.82v-.37a4.46,4.46,0,0,0,4.45-4.45V412.58a4.45,4.45,0,0,0-4.45-4.45H93.71v-.37h11.13a4.82,4.82,0,0,1,4.82,4.82V427A4.82,4.82,0,0,1,104.84,431.82Z" transform="translate(-46.94 -100.14)"/><path class="cls-6" d="M101.38,422c.25,0,.47-.2.67-.6a3.56,3.56,0,0,0,.28-1.52,4.81,4.81,0,0,0-1.14-3.29,3.85,3.85,0,0,0-3-1.3,4.29,4.29,0,0,0-3.23,1.36,4.59,4.59,0,0,0-1.31,3.28,4.36,4.36,0,0,0,1.23,3.17,4.08,4.08,0,0,0,3,1.27,3.53,3.53,0,0,0,2.51-1l.58,1a4.31,4.31,0,0,1-1.44.79,4.84,4.84,0,0,1-1.65.31A5.38,5.38,0,0,1,94,423.82a5.31,5.31,0,0,1-1.59-3.93,5.7,5.7,0,0,1,5.69-5.7A5.29,5.29,0,0,1,102,415.8a5.48,5.48,0,0,1,1.58,4,4.28,4.28,0,0,1-.64,2.48,2,2,0,0,1-1.69.94,1.58,1.58,0,0,1-1-.33,1.65,1.65,0,0,1-.62-.81,2.39,2.39,0,0,1-2,1,2.81,2.81,0,0,1-2.07-.9,3.14,3.14,0,0,1-.88-2.29,3.51,3.51,0,0,1,.79-2.34,2.61,2.61,0,0,1,2.1-.95,1.87,1.87,0,0,1,.83.19,2,2,0,0,1,.56.37l.18.19v-.58H101v4.49C101,421.73,101.09,422,101.38,422Zm-2.17-2.12a1.81,1.81,0,0,0-.38-1.17,1.18,1.18,0,0,0-1-.47,1.16,1.16,0,0,0-1,.47,1.82,1.82,0,0,0-.36,1.15,2,2,0,0,0,.36,1.19,1.13,1.13,0,0,0,1,.5,1.16,1.16,0,0,0,1-.48A2,2,0,0,0,99.21,419.84Z" transform="translate(-46.94 -100.14)"/><rect class="cls-6" x="148.45" y="191.18" width="25.13" height="23.69" rx="4.59"/><path class="cls-2" d="M198.49,310.51V295.82a4.49,4.49,0,0,1,4.5-4.5h-3.1a4.5,4.5,0,0,0-4.5,4.5v14.69a4.51,4.51,0,0,0,4.5,4.5H203A4.5,4.5,0,0,1,198.49,310.51Z" transform="translate(-46.94 -100.14)"/><path class="cls-2" d="M215.88,315.2v-.38a4.44,4.44,0,0,0,4.45-4.44V296a4.45,4.45,0,0,0-4.45-4.45H204.75v-.37h11.13A4.82,4.82,0,0,1,220.7,296v14.43A4.83,4.83,0,0,1,215.88,315.2Z" transform="translate(-46.94 -100.14)"/><polygon class="cls-7" points="162.2 206.17 159.5 203.47 161.04 201.93 162.2 203.09 165.41 199.87 166.95 201.42 162.2 206.17"/></g><g id="Man"><rect class="cls-16" x="272.82" y="399.37" width="9.9" height="16.19" transform="translate(723.89 298.07) rotate(123.21)"/><path class="cls-8" d="M283.92,404.05l6.21,4.32-14.79,22.48h-7.17v-1a3.2,3.2,0,0,1,3.11-3.2h0l2-2L274,413l.61-.78,3.1.21a3.56,3.56,0,0,0,3.08-1.37l1.89-2.42a3.61,3.61,0,0,0,.45-3.65h0Z" transform="translate(-46.94 -100.14)"/><path class="cls-8" d="M287.94,406.47l-14.67,22.31h-4.89a3.18,3.18,0,0,0-.21,1.12v1h7.17l14.79-22.48Z" transform="translate(-46.94 -100.14)"/><rect class="cls-16" x="254.47" y="411.76" width="8.41" height="12.85" transform="translate(470.41 736.23) rotate(180)"/><rect class="cls-8" x="250.13" y="428.34" width="16.42" height="3.03" transform="translate(469.75 759.57) rotate(180)"/><path class="cls-8" d="M258.68,420.89h0a7.09,7.09,0,0,1,7.09,7.09v.36H251.58V428A7.09,7.09,0,0,1,258.68,420.89Z" transform="translate(-46.94 -100.14)"/><polygon class="cls-10" points="195.43 217.44 205.33 315.9 216.65 315.9 221.23 217.44 195.43 217.44"/><polygon class="cls-10" points="182.25 217.44 180.04 276.48 225.55 309.78 231.97 302.44 200.21 265 208.34 217.44 182.25 217.44"/><path class="cls-8" d="M268.17,317.58l-2.12-22.05,3.47-33.21a7.88,7.88,0,0,0-7.88-8.07H245a9.83,9.83,0,0,0-9.76,8.73l-6.06,54.6Z" transform="translate(-46.94 -100.14)"/><polygon class="cls-16" points="178.41 177.21 181.74 200.05 189.41 191.71 188.25 182.47 178.41 177.21"/><path class="cls-16" d="M259.81,254.25l-7.55-10.42-6.31.46-2.43,10S249.5,269.21,259.81,254.25Z" transform="translate(-46.94 -100.14)"/><path class="cls-16" d="M256.27,249.51l-7.59,3.27c-4.05,2-5.85.66-8.92-2.67L237,247.48c-1-.9-1.1-2.07-1.41-3.34l0-.19-1.07-1.06-.33-.71a6.86,6.86,0,0,1,3.26-9.15l1.36-.64a9,9,0,0,1,12.07,4.53Z" transform="translate(-46.94 -100.14)"/><polygon class="cls-9" points="185.17 154.54 190.4 166.28 177.33 172.08 173.08 167.03 185.17 154.54"/><polygon class="cls-9" points="183.23 153.44 188.66 164.99 175.39 170.98 174.78 161.73 183.23 153.44"/><polygon class="cls-9" points="181.2 152.7 188.35 164.74 173.36 170.24 179.23 155.72 181.2 152.7"/><polygon class="cls-6" points="173.08 167.03 185.17 154.54 184.64 154.24 172.42 166.65 173.08 167.03"/><polygon class="cls-6" points="173.15 166.88 183.33 153.42 182.75 153.23 172.42 166.65 173.15 166.88"/><polygon class="cls-6" points="173.18 166.73 181.3 152.7 180.69 152.64 172.42 166.65 173.18 166.73"/><path class="cls-3" d="M243.61,256.73l11.21,24.51a1.83,1.83,0,0,1-.89,2.42L233.87,293l-14.18-26,21.88-11A1.51,1.51,0,0,1,243.61,256.73Z" transform="translate(-46.94 -100.14)"/><polygon class="cls-17" points="172.75 166.84 180.21 152.7 179.23 152.7 171.52 166.84 172.75 166.84"/><polygon class="cls-17" points="171.52 166.84 185.58 192.86 186.94 192.86 172.75 166.84 171.52 166.84"/><path class="cls-16" d="M269.73,261.75l7,32.17L254,289.43l-4.94.93-6.94-2.11a3.63,3.63,0,0,1-2.2-1.84h0a5,5,0,0,1,1.43-6.31l.56-.43a5.15,5.15,0,0,1,5.69-.35l3.67,1.27.87-.4-.57-1.13-3.06-1.86,2.06-.93,3.32,2,1.66,3,.84,2.54,9-.15-7.92-17.88a6.52,6.52,0,0,1,3.16-8.53h0A6.51,6.51,0,0,1,269.73,261.75Z" transform="translate(-46.94 -100.14)"/><path class="cls-8" d="M272.78,275.81l-3.11-14.34a6.62,6.62,0,0,0-9.33-4.59h0a6.63,6.63,0,0,0-3.22,8.68l4.83,10.9Z" transform="translate(-46.94 -100.14)"/><path class="cls-18" d="M256.23,230.5a1.14,1.14,0,0,0-.56-.78,1.41,1.41,0,0,0-1,.15c-2.84,1-4.92-1.07-5.67-3.62-.29-1-.52-2.21-1.49-2.56s-1.79.33-2.43,1a4.18,4.18,0,0,1-2.19,1.64c-1.92.3-3.32-2.48-5.22-2.11a2.7,2.7,0,0,0-1.79,1.79c-.33.82-.46,1.71-.84,2.5a2.34,2.34,0,0,1-2,1.51A3.2,3.2,0,0,1,231,228.8l-1.53-1.56a2.23,2.23,0,0,0-1.31-.82c-.83-.07-1.44.77-1.74,1.55a7.78,7.78,0,0,0-.48,3.54,15.49,15.49,0,0,0,1,3.83c.62,1.72.92,3.8,2.79,4.59a3.79,3.79,0,0,0,1.64.25c1.77-.08,3.4-.93,5.11-1.38s3.79-.38,4.91,1a6,6,0,0,1,.75,1.36,14.79,14.79,0,0,0,1.45,3.27c.35.43,1.22,1,1.55,0,.18-.54-.83-1.66-1-2.22-.23-.91-.24-2.31.68-2.86a1.85,1.85,0,0,1,2.34.8,6.52,6.52,0,0,1,.67,2.85,3,3,0,0,0,.74,1.63c.09.12.2.24.32.37.59.66,6.3,5.1,6.73,3.14a1.7,1.7,0,0,0,0-.39C254.86,242,258,236,256.23,230.5Z" transform="translate(-46.94 -100.14)"/><polygon class="cls-2" points="204.93 315.94 195.25 219.65 196.04 219.57 205.72 315.86 204.93 315.94"/><path class="cls-2" d="M266.56,331.64H259.1a6.56,6.56,0,0,1-6.56-6.56v-3.5h.8v3.5a5.76,5.76,0,0,0,5.76,5.76h7.46Z" transform="translate(-46.94 -100.14)"/><rect class="cls-2" x="182.25" y="217.04" width="38.98" height="0.8"/><path class="cls-2" d="M229.24,331.64l-.06-.8a3.84,3.84,0,0,0,3.88-3.81v-5.45h.79V327A4.62,4.62,0,0,1,229.24,331.64Z" transform="translate(-46.94 -100.14)"/><polygon class="cls-2" points="214.76 176.74 211.24 168.8 211.97 168.47 215.26 175.91 225.82 175.27 225.87 176.07 214.76 176.74"/><path class="cls-19" d="M251.16,248.65l-7.42,4.73-.22.87a14,14,0,0,0,4.25,5.59Z" transform="translate(-46.94 -100.14)"/><path class="cls-2" d="M240.67,249.92c1.29-.09,1.66-1.63,2-2.66.11-.33-.41-.47-.51-.14-.23.73-.53,2.2-1.47,2.27-.34,0-.34.56,0,.53Z" transform="translate(-46.94 -100.14)"/><path class="cls-2" d="M239.05,242.61a1.38,1.38,0,0,0,.17.59c.16.31.62,0,.46-.26l-.1-.33c0-.34-.56-.34-.53,0Z" transform="translate(-46.94 -100.14)"/><path class="cls-2" d="M236.08,244.18l0,0c.11.32.62.18.51-.14a.52.52,0,0,0-.39-.39c-.32-.11-.46.4-.14.51Z" transform="translate(-46.94 -100.14)"/><path class="cls-2" d="M236.25,246.77a2.11,2.11,0,0,1-.83-.18,2.83,2.83,0,0,1-1.34-1.25,2.09,2.09,0,1,1,3.58-2,2.83,2.83,0,0,1,.35,1.8,1.86,1.86,0,0,1-.92,1.39A1.67,1.67,0,0,1,236.25,246.77Zm-.75-4a.92.92,0,0,0-.46.11,1.55,1.55,0,0,0-.26,2.12,2.08,2.08,0,0,0,1,.9,1.07,1.07,0,0,0,1,0,1.09,1.09,0,0,0,.51-.82,2,2,0,0,0-.26-1.29A1.8,1.8,0,0,0,235.5,242.73Z" transform="translate(-46.94 -100.14)"/><path class="cls-2" d="M240.32,245a2.61,2.61,0,0,1-2.17-1.42,2.09,2.09,0,1,1,3.58-2h0a2.32,2.32,0,0,1-.57,3.2A1.74,1.74,0,0,1,240.32,245Zm-.74-4a.94.94,0,0,0-.47.12,1.81,1.81,0,1,0,1.93.9A1.8,1.8,0,0,0,239.58,241Z" transform="translate(-46.94 -100.14)"/><rect class="cls-2" x="240.97" y="240.07" width="5.67" height="0.8" transform="translate(-116.48 2.2) rotate(-20.82)"/><rect class="cls-2" x="237.11" y="242.67" width="1.38" height="0.8" transform="translate(-113.3 -9.1) rotate(-19.07)"/></g><g id="woman"><path class="cls-16" d="M504.73,224.8l9.42,24.77L532,263.34a5.64,5.64,0,1,1-7.47,8.4l-17.62-19-7.82-28h3.8c.59-.25.52-4.44,1-6.08a3.35,3.35,0,0,1,1,0Z" transform="translate(-46.94 -100.14)"/><path class="cls-3" d="M514.15,249.57,532,263.34a5.64,5.64,0,1,1-7.47,8.4l-17.62-19Z" transform="translate(-46.94 -100.14)"/><polygon class="cls-2" points="434.27 60.84 441.72 56.84 441.72 124.66 434.27 124.66 434.27 60.84"/><rect class="cls-7" x="441.72" y="56.84" width="14.47" height="67.83"/><path class="cls-6" d="M500.19,168.12a4.31,4.31,0,1,1-4.3-4.3A4.3,4.3,0,0,1,500.19,168.12Z" transform="translate(-46.94 -100.14)"/><path class="cls-6" d="M499.61,211.79a4.31,4.31,0,1,1-4.3-4.3A4.3,4.3,0,0,1,499.61,211.79Z" transform="translate(-46.94 -100.14)"/><polygon class="cls-16" points="484.35 241.4 481.85 276.9 481.85 322.9 482.35 327.06 475.35 326.4 476.85 322.9 468.85 275.4 466.35 241.4 484.35 241.4"/><polygon class="cls-16" points="489.6 251.15 488.1 276.15 499.6 319.65 501.6 322.9 495.85 324.9 494.85 321.65 475.35 277.9 475.35 251.15 489.6 251.15"/><path class="cls-2" d="M528.78,423l1.92,3.17v3.58a1.59,1.59,0,0,1-1.59,1.58h-20v-2.09a1.92,1.92,0,0,1,1.45-1.86l8.89-2.3,4.33-2.08S525.61,427.29,528.78,423Z" transform="translate(-46.94 -100.14)"/><path class="cls-2" d="M541.78,421.79l-1.58,2.83-3.67,2.92H533.7a1.34,1.34,0,0,0-1.34,1.33v2.5H543l7.5-5.18a1.63,1.63,0,0,0,.61-2.28l-1.86-3-2.75-1.08S546.86,425.29,541.78,421.79Z" transform="translate(-46.94 -100.14)"/><path class="cls-2" d="M513.78,303.54l-3.5,59h31.5V328.79a56.59,56.59,0,0,0-3.26-18.94l-2.24-6.31Z" transform="translate(-46.94 -100.14)"/><path class="cls-3" d="M513.78,303.54V284l-3.5-12-14.5-16.25,6.13-6.13L517.28,263l13.74.54a5.48,5.48,0,0,1,5.26,5.48v34.48Z" transform="translate(-46.94 -100.14)"/><path class="cls-16" d="M501.91,249.66,488.65,228v-1.63l3-3-.27-3.42-1-.25-.35,2.75-1.31,1.38V221.2l-2.3-3.72a1.91,1.91,0,0,0-2.53-.67l-3,1.65a1.72,1.72,0,0,0-.89,1.5v2.49l2.25,5.25L484.9,230l10.88,25.84Z" transform="translate(-46.94 -100.14)"/><path class="cls-16" d="M521.78,259h4.13a2.88,2.88,0,0,0,2.87-2.88V240H518.56a3.43,3.43,0,0,0-3.4,3.87h0l-2,6.38,1.5.37v1.25A7.13,7.13,0,0,0,521.78,259Z" transform="translate(-46.94 -100.14)"/><path class="cls-16" d="M525.15,265.54h0a3.63,3.63,0,0,0,3.63-3.63v-5.75h-7.26v5.75A3.64,3.64,0,0,0,525.15,265.54Z" transform="translate(-46.94 -100.14)"/><path class="cls-2" d="M516,245a.32.32,0,0,0,.64,0,.32.32,0,1,0-.64,0Z" transform="translate(-46.94 -100.14)"/><path class="cls-2" d="M518.24,253.46a1.78,1.78,0,0,0,.43-.23,1.63,1.63,0,0,0,.64-1.18.19.19,0,0,0-.37,0,1.3,1.3,0,0,1-.49.91,1.28,1.28,0,0,1-1,.23.19.19,0,0,0-.21.15.18.18,0,0,0,.14.22A1.76,1.76,0,0,0,518.24,253.46Z" transform="translate(-46.94 -100.14)"/><path class="cls-20" d="M519,249.82a2,2,0,1,0,2-2A2,2,0,0,0,519,249.82Z" transform="translate(-46.94 -100.14)"/><path class="cls-2" d="M520.77,228.53c1.32.82,3.17,2.54,4.63,2.3.51-.08,1.19-.87,1.87-1a5.41,5.41,0,0,1,2.43.17,8.65,8.65,0,0,1,6.11,8.62,2.12,2.12,0,0,1,2.54-.4,6,6,0,0,1,2,1.87,12.61,12.61,0,0,1,2.44,4.06,4.81,4.81,0,0,1,0,3.07c-.21.53-1.06,1.12-1.17,1.58-.37,1.54,1,2.43,1.56,3.74A9.82,9.82,0,0,1,538,265.32c-3.38,1.46-7.08.06-10.41-.81-2.51-.65-5-1.09-7.42-.36a6.61,6.61,0,0,0,1.94-4.57,27.05,27.05,0,0,0-.43-5.07,51.3,51.3,0,0,1-.31-10.51,5.48,5.48,0,0,1-5.21-.95,8.31,8.31,0,0,1-2.8-4.67C512.34,234.05,515.12,225,520.77,228.53Z" transform="translate(-46.94 -100.14)"/><path class="cls-21" d="M523.5,285a1.75,1.75,0,1,1-1.75-1.76A1.75,1.75,0,0,1,523.5,285Z" transform="translate(-46.94 -100.14)"/><path class="cls-21" d="M530.82,293.45a1.76,1.76,0,1,1-1.75-1.75A1.76,1.76,0,0,1,530.82,293.45Z" transform="translate(-46.94 -100.14)"/><path class="cls-21" d="M526.63,276.6a1.75,1.75,0,1,1,1.75,1.75A1.75,1.75,0,0,1,526.63,276.6Z" transform="translate(-46.94 -100.14)"/><path class="cls-21" d="M519.31,268.09a1.76,1.76,0,1,1,1.75,1.76A1.76,1.76,0,0,1,519.31,268.09Z" transform="translate(-46.94 -100.14)"/><path class="cls-21" d="M533.26,269.85a1.76,1.76,0,1,1,1.75-1.76A1.75,1.75,0,0,1,533.26,269.85Z" transform="translate(-46.94 -100.14)"/><path class="cls-21" d="M516.87,295.21a1.76,1.76,0,1,1,1.75-1.76A1.75,1.75,0,0,1,516.87,295.21Z" transform="translate(-46.94 -100.14)"/><path class="cls-21" d="M532.88,301.8a1.75,1.75,0,0,1,3.4-.57v1.15a1.75,1.75,0,0,1-1.51,1.16h-.27A1.75,1.75,0,0,1,532.88,301.8Z" transform="translate(-46.94 -100.14)"/><path class="cls-21" d="M507.12,268.09a1.75,1.75,0,1,1,1.75,1.76,1.8,1.8,0,0,1-.66-.13l-1-1.14A2,2,0,0,1,507.12,268.09Z" transform="translate(-46.94 -100.14)"/><path class="cls-21" d="M535.7,285a1.76,1.76,0,1,1-1.75-1.76A1.75,1.75,0,0,1,535.7,285Z" transform="translate(-46.94 -100.14)"/><path class="cls-21" d="M500.64,260.85a1.76,1.76,0,1,1,1.75,1.75,1.73,1.73,0,0,1-.64-.12l-1-1.17A1.7,1.7,0,0,1,500.64,260.85Z" transform="translate(-46.94 -100.14)"/><path class="cls-21" d="M507.49,256.47a1.75,1.75,0,0,1-1.22-3l2.63,2.29A1.76,1.76,0,0,1,507.49,256.47Z" transform="translate(-46.94 -100.14)"/><path class="cls-21" d="M512.84,260.85a1.71,1.71,0,0,1,.51-1.23l2.63,2.29a1.75,1.75,0,0,1-3.14-1.06Z" transform="translate(-46.94 -100.14)"/><path class="cls-21" d="M520.69,301.8a1.75,1.75,0,1,1,1.89,1.74h-.28A1.75,1.75,0,0,1,520.69,301.8Z" transform="translate(-46.94 -100.14)"/><path class="cls-21" d="M516.18,274.85a1.75,1.75,0,1,1-1.75,1.75A1.75,1.75,0,0,1,516.18,274.85Z" transform="translate(-46.94 -100.14)"/><polygon class="cls-2" points="481.47 322.9 482.22 322.9 482.22 276.9 483.24 262.42 482.49 262.37 481.47 276.87 481.47 322.9"/><rect class="cls-2" x="463.34" y="171.52" width="1.69" height="0.75"/><rect class="cls-2" x="468.18" y="203.02" width="21.16" height="0.75"/></g><g id="Man_2" data-name="Man 2"><path class="cls-16" d="M639.32,341.84v-8.43s-6.56-.37-6.56,0-1.78,8.43-1.78,8.43l4.17,6.56Z" transform="translate(-46.94 -100.14)"/><polygon class="cls-16" points="565.59 239.88 563.87 235.29 558.95 235.29 557.31 240.62 559.85 245.54 563.95 244.39 565.59 239.88"/><polygon class="cls-22" points="556.68 237.91 543.56 184.7 562.3 165.4 581.83 173.93 562.7 189.67 566.04 237.91 556.68 237.91"/><polygon class="cls-23" points="569.79 175.34 591.08 187.69 584.22 236.97 593.59 236.97 610.64 182.83 586.65 165.4 569.79 165.4 569.79 175.34"/><path class="cls-2" d="M612.53,340l1.34,10.63a17.19,17.19,0,0,1-.66,7.3l-.07.22a2.77,2.77,0,0,1-2.65,1.94h0a2.8,2.8,0,0,1-2.16-1l-2.27-2.81a10.22,10.22,0,0,1-2.26-7l.45-8.54S607.53,343.63,612.53,340Z" transform="translate(-46.94 -100.14)"/><path class="cls-2" d="M639.32,341.84l1,8.53,5.68,7.07a1.94,1.94,0,0,1,.41,1.18v1.87h0a2.17,2.17,0,0,1-2.58.37c-2.86-1.57-9.16-5.49-11.66-10.77a75.34,75.34,0,0,1-6.17-4.9,1.64,1.64,0,0,1,.24-2.54l4.9-3.24S635.48,348.31,639.32,341.84Z" transform="translate(-46.94 -100.14)"/><path class="cls-10" d="M636.47,215.32H612.16a7.05,7.05,0,0,0-7,7.42l2.43,46.55h33.54l2.42-46.55A7.05,7.05,0,0,0,636.47,215.32Z" transform="translate(-46.94 -100.14)"/><polygon class="cls-16" points="581.83 114.99 577.38 122.3 572.93 114.99 572.93 109.19 581.83 109.19 581.83 114.99"/><path class="cls-16" d="M628.7,212.51h-8.56a7.72,7.72,0,0,1-7.62-6.44l-.35-2.09a7.5,7.5,0,0,1,.81-4.85h0a19.06,19.06,0,0,1-.2-6.26l.2-1.52H628.7Z" transform="translate(-46.94 -100.14)"/><path class="cls-2" d="M608.94,187.94c-1.8,2.39-1.08,4.18,1.18,6.07a16.58,16.58,0,0,0,5.77,3.35,9.26,9.26,0,0,0,6.25-.26c2.19-.9,3.17-1.46,4.14,1.22a2.37,2.37,0,0,1,.17,1.28c-.13.6-.64,1-1,1.54a5.61,5.61,0,0,0-.37,3.74l1,0a2.16,2.16,0,0,1,.24-1.21.75.75,0,0,1,1.07-.24,1,1,0,0,1,.18.28c.5,1.22-.76,2.45-.82,3.77a2,2,0,0,0,3.26,1.9c1.14-.92,1.51-3,1.8-4.31a49.33,49.33,0,0,0,.92-9.32c.07-3.44-.2-6.39-3.6-8.09a16.25,16.25,0,0,0-5.26-1.35c-2.55-.34-5.13-.57-7.71-.69a10.66,10.66,0,0,0-5.38.72A5.74,5.74,0,0,0,608.94,187.94Z" transform="translate(-46.94 -100.14)"/><polygon class="cls-2" points="577.8 132.61 576.96 132.61 576.96 122.18 581.62 114.53 582.88 114.77 582.73 115.6 582.04 115.46 577.8 122.42 577.8 132.61"/><rect class="cls-2" x="639.03" y="287.05" width="0.84" height="3.4" transform="matrix(0.54, -0.84, 0.84, 0.54, 5.54, 572.97)"/><rect class="cls-2" x="606.42" y="290.51" width="3.6" height="0.84" transform="translate(-95.96 341.13) rotate(-38.45)"/><polygon class="cls-4" points="559.28 143.62 559.35 144.88 595.41 144.88 595.48 143.62 559.28 143.62"/><polygon class="cls-4" points="559.47 147.16 559.53 148.43 595.23 148.43 595.29 147.16 559.47 147.16"/><polygon class="cls-4" points="595.04 151.97 595.11 150.7 559.65 150.7 559.72 151.97 595.04 151.97"/><polygon class="cls-4" points="558.91 136.54 558.98 137.8 595.78 137.8 595.85 136.54 558.91 136.54"/><polygon class="cls-4" points="559.1 140.08 559.16 141.34 595.6 141.34 595.66 140.08 559.1 140.08"/><polygon class="cls-16" points="559.23 118.55 544.16 146.43 554.85 168.16 559.53 164.88 555.13 146.33 564.68 132 559.23 118.55"/><polygon class="cls-10" points="559.23 118.55 549.3 136.92 557.35 142.99 565.11 131.96 559.23 118.55"/><polygon class="cls-16" points="595.57 118.55 610.64 146.43 598.99 170.15 595.27 164.88 599.68 146.33 590.12 132 595.57 118.55"/><polygon class="cls-10" points="595.57 118.55 605.5 136.92 597.45 142.99 589.7 131.96 595.57 118.55"/><polygon class="cls-24" points="599.77 151.63 553.58 151.63 554.71 178.23 598.65 178.23 599.77 151.63"/><circle class="cls-9" cx="576.68" cy="164.93" r="3.24"/><polygon class="cls-4" points="604.91 135.82 604.3 134.7 595.98 140.9 596.71 141.94 604.91 135.82"/><polygon class="cls-4" points="593.95 138 594.67 139.04 603.21 132.68 602.6 131.55 593.95 138"/><polygon class="cls-4" points="552.27 131.43 551.66 132.56 560.21 138.93 560.93 137.9 552.27 131.43"/><polygon class="cls-4" points="550.57 134.58 549.96 135.71 558.17 141.83 558.9 140.79 550.57 134.58"/><rect class="cls-2" x="602.43" y="239.12" width="8.77" height="0.84" transform="translate(14.7 497.71) rotate(-54.86)"/><rect class="cls-2" x="641.92" y="236.67" width="0.84" height="7.11" transform="matrix(0.82, -0.58, 0.58, 0.82, -68.21, 313.07)"/><rect class="cls-2" x="575.06" y="123.18" width="1.24" height="1.24"/><rect class="cls-2" x="575.06" y="126.61" width="1.24" height="1.24"/><rect class="cls-2" x="575.06" y="130.04" width="1.24" height="1.24"/><polygon class="cls-19" points="572.93 112.37 578.22 110.31 572.93 114.99 572.93 112.37"/><path class="cls-2" d="M616.79,208.08a2.28,2.28,0,0,0,1.86-.08,3.56,3.56,0,0,0,1.33-1.61.28.28,0,0,0-.49-.28,3.35,3.35,0,0,1-1,1.33,1.78,1.78,0,0,1-1.56.1c-.34-.13-.49.41-.15.54Z" transform="translate(-46.94 -100.14)"/><path class="cls-2" d="M615.41,201l0,.45c0,.36.53.35.56,0l0-.45c0-.36-.53-.36-.56,0Z" transform="translate(-46.94 -100.14)"/><path class="cls-2" d="M619.91,201c0,.15,0,.3,0,.45,0,.36.54.35.57,0l0-.45c0-.36-.53-.36-.56,0Z" transform="translate(-46.94 -100.14)"/><path class="cls-2" d="M613.85,200.33a4,4,0,0,1,2.3-.59c.37,0,.37-.55,0-.56a4.62,4.62,0,0,0-2.59.66c-.31.19,0,.68.29.49Z" transform="translate(-46.94 -100.14)"/><path class="cls-2" d="M619.81,200a3.16,3.16,0,0,1,2.67.31c.29.22.57-.27.29-.49a3.76,3.76,0,0,0-3.11-.37c-.35.08-.21.62.15.55Z" transform="translate(-46.94 -100.14)"/><polygon class="cls-19" points="592.38 236.97 592.38 240.68 584.87 237.91 585.08 236.97 592.38 236.97"/><polygon class="cls-19" points="558.14 237.91 557.54 239.88 565.23 238.89 564.86 237.91 558.14 237.91"/></g><g id="line"><line class="cls-25" y1="331.52" x2="716.53" y2="331.52"/></g></svg>