<?xml version="1.0" encoding="utf-8"?>
<!-- Generator: Adobe Illustrator 24.0.3, SVG Export Plug-In . SVG Version: 6.00 Build 0)  -->
<svg version="1.1" id="Layer_1" xmlns="http://www.w3.org/2000/svg" xmlns:xlink="http://www.w3.org/1999/xlink" x="0px" y="0px"
	 viewBox="0 0 792.9 120" style="enable-background:new 0 0 792.9 120;" xml:space="preserve">
<style type="text/css">
	.st0{fill-rule:evenodd;clip-rule:evenodd;fill:#FFFFFF;}
	.st1{fill:#FFFFFF;}
</style>
<title>Logo set (horizontal) - white - large</title>
<desc>Created with Sketch.</desc>
<g id="Brand-_x26_-MD-Theme-Setup">
	<g id="Brand-_x26_-UI-Preview" transform="translate(-248.000000, -702.000000)">
		<g id="Group-3" transform="translate(199.000000, 385.000000)">
			<g id="Logo-set-_x28_horizontal_x29_---white---large" transform="translate(49.000000, 317.000000)">
				<path id="Fill-1" class="st0" d="M21.7,2.7c-4.4,4.2-8.3,8.7-10.4,13.7C9,21.4,8.5,26.7,9.6,32c0.9,5.2,3.3,9.5,7,13.1
					c3.7,3.6,8.6,6.6,13.9,9.8c5.2,3.2,10.9,6.8,15.7,12.1c4.8,5.3,7.6,12.6,8,19.5c0.4,6.8-1.2,14-4.9,19.7
					c-3.6,5.8-8.8,10-14.2,13.2c-0.7,0.4-1.7,0.2-2.2-0.5c-0.4-0.7-0.2-1.5,0.3-2c4.6-3.9,8.5-8.4,10.8-13.5c2.3-5.1,2.9-10.6,2-16
					c-0.9-5.4-3.3-9.9-7.2-13.4c-3.8-3.6-8.7-6.5-14-9.6c-5.3-3.1-11.1-6.4-16-11.6c-2.4-2.6-4.6-5.7-6.1-9.1
					c-1.5-3.4-2.3-7-2.6-10.5c-0.5-7,1.2-14.4,5.1-20.1C9,7.2,14.3,3.1,19.9,0.2c0.8-0.4,1.7-0.1,2.1,0.6
					C22.3,1.4,22.2,2.2,21.7,2.7"/>
				<path id="Fill-2" class="st0" d="M34.2,0.1c4,1.9,7.8,4.5,11,7.9c1.6,1.7,3.1,3.7,4.4,5.9c1.3,2.2,2.2,4.6,3,7.1
					c0.6,2.5,1,5.2,1,7.8c-0.1,2.6-0.7,15.3-7.7,21.4c-1.7,1.3-4.5,0.8-5.7-1c-0.9-1.4-0.9-3.1-0.2-4.5l0.1-0.2
					c1.9-3.5,9.7-17.3,0.8-32.5c-2.2-3.4-5.1-6.6-8.1-9.7l0,0c-0.5-0.5-0.6-1.4-0.1-2C33.1,0,33.7-0.1,34.2,0.1"/>
				<path id="Fill-3" class="st0" d="M20.1,119.5c-4-1.9-7.8-4.5-11-7.9c-1.6-1.7-3.1-3.7-4.4-5.9c-1.3-2.2-2.2-4.6-3-7.1
					c-0.6-2.5-1-5.2-1-7.8c0.1-2.6,0.7-15.3,7.7-21.4c1.7-1.3,4.5-0.8,5.7,1c0.9,1.4,0.9,3.1,0.2,4.5L14.1,75
					c-1.9,3.5-9.7,17.3-0.8,32.5c2.2,3.4,5.1,6.6,8.1,9.7l0,0c0.5,0.5,0.6,1.4,0.1,2C21.2,119.6,20.6,119.7,20.1,119.5"/>
				<path id="Fill-4" class="st0" d="M84.9,68.4c-0.9,0-4.6,0-5.5,0c0,6.4,5.9,12.4,14.3,12.4c8,0,12.9-4.8,13.6-10.7
					c0.8-6.5-3.3-10.8-10.9-12.8L91,56c-5.1-1.2-5.8-3.9-5.8-5.7c0-3.7,3.7-6.2,7.6-6.2c4.4,0,7.7,2.6,7.7,6.7c0.9,0,4.6,0,5.5,0
					c0-7.3-5.7-12-13.1-12c-6.9,0-13.2,4.6-13.2,11.5c0,3.6,1.3,8.5,9.9,10.7l5.3,1.3c3.7,0.8,7.3,2.9,6.9,7.3c-0.5,3.1-3,6-8.2,6
					C88.5,75.6,84.9,71.9,84.9,68.4"/>
				<path id="Fill-5" class="st0" d="M114.1,42.3c0,2,1.7,3.5,3.7,3.5c2.1,0,3.7-1.5,3.7-3.5c0-2-1.7-3.5-3.7-3.5
					C115.9,38.8,114.1,40.3,114.1,42.3z M115.2,80.1h5.3V52.5h-5.3V80.1z"/>
				<path id="Fill-6" class="st0" d="M135.1,65.2c0-5.9,3.9-8,7.8-8c3.8,0,6.1,2.7,6.1,7.3v15.6c0.8,0,4.5,0,5.4,0v-16
					c0-7.8-3.8-12.3-10.7-12.3c-3,0-7,1.4-8.6,4.7v-4.1h-5.4v27.6h5.4V65.2"/>
				<path id="Fill-7" class="st0" d="M185.1,66.4c0,5.9-4.7,9.1-9.2,9.1c-5,0-9-3.5-9-9.1c0-5.4,4-9.2,9-9.2
					C180.9,57.2,185.1,60.4,185.1,66.4z M167.4,84.1c-0.7,0.4-3.8,2.1-4.5,2.4c2.7,4.9,7.4,7.5,12.5,7.5c9.1,0,15.1-5,15.1-18V52.5
					h-5.3v4.3c-1.8-3.2-5.9-4.9-9.7-4.9c-7.6,0-14,5.7-14,14.5c0,8.8,6.5,14.3,14,14.3c3.8,0,8-1.8,9.7-5.1c0,0.2,0.1,0.4,0.1,0.6
					c0,9.2-3.8,12.5-9.8,12.5C172.4,88.8,169.1,87.2,167.4,84.1L167.4,84.1z"/>
				<path id="Fill-8" class="st0" d="M218.6,67.4c0,5.9-3.9,8.1-7.8,8.1c-3.8,0-6-2.7-6-7.3V52.5h-5.4v16
					c-0.1,7.8,3.7,12.3,10.7,12.3c3,0,6.9-1.4,8.6-4.7v4.1h5.4V52.5h-5.4V67.4"/>
				<polygon id="Fill-9" class="st0" points="233.1,80.1 238.5,80.1 238.5,37.5 233.1,37.5 				"/>
				<path id="Fill-10" class="st0" d="M269.7,66.2c0,5.9-4.3,9.2-9.2,9.2c-5,0-9-3.8-9-9.2c0-5.5,4-9.1,9-9.1
					C265,57.2,269.7,60.3,269.7,66.2z M269.8,80.1h5.3V52.5h-5.3v4.1c-1.8-3.1-5.9-4.7-9.7-4.7c-7.6,0-14,5.6-14,14.4
					c0,8.8,6.5,14.4,14,14.4c3.8,0,7.9-1.7,9.7-4.9V80.1L269.8,80.1z"/>
				<path id="Fill-11" class="st0" d="M289.6,70.1c0-7.3,2.2-13,7.6-13c1.1,0,2.6,0.2,4.1,0.9l0.8-5c-0.8-0.5-2.8-1.1-4.8-1.1
					c-3.6,0-6.3,2-7.7,6.8v-6.2h-5.4v27.6h5.4V70.1"/>
				<path id="Fill-12" class="st0" d="M306.9,42.3c0,2,1.7,3.5,3.7,3.5c2.1,0,3.7-1.5,3.7-3.5c0-2-1.7-3.5-3.7-3.5
					C308.6,38.8,306.9,40.3,306.9,42.3z M308,80.1h5.3V52.5H308V80.1z"/>
				<polyline id="Fill-13" class="st0" points="329.7,52.5 329.7,42.1 324.3,42.1 324.3,52.5 319.4,52.5 319.4,57.1 324.3,57.1 
					324.3,80.1 329.7,80.1 329.7,57.1 335.6,57.1 335.6,52.5 329.7,52.5 				"/>
				<polyline id="Fill-14" class="st0" points="351,93.6 368.1,52.5 362.4,52.5 354.1,72.5 345.8,52.5 340.1,52.5 351.1,79.3 
					345.3,93.6 351,93.6 				"/>
				<polyline id="Fill-15" class="st0" points="403.9,80.1 403.9,39.4 398.4,39.4 398.4,69.8 380,39.4 374.6,39.4 374.6,80.1 
					380.1,80.1 380.1,49.4 398.7,80.1 403.9,80.1 				"/>
				<polyline id="Fill-16" class="st0" points="415.4,39.4 415.4,80.1 440.2,80.1 440.2,75 420.9,75 420.9,62.7 437.2,62.7 
					437.2,57.5 420.9,57.5 420.9,44.5 439.6,44.5 439.6,39.4 415.4,39.4 				"/>
				<polyline id="Fill-17" class="st0" points="445.6,39.4 445.6,44.6 457.9,44.6 457.9,80.1 463.5,80.1 463.5,44.6 475.9,44.6 
					475.9,39.4 445.6,39.4 				"/>
			</g>
		</g>
	</g>
	<g>
		<path class="st1" d="M510.1,39.1h13.4c6.6,0,11.7,1.8,15.3,5.4c3.6,3.6,5.4,8.7,5.4,15.4s-1.8,11.8-5.4,15.4
			c-3.6,3.6-8.7,5.4-15.3,5.4h-13.4V39.1z M523.3,77.5c5.6,0,9.9-1.5,12.7-4.5c2.8-3,4.3-7.4,4.3-13.2c0-11.7-5.7-17.6-17-17.6h-9.6
			v35.3H523.3z"/>
		<path class="st1" d="M553.1,65.6v0.2c0,3.9,0.9,6.9,2.7,9c1.8,2.1,4.4,3.1,7.9,3.1c3.5,0,6.7-1.2,9.6-3.6l1.4,2.8
			c-1.3,1.2-2.9,2.2-4.9,2.9c-2,0.7-4,1.1-6.1,1.1c-4.4,0-7.9-1.3-10.5-4c-2.6-2.7-3.9-6.4-3.9-11.1c0-3,0.6-5.7,1.7-8
			c1.1-2.3,2.8-4.1,4.8-5.4c2.1-1.3,4.4-1.9,7.1-1.9c3.9,0,6.9,1.2,9,3.7c2.2,2.5,3.2,6,3.2,10.4v0.8H553.1z M556.5,56.1
			c-1.7,1.6-2.7,3.9-3.2,6.8h18.6c-0.2-3-1.1-5.3-2.6-6.9c-1.5-1.6-3.6-2.4-6.2-2.4C560.4,53.6,558.2,54.5,556.5,56.1z"/>
		<path class="st1" d="M602.4,51.4h3.6l-12.6,29.3h-3.7l-12.4-29.3h3.8l10.6,25.7L602.4,51.4z"/>
		<path class="st1" d="M612,65.6v0.2c0,3.9,0.9,6.9,2.7,9c1.8,2.1,4.4,3.1,7.9,3.1c3.5,0,6.7-1.2,9.6-3.6l1.4,2.8
			c-1.3,1.2-2.9,2.2-4.9,2.9c-2,0.7-4,1.1-6.1,1.1c-4.4,0-7.9-1.3-10.5-4c-2.6-2.7-3.9-6.4-3.9-11.1c0-3,0.6-5.7,1.7-8
			c1.1-2.3,2.8-4.1,4.8-5.4c2.1-1.3,4.4-1.9,7.1-1.9c3.9,0,6.9,1.2,9,3.7c2.2,2.5,3.2,6,3.2,10.4v0.8H612z M615.4,56.1
			c-1.7,1.6-2.7,3.9-3.2,6.8h18.6c-0.2-3-1.1-5.3-2.6-6.9c-1.5-1.6-3.6-2.4-6.2-2.4C619.2,53.6,617,54.5,615.4,56.1z"/>
		<path class="st1" d="M640.3,80.7v-43h3.5v43H640.3z"/>
		<path class="st1" d="M656.7,79.2c-2-1.2-3.6-3-4.7-5.3c-1.1-2.3-1.7-5-1.7-8s0.6-5.7,1.7-8c1.1-2.3,2.7-4.1,4.7-5.3
			c2-1.2,4.4-1.9,7.1-1.9c2.6,0,5,0.6,7,1.9c2,1.2,3.6,3,4.7,5.3c1.1,2.3,1.7,5,1.7,8s-0.6,5.7-1.7,8c-1.1,2.3-2.7,4.1-4.7,5.3
			c-2,1.2-4.4,1.9-7,1.9C661.1,81.1,658.8,80.5,656.7,79.2z M671,74.8c1.7-2.1,2.5-5.1,2.5-8.9c0-3.8-0.9-6.8-2.6-8.9
			c-1.7-2.1-4.1-3.2-7.1-3.2c-3.1,0-5.5,1.1-7.2,3.2c-1.7,2.1-2.6,5.1-2.6,8.9c0,3.9,0.8,6.9,2.5,8.9c1.7,2.1,4.1,3.1,7.2,3.1
			C666.9,77.9,669.3,76.9,671,74.8z"/>
		<path class="st1" d="M704,52.6c2,1.3,3.5,3.1,4.6,5.4c1.1,2.3,1.6,5,1.6,8s-0.5,5.7-1.6,7.9c-1.1,2.3-2.6,4-4.6,5.3
			c-2,1.2-4.3,1.9-6.8,1.9c-2.5,0-4.5-0.5-6.3-1.6c-1.7-1.1-3-2.6-3.9-4.6v18.5h-3.5V59.5c0-3-0.2-5.7-0.5-8.1h3.4l0.5,5.7
			c0.9-2.1,2.2-3.6,3.9-4.8c1.8-1.1,3.9-1.7,6.3-1.7C699.8,50.7,702,51.4,704,52.6z M703.9,74.8c1.7-2.1,2.6-5,2.6-8.8
			c0-3.8-0.9-6.8-2.6-9c-1.7-2.2-4.1-3.2-7.1-3.2c-3.1,0-5.5,1.1-7.2,3.2c-1.7,2.1-2.5,5.1-2.5,8.9c0,3.8,0.8,6.8,2.5,8.9
			c1.7,2.1,4,3.2,7.1,3.2C699.8,77.9,702.2,76.9,703.9,74.8z"/>
		<path class="st1" d="M718.5,65.6v0.2c0,3.9,0.9,6.9,2.7,9c1.8,2.1,4.4,3.1,7.9,3.1c3.5,0,6.7-1.2,9.6-3.6l1.4,2.8
			c-1.3,1.2-2.9,2.2-4.9,2.9c-2,0.7-4,1.1-6.1,1.1c-4.4,0-7.9-1.3-10.5-4c-2.6-2.7-3.9-6.4-3.9-11.1c0-3,0.6-5.7,1.7-8
			c1.1-2.3,2.8-4.1,4.8-5.4c2.1-1.3,4.4-1.9,7.1-1.9c3.9,0,6.9,1.2,9,3.7c2.2,2.5,3.2,6,3.2,10.4v0.8H718.5z M721.8,56.1
			c-1.7,1.6-2.7,3.9-3.2,6.8h18.6c-0.2-3-1.1-5.3-2.6-6.9c-1.5-1.6-3.6-2.4-6.2-2.4C725.7,53.6,723.5,54.5,721.8,56.1z"/>
		<path class="st1" d="M762,51l-0.2,3.2c-0.7-0.2-1.6-0.2-2.7-0.2c-3,0-5.2,0.9-6.6,2.8c-1.5,1.9-2.2,4.1-2.2,6.7v17.2h-3.5V59.5
			c0-3-0.2-5.7-0.5-8.1h3.4l0.5,5.4c0.7-2,1.9-3.5,3.6-4.6c1.7-1.1,3.5-1.6,5.6-1.6C760.4,50.7,761.3,50.8,762,51z"/>
	</g>
</g>
</svg>
